<svg width="3850" height="1948" xmlns="http://www.w3.org/2000/svg" xmlns:xlink="http://www.w3.org/1999/xlink" xml:space="preserve" overflow="hidden"><g transform="translate(-242 -279)"><g><g><g><g><path d="M2174.5 394.724C2187.48 394.724 2200.15 386.85 2210.18 372.552 2219.04 359.935 2224.32 344.335 2224.32 330.822 2224.32 303.35 2201.97 281 2174.5 281 2147.03 281 2124.68 303.35 2124.68 330.822 2124.68 344.335 2129.97 359.935 2138.82 372.552 2148.85 386.85 2161.53 394.724 2174.5 394.724ZM2174.5 289.124C2197.49 289.124 2216.2 307.83 2216.2 330.822 2216.2 342.551 2211.35 356.752 2203.53 367.886 2195.19 379.778 2184.61 386.6 2174.5 386.6 2164.4 386.6 2153.82 379.778 2145.47 367.886 2137.66 356.752 2132.8 342.551 2132.8 330.822 2132.8 307.83 2151.51 289.124 2174.5 289.124Z" fill="#000000" fill-rule="nonzero" fill-opacity="1"/><path d="M2247.51 417.007C2238.73 403.384 2226.37 392.509 2211.77 385.557 2210.22 384.819 2208.37 385.136 2207.16 386.348 2197.37 396.109 2186.08 401.267 2174.5 401.267 2162.92 401.267 2151.63 396.109 2141.85 386.349 2140.63 385.135 2138.79 384.818 2137.24 385.556 2122.63 392.508 2110.27 403.384 2101.49 417.007 2092.48 431.001 2087.71 447.236 2087.71 463.957L2087.71 464.028C2087.71 465.174 2088.19 466.267 2089.04 467.037 2112.48 488.294 2142.83 500 2174.5 500 2206.17 500 2236.52 488.294 2259.96 467.037 2260.81 466.267 2261.29 465.174 2261.29 464.028L2261.29 463.957C2261.29 447.236 2256.53 431.001 2247.51 417.007ZM2174.5 491.876C2145.46 491.876 2117.6 481.36 2095.85 462.227 2096.17 447.682 2100.46 433.604 2108.32 421.408 2115.78 409.839 2126.08 400.455 2138.23 394.134 2149.09 404.128 2161.57 409.391 2174.5 409.391 2187.42 409.391 2199.91 404.127 2210.77 394.133 2222.92 400.454 2233.23 409.838 2240.68 421.408 2248.54 433.603 2252.83 447.68 2253.15 462.226 2231.4 481.359 2203.54 491.876 2174.5 491.876Z" fill="#000000" fill-rule="nonzero" fill-opacity="1"/></g></g></g><text fill="#000000" fill-opacity="1" font-family="Arial,Arial_MSFontService,sans-serif" font-style="normal" font-variant="normal" font-weight="400" font-stretch="normal" font-size="64" text-anchor="start" direction="ltr" writing-mode="lr-tb" unicode-bidi="normal" text-decoration="none" transform="matrix(1 0 0 1 2112.34 592)">Lars</text><g><g><g><path d="M2174.5 1457.92C2169.46 1457.92 2165.38 1462.01 2165.38 1467.05 2165.38 1472.08 2169.46 1476.17 2174.5 1476.17 2179.54 1476.17 2183.62 1472.08 2183.62 1467.05 2183.61 1462.01 2179.53 1457.94 2174.5 1457.92ZM2174.5 1471.61C2171.98 1471.61 2169.94 1469.56 2169.94 1467.05 2169.94 1464.53 2171.98 1462.48 2174.5 1462.48 2177.02 1462.48 2179.06 1464.53 2179.06 1467.05 2179.06 1469.56 2177.02 1471.61 2174.5 1471.61 2174.5 1471.61 2174.5 1471.61 2174.5 1471.61Z" fill="#000000" fill-rule="nonzero" fill-opacity="1"/><path d="M2245.22 1581.14 2245.22 1574.25 2236.09 1574.25 2236.09 1503.53 2245.22 1503.53 2245.22 1492.13 2256.62 1492.13 2256.62 1487.56 2174.5 1437.38 2092.38 1487.56 2092.38 1492.13 2103.78 1492.13 2103.78 1503.53 2112.91 1503.53 2112.91 1574.25 2103.78 1574.25 2103.78 1581.14 2087.81 1592.55 2087.81 1601.63 2261.19 1601.63 2261.19 1592.55ZM2231.53 1574.25 2226.97 1574.25 2226.97 1503.53 2231.53 1503.53ZM2126.59 1503.53 2140.28 1503.53 2140.28 1574.25 2126.59 1574.25ZM2144.84 1503.53 2149.41 1503.53 2149.41 1574.25 2144.84 1574.25ZM2153.97 1503.53 2167.66 1503.53 2167.66 1574.25 2153.97 1574.25ZM2172.22 1503.53 2176.78 1503.53 2176.78 1574.25 2172.22 1574.25ZM2181.34 1503.53 2195.03 1503.53 2195.03 1574.25 2181.34 1574.25ZM2199.59 1503.53 2204.16 1503.53 2204.16 1574.25 2199.59 1574.25ZM2208.72 1503.53 2222.41 1503.53 2222.41 1574.25 2208.72 1574.25ZM2101.19 1487.52 2174.5 1442.73 2247.81 1487.52C2247.82 1487.52 2247.82 1487.54 2247.82 1487.55 2247.82 1487.55 2247.81 1487.56 2247.81 1487.56L2101.21 1487.56C2101.19 1487.56 2101.18 1487.55 2101.19 1487.53 2101.19 1487.53 2101.19 1487.52 2101.19 1487.52ZM2108.34 1492.13 2240.66 1492.13 2240.66 1498.97 2108.34 1498.97ZM2117.47 1503.53 2122.03 1503.53 2122.03 1574.25 2117.47 1574.25ZM2108.34 1583.49 2108.34 1578.81 2240.66 1578.81 2240.66 1583.49 2242.57 1584.86 2243.69 1585.66 2105.31 1585.66 2106.44 1584.86ZM2256.62 1597.06 2092.38 1597.06 2092.38 1594.9 2098.92 1590.22 2250.09 1590.22 2256.62 1594.9Z" fill="#000000" fill-rule="nonzero" fill-opacity="1"/></g></g></g><text fill="#000000" fill-opacity="1" font-family="Arial,Arial_MSFontService,sans-serif" font-style="normal" font-variant="normal" font-weight="400" font-stretch="normal" font-size="64" text-anchor="start" direction="ltr" writing-mode="lr-tb" unicode-bidi="normal" text-decoration="none" transform="matrix(1 0 0 1 1978.61 1720)">Bank Account</text><path d="M2.29167-2.10687e-06 2.29237 762.178-2.29097 762.178-2.29167 2.10687e-06ZM13.7507 757.595 0.000721785 785.095-13.7493 757.595Z" fill="#000000" fill-rule="nonzero" fill-opacity="1" transform="matrix(-1 0 0 1 2175.5 625.5)"/><text fill="#000000" fill-opacity="1" font-family="Arial,Arial_MSFontService,sans-serif" font-style="normal" font-variant="normal" font-weight="400" font-stretch="normal" font-size="64" text-anchor="start" direction="ltr" writing-mode="lr-tb" unicode-bidi="normal" text-decoration="none" transform="matrix(1 0 0 1 2220.21 1039)">owns</text><g><g><g><path d="M1316.69 635.104 1320.29 653.406 1324.94 653.406 1320.29 629.738 1201.44 653.365C1201.31 653.39 1201.31 653.408 1201.44 653.408L1224.62 653.408Z" fill="#000000" fill-rule="nonzero" fill-opacity="1"/><path d="M1289.62 610.306 1296.49 627.491 1301.06 626.579 1292.16 604.336 1172.26 653.365C1172.2 653.39 1172.2 653.408 1172.26 653.408L1184.2 653.408Z" fill="#000000" fill-rule="nonzero" fill-opacity="1"/><path d="M1342.9 660.25 1142.12 660.25 1142.12 751.5 1342.9 751.5ZM1338.34 746.937 1146.69 746.937 1146.69 664.812 1338.34 664.812Z" fill="#000000" fill-rule="nonzero" fill-opacity="1"/><path d="M1242.51 726.406C1251.59 726.406 1258.94 717.215 1258.94 705.875 1258.94 694.535 1251.58 685.344 1242.51 685.344 1233.44 685.344 1226.09 694.535 1226.09 705.875 1226.09 717.215 1233.44 726.406 1242.51 726.406ZM1242.51 689.906C1249.06 689.906 1254.38 697.069 1254.38 705.875 1254.38 714.68 1249.05 721.844 1242.51 721.844 1235.97 721.844 1230.65 714.68 1230.65 705.875 1230.65 697.069 1235.97 689.906 1242.51 689.906Z" fill="#000000" fill-rule="nonzero" fill-opacity="1"/><path d="M1183 714.678C1187.87 716.031 1192.92 713.175 1194.27 708.301 1194.72 706.698 1194.72 705.005 1194.27 703.402 1193.44 700.326 1191.03 697.923 1187.96 697.083 1183.08 695.727 1178.03 698.579 1176.68 703.452 1176.23 705.059 1176.23 706.757 1176.68 708.364 1177.52 711.44 1179.92 713.841 1183 714.678ZM1185.47 701.312C1187.99 701.312 1190.03 703.355 1190.03 705.875 1190.03 708.395 1187.99 710.437 1185.47 710.437 1182.95 710.437 1180.91 708.395 1180.91 705.875 1180.91 703.355 1182.95 701.312 1185.47 701.312Z" fill="#000000" fill-rule="nonzero" fill-opacity="1"/><path d="M1301.42 714.82C1305.74 713.811 1308.77 709.909 1308.68 705.466L1308.68 705.466C1308.74 702.453 1307.17 699.642 1304.57 698.112 1300.25 695.404 1294.54 696.716 1291.84 701.043 1290.93 702.49 1290.44 704.161 1290.43 705.868 1290.43 710.916 1294.52 715.009 1299.57 715.008 1300.19 715.008 1300.81 714.945 1301.42 714.82ZM1299.55 701.312C1302.07 701.312 1304.12 703.355 1304.12 705.875 1304.12 708.395 1302.07 710.437 1299.55 710.437 1297.03 710.437 1294.99 708.395 1294.99 705.875 1294.99 703.355 1297.03 701.312 1299.55 701.312Z" fill="#000000" fill-rule="nonzero" fill-opacity="1"/><path d="M1322.37 737.812 1329.21 730.969 1329.21 680.781 1322.37 673.937 1164.94 673.937 1155.81 683.062 1155.81 728.687 1164.94 737.812ZM1160.38 684.956 1166.83 678.5 1320.48 678.5 1324.65 682.67 1324.65 729.084 1320.48 733.25 1166.83 733.25 1160.38 726.803Z" fill="#000000" fill-rule="nonzero" fill-opacity="1"/></g></g></g><text fill="#000000" fill-opacity="1" font-family="Arial,Arial_MSFontService,sans-serif" font-style="normal" font-variant="normal" font-weight="400" font-stretch="normal" font-size="64" text-anchor="start" direction="ltr" writing-mode="lr-tb" unicode-bidi="normal" text-decoration="none" transform="matrix(1 0 0 1 973.731 880)">Income &amp; Expense</text><path d="M0.764572-2.16036 640.344 224.192 638.814 228.513-0.764572 2.16036ZM639.846 211.862 661.183 233.999 630.672 237.786Z" fill="#000000" fill-rule="nonzero" fill-opacity="1" transform="matrix(-1 0 0 1 2058.68 391.5)"/><text fill="#000000" fill-opacity="1" font-family="Arial,Arial_MSFontService,sans-serif" font-style="normal" font-variant="normal" font-weight="400" font-stretch="normal" font-size="64" text-anchor="start" direction="ltr" writing-mode="lr-tb" unicode-bidi="normal" text-decoration="none" transform="matrix(1 0 0 1 1590.31 467)">has</text><g><g><g><path d="M383.006 1265.43 389.008 1269.3C391.591 1270.9 394.858 1270.9 397.441 1269.3L403.442 1265.44 403.623 1265.33C404.607 1264.82 405.802 1264.98 406.619 1265.73L410.814 1270.87C412.846 1273.14 416.022 1274 418.92 1273.07L420.28 1272.65 421.147 1270.5C421.655 1269.37 422.168 1268.25 422.686 1267.14L417.584 1268.7C416.457 1269.09 415.209 1268.81 414.35 1267.99L410.155 1262.84C407.967 1260.43 404.435 1259.79 401.537 1261.27 401.342 1261.37 401.154 1261.48 400.973 1261.6L394.969 1265.46C393.893 1266.1 392.556 1266.1 391.479 1265.46L385.478 1261.6C383.8 1260.56 381.778 1260.24 379.86 1260.7L380.727 1265.19C381.486 1264.94 382.315 1265.03 383.006 1265.43Z" fill="#000000" fill-rule="nonzero" fill-opacity="1"/><path d="M462.906 1249.51C461.692 1246.38 459.236 1243.88 456.119 1242.62 444.024 1237.36 435.065 1251.67 427.624 1267.36 430.25 1265.14 433.214 1262.74 436.406 1260.36 443.216 1248.38 448.709 1244.38 454.294 1246.8 456.292 1247.58 457.872 1249.16 458.652 1251.16 461.648 1258.89 455.147 1274.59 446.932 1293.09L440.998 1289.44 433.584 1294 426.169 1289.44 421.717 1292.18C422.242 1290.95 422.779 1289.7 423.29 1288.51L425.153 1284.15C426.139 1281.83 427.616 1279.75 429.482 1278.06 434.887 1273.12 440.645 1268.58 446.711 1264.47 447.762 1263.78 448.05 1262.36 447.356 1261.31 446.661 1260.26 445.246 1259.97 444.196 1260.67 437.936 1264.9 431.995 1269.58 426.418 1274.68 424.066 1276.81 422.204 1279.43 420.96 1282.35L419.094 1286.72C418.27 1288.65 417.409 1290.65 416.551 1292.64L411.341 1289.44 403.927 1294 396.513 1289.44 389.099 1294 381.685 1289.44 380.852 1289.95 373.868 1253.72 336.396 1260.94 342.52 1292.71 337.201 1289.44 337.201 1360.15 341.763 1355.59 341.763 1297.6 342.224 1297.88 344.615 1299.35 347.006 1297.88 352.029 1294.79 357.052 1297.88 359.443 1299.35 361.834 1297.88 366.857 1294.79 371.88 1297.88 374.271 1299.35 376.662 1297.88 381.685 1294.79 386.708 1297.88 389.099 1299.35 391.49 1297.88 396.513 1294.79 401.536 1297.88 403.927 1299.35 406.319 1297.88 411.341 1294.79 416.364 1297.88 418.755 1299.35 421.147 1297.88 426.169 1294.79 431.192 1297.88 433.584 1299.35 435.975 1297.88 440.998 1294.79 446.02 1297.88 448.412 1299.35 450.803 1297.88 451.263 1297.6 451.263 1408.06C451.26 1410.58 449.219 1412.62 446.701 1412.62L370.821 1412.62C369.918 1414.25 368.853 1415.78 367.641 1417.19L446.701 1417.19C451.74 1417.19 455.826 1413.1 455.826 1408.06L455.826 1289.44 452.681 1291.37C460.779 1272.95 466.34 1258.37 462.906 1249.51ZM374.271 1294 366.857 1289.44 359.443 1294 352.029 1289.44 347.118 1292.46 341.739 1264.56 370.251 1259.06 376.699 1292.5Z" fill="#000000" fill-rule="nonzero" fill-opacity="1"/><path d="M368.159 1379.28C362.195 1372.78 355.068 1375.15 350.349 1376.72 349.832 1376.89 349.343 1377.05 348.854 1377.2 348.672 1376.58 348.453 1375.96 348.196 1375.37 348.432 1375.35 348.671 1375.35 348.905 1375.31 351.244 1374.96 353.418 1373.9 355.128 1372.27 357.411 1369.52 358.588 1366.02 358.427 1362.45 358.427 1362.45 358.264 1362.44 357.977 1362.44 354.549 1362.34 351.207 1363.52 348.6 1365.75 347.26 1367.19 346.305 1368.95 345.825 1370.87 345.809 1370.84 345.794 1370.82 345.778 1370.79 344.099 1368.45 342.006 1366.44 339.601 1364.85L337.086 1368.66C339.027 1369.94 340.716 1371.57 342.072 1373.46 342.511 1374.07 342.892 1374.73 343.211 1375.42L343.755 1376.57C343.799 1376.67 343.827 1376.75 343.869 1376.84 343.769 1376.8 343.681 1376.78 343.58 1376.75 338.54 1375.11 330.924 1372.64 324.95 1379.22 319.892 1384.8 320.678 1403.28 328.12 1413.13 332.172 1419.2 340.144 1421.25 346.624 1417.89 348.795 1418.89 351.151 1419.43 353.542 1419.47 358.154 1419.38 362.435 1417.06 365.02 1413.24 372.483 1403.4 373.254 1384.9 368.159 1379.28ZM361.385 1410.48C357.789 1415.22 353.295 1416.15 347.649 1413.33L346.634 1412.82 345.616 1413.32C339.923 1416.14 335.391 1415.18 331.76 1410.37 325.584 1402.2 324.956 1386.01 328.33 1382.28 332.036 1378.2 336.405 1379.21 342.171 1381.09 342.892 1381.32 343.582 1381.55 344.232 1381.73 344.97 1381.95 345.731 1382.07 346.5 1382.1L346.756 1382.11C347.713 1382.14 348.67 1382.02 349.59 1381.75 350.292 1381.55 351.029 1381.3 351.79 1381.05 357.252 1379.23 361.107 1378.34 364.789 1382.35 368.184 1386.1 367.578 1402.32 361.385 1410.48Z" fill="#000000" fill-rule="nonzero" fill-opacity="1"/></g></g></g><text fill="#000000" fill-opacity="1" font-family="Arial,Arial_MSFontService,sans-serif" font-style="normal" font-variant="normal" font-weight="400" font-stretch="normal" font-size="64" text-anchor="start" direction="ltr" writing-mode="lr-tb" unicode-bidi="normal" text-decoration="none" transform="matrix(1 0 0 1 286.082 1532)">Product</text><path d="M1243.82 910.628 2041.35 1474.04 2038.71 1477.79 1241.18 914.372ZM2044.22 1462.04 2058.75 1489.14 2028.36 1484.5Z" fill="#000000" fill-rule="nonzero" fill-opacity="1"/><text fill="#000000" fill-opacity="1" font-family="Arial,Arial_MSFontService,sans-serif" font-style="normal" font-variant="normal" font-weight="400" font-stretch="normal" font-size="64" text-anchor="start" direction="ltr" writing-mode="lr-tb" unicode-bidi="normal" text-decoration="none" transform="matrix(1 0 0 1 1224.31 1293)">t</text><text fill="#000000" fill-opacity="1" font-family="Arial,Arial_MSFontService,sans-serif" font-style="normal" font-variant="normal" font-weight="400" font-stretch="normal" font-size="64" text-anchor="start" direction="ltr" writing-mode="lr-tb" unicode-bidi="normal" text-decoration="none" transform="matrix(1 0 0 1 1242.07 1293)">ransferred via</text><path d="M1.21384-1.94379 507.701 314.341 505.274 318.229-1.21384 1.94379ZM509.883 302.195 525.926 328.424 495.317 325.52Z" fill="#000000" fill-rule="nonzero" fill-opacity="1" transform="matrix(1 0 0 -1 506.5 1246.92)"/><text fill="#000000" fill-opacity="1" font-family="Arial,Arial_MSFontService,sans-serif" font-style="normal" font-variant="normal" font-weight="400" font-stretch="normal" font-size="64" text-anchor="start" direction="ltr" writing-mode="lr-tb" unicode-bidi="normal" text-decoration="none" transform="matrix(1 0 0 1 465.525 1106)">p</text><text fill="#000000" fill-opacity="1" font-family="Arial,Arial_MSFontService,sans-serif" font-style="normal" font-variant="normal" font-weight="400" font-stretch="normal" font-size="64" text-anchor="start" direction="ltr" writing-mode="lr-tb" unicode-bidi="normal" text-decoration="none" transform="matrix(1 0 0 1 501.046 1106)">art of</text><g><g><g><path d="M3054.81 696.294 3063.25 698.347C3064.62 698.803 3065.76 699.716 3066.45 701.084 3070.32 709.981 3076.26 717.966 3083.56 724.581 3084.24 725.266 3084.92 726.178 3085.15 727.319L3088.57 748.078C3089.03 750.359 3090.86 751.956 3093.14 751.956L3108.19 751.956C3110.47 751.956 3112.3 750.359 3112.76 748.078L3113.9 740.778C3115.72 741.234 3117.55 741.69 3119.37 741.919L3121.2 742.147C3124.16 742.603 3127.36 742.831 3130.32 742.831 3136.48 742.831 3142.87 741.919 3148.8 740.322L3150.17 748.078C3150.62 750.359 3152.45 751.956 3154.73 751.956L3169.79 751.956C3172.07 751.956 3173.89 750.359 3174.35 748.078L3177.77 727.319C3178 726.178 3178.46 725.266 3179.37 724.581 3180.05 723.897 3180.74 723.212 3181.42 722.756L3183.47 720.931C3195.11 709.297 3203.09 694.697 3203.09 678.5 3203.09 674.622 3202.64 670.972 3201.72 667.322L3200.81 664.356C3204.01 663.216 3207.2 662.531 3210.62 662.531 3209.02 665.269 3207.88 668.234 3207.66 671.2 3207.2 674.85 3208.34 678.272 3210.39 681.009 3212.22 683.062 3214.96 684.203 3217.69 683.975 3221.34 683.747 3224.77 681.466 3225.91 677.815 3227.96 673.025 3226.82 667.55 3223.17 663.672 3222.03 662.531 3220.89 661.391 3219.52 660.706 3222.94 659.565 3226.82 659.109 3230.47 659.565 3231.84 659.565 3232.75 658.653 3232.98 657.512 3232.98 656.144 3232.07 655.231 3230.92 655.003 3223.17 654.547 3217.92 655.915 3214.5 658.425 3209.48 657.284 3204.23 657.74 3199.44 659.794L3198.99 658.425C3188.27 633.103 3158.38 614.625 3130.09 614.625 3120.28 614.625 3110.47 616.906 3101.58 621.012L3073.52 607.781C3073.29 607.553 3072.83 607.553 3072.61 607.553 3071.24 607.553 3070.32 608.466 3070.32 609.834 3070.32 610.062 3070.32 610.291 3070.32 610.519L3079.45 636.297C3078.77 636.981 3078.08 637.894 3077.17 638.806 3077.17 638.806 3076.94 639.034 3076.94 639.034 3072.61 644.053 3068.96 649.756 3066.22 655.915 3065.76 657.284 3064.39 658.425 3063.02 658.653L3054.81 660.706C3050.71 661.619 3047.74 665.497 3047.97 669.603L3047.97 687.397C3047.97 691.503 3050.71 695.153 3054.81 696.294ZM3212.22 671.656C3212.45 668.69 3213.59 665.953 3215.41 663.672 3217.24 664.584 3218.83 665.725 3219.97 667.094 3222.26 669.375 3223.17 673.025 3221.8 676.219 3221.34 678.044 3219.52 679.412 3217.69 679.412 3216.32 679.412 3214.73 678.956 3213.82 677.815 3212.45 676.219 3211.99 673.937 3212.22 671.656ZM3052.53 669.603C3052.3 667.55 3053.9 665.725 3055.72 665.269L3063.94 663.216C3066.67 662.531 3069.18 660.478 3070.1 657.74 3072.38 652.494 3075.57 647.703 3079.22 643.369 3081.73 640.631 3084.24 638.122 3087.21 635.841 3088.12 635.156 3088.35 633.559 3087.43 632.647 3086.75 631.734 3085.15 631.506 3084.24 632.419 3084.24 632.419 3083.56 632.875 3082.87 633.559L3076.26 614.625C3076.26 614.625 3076.26 614.625 3076.26 614.625 3076.26 614.625 3076.26 614.625 3076.26 614.625L3099.3 625.575 3101.12 626.487 3102.95 625.575C3111.84 621.24 3120.97 619.187 3130.09 619.187 3157.01 619.187 3184.84 636.753 3194.65 660.25L3197.39 668.69C3198.3 671.884 3198.53 675.306 3198.53 678.728 3198.53 693.1 3191.46 707.472 3178.23 719.562 3173.89 723.44 3168.19 727.775 3167.96 727.775 3167.05 728.459 3166.82 730.056 3167.51 730.969 3167.96 731.425 3168.65 731.881 3169.33 731.881 3169.79 731.881 3170.24 731.653 3170.7 731.425 3170.7 731.425 3171.38 730.74 3172.52 730.056L3169.56 747.394C3169.56 747.394 3169.56 747.622 3169.56 747.622L3154.5 747.622C3154.5 747.622 3154.5 747.622 3154.5 747.394L3153.13 739.637 3152.22 734.619 3147.43 735.987C3141.73 737.584 3136.02 738.269 3130.09 738.269 3126.67 738.269 3123.25 738.04 3119.83 737.356 3114.81 736.444 3110.02 734.847 3105.23 733.022 3104.09 732.565 3102.72 733.022 3102.26 734.162 3101.81 735.303 3102.26 736.672 3103.4 737.128 3104.77 737.812 3106.82 738.497 3109.11 739.181L3109.33 740.094 3108.19 747.165C3108.19 747.394 3108.19 747.394 3108.19 747.394L3093.14 747.394C3093.14 747.394 3093.14 747.165 3093.14 747.165L3089.72 726.406C3089.26 724.581 3088.35 722.756 3086.98 721.387 3080.13 715.228 3074.66 707.7 3071.01 699.487 3069.87 697.206 3067.82 695.381 3065.08 694.469L3064.85 694.469 3064.62 694.469 3056.18 692.415C3054.13 691.959 3052.76 690.134 3052.76 687.853L3052.76 669.603Z" fill="#000000" fill-rule="nonzero" fill-opacity="1"/><path d="M3115.49 632.19C3119.83 631.05 3124.39 630.594 3128.95 630.594 3138.08 630.822 3147.2 632.647 3155.64 636.525 3156.78 636.981 3158.15 636.525 3158.61 635.384 3159.07 634.244 3158.61 632.875 3157.47 632.419L3157.47 632.419C3148.57 628.312 3138.76 626.259 3128.95 626.259 3123.93 626.259 3118.92 626.944 3114.12 628.084 3112.98 628.312 3112.07 629.681 3112.53 630.822 3112.98 631.962 3114.12 632.875 3115.27 632.419 3115.27 632.19 3115.27 632.19 3115.49 632.19Z" fill="#000000" fill-rule="nonzero" fill-opacity="1"/></g></g></g><text fill="#000000" fill-opacity="1" font-family="Arial,Arial_MSFontService,sans-serif" font-style="normal" font-variant="normal" font-weight="400" font-stretch="normal" font-size="64" text-anchor="start" direction="ltr" writing-mode="lr-tb" unicode-bidi="normal" text-decoration="none" transform="matrix(1 0 0 1 2950.63 880)">Savings Goal</text><path d="M2272.27 381.343 2960.35 628.417 2958.8 632.731 2270.73 385.657ZM2959.91 616.084 2981.14 638.319 2950.61 641.966Z" fill="#000000" fill-rule="nonzero" fill-opacity="1"/><text fill="#000000" fill-opacity="1" font-family="Arial,Arial_MSFontService,sans-serif" font-style="normal" font-variant="normal" font-weight="400" font-stretch="normal" font-size="64" text-anchor="start" direction="ltr" writing-mode="lr-tb" unicode-bidi="normal" text-decoration="none" transform="matrix(1 0 0 1 2652.45 467)">has</text><g><g><g><path d="M4003.47 655.94C4003.18 655.066 3996.24 634.393 3986.65 620.902 3979.03 609.675 3965.03 604.651 3952.01 608.467 3946.8 610.119 3942.06 612.962 3938.14 616.771 3938.12 616.794 3938.1 616.786 3938.11 616.752 3938.94 612.723 3938.81 608.556 3937.75 604.583 3934.31 593.261 3924 585.421 3912.17 585.137 3897.52 584.12 3878.59 588.039 3877.8 588.207 3876.56 588.466 3875.77 589.675 3876.03 590.908 3876.19 591.666 3876.72 592.291 3877.45 592.569 3885.04 595.561 3892.44 599.009 3899.61 602.893 3899.65 602.916 3899.65 602.936 3899.6 602.935 3890.28 602.895 3881.41 606.976 3875.37 614.085 3864.01 626.366 3853.84 645.84 3853.42 646.663 3852.84 647.781 3853.27 649.158 3854.39 649.738 3855.09 650.101 3855.93 650.078 3856.6 649.676 3865.9 644.251 3875.58 639.507 3885.56 635.481 3885.6 635.467 3885.61 635.481 3885.59 635.514 3882.99 639.167 3881.24 643.354 3880.46 647.77 3877.8 661.448 3879.05 679.674 3879.1 680.443 3879.19 681.7 3880.28 682.646 3881.54 682.555 3882.33 682.499 3883.04 682.034 3883.4 681.327 3888.23 672.041 3893.92 663.228 3900.39 655.005 3901.5 660.264 3906.14 664.031 3911.51 664.039 3912.85 664.028 3914.17 663.779 3915.42 663.304 3909.11 698.12 3907.57 751.167 3907.24 767.348 3907.19 769.636 3908.29 771.796 3910.17 773.098 3911.43 773.856 3912.86 774.274 3914.33 774.312L3923.45 774.312C3927.22 774.319 3930.29 771.268 3930.29 767.496 3930.29 767.179 3930.27 766.861 3930.23 766.546 3926.26 737.816 3924.33 696.408 3930.19 663.434 3934.83 667.589 3941.96 667.195 3946.11 662.555 3946.93 661.644 3947.59 660.606 3948.07 659.483L3948.07 659.483C3955.05 671.961 3960.27 693.544 3960.32 693.757 3960.56 694.744 3961.42 695.456 3962.43 695.505L3962.54 695.507C3963.51 695.507 3964.38 694.887 3964.7 693.965 3964.97 693.17 3971.38 674.314 3972.26 659.175 3972.93 651.986 3970.91 644.803 3966.61 639.009 3966.58 638.974 3966.59 638.959 3966.63 638.975 3981.51 644.924 3999.77 658.357 3999.95 658.496 4000.97 659.245 4002.39 659.03 4003.14 658.016 4003.58 657.419 4003.71 656.645 4003.47 655.941ZM3904.84 654.035C3904.39 651.815 3905.08 649.518 3906.67 647.908L3906.76 647.823C3908.37 646.236 3910.67 645.556 3912.88 646.01 3915.48 646.715 3917.5 648.753 3918.19 651.357 3918.91 655.051 3916.5 658.631 3912.81 659.353 3911.94 659.521 3911.05 659.521 3910.19 659.351 3907.58 658.664 3905.54 656.636 3904.84 654.035ZM3927.31 646.063C3923.61 646.79 3920.03 644.386 3919.3 640.693 3919.13 639.824 3919.13 638.929 3919.3 638.06 3919.99 635.45 3922.03 633.411 3924.64 632.715 3928.33 631.981 3931.92 634.379 3932.65 638.071 3932.82 638.947 3932.82 639.85 3932.65 640.726 3931.96 643.336 3929.92 645.372 3927.31 646.063ZM3925.71 767.17C3925.88 768.411 3925.01 769.557 3923.77 769.728 3923.67 769.743 3923.56 769.75 3923.45 769.75L3914.08 769.75C3913.46 769.753 3912.87 769.506 3912.44 769.065 3912.02 768.633 3911.79 768.046 3911.8 767.44 3912.15 750.536 3913.82 693.178 3920.88 659.082 3922.69 656.489 3923.31 653.249 3922.58 650.174 3924.04 650.737 3925.62 650.895 3927.16 650.63 3926.23 652.836 3926.05 655.287 3926.65 657.606 3919.54 691.857 3921.49 736.622 3925.71 767.17ZM3944.47 654.947C3944.46 658.716 3941.4 661.764 3937.63 661.756 3936.91 661.755 3936.19 661.638 3935.5 661.412 3933.53 660.642 3931.97 659.081 3931.2 657.107 3930 653.555 3931.9 649.702 3935.46 648.501 3938.19 647.575 3941.22 648.483 3942.99 650.765 3943.32 651.277 3943.62 651.811 3943.94 652.333 3944.29 653.16 3944.47 654.049 3944.47 654.947ZM3967.05 634.242C3963.42 632.875 3959.54 631.575 3955.51 630.375 3954.38 630.05 3953.19 630.682 3952.82 631.805 3952.44 632.966 3953.01 634.225 3954.12 634.719 3958.51 636.702 3968.63 643.028 3967.71 658.91 3966.92 667.714 3965.24 676.415 3962.71 684.885 3962.7 684.925 3962.68 684.926 3962.67 684.885 3960.14 675.533 3956.68 666.458 3952.35 657.791 3950.93 655.187 3949.38 652.466 3947.74 649.807 3947.47 649.26 3947.15 648.735 3946.79 648.24 3946.74 648.161 3946.7 648.077 3946.65 647.999 3946.55 647.87 3946.43 647.753 3946.3 647.65 3944.17 645.083 3941.01 643.594 3937.67 643.582 3937.27 643.6 3936.87 643.641 3936.48 643.702 3937.44 641.399 3937.6 638.846 3936.95 636.439 3935.61 632.397 3932.31 629.31 3928.18 628.232 3922.07 626.98 3916.09 630.925 3914.84 637.043 3914.51 638.644 3914.54 640.297 3914.91 641.889 3911.23 640.638 3907.16 641.449 3904.24 644.016 3904.14 644.069 3904.04 644.129 3903.95 644.196 3903.79 644.344 3903.67 644.465 3903.53 644.604L3903.45 644.679C3902.32 645.765 3901.27 646.921 3900.29 648.138 3899.65 648.899 3898.93 649.771 3897.86 650.958 3892.38 657.458 3887.53 664.469 3883.39 671.896 3883.37 671.936 3883.35 671.931 3883.35 671.886 3883.14 664.104 3883.67 656.321 3884.94 648.64 3886.89 638.618 3892.47 634.042 3896.81 631.969 3897.94 631.427 3898.43 630.066 3897.88 628.929 3897.41 627.945 3896.32 627.43 3895.26 627.7 3893.96 628.03 3892.65 628.375 3891.31 628.749 3880.95 632.077 3870.94 636.427 3861.44 641.736 3861.4 641.756 3861.39 641.744 3861.41 641.706 3866.35 632.975 3872.15 624.76 3878.72 617.183 3890.77 604.162 3903.51 607.279 3908.44 609.225 3909.88 609.816 3911.23 610.588 3912.48 611.523 3913.5 612.263 3914.93 612.036 3915.67 611.016 3916.38 610.028 3916.19 608.649 3915.24 607.89 3913.91 606.844 3912.55 605.792 3911.12 604.747 3903.36 599.472 3895.09 594.987 3886.44 591.361 3886.4 591.344 3886.4 591.327 3886.44 591.321 3894.84 589.916 3903.35 589.369 3911.86 589.688 3927.18 590.753 3932.01 601.381 3933.38 605.902 3935.58 613.174 3931.98 622.37 3930.82 625.016 3930.32 626.171 3930.85 627.515 3932 628.019 3932.97 628.439 3934.1 628.144 3934.73 627.305 3936.82 624.536 3944.34 615.313 3953.22 612.865 3964.4 609.466 3976.48 613.809 3982.93 623.545 3988.48 632.002 3993.08 641.054 3996.62 650.532 3996.63 650.569 3996.62 650.581 3996.59 650.558 3987.35 644.089 3977.44 638.62 3967.05 634.242Z" fill="#000000" fill-rule="nonzero" fill-opacity="1"/></g></g></g><text fill="#000000" fill-opacity="1" font-family="Arial,Arial_MSFontService,sans-serif" font-style="normal" font-variant="normal" font-weight="400" font-stretch="normal" font-size="64" text-anchor="start" direction="ltr" writing-mode="lr-tb" unicode-bidi="normal" text-decoration="none" transform="matrix(1 0 0 1 3807.03 880)">Vacation</text><path d="M3289.5 676.208 3797.15 676.209 3797.15 680.792 3289.5 680.792ZM3792.57 664.75 3820.07 678.5 3792.57 692.25Z" fill="#000000" fill-rule="nonzero" fill-opacity="1"/><text fill="#000000" fill-opacity="1" font-family="Arial,Arial_MSFontService,sans-serif" font-style="normal" font-variant="normal" font-weight="400" font-stretch="normal" font-size="64" text-anchor="start" direction="ltr" writing-mode="lr-tb" unicode-bidi="normal" text-decoration="none" transform="matrix(1 0 0 1 3420.03 628)">t</text><text fill="#000000" fill-opacity="1" font-family="Arial,Arial_MSFontService,sans-serif" font-style="normal" font-variant="normal" font-weight="400" font-stretch="normal" font-size="64" text-anchor="start" direction="ltr" writing-mode="lr-tb" unicode-bidi="normal" text-decoration="none" transform="matrix(1 0 0 1 3437.79 628)">o make</text><path d="M1.26678-1.90971 841.352 555.351 838.818 559.17-1.26678 1.90971ZM843.868 543.27 859.184 569.929 828.667 566.186Z" fill="#000000" fill-rule="nonzero" fill-opacity="1" transform="matrix(-1 0 0 1 3141.68 912.5)"/><text fill="#000000" fill-opacity="1" font-family="Arial,Arial_MSFontService,sans-serif" font-style="normal" font-variant="normal" font-weight="400" font-stretch="normal" font-size="64" text-anchor="start" direction="ltr" writing-mode="lr-tb" unicode-bidi="normal" text-decoration="none" transform="matrix(1 0 0 1 2739.94 1293)">on</text><g><g><g><path d="M2101.5 1892.94 2096.93 1892.94 2096.93 2048.06 2251.99 2048.06 2251.99 2043.5 2101.5 2043.5 2101.5 1892.94Z" fill="#000000" fill-rule="nonzero" fill-opacity="1"/><path d="M2142.56 2029.85 2142.56 1940.86 2115.19 1940.86 2115.19 2029.85ZM2119.75 1945.42 2138 1945.42 2138 2025.29 2119.75 2025.29Z" fill="#000000" fill-rule="nonzero" fill-opacity="1"/><path d="M2179.06 2029.85 2179.06 1892.94 2151.69 1892.94 2151.69 2029.85ZM2156.25 1897.5 2174.5 1897.5 2174.5 2025.29 2156.25 2025.29Z" fill="#000000" fill-rule="nonzero" fill-opacity="1"/><path d="M2215.56 2029.85 2215.56 1940.86 2188.19 1940.86 2188.19 2029.85ZM2192.75 1945.42 2211 1945.42 2211 2025.29 2192.75 2025.29Z" fill="#000000" fill-rule="nonzero" fill-opacity="1"/><path d="M2224.69 2029.85 2252.06 2029.85 2252.06 1979.65 2224.69 1979.65ZM2229.25 1984.21 2247.5 1984.21 2247.5 2025.29 2229.25 2025.29Z" fill="#000000" fill-rule="nonzero" fill-opacity="1"/></g></g></g><text fill="#000000" fill-opacity="1" font-family="Arial,Arial_MSFontService,sans-serif" font-style="normal" font-variant="normal" font-weight="400" font-stretch="normal" font-size="64" text-anchor="start" direction="ltr" writing-mode="lr-tb" unicode-bidi="normal" text-decoration="none" transform="matrix(1 0 0 1 2046.17 2172)">Analytics</text><path d="M1988.07 2019.63 616.328 1533.32 617.859 1529 1989.6 2015.31ZM616.825 1545.65 595.5 1523.5 626.014 1519.73Z" fill="#000000" fill-rule="nonzero" fill-opacity="1"/><text fill="#000000" fill-opacity="1" font-family="Arial,Arial_MSFontService,sans-serif" font-style="normal" font-variant="normal" font-weight="400" font-stretch="normal" font-size="64" text-anchor="start" direction="ltr" writing-mode="lr-tb" unicode-bidi="normal" text-decoration="none" transform="matrix(1 0 0 1 1224.31 1877)">diet</text><path d="M2273.79 1971.11 2273.79 1972.41 2271.5 1970.11 2632.22 1970.11 2629.93 1972.41 2629.93 1519.5 2632.22 1521.79 2307.8 1521.79 2307.8 1517.21 2634.51 1517.21 2634.51 1974.7 2269.21 1974.7 2269.21 1971.11ZM2312.38 1533.25 2284.88 1519.5 2312.38 1505.75Z" fill="#000000" fill-rule="nonzero" fill-opacity="1"/><text fill="#000000" fill-opacity="1" font-family="Arial,Arial_MSFontService,sans-serif" font-style="normal" font-variant="normal" font-weight="400" font-stretch="normal" font-size="64" text-anchor="start" direction="ltr" writing-mode="lr-tb" unicode-bidi="normal" text-decoration="none" transform="matrix(1 0 0 1 2677.08 1780)">budget &amp; forecast</text></g></g></svg>