<svg xmlns="http://www.w3.org/2000/svg" xmlns:xlink="http://www.w3.org/1999/xlink" xmlns:lucid="lucid" width="2049" height="1377"><g transform="translate(-6043 -3332)" lucid:page-tab-id="0_0"><path d="M0 0h10578.03v8768.17H0z" fill="#fff"/><path d="M6380 3460h1040v1060H6380z" stroke="#333" stroke-width="2" fill-opacity="0"/><use xlink:href="#a" transform="matrix(1,0,0,1,6388,3468) translate(448.14074074074074 19.73333333333333)"/><path d="M6219.75 3799.75c0 10.9-8.84 19.75-19.75 19.75-10.9 0-19.75-8.84-19.75-19.75 0-10.9 8.84-19.75 19.75-19.75 10.9 0 19.75 8.84 19.75 19.75z" stroke="#000" stroke-width="2" fill="#fff"/><path d="M6200 3819.5v47.3a27.6 27.6 0 0 0 4.28 14.76L6240 3938m-40-63.2l-40 63.2m0-98.75h80" stroke="#000" stroke-width="2" fill="none"/><path d="M6160 3788a8 8 0 0 1 8-8h64a8 8 0 0 1 8 8v164a8 8 0 0 1-8 8h-64a8 8 0 0 1-8-8z" fill="none"/><use xlink:href="#b" transform="matrix(1,0,0,1,6080,3938) translate(94.03148148148148 19.73333333333333)"/><path d="M6870.92 3780c0 33.14-51.7 60-115.46 60-63.77 0-115.46-26.86-115.46-60s51.7-60 115.46-60c63.77 0 115.46 26.86 115.46 60z" stroke="#333" stroke-width="2" fill="#fff"/><use xlink:href="#c" transform="matrix(1,0,0,1,6640,3720) translate(78.57351851851853 49.733333333333334)"/><use xlink:href="#d" transform="matrix(1,0,0,1,6640,3720) translate(51.64574074074076 79.33333333333333)"/><path d="M6870.92 3960c0 33.14-51.7 60-115.46 60-63.77 0-115.46-26.86-115.46-60s51.7-60 115.46-60c63.77 0 115.46 26.86 115.46 60z" stroke="#333" stroke-width="2" fill="#fff"/><use xlink:href="#e" transform="matrix(1,0,0,1,6640,3900) translate(70.14574074074075 49.733333333333334)"/><use xlink:href="#d" transform="matrix(1,0,0,1,6640,3900) translate(51.64574074074076 79.33333333333333)"/><path d="M6865.46 4140c0 33.14-51.7 60-115.46 60-63.77 0-115.46-26.86-115.46-60s51.7-60 115.46-60c63.77 0 115.46 26.86 115.46 60z" stroke="#333" stroke-width="2" fill="#fff"/><use xlink:href="#f" transform="matrix(1,0,0,1,6634.54011296167,4080) translate(75.79851851851852 49.733333333333334)"/><use xlink:href="#d" transform="matrix(1,0,0,1,6634.54011296167,4080) translate(51.64574074074076 79.33333333333333)"/><path d="M6870.92 3600c0 33.14-51.7 60-115.46 60-63.77 0-115.46-26.86-115.46-60s51.7-60 115.46-60c63.77 0 115.46 26.86 115.46 60z" stroke="#333" stroke-width="2" fill="#fff"/><use xlink:href="#g" transform="matrix(1,0,0,1,6640,3540) translate(21.805925925925955 64.73333333333333)"/><use xlink:href="#h" transform="matrix(1,0,0,1,6640,3540) translate(81.48555555555558 64.73333333333333)"/><path d="M6201.5 3858.93H6473a12 12 0 0 0 12-12V3612a12 12 0 0 1 12-12h141M6201.53 3858.93h-4.03" stroke="#333" stroke-width="2" fill="none"/><path d="M6639 3600v.4l.02.57h-1.05v-1.94h1.05z" stroke="#333" stroke-width=".05" fill="#333"/><path d="M6201.5 3858.93H6473a12 12 0 0 0 12-12V3792a12 12 0 0 1 12-12h141M6201.53 3858.93h-4.03" stroke="#333" stroke-width="2" fill="none"/><path d="M6639 3780v.4l.02.57h-1.05v-1.94h1.05z" stroke="#333" stroke-width=".05" fill="#333"/><path d="M6201.5 3858.93H6473a12 12 0 0 1 12 12V3948a12 12 0 0 0 12 12h141M6201.53 3858.93h-4.03" stroke="#333" stroke-width="2" fill="none"/><path d="M6639 3960v.4l.02.57h-1.05v-1.94h1.05z" stroke="#333" stroke-width=".05" fill="#333"/><path d="M6201.5 3858.93H6473a12 12 0 0 1 12 12V4128a12 12 0 0 0 12 12h135.54M6201.53 3858.93h-4.03" stroke="#333" stroke-width="2" fill="none"/><path d="M6633.54 4140v.4l.02.58h-1.05v-1.95h1.06z" stroke="#333" stroke-width=".05" fill="#333"/><path d="M6865.46 4320c0 33.14-51.7 60-115.46 60-63.77 0-115.46-26.86-115.46-60s51.7-60 115.46-60c63.77 0 115.46 26.86 115.46 60z" stroke="#333" stroke-width="2" fill="#fff"/><use xlink:href="#i" transform="matrix(1,0,0,1,6634.54011296167,4260) translate(79.94388888888889 49.733333333333334)"/><use xlink:href="#d" transform="matrix(1,0,0,1,6634.54011296167,4260) translate(51.64574074074076 79.33333333333333)"/><path d="M7560 3880h400v160h-400z" stroke="#000" stroke-width="2" fill="#fff"/><use xlink:href="#j" transform="matrix(1,0,0,1,7565,3885) translate(122.3703703703704 80.67083333333333)"/><path d="M6872.92 3960H7558" stroke="#333" stroke-width="2" fill="none"/><path d="M6872.94 3960.97h-1.04l.02-.96v-.4l-.02-.57h1.05zM7559 3960.97h-1.03v-1.94h1.03z" stroke="#333" stroke-width=".05" fill="#333"/><path d="M6201.5 3858.93H6473a12 12 0 0 1 12 12V4308a12 12 0 0 0 12 12h135.54M6201.53 3858.93h-4.03" stroke="#333" stroke-width="2" fill="none"/><path d="M6633.54 4320v.4l.02.58h-1.05v-1.95h1.06z" stroke="#333" stroke-width=".05" fill="#333"/><path d="M7330.92 4140c0 33.14-51.7 60-115.46 60-63.77 0-115.46-26.86-115.46-60s51.7-60 115.46-60c63.77 0 115.46 26.86 115.46 60z" stroke="#333" stroke-width="2" fill="#fff"/><use xlink:href="#k" transform="matrix(1,0,0,1,7100,4080) translate(26.533703703703715 64.73333333333333)"/><use xlink:href="#l" transform="matrix(1,0,0,1,7100,4080) translate(112.79851851851852 64.73333333333333)"/><path d="M7098 4140h-213.04" stroke="#333" stroke-width="2" fill="none"/><path d="M7099 4140v.4l.02.58h-1.05v-1.95h1.05z" stroke="#333" stroke-width=".05" fill="#333"/><path d="M6869.7 4140l14.26-4.64v9.28z" stroke="#333" stroke-width="2" fill="#333"/><use xlink:href="#m" transform="matrix(1,0,0,1,6910.785499036391,4106.4) translate(0.0049999999999954525 19.733333333333334)"/><path d="M7330.92 4380c0 33.14-51.7 60-115.46 60-63.77 0-115.46-26.86-115.46-60s51.7-60 115.46-60c63.77 0 115.46 26.86 115.46 60z" stroke="#333" stroke-width="2" fill="#fff"/><use xlink:href="#n" transform="matrix(1,0,0,1,7100,4320) translate(68.33000000000001 49.733333333333334)"/><use xlink:href="#d" transform="matrix(1,0,0,1,7100,4320) translate(51.64574074074076 79.33333333333333)"/><path d="M6750 4202v16a12 12 0 0 0 12 12h236a12 12 0 0 1 12 12v126a12 12 0 0 0 12 12h58.5" stroke="#333" stroke-width="2" fill="none"/><path d="M6750 4201h.98v1.03h-1.95v-1.05z" stroke="#333" stroke-width=".05" fill="#333"/><path d="M7095.76 4380l-14.26 4.64v-9.28z" stroke="#333" stroke-width="2" fill="#333"/><use xlink:href="#o" transform="matrix(1,0,0,1,7018,4268.668828322336) translate(0.0049999999999954525 19.73333333333333)"/><path d="M6867.46 4320H6998a12 12 0 0 1 12 12v36a12 12 0 0 0 12 12h58.5" stroke="#333" stroke-width="2" fill="none"/><path d="M6867.5 4320.98h-1.06l.02-.97v-.4l-.02-.58h1.05z" stroke="#333" stroke-width=".05" fill="#333"/><path d="M7095.76 4380l-14.26 4.64v-9.28z" stroke="#333" stroke-width="2" fill="#333"/><path d="M7332.92 4380H7478a12 12 0 0 0 12-12v-396a12 12 0 0 1 12-12h56" stroke="#333" stroke-width="2" fill="none"/><path d="M7332.94 4380.98h-1.04l.02-.97v-.4l-.02-.58h1.05zM7559 3960.97h-1.03v-1.94h1.03z" stroke="#333" stroke-width=".05" fill="#333"/><defs><path d="M127-220V0H93v-220H8v-28h204v28h-85" id="p"/><path d="M114-163C36-179 61-72 57 0H25l-1-190h30c1 12-1 29 2 39 6-27 23-49 58-41v29" id="q"/><path d="M141-36C126-15 110 5 73 4 37 3 15-17 15-53c-1-64 63-63 125-63 3-35-9-54-41-54-24 1-41 7-42 31l-33-3c5-37 33-52 76-52 45 0 72 20 72 64v82c-1 20 7 32 28 27v20c-31 9-61-2-59-35zM48-53c0 20 12 33 32 33 41-3 63-29 60-74-43 2-92-5-92 41" id="r"/><path d="M117-194c89-4 53 116 60 194h-32v-121c0-31-8-49-39-48C34-167 62-67 57 0H25l-1-190h30c1 10-1 24 2 32 11-22 29-35 61-36" id="s"/><path d="M135-143c-3-34-86-38-87 0 15 53 115 12 119 90S17 21 10-45l28-5c4 36 97 45 98 0-10-56-113-15-118-90-4-57 82-63 122-42 12 7 21 19 24 35" id="t"/><path d="M96-169c-40 0-48 33-48 73s9 75 48 75c24 0 41-14 43-38l32 2c-6 37-31 61-74 61-59 0-76-41-82-99-10-93 101-131 147-64 4 7 5 14 7 22l-32 3c-4-21-16-35-41-35" id="u"/><path d="M59-47c-2 24 18 29 38 22v24C64 9 27 4 27-40v-127H5v-23h24l9-43h21v43h35v23H59v120" id="v"/><path d="M24-231v-30h32v30H24zM24 0v-190h32V0H24" id="w"/><path d="M100-194c62-1 85 37 85 99 1 63-27 99-86 99S16-35 15-95c0-66 28-99 85-99zM99-20c44 1 53-31 53-75 0-43-8-75-51-75s-53 32-53 75 10 74 51 75" id="x"/><g id="a"><use transform="matrix(0.0685185185185185,0,0,0.0685185185185185,0,0)" xlink:href="#p"/><use transform="matrix(0.0685185185185185,0,0,0.0685185185185185,14.114814814814812,0)" xlink:href="#q"/><use transform="matrix(0.0685185185185185,0,0,0.0685185185185185,22.268518518518512,0)" xlink:href="#r"/><use transform="matrix(0.0685185185185185,0,0,0.0685185185185185,35.972222222222214,0)" xlink:href="#s"/><use transform="matrix(0.0685185185185185,0,0,0.0685185185185185,49.67592592592592,0)" xlink:href="#t"/><use transform="matrix(0.0685185185185185,0,0,0.0685185185185185,62.009259259259245,0)" xlink:href="#r"/><use transform="matrix(0.0685185185185185,0,0,0.0685185185185185,75.71296296296295,0)" xlink:href="#u"/><use transform="matrix(0.0685185185185185,0,0,0.0685185185185185,88.04629629629628,0)" xlink:href="#v"/><use transform="matrix(0.0685185185185185,0,0,0.0685185185185185,94.89814814814814,0)" xlink:href="#w"/><use transform="matrix(0.0685185185185185,0,0,0.0685185185185185,100.31111111111109,0)" xlink:href="#x"/><use transform="matrix(0.0685185185185185,0,0,0.0685185185185185,114.01481481481478,0)" xlink:href="#s"/></g><path d="M232-93c-1 65-40 97-104 97C67 4 28-28 28-90v-158h33c8 89-33 224 67 224 102 0 64-133 71-224h33v155" id="y"/><path d="M100-194c63 0 86 42 84 106H49c0 40 14 67 53 68 26 1 43-12 49-29l28 8c-11 28-37 45-77 45C44 4 14-33 15-96c1-61 26-98 85-98zm52 81c6-60-76-77-97-28-3 7-6 17-6 28h103" id="z"/><g id="b"><use transform="matrix(0.0685185185185185,0,0,0.0685185185185185,0,0)" xlink:href="#y"/><use transform="matrix(0.0685185185185185,0,0,0.0685185185185185,17.746296296296293,0)" xlink:href="#t"/><use transform="matrix(0.0685185185185185,0,0,0.0685185185185185,30.079629629629622,0)" xlink:href="#z"/><use transform="matrix(0.0685185185185185,0,0,0.0685185185185185,43.783333333333324,0)" xlink:href="#q"/></g><path d="M212-179c-10-28-35-45-73-45-59 0-87 40-87 99 0 60 29 101 89 101 43 0 62-24 78-52l27 14C228-24 195 4 139 4 59 4 22-46 18-125c-6-104 99-153 187-111 19 9 31 26 39 46" id="A"/><g id="c"><use transform="matrix(0.0685185185185185,0,0,0.0685185185185185,0,0)" xlink:href="#A"/><use transform="matrix(0.0685185185185185,0,0,0.0685185185185185,17.746296296296293,0)" xlink:href="#q"/><use transform="matrix(0.0685185185185185,0,0,0.0685185185185185,25.899999999999995,0)" xlink:href="#z"/><use transform="matrix(0.0685185185185185,0,0,0.0685185185185185,39.603703703703694,0)" xlink:href="#r"/><use transform="matrix(0.0685185185185185,0,0,0.0685185185185185,53.307407407407396,0)" xlink:href="#v"/><use transform="matrix(0.0685185185185185,0,0,0.0685185185185185,60.159259259259244,0)" xlink:href="#z"/></g><g id="d"><use transform="matrix(0.0685185185185185,0,0,0.0685185185185185,0,0)" xlink:href="#p"/><use transform="matrix(0.0685185185185185,0,0,0.0685185185185185,14.114814814814812,0)" xlink:href="#q"/><use transform="matrix(0.0685185185185185,0,0,0.0685185185185185,22.268518518518512,0)" xlink:href="#r"/><use transform="matrix(0.0685185185185185,0,0,0.0685185185185185,35.972222222222214,0)" xlink:href="#s"/><use transform="matrix(0.0685185185185185,0,0,0.0685185185185185,49.67592592592592,0)" xlink:href="#t"/><use transform="matrix(0.0685185185185185,0,0,0.0685185185185185,62.009259259259245,0)" xlink:href="#r"/><use transform="matrix(0.0685185185185185,0,0,0.0685185185185185,75.71296296296295,0)" xlink:href="#u"/><use transform="matrix(0.0685185185185185,0,0,0.0685185185185185,88.04629629629628,0)" xlink:href="#v"/><use transform="matrix(0.0685185185185185,0,0,0.0685185185185185,94.89814814814814,0)" xlink:href="#w"/><use transform="matrix(0.0685185185185185,0,0,0.0685185185185185,100.31111111111109,0)" xlink:href="#x"/><use transform="matrix(0.0685185185185185,0,0,0.0685185185185185,114.01481481481478,0)" xlink:href="#s"/></g><path d="M101-234c-31-9-42 10-38 44h38v23H63V0H32v-167H5v-23h27c-7-52 17-82 69-68v24" id="B"/><g id="e"><use transform="matrix(0.0685185185185185,0,0,0.0685185185185185,0,0)" xlink:href="#p"/><use transform="matrix(0.0685185185185185,0,0,0.0685185185185185,14.114814814814812,0)" xlink:href="#q"/><use transform="matrix(0.0685185185185185,0,0,0.0685185185185185,22.268518518518512,0)" xlink:href="#r"/><use transform="matrix(0.0685185185185185,0,0,0.0685185185185185,35.972222222222214,0)" xlink:href="#s"/><use transform="matrix(0.0685185185185185,0,0,0.0685185185185185,49.67592592592592,0)" xlink:href="#t"/><use transform="matrix(0.0685185185185185,0,0,0.0685185185185185,62.009259259259245,0)" xlink:href="#B"/><use transform="matrix(0.0685185185185185,0,0,0.0685185185185185,68.8611111111111,0)" xlink:href="#z"/><use transform="matrix(0.0685185185185185,0,0,0.0685185185185185,82.5648148148148,0)" xlink:href="#q"/></g><path d="M115-194c55 1 70 41 70 98S169 2 115 4C84 4 66-9 55-30l1 105H24l-1-265h31l2 30c10-21 28-34 59-34zm-8 174c40 0 45-34 45-75s-6-73-45-74c-42 0-51 32-51 76 0 43 10 73 51 73" id="C"/><path d="M85-194c31 0 48 13 60 33l-1-100h32l1 261h-30c-2-10 0-23-3-31C134-8 116 4 85 4 32 4 16-35 15-94c0-66 23-100 70-100zm9 24c-40 0-46 34-46 75 0 40 6 74 45 74 42 0 51-32 51-76 0-42-9-74-50-73" id="D"/><g id="f"><use transform="matrix(0.0685185185185185,0,0,0.0685185185185185,0,0)" xlink:href="#y"/><use transform="matrix(0.0685185185185185,0,0,0.0685185185185185,17.746296296296293,0)" xlink:href="#C"/><use transform="matrix(0.0685185185185185,0,0,0.0685185185185185,31.449999999999996,0)" xlink:href="#D"/><use transform="matrix(0.0685185185185185,0,0,0.0685185185185185,45.1537037037037,0)" xlink:href="#r"/><use transform="matrix(0.0685185185185185,0,0,0.0685185185185185,58.8574074074074,0)" xlink:href="#v"/><use transform="matrix(0.0685185185185185,0,0,0.0685185185185185,65.70925925925926,0)" xlink:href="#z"/></g><path d="M137 0h-34L2-248h35l83 218 83-218h36" id="E"/><path d="M206 0h-36l-40-164L89 0H53L-1-190h32L70-26l43-164h34l41 164 42-164h31" id="F"/><g id="g"><use transform="matrix(0.0685185185185185,0,0,0.0685185185185185,0,0)" xlink:href="#E"/><use transform="matrix(0.0685185185185185,0,0,0.0685185185185185,15.964814814814813,0)" xlink:href="#w"/><use transform="matrix(0.0685185185185185,0,0,0.0685185185185185,21.377777777777776,0)" xlink:href="#z"/><use transform="matrix(0.0685185185185185,0,0,0.0685185185185185,35.081481481481475,0)" xlink:href="#F"/></g><g id="h"><use transform="matrix(0.0685185185185185,0,0,0.0685185185185185,0,0)" xlink:href="#p"/><use transform="matrix(0.0685185185185185,0,0,0.0685185185185185,14.114814814814812,0)" xlink:href="#q"/><use transform="matrix(0.0685185185185185,0,0,0.0685185185185185,22.268518518518512,0)" xlink:href="#r"/><use transform="matrix(0.0685185185185185,0,0,0.0685185185185185,35.972222222222214,0)" xlink:href="#s"/><use transform="matrix(0.0685185185185185,0,0,0.0685185185185185,49.67592592592592,0)" xlink:href="#t"/><use transform="matrix(0.0685185185185185,0,0,0.0685185185185185,62.009259259259245,0)" xlink:href="#r"/><use transform="matrix(0.0685185185185185,0,0,0.0685185185185185,75.71296296296295,0)" xlink:href="#u"/><use transform="matrix(0.0685185185185185,0,0,0.0685185185185185,88.04629629629628,0)" xlink:href="#v"/><use transform="matrix(0.0685185185185185,0,0,0.0685185185185185,94.89814814814814,0)" xlink:href="#w"/><use transform="matrix(0.0685185185185185,0,0,0.0685185185185185,100.31111111111109,0)" xlink:href="#x"/><use transform="matrix(0.0685185185185185,0,0,0.0685185185185185,114.01481481481478,0)" xlink:href="#s"/></g><path d="M30-248c118-7 216 8 213 122C240-48 200 0 122 0H30v-248zM63-27c89 8 146-16 146-99s-60-101-146-95v194" id="G"/><path d="M24 0v-261h32V0H24" id="H"/><g id="i"><use transform="matrix(0.0685185185185185,0,0,0.0685185185185185,0,0)" xlink:href="#G"/><use transform="matrix(0.0685185185185185,0,0,0.0685185185185185,17.746296296296293,0)" xlink:href="#z"/><use transform="matrix(0.0685185185185185,0,0,0.0685185185185185,31.449999999999996,0)" xlink:href="#H"/><use transform="matrix(0.0685185185185185,0,0,0.0685185185185185,36.86296296296297,0)" xlink:href="#z"/><use transform="matrix(0.0685185185185185,0,0,0.0685185185185185,50.56666666666666,0)" xlink:href="#v"/><use transform="matrix(0.0685185185185185,0,0,0.0685185185185185,57.41851851851851,0)" xlink:href="#z"/></g><path fill="#333" d="M160-131c35 5 61 23 61 61C221 17 115-2 30 0v-248c76 3 177-17 177 60 0 33-19 50-47 57zm-97-11c50-1 110 9 110-42 0-47-63-36-110-37v79zm0 115c55-2 124 14 124-45 0-56-70-42-124-44v89" id="I"/><path fill="#333" d="M141-36C126-15 110 5 73 4 37 3 15-17 15-53c-1-64 63-63 125-63 3-35-9-54-41-54-24 1-41 7-42 31l-33-3c5-37 33-52 76-52 45 0 72 20 72 64v82c-1 20 7 32 28 27v20c-31 9-61-2-59-35zM48-53c0 20 12 33 32 33 41-3 63-29 60-74-43 2-92-5-92 41" id="J"/><path fill="#333" d="M117-194c89-4 53 116 60 194h-32v-121c0-31-8-49-39-48C34-167 62-67 57 0H25l-1-190h30c1 10-1 24 2 32 11-22 29-35 61-36" id="K"/><path fill="#333" d="M143 0L79-87 56-68V0H24v-261h32v163l83-92h37l-77 82L181 0h-38" id="L"/><path fill="#333" d="M205 0l-28-72H64L36 0H1l101-248h38L239 0h-34zm-38-99l-47-123c-12 45-31 82-46 123h93" id="M"/><path fill="#333" d="M96-169c-40 0-48 33-48 73s9 75 48 75c24 0 41-14 43-38l32 2c-6 37-31 61-74 61-59 0-76-41-82-99-10-93 101-131 147-64 4 7 5 14 7 22l-32 3c-4-21-16-35-41-35" id="N"/><path fill="#333" d="M100-194c62-1 85 37 85 99 1 63-27 99-86 99S16-35 15-95c0-66 28-99 85-99zM99-20c44 1 53-31 53-75 0-43-8-75-51-75s-53 32-53 75 10 74 51 75" id="O"/><path fill="#333" d="M84 4C-5 8 30-112 23-190h32v120c0 31 7 50 39 49 72-2 45-101 50-169h31l1 190h-30c-1-10 1-25-2-33-11 22-28 36-60 37" id="P"/><path fill="#333" d="M59-47c-2 24 18 29 38 22v24C64 9 27 4 27-40v-127H5v-23h24l9-43h21v43h35v23H59v120" id="Q"/><g id="j"><use transform="matrix(0.0685185185185185,0,0,0.0685185185185185,0,0)" xlink:href="#I"/><use transform="matrix(0.0685185185185185,0,0,0.0685185185185185,16.444444444444443,0)" xlink:href="#J"/><use transform="matrix(0.0685185185185185,0,0,0.0685185185185185,30.148148148148145,0)" xlink:href="#K"/><use transform="matrix(0.0685185185185185,0,0,0.0685185185185185,43.85185185185185,0)" xlink:href="#L"/><use transform="matrix(0.0685185185185185,0,0,0.0685185185185185,56.185185185185176,0)" xlink:href="#M"/><use transform="matrix(0.0685185185185185,0,0,0.0685185185185185,72.62962962962962,0)" xlink:href="#N"/><use transform="matrix(0.0685185185185185,0,0,0.0685185185185185,84.96296296296295,0)" xlink:href="#N"/><use transform="matrix(0.0685185185185185,0,0,0.0685185185185185,97.29629629629628,0)" xlink:href="#O"/><use transform="matrix(0.0685185185185185,0,0,0.0685185185185185,110.99999999999997,0)" xlink:href="#P"/><use transform="matrix(0.0685185185185185,0,0,0.0685185185185185,124.70370370370367,0)" xlink:href="#K"/><use transform="matrix(0.0685185185185185,0,0,0.0685185185185185,138.40740740740736,0)" xlink:href="#Q"/></g><g id="k"><use transform="matrix(0.0685185185185185,0,0,0.0685185185185185,0,0)" xlink:href="#y"/><use transform="matrix(0.0685185185185185,0,0,0.0685185185185185,17.746296296296293,0)" xlink:href="#C"/><use transform="matrix(0.0685185185185185,0,0,0.0685185185185185,31.449999999999996,0)" xlink:href="#D"/><use transform="matrix(0.0685185185185185,0,0,0.0685185185185185,45.1537037037037,0)" xlink:href="#r"/><use transform="matrix(0.0685185185185185,0,0,0.0685185185185185,58.8574074074074,0)" xlink:href="#v"/><use transform="matrix(0.0685185185185185,0,0,0.0685185185185185,65.70925925925926,0)" xlink:href="#z"/></g><path d="M233-177c-1 41-23 64-60 70L243 0h-38l-65-103H63V0H30v-248c88 3 205-21 203 71zM63-129c60-2 137 13 137-47 0-61-80-42-137-45v92" id="R"/><g id="l"><use transform="matrix(0.0685185185185185,0,0,0.0685185185185185,0,0)" xlink:href="#R"/><use transform="matrix(0.0685185185185185,0,0,0.0685185185185185,17.746296296296293,0)" xlink:href="#z"/><use transform="matrix(0.0685185185185185,0,0,0.0685185185185185,31.449999999999996,0)" xlink:href="#u"/><use transform="matrix(0.0685185185185185,0,0,0.0685185185185185,43.783333333333324,0)" xlink:href="#x"/><use transform="matrix(0.0685185185185185,0,0,0.0685185185185185,57.48703703703703,0)" xlink:href="#q"/><use transform="matrix(0.0685185185185185,0,0,0.0685185185185185,65.64074074074072,0)" xlink:href="#D"/><use transform="matrix(0.0685185185185185,0,0,0.0685185185185185,79.34444444444442,0)" xlink:href="#t"/></g><path fill="#333" d="M18-100v-36l175-74v27L42-118l151 64v27" id="S"/><path fill="#333" d="M100-194c63 0 86 42 84 106H49c0 40 14 67 53 68 26 1 43-12 49-29l28 8c-11 28-37 45-77 45C44 4 14-33 15-96c1-61 26-98 85-98zm52 81c6-60-76-77-97-28-3 7-6 17-6 28h103" id="T"/><path fill="#333" d="M141 0L90-78 38 0H4l68-98-65-92h35l48 74 47-74h35l-64 92 68 98h-35" id="U"/><path fill="#333" d="M85-194c31 0 48 13 60 33l-1-100h32l1 261h-30c-2-10 0-23-3-31C134-8 116 4 85 4 32 4 16-35 15-94c0-66 23-100 70-100zm9 24c-40 0-46 34-46 75 0 40 6 74 45 74 42 0 51-32 51-76 0-42-9-74-50-73" id="V"/><path fill="#333" d="M135-143c-3-34-86-38-87 0 15 53 115 12 119 90S17 21 10-45l28-5c4 36 97 45 98 0-10-56-113-15-118-90-4-57 82-63 122-42 12 7 21 19 24 35" id="W"/><path fill="#333" d="M18-27v-27l151-64-151-65v-27l175 74v36" id="X"/><g id="m"><use transform="matrix(0.0685185185185185,0,0,0.0685185185185185,0,0)" xlink:href="#S"/><use transform="matrix(0.0685185185185185,0,0,0.0685185185185185,14.388888888888886,0)" xlink:href="#S"/><use transform="matrix(0.0685185185185185,0,0,0.0685185185185185,28.77777777777777,0)" xlink:href="#T"/><use transform="matrix(0.0685185185185185,0,0,0.0685185185185185,42.481481481481474,0)" xlink:href="#U"/><use transform="matrix(0.0685185185185185,0,0,0.0685185185185185,54.8148148148148,0)" xlink:href="#Q"/><use transform="matrix(0.0685185185185185,0,0,0.0685185185185185,61.66666666666665,0)" xlink:href="#T"/><use transform="matrix(0.0685185185185185,0,0,0.0685185185185185,75.37037037037035,0)" xlink:href="#K"/><use transform="matrix(0.0685185185185185,0,0,0.0685185185185185,89.07407407407405,0)" xlink:href="#V"/><use transform="matrix(0.0685185185185185,0,0,0.0685185185185185,102.77777777777774,0)" xlink:href="#W"/><use transform="matrix(0.0685185185185185,0,0,0.0685185185185185,115.11111111111107,0)" xlink:href="#X"/><use transform="matrix(0.0685185185185185,0,0,0.0685185185185185,129.49999999999994,0)" xlink:href="#X"/></g><path d="M115-194c53 0 69 39 70 98 0 66-23 100-70 100C84 3 66-7 56-30L54 0H23l1-261h32v101c10-23 28-34 59-34zm-8 174c40 0 45-34 45-75 0-40-5-75-45-74-42 0-51 32-51 76 0 43 10 73 51 73" id="Y"/><path d="M143 0L79-87 56-68V0H24v-261h32v163l83-92h37l-77 82L181 0h-38" id="Z"/><g id="n"><use transform="matrix(0.0685185185185185,0,0,0.0685185185185185,0,0)" xlink:href="#R"/><use transform="matrix(0.0685185185185185,0,0,0.0685185185185185,17.746296296296293,0)" xlink:href="#x"/><use transform="matrix(0.0685185185185185,0,0,0.0685185185185185,31.449999999999996,0)" xlink:href="#H"/><use transform="matrix(0.0685185185185185,0,0,0.0685185185185185,36.86296296296297,0)" xlink:href="#H"/><use transform="matrix(0.0685185185185185,0,0,0.0685185185185185,42.275925925925925,0)" xlink:href="#Y"/><use transform="matrix(0.0685185185185185,0,0,0.0685185185185185,55.97962962962963,0)" xlink:href="#r"/><use transform="matrix(0.0685185185185185,0,0,0.0685185185185185,69.68333333333332,0)" xlink:href="#u"/><use transform="matrix(0.0685185185185185,0,0,0.0685185185185185,82.01666666666665,0)" xlink:href="#Z"/></g><path fill="#333" d="M24-231v-30h32v30H24zM24 0v-190h32V0H24" id="aa"/><path fill="#333" d="M24 0v-261h32V0H24" id="ab"/><g id="o"><use transform="matrix(0.0685185185185185,0,0,0.0685185185185185,0,0)" xlink:href="#S"/><use transform="matrix(0.0685185185185185,0,0,0.0685185185185185,14.388888888888886,0)" xlink:href="#S"/><use transform="matrix(0.0685185185185185,0,0,0.0685185185185185,28.77777777777777,0)" xlink:href="#aa"/><use transform="matrix(0.0685185185185185,0,0,0.0685185185185185,34.190740740740736,0)" xlink:href="#K"/><use transform="matrix(0.0685185185185185,0,0,0.0685185185185185,47.89444444444444,0)" xlink:href="#N"/><use transform="matrix(0.0685185185185185,0,0,0.0685185185185185,60.22777777777777,0)" xlink:href="#ab"/><use transform="matrix(0.0685185185185185,0,0,0.0685185185185185,65.64074074074072,0)" xlink:href="#P"/><use transform="matrix(0.0685185185185185,0,0,0.0685185185185185,79.34444444444442,0)" xlink:href="#V"/><use transform="matrix(0.0685185185185185,0,0,0.0685185185185185,93.04814814814812,0)" xlink:href="#T"/><use transform="matrix(0.0685185185185185,0,0,0.0685185185185185,106.75185185185181,0)" xlink:href="#W"/><use transform="matrix(0.0685185185185185,0,0,0.0685185185185185,119.08518518518514,0)" xlink:href="#X"/><use transform="matrix(0.0685185185185185,0,0,0.0685185185185185,133.47407407407403,0)" xlink:href="#X"/></g></defs></g></svg>