<svg xmlns="http://www.w3.org/2000/svg" xmlns:xlink="http://www.w3.org/1999/xlink" xmlns:lucid="lucid" width="2512" height="1879"><g transform="translate(-2486 -4178)" lucid:page-tab-id="0_0"><path d="M0 0h10578.03v8768.17H0z" fill="#fff"/><path d="M2880 4334.83h1420V5920H2880z" stroke="#333" stroke-width="2" fill-opacity="0"/><use xlink:href="#a" transform="matrix(1,0,0,1,2888,4342.827175186933) translate(660.0527777777778 19.73333333333333)"/><path d="M2700 5077.16c0 10.9-8.83 19.75-19.74 19.75-10.9 0-19.75-8.83-19.75-19.74 0-10.9 8.86-19.75 19.76-19.75 10.9 0 19.75 8.86 19.75 19.76z" stroke="#000" stroke-width="2" fill="#fff"/><path d="M2680.26 5096.9v47.3a27.6 27.6 0 0 0 4.28 14.77l35.72 56.44m-40-63.2l-40 63.2m0-98.74h80" stroke="#000" stroke-width="2" fill="none"/><path d="M2640.26 5065.4a8 8 0 0 1 8-8h64a8 8 0 0 1 8 8v164a8 8 0 0 1-8 8h-64a8 8 0 0 1-8-8z" fill="none"/><use xlink:href="#b" transform="matrix(1,0,0,1,2560.2625463884533,5215.413587593466) translate(94.03148148148148 19.73333333333333)"/><path d="M3370.92 4654.83c0 33.13-51.7 60-115.46 60-63.77 0-115.46-26.87-115.46-60 0-33.14 51.7-60 115.46-60 63.77 0 115.46 26.86 115.46 60z" stroke="#333" stroke-width="2" fill="#fff"/><use xlink:href="#c" transform="matrix(1,0,0,1,3140,4594.827175186933) translate(63.465185185185206 49.733333333333334)"/><use xlink:href="#d" transform="matrix(1,0,0,1,3140,4594.827175186933) translate(56.6475925925926 79.33333333333333)"/><use xlink:href="#e" transform="matrix(1,0,0,1,3140,4594.827175186933) translate(127.90685185185185 79.33333333333333)"/><path d="M3370.92 4474.83c0 33.13-51.7 60-115.46 60-63.77 0-115.46-26.87-115.46-60 0-33.14 51.7-60 115.46-60 63.77 0 115.46 26.86 115.46 60z" stroke="#333" stroke-width="2" fill="#fff"/><use xlink:href="#f" transform="matrix(1,0,0,1,3140,4414.827175186933) translate(89.09111111111112 49.733333333333334)"/><use xlink:href="#g" transform="matrix(1,0,0,1,3140,4414.827175186933) translate(36.81148148148151 79.33333333333333)"/><use xlink:href="#e" transform="matrix(1,0,0,1,3140,4414.827175186933) translate(147.74296296296296 79.33333333333333)"/><path d="M2681.76 5136.35H2973a12 12 0 0 0 12-12v-637.52a12 12 0 0 1 12-12h141M2681.8 5136.35h-4.04" stroke="#333" stroke-width="2" fill="none"/><path d="M3139 4474.82v.4l.02.58h-1.05v-1.95h1.05z" stroke="#333" stroke-width=".05" fill="#333"/><path d="M2681.76 5136.35H2973a12 12 0 0 0 12-12v-457.52a12 12 0 0 1 12-12h141M2681.8 5136.35h-4.04" stroke="#333" stroke-width="2" fill="none"/><path d="M3139 4654.82v.4l.02.58h-1.05v-1.95h1.05z" stroke="#333" stroke-width=".05" fill="#333"/><path d="M2681.76 5136.35H2973a12 12 0 0 0 12-12v-277.52a12 12 0 0 1 12-12h141M2681.8 5136.35h-4.04" stroke="#333" stroke-width="2" fill="none"/><path d="M3139 4834.82v.4l.02.58h-1.05v-1.95h1.05z" stroke="#333" stroke-width=".05" fill="#333"/><path d="M4420 4660h400v160h-400z" stroke="#000" stroke-width="2" fill="#fff"/><use xlink:href="#h" transform="matrix(1,0,0,1,4425,4665) translate(131.14074074074077 80.67083333333333)"/><path d="M3370.92 4834.83c0 33.13-51.7 60-115.46 60-63.77 0-115.46-26.87-115.46-60 0-33.14 51.7-60 115.46-60 63.77 0 115.46 26.86 115.46 60z" stroke="#333" stroke-width="2" fill="#fff"/><use xlink:href="#i" transform="matrix(1,0,0,1,3140,4774.827175186933) translate(34.07074074074076 49.733333333333334)"/><use xlink:href="#j" transform="matrix(1,0,0,1,3140,4774.827175186933) translate(112.04481481481481 49.733333333333334)"/><use xlink:href="#k" transform="matrix(1,0,0,1,3140,4774.827175186933) translate(28.623518518518534 79.33333333333333)"/><use xlink:href="#d" transform="matrix(1,0,0,1,3140,4774.827175186933) translate(84.67166666666667 79.33333333333333)"/><use xlink:href="#e" transform="matrix(1,0,0,1,3140,4774.827175186933) translate(155.93092592592592 79.33333333333333)"/><path d="M3861.84 4654.83c0 33.13-51.7 60-115.46 60-63.77 0-115.46-26.87-115.46-60 0-33.14 51.7-60 115.46-60 63.77 0 115.46 26.86 115.46 60z" stroke="#333" stroke-width="2" fill="#fff"/><use xlink:href="#l" transform="matrix(1,0,0,1,3630.9197740766595,4594.827175186933) translate(42.29296296296299 49.733333333333334)"/><use xlink:href="#j" transform="matrix(1,0,0,1,3630.9197740766595,4594.827175186933) translate(103.8225925925926 49.733333333333334)"/><use xlink:href="#m" transform="matrix(1,0,0,1,3630.9197740766595,4594.827175186933) translate(40.16888888888893 79.33333333333333)"/><use xlink:href="#n" transform="matrix(1,0,0,1,3630.9197740766595,4594.827175186933) translate(73.0577777777778 79.33333333333333)"/><path d="M3370.92 5014.83c0 33.13-51.7 60-115.46 60-63.77 0-115.46-26.87-115.46-60 0-33.14 51.7-60 115.46-60 63.77 0 115.46 26.86 115.46 60z" stroke="#333" stroke-width="2" fill="#fff"/><use xlink:href="#o" transform="matrix(1,0,0,1,3140,4954.827175186933) translate(34.002222222222244 49.733333333333334)"/><use xlink:href="#p" transform="matrix(1,0,0,1,3140,4954.827175186933) translate(84.70592592592594 49.733333333333334)"/><use xlink:href="#q" transform="matrix(1,0,0,1,3140,4954.827175186933) translate(176.45222222222222 49.733333333333334)"/><use xlink:href="#d" transform="matrix(1,0,0,1,3140,4954.827175186933) translate(56.6475925925926 79.33333333333333)"/><use xlink:href="#e" transform="matrix(1,0,0,1,3140,4954.827175186933) translate(127.90685185185185 79.33333333333333)"/><path d="M3861.84 5014.83c0 33.13-51.7 60-115.46 60-63.77 0-115.46-26.87-115.46-60 0-33.14 51.7-60 115.46-60 63.77 0 115.46 26.86 115.46 60z" stroke="#333" stroke-width="2" fill="#fff"/><use xlink:href="#r" transform="matrix(1,0,0,1,3630.9197740766595,4954.827175186933) translate(32.7003703703704 64.73333333333333)"/><use xlink:href="#s" transform="matrix(1,0,0,1,3630.9197740766595,4954.827175186933) translate(113.4151851851852 64.73333333333333)"/><path d="M2681.76 5136.35H2973a12 12 0 0 0 12-12v-97.52a12 12 0 0 1 12-12h141M2681.8 5136.35h-4.04" stroke="#333" stroke-width="2" fill="none"/><path d="M3139 5014.82v.4l.02.58h-1.05v-1.95h1.05z" stroke="#333" stroke-width=".05" fill="#333"/><path d="M3372.92 4654.83h238.5" stroke="#333" stroke-width="2" fill="none"/><path d="M3372.95 4655.8h-1.05l.02-.97v-.4l-.02-.58h1.05z" stroke="#333" stroke-width=".05" fill="#333"/><path d="M3626.68 4654.83l-14.26 4.63v-9.27z" stroke="#333" stroke-width="2" fill="#333"/><use xlink:href="#t" transform="matrix(1,0,0,1,3426.988292556848,4621.227175186933) translate(0.0049999999999954525 19.73333333333333)"/><path d="M3372.92 5014.83h238.5" stroke="#333" stroke-width="2" fill="none"/><path d="M3372.95 5015.8h-1.05l.02-.97v-.4l-.02-.58h1.05z" stroke="#333" stroke-width=".05" fill="#333"/><path d="M3626.68 5014.83l-14.26 4.63v-9.27z" stroke="#333" stroke-width="2" fill="#333"/><use xlink:href="#t" transform="matrix(1,0,0,1,3426.988292556848,4981.227175186933) translate(0.0049999999999954525 19.73333333333333)"/><path d="M3370.92 5260c0 33.14-51.7 60-115.46 60-63.77 0-115.46-26.86-115.46-60s51.7-60 115.46-60c63.77 0 115.46 26.86 115.46 60z" stroke="#333" stroke-width="2" fill="#fff"/><use xlink:href="#u" transform="matrix(1,0,0,1,3140,5200) translate(38.45592592592593 64.73333333333333)"/><use xlink:href="#v" transform="matrix(1,0,0,1,3140,5200) translate(98.13555555555556 64.73333333333333)"/><path d="M3370.92 5440c0 33.14-51.7 60-115.46 60-63.77 0-115.46-26.86-115.46-60s51.7-60 115.46-60c63.77 0 115.46 26.86 115.46 60z" stroke="#333" stroke-width="2" fill="#fff"/><use xlink:href="#o" transform="matrix(1,0,0,1,3140,5380) translate(34.002222222222244 49.733333333333334)"/><use xlink:href="#p" transform="matrix(1,0,0,1,3140,5380) translate(84.70592592592594 49.733333333333334)"/><use xlink:href="#q" transform="matrix(1,0,0,1,3140,5380) translate(176.45222222222222 49.733333333333334)"/><use xlink:href="#v" transform="matrix(1,0,0,1,3140,5380) translate(68.29574074074075 79.33333333333333)"/><path d="M3370.92 5620c0 33.14-51.7 60-115.46 60-63.77 0-115.46-26.86-115.46-60s51.7-60 115.46-60c63.77 0 115.46 26.86 115.46 60z" stroke="#333" stroke-width="2" fill="#fff"/><use xlink:href="#i" transform="matrix(1,0,0,1,3140,5560) translate(34.07074074074076 49.733333333333334)"/><use xlink:href="#j" transform="matrix(1,0,0,1,3140,5560) translate(112.04481481481481 49.733333333333334)"/><use xlink:href="#k" transform="matrix(1,0,0,1,3140,5560) translate(40.27166666666669 79.33333333333333)"/><use xlink:href="#v" transform="matrix(1,0,0,1,3140,5560) translate(96.31981481481482 79.33333333333333)"/><path d="M3370.92 5800c0 33.14-51.7 60-115.46 60-63.77 0-115.46-26.86-115.46-60s51.7-60 115.46-60c63.77 0 115.46 26.86 115.46 60z" stroke="#333" stroke-width="2" fill="#fff"/><use xlink:href="#w" transform="matrix(1,0,0,1,3140,5740) translate(36.09203703703705 64.73333333333333)"/><use xlink:href="#v" transform="matrix(1,0,0,1,3140,5740) translate(100.49944444444446 64.73333333333333)"/><path d="M3372.92 5440h361.46a12 12 0 0 0 12-12v-333.67" stroke="#333" stroke-width="2" fill="none"/><path d="M3372.95 5440.98h-1.05l.02-.97v-.4l-.02-.58h1.05z" stroke="#333" stroke-width=".05" fill="#333"/><path d="M3746.38 5079.06l4.63 14.27h-9.26z" stroke="#333" stroke-width="2" fill="#333"/><use xlink:href="#t" transform="matrix(1,0,0,1,3754.379661114989,5278.828965829217) translate(0.0049999999999954525 19.73333333333333)"/><path d="M3372.92 5800h149.45a12 12 0 0 0 12-12v-343c-2.76 0-5-2.24-5-5s2.24-5 5-5v-338.12a12 12 0 0 0-12-12H3264.9" stroke="#333" stroke-width="2" fill="none"/><path d="M3372.95 5800.98h-1.05l.02-.97v-.4l-.02-.58h1.05z" stroke="#333" stroke-width=".05" fill="#333"/><path d="M3257.8 5078.07l13.5 6.52-6.4 6.68z" stroke="#333" stroke-width="2" fill="#333"/><use xlink:href="#t" transform="matrix(1,0,0,1,3542.367345357755,5635.596940382814) translate(0.0049999999999954525 19.73333333333333)"/><path d="M4418 4740H3267.46a12 12 0 0 1-12-12v-11.17" stroke="#333" stroke-width="2" fill="none"/><path d="M4419 4740.98h-1.03v-1.95h1.03zM3255.45 4715.83h1v1.02h-1.96v-1.04z" stroke="#333" stroke-width=".05" fill="#333"/><path d="M3138 5260h-141a12 12 0 0 1-12-12v-99.65a12 12 0 0 0-12-12h-291.24" stroke="#333" stroke-width="2" fill="none"/><path d="M3139 5260v.4l.02.58h-1.05v-1.95h1.05z" stroke="#333" stroke-width=".05" fill="#333"/><path d="M2681.8 5136.35h-4.04M3138 5440h-141a12 12 0 0 1-12-12v-279.65a12 12 0 0 0-12-12h-291.24" stroke="#333" stroke-width="2" fill="none"/><path d="M3139 5440v.4l.02.58h-1.05v-1.95h1.05z" stroke="#333" stroke-width=".05" fill="#333"/><path d="M2681.8 5136.35h-4.04M3138 5620h-141a12 12 0 0 1-12-12v-459.65a12 12 0 0 0-12-12h-291.24" stroke="#333" stroke-width="2" fill="none"/><path d="M3139 5620v.4l.02.58h-1.05v-1.95h1.05z" stroke="#333" stroke-width=".05" fill="#333"/><path d="M2681.8 5136.35h-4.04M3138 5800h-141a12 12 0 0 1-12-12v-639.65a12 12 0 0 0-12-12h-291.24" stroke="#333" stroke-width="2" fill="none"/><path d="M3139 5800v.4l.02.58h-1.05v-1.95h1.05z" stroke="#333" stroke-width=".05" fill="#333"/><path d="M2681.8 5136.35h-4.04" stroke="#333" stroke-width="2" fill="none"/><path d="M4420 5054.83h400v160h-400z" stroke="#000" stroke-width="2" fill="#fff"/><g><use xlink:href="#x" transform="matrix(1,0,0,1,4425,5059.827175186933) translate(136.2111111111111 80.67083333333333)"/></g><path d="M4218.5 5134.83c0 33.13-51.7 60-115.46 60-63.77 0-115.46-26.87-115.46-60 0-33.14 51.7-60 115.46-60 63.77 0 115.46 26.86 115.46 60z" stroke="#333" stroke-width="2" fill="#fff"/><g><use xlink:href="#o" transform="matrix(1,0,0,1,3987.580175923341,5074.827175186933) translate(44.3827777777778 64.73333333333333)"/><use xlink:href="#y" transform="matrix(1,0,0,1,3987.580175923341,5074.827175186933) translate(95.08648148148148 64.73333333333333)"/></g><path d="M3871.83 5014.83h40.88a12 12 0 0 1 12 12v96a12 12 0 0 0 12 12h48.88" stroke="#333" stroke-width="2" fill="none"/><path d="M3864.8 5014.83l12.9-7.64.02 15.26z" stroke="#333" stroke-width="2" fill="#333"/><path d="M3986.58 5134.82v.4l.02.58h-1.05v-1.95h1.05z" stroke="#333" stroke-width=".05" fill="#333"/><g><use xlink:href="#z" transform="matrix(1,0,0,1,3932.709862,5022.5073710086135) translate(0.0049999999999954525 19.73333333333333)"/></g><path d="M4418 5134.83h-197.5" stroke="#333" stroke-width="2" fill="none"/><path d="M4419 5135.8h-1.03v-1.95h1.03zM4220.53 5135.8h-1.05l.02-.97v-.4l-.02-.58h1.05z" stroke="#333" stroke-width=".05" fill="#333"/><defs><path d="M30-248c87 1 191-15 191 75 0 78-77 80-158 76V0H30v-248zm33 125c57 0 124 11 124-50 0-59-68-47-124-48v98" id="A"/><path d="M114-163C36-179 61-72 57 0H25l-1-190h30c1 12-1 29 2 39 6-27 23-49 58-41v29" id="B"/><path d="M100-194c62-1 85 37 85 99 1 63-27 99-86 99S16-35 15-95c0-66 28-99 85-99zM99-20c44 1 53-31 53-75 0-43-8-75-51-75s-53 32-53 75 10 74 51 75" id="C"/><path d="M85-194c31 0 48 13 60 33l-1-100h32l1 261h-30c-2-10 0-23-3-31C134-8 116 4 85 4 32 4 16-35 15-94c0-66 23-100 70-100zm9 24c-40 0-46 34-46 75 0 40 6 74 45 74 42 0 51-32 51-76 0-42-9-74-50-73" id="D"/><path d="M84 4C-5 8 30-112 23-190h32v120c0 31 7 50 39 49 72-2 45-101 50-169h31l1 190h-30c-1-10 1-25-2-33-11 22-28 36-60 37" id="E"/><path d="M96-169c-40 0-48 33-48 73s9 75 48 75c24 0 41-14 43-38l32 2c-6 37-31 61-74 61-59 0-76-41-82-99-10-93 101-131 147-64 4 7 5 14 7 22l-32 3c-4-21-16-35-41-35" id="F"/><path d="M59-47c-2 24 18 29 38 22v24C64 9 27 4 27-40v-127H5v-23h24l9-43h21v43h35v23H59v120" id="G"/><g id="a"><use transform="matrix(0.0685185185185185,0,0,0.0685185185185185,0,0)" xlink:href="#A"/><use transform="matrix(0.0685185185185185,0,0,0.0685185185185185,16.444444444444443,0)" xlink:href="#B"/><use transform="matrix(0.0685185185185185,0,0,0.0685185185185185,24.598148148148145,0)" xlink:href="#C"/><use transform="matrix(0.0685185185185185,0,0,0.0685185185185185,38.30185185185184,0)" xlink:href="#D"/><use transform="matrix(0.0685185185185185,0,0,0.0685185185185185,52.005555555555546,0)" xlink:href="#E"/><use transform="matrix(0.0685185185185185,0,0,0.0685185185185185,65.70925925925924,0)" xlink:href="#F"/><use transform="matrix(0.0685185185185185,0,0,0.0685185185185185,78.04259259259257,0)" xlink:href="#G"/></g><path d="M232-93c-1 65-40 97-104 97C67 4 28-28 28-90v-158h33c8 89-33 224 67 224 102 0 64-133 71-224h33v155" id="H"/><path d="M135-143c-3-34-86-38-87 0 15 53 115 12 119 90S17 21 10-45l28-5c4 36 97 45 98 0-10-56-113-15-118-90-4-57 82-63 122-42 12 7 21 19 24 35" id="I"/><path d="M100-194c63 0 86 42 84 106H49c0 40 14 67 53 68 26 1 43-12 49-29l28 8c-11 28-37 45-77 45C44 4 14-33 15-96c1-61 26-98 85-98zm52 81c6-60-76-77-97-28-3 7-6 17-6 28h103" id="J"/><g id="b"><use transform="matrix(0.0685185185185185,0,0,0.0685185185185185,0,0)" xlink:href="#H"/><use transform="matrix(0.0685185185185185,0,0,0.0685185185185185,17.746296296296293,0)" xlink:href="#I"/><use transform="matrix(0.0685185185185185,0,0,0.0685185185185185,30.079629629629622,0)" xlink:href="#J"/><use transform="matrix(0.0685185185185185,0,0,0.0685185185185185,43.783333333333324,0)" xlink:href="#B"/></g><path d="M106-169C34-169 62-67 57 0H25v-261h32l-1 103c12-21 28-36 61-36 89 0 53 116 60 194h-32v-121c2-32-8-49-39-48" id="K"/><path d="M141-36C126-15 110 5 73 4 37 3 15-17 15-53c-1-64 63-63 125-63 3-35-9-54-41-54-24 1-41 7-42 31l-33-3c5-37 33-52 76-52 45 0 72 20 72 64v82c-1 20 7 32 28 27v20c-31 9-61-2-59-35zM48-53c0 20 12 33 32 33 41-3 63-29 60-74-43 2-92-5-92 41" id="L"/><g id="c"><use transform="matrix(0.0685185185185185,0,0,0.0685185185185185,0,0)" xlink:href="#A"/><use transform="matrix(0.0685185185185185,0,0,0.0685185185185185,16.444444444444443,0)" xlink:href="#E"/><use transform="matrix(0.0685185185185185,0,0,0.0685185185185185,30.148148148148145,0)" xlink:href="#B"/><use transform="matrix(0.0685185185185185,0,0,0.0685185185185185,38.30185185185185,0)" xlink:href="#F"/><use transform="matrix(0.0685185185185185,0,0,0.0685185185185185,50.63518518518518,0)" xlink:href="#K"/><use transform="matrix(0.0685185185185185,0,0,0.0685185185185185,64.33888888888887,0)" xlink:href="#L"/><use transform="matrix(0.0685185185185185,0,0,0.0685185185185185,78.04259259259257,0)" xlink:href="#I"/><use transform="matrix(0.0685185185185185,0,0,0.0685185185185185,90.3759259259259,0)" xlink:href="#J"/></g><path d="M185-189c-5-48-123-54-124 2 14 75 158 14 163 119 3 78-121 87-175 55-17-10-28-26-33-46l33-7c5 56 141 63 141-1 0-78-155-14-162-118-5-82 145-84 179-34 5 7 8 16 11 25" id="M"/><path d="M115-194c55 1 70 41 70 98S169 2 115 4C84 4 66-9 55-30l1 105H24l-1-265h31l2 30c10-21 28-34 59-34zm-8 174c40 0 45-34 45-75s-6-73-45-74c-42 0-51 32-51 76 0 43 10 73 51 73" id="N"/><path d="M33 0v-38h34V0H33" id="O"/><g id="d"><use transform="matrix(0.0685185185185185,0,0,0.0685185185185185,0,0)" xlink:href="#M"/><use transform="matrix(0.0685185185185185,0,0,0.0685185185185185,16.444444444444443,0)" xlink:href="#K"/><use transform="matrix(0.0685185185185185,0,0,0.0685185185185185,30.148148148148145,0)" xlink:href="#C"/><use transform="matrix(0.0685185185185185,0,0,0.0685185185185185,43.85185185185185,0)" xlink:href="#N"/><use transform="matrix(0.0685185185185185,0,0,0.0685185185185185,57.55555555555555,0)" xlink:href="#O"/></g><path d="M212-179c-10-28-35-45-73-45-59 0-87 40-87 99 0 60 29 101 89 101 43 0 62-24 78-52l27 14C228-24 195 4 139 4 59 4 22-46 18-125c-6-104 99-153 187-111 19 9 31 26 39 46" id="P"/><g id="e"><use transform="matrix(0.0685185185185185,0,0,0.0685185185185185,0,0)" xlink:href="#P"/><use transform="matrix(0.0685185185185185,0,0,0.0685185185185185,17.746296296296293,0)" xlink:href="#L"/><use transform="matrix(0.0685185185185185,0,0,0.0685185185185185,31.449999999999996,0)" xlink:href="#B"/><use transform="matrix(0.0685185185185185,0,0,0.0685185185185185,39.6037037037037,0)" xlink:href="#G"/></g><path d="M137 0h-34L2-248h35l83 218 83-218h36" id="Q"/><path d="M24-231v-30h32v30H24zM24 0v-190h32V0H24" id="R"/><path d="M206 0h-36l-40-164L89 0H53L-1-190h32L70-26l43-164h34l41 164 42-164h31" id="S"/><g id="f"><use transform="matrix(0.0685185185185185,0,0,0.0685185185185185,0,0)" xlink:href="#Q"/><use transform="matrix(0.0685185185185185,0,0,0.0685185185185185,15.964814814814813,0)" xlink:href="#R"/><use transform="matrix(0.0685185185185185,0,0,0.0685185185185185,21.377777777777776,0)" xlink:href="#J"/><use transform="matrix(0.0685185185185185,0,0,0.0685185185185185,35.081481481481475,0)" xlink:href="#S"/></g><path d="M117-194c89-4 53 116 60 194h-32v-121c0-31-8-49-39-48C34-167 62-67 57 0H25l-1-190h30c1 10-1 24 2 32 11-22 29-35 61-36" id="T"/><path d="M177-190C167-65 218 103 67 71c-23-6-38-20-44-43l32-5c15 47 100 32 89-28v-30C133-14 115 1 83 1 29 1 15-40 15-95c0-56 16-97 71-98 29-1 48 16 59 35 1-10 0-23 2-32h30zM94-22c36 0 50-32 50-73 0-42-14-75-50-75-39 0-46 34-46 75s6 73 46 73" id="U"/><g id="g"><use transform="matrix(0.0685185185185185,0,0,0.0685185185185185,0,0)" xlink:href="#M"/><use transform="matrix(0.0685185185185185,0,0,0.0685185185185185,16.444444444444443,0)" xlink:href="#K"/><use transform="matrix(0.0685185185185185,0,0,0.0685185185185185,30.148148148148145,0)" xlink:href="#C"/><use transform="matrix(0.0685185185185185,0,0,0.0685185185185185,43.85185185185185,0)" xlink:href="#N"/><use transform="matrix(0.0685185185185185,0,0,0.0685185185185185,57.55555555555555,0)" xlink:href="#N"/><use transform="matrix(0.0685185185185185,0,0,0.0685185185185185,71.25925925925925,0)" xlink:href="#R"/><use transform="matrix(0.0685185185185185,0,0,0.0685185185185185,76.67222222222222,0)" xlink:href="#T"/><use transform="matrix(0.0685185185185185,0,0,0.0685185185185185,90.37592592592591,0)" xlink:href="#U"/></g><path fill="#333" d="M127-220V0H93v-220H8v-28h204v28h-85" id="V"/><path fill="#333" d="M114-163C36-179 61-72 57 0H25l-1-190h30c1 12-1 29 2 39 6-27 23-49 58-41v29" id="W"/><path fill="#333" d="M141-36C126-15 110 5 73 4 37 3 15-17 15-53c-1-64 63-63 125-63 3-35-9-54-41-54-24 1-41 7-42 31l-33-3c5-37 33-52 76-52 45 0 72 20 72 64v82c-1 20 7 32 28 27v20c-31 9-61-2-59-35zM48-53c0 20 12 33 32 33 41-3 63-29 60-74-43 2-92-5-92 41" id="X"/><path fill="#333" d="M117-194c89-4 53 116 60 194h-32v-121c0-31-8-49-39-48C34-167 62-67 57 0H25l-1-190h30c1 10-1 24 2 32 11-22 29-35 61-36" id="Y"/><path fill="#333" d="M135-143c-3-34-86-38-87 0 15 53 115 12 119 90S17 21 10-45l28-5c4 36 97 45 98 0-10-56-113-15-118-90-4-57 82-63 122-42 12 7 21 19 24 35" id="Z"/><path fill="#333" d="M96-169c-40 0-48 33-48 73s9 75 48 75c24 0 41-14 43-38l32 2c-6 37-31 61-74 61-59 0-76-41-82-99-10-93 101-131 147-64 4 7 5 14 7 22l-32 3c-4-21-16-35-41-35" id="aa"/><path fill="#333" d="M59-47c-2 24 18 29 38 22v24C64 9 27 4 27-40v-127H5v-23h24l9-43h21v43h35v23H59v120" id="ab"/><path fill="#333" d="M24-231v-30h32v30H24zM24 0v-190h32V0H24" id="ac"/><path fill="#333" d="M100-194c62-1 85 37 85 99 1 63-27 99-86 99S16-35 15-95c0-66 28-99 85-99zM99-20c44 1 53-31 53-75 0-43-8-75-51-75s-53 32-53 75 10 74 51 75" id="ad"/><g id="h"><use transform="matrix(0.0685185185185185,0,0,0.0685185185185185,0,0)" xlink:href="#V"/><use transform="matrix(0.0685185185185185,0,0,0.0685185185185185,14.114814814814812,0)" xlink:href="#W"/><use transform="matrix(0.0685185185185185,0,0,0.0685185185185185,22.268518518518512,0)" xlink:href="#X"/><use transform="matrix(0.0685185185185185,0,0,0.0685185185185185,35.972222222222214,0)" xlink:href="#Y"/><use transform="matrix(0.0685185185185185,0,0,0.0685185185185185,49.67592592592592,0)" xlink:href="#Z"/><use transform="matrix(0.0685185185185185,0,0,0.0685185185185185,62.009259259259245,0)" xlink:href="#X"/><use transform="matrix(0.0685185185185185,0,0,0.0685185185185185,75.71296296296295,0)" xlink:href="#aa"/><use transform="matrix(0.0685185185185185,0,0,0.0685185185185185,88.04629629629628,0)" xlink:href="#ab"/><use transform="matrix(0.0685185185185185,0,0,0.0685185185185185,94.89814814814814,0)" xlink:href="#ac"/><use transform="matrix(0.0685185185185185,0,0,0.0685185185185185,100.31111111111109,0)" xlink:href="#ad"/><use transform="matrix(0.0685185185185185,0,0,0.0685185185185185,114.01481481481478,0)" xlink:href="#Y"/></g><path d="M30-248c118-7 216 8 213 122C240-48 200 0 122 0H30v-248zM63-27c89 8 146-16 146-99s-60-101-146-95v194" id="ae"/><path d="M24 0v-261h32V0H24" id="af"/><g id="i"><use transform="matrix(0.0685185185185185,0,0,0.0685185185185185,0,0)" xlink:href="#ae"/><use transform="matrix(0.0685185185185185,0,0,0.0685185185185185,17.746296296296293,0)" xlink:href="#J"/><use transform="matrix(0.0685185185185185,0,0,0.0685185185185185,31.449999999999996,0)" xlink:href="#af"/><use transform="matrix(0.0685185185185185,0,0,0.0685185185185185,36.86296296296297,0)" xlink:href="#J"/><use transform="matrix(0.0685185185185185,0,0,0.0685185185185185,50.56666666666666,0)" xlink:href="#G"/><use transform="matrix(0.0685185185185185,0,0,0.0685185185185185,57.41851851851851,0)" xlink:href="#J"/></g><g id="j"><use transform="matrix(0.0685185185185185,0,0,0.0685185185185185,0,0)" xlink:href="#A"/><use transform="matrix(0.0685185185185185,0,0,0.0685185185185185,16.444444444444443,0)" xlink:href="#B"/><use transform="matrix(0.0685185185185185,0,0,0.0685185185185185,24.598148148148145,0)" xlink:href="#C"/><use transform="matrix(0.0685185185185185,0,0,0.0685185185185185,38.30185185185184,0)" xlink:href="#D"/><use transform="matrix(0.0685185185185185,0,0,0.0685185185185185,52.005555555555546,0)" xlink:href="#E"/><use transform="matrix(0.0685185185185185,0,0,0.0685185185185185,65.70925925925924,0)" xlink:href="#F"/><use transform="matrix(0.0685185185185185,0,0,0.0685185185185185,78.04259259259257,0)" xlink:href="#G"/></g><path d="M101-234c-31-9-42 10-38 44h38v23H63V0H32v-167H5v-23h27c-7-52 17-82 69-68v24" id="ag"/><path d="M210-169c-67 3-38 105-44 169h-31v-121c0-29-5-50-35-48C34-165 62-65 56 0H25l-1-190h30c1 10-1 24 2 32 10-44 99-50 107 0 11-21 27-35 58-36 85-2 47 119 55 194h-31v-121c0-29-5-49-35-48" id="ah"/><g id="k"><use transform="matrix(0.0685185185185185,0,0,0.0685185185185185,0,0)" xlink:href="#ag"/><use transform="matrix(0.0685185185185185,0,0,0.0685185185185185,6.85185185185185,0)" xlink:href="#B"/><use transform="matrix(0.0685185185185185,0,0,0.0685185185185185,15.005555555555553,0)" xlink:href="#C"/><use transform="matrix(0.0685185185185185,0,0,0.0685185185185185,28.709259259259255,0)" xlink:href="#ah"/></g><path d="M240 0l2-218c-23 76-54 145-80 218h-23L58-218 59 0H30v-248h44l77 211c21-75 51-140 76-211h43V0h-30" id="ai"/><path d="M143 0L79-87 56-68V0H24v-261h32v163l83-92h37l-77 82L181 0h-38" id="aj"/><g id="l"><use transform="matrix(0.0685185185185185,0,0,0.0685185185185185,0,0)" xlink:href="#ai"/><use transform="matrix(0.0685185185185185,0,0,0.0685185185185185,20.487037037037034,0)" xlink:href="#L"/><use transform="matrix(0.0685185185185185,0,0,0.0685185185185185,34.190740740740736,0)" xlink:href="#B"/><use transform="matrix(0.0685185185185185,0,0,0.0685185185185185,42.344444444444434,0)" xlink:href="#aj"/></g><g id="m"><use transform="matrix(0.0685185185185185,0,0,0.0685185185185185,0,0)" xlink:href="#L"/><use transform="matrix(0.0685185185185185,0,0,0.0685185185185185,13.7037037037037,0)" xlink:href="#I"/></g><g id="n"><use transform="matrix(0.0685185185185185,0,0,0.0685185185185185,0,0)" xlink:href="#A"/><use transform="matrix(0.0685185185185185,0,0,0.0685185185185185,16.444444444444443,0)" xlink:href="#E"/><use transform="matrix(0.0685185185185185,0,0,0.0685185185185185,30.148148148148145,0)" xlink:href="#B"/><use transform="matrix(0.0685185185185185,0,0,0.0685185185185185,38.30185185185185,0)" xlink:href="#F"/><use transform="matrix(0.0685185185185185,0,0,0.0685185185185185,50.63518518518518,0)" xlink:href="#K"/><use transform="matrix(0.0685185185185185,0,0,0.0685185185185185,64.33888888888887,0)" xlink:href="#L"/><use transform="matrix(0.0685185185185185,0,0,0.0685185185185185,78.04259259259257,0)" xlink:href="#I"/><use transform="matrix(0.0685185185185185,0,0,0.0685185185185185,90.3759259259259,0)" xlink:href="#J"/><use transform="matrix(0.0685185185185185,0,0,0.0685185185185185,104.0796296296296,0)" xlink:href="#D"/></g><path d="M205 0l-28-72H64L36 0H1l101-248h38L239 0h-34zm-38-99l-47-123c-12 45-31 82-46 123h93" id="ak"/><g id="o"><use transform="matrix(0.0685185185185185,0,0,0.0685185185185185,0,0)" xlink:href="#ak"/><use transform="matrix(0.0685185185185185,0,0,0.0685185185185185,16.444444444444443,0)" xlink:href="#D"/><use transform="matrix(0.0685185185185185,0,0,0.0685185185185185,30.148148148148145,0)" xlink:href="#D"/></g><g id="p"><use transform="matrix(0.0685185185185185,0,0,0.0685185185185185,0,0)" xlink:href="#A"/><use transform="matrix(0.0685185185185185,0,0,0.0685185185185185,16.444444444444443,0)" xlink:href="#B"/><use transform="matrix(0.0685185185185185,0,0,0.0685185185185185,24.598148148148145,0)" xlink:href="#C"/><use transform="matrix(0.0685185185185185,0,0,0.0685185185185185,38.30185185185184,0)" xlink:href="#D"/><use transform="matrix(0.0685185185185185,0,0,0.0685185185185185,52.005555555555546,0)" xlink:href="#E"/><use transform="matrix(0.0685185185185185,0,0,0.0685185185185185,65.70925925925924,0)" xlink:href="#F"/><use transform="matrix(0.0685185185185185,0,0,0.0685185185185185,78.04259259259257,0)" xlink:href="#G"/></g><g id="q"><use transform="matrix(0.0685185185185185,0,0,0.0685185185185185,0,0)" xlink:href="#G"/><use transform="matrix(0.0685185185185185,0,0,0.0685185185185185,6.85185185185185,0)" xlink:href="#C"/></g><g id="r"><use transform="matrix(0.0685185185185185,0,0,0.0685185185185185,0,0)" xlink:href="#P"/><use transform="matrix(0.0685185185185185,0,0,0.0685185185185185,17.746296296296293,0)" xlink:href="#B"/><use transform="matrix(0.0685185185185185,0,0,0.0685185185185185,25.899999999999995,0)" xlink:href="#J"/><use transform="matrix(0.0685185185185185,0,0,0.0685185185185185,39.603703703703694,0)" xlink:href="#L"/><use transform="matrix(0.0685185185185185,0,0,0.0685185185185185,53.307407407407396,0)" xlink:href="#G"/><use transform="matrix(0.0685185185185185,0,0,0.0685185185185185,60.159259259259244,0)" xlink:href="#J"/></g><g id="s"><use transform="matrix(0.0685185185185185,0,0,0.0685185185185185,0,0)" xlink:href="#A"/><use transform="matrix(0.0685185185185185,0,0,0.0685185185185185,16.444444444444443,0)" xlink:href="#B"/><use transform="matrix(0.0685185185185185,0,0,0.0685185185185185,24.598148148148145,0)" xlink:href="#C"/><use transform="matrix(0.0685185185185185,0,0,0.0685185185185185,38.30185185185184,0)" xlink:href="#D"/><use transform="matrix(0.0685185185185185,0,0,0.0685185185185185,52.005555555555546,0)" xlink:href="#E"/><use transform="matrix(0.0685185185185185,0,0,0.0685185185185185,65.70925925925924,0)" xlink:href="#F"/><use transform="matrix(0.0685185185185185,0,0,0.0685185185185185,78.04259259259257,0)" xlink:href="#G"/></g><path fill="#333" d="M18-100v-36l175-74v27L42-118l151 64v27" id="al"/><path fill="#333" d="M24 0v-261h32V0H24" id="am"/><path fill="#333" d="M84 4C-5 8 30-112 23-190h32v120c0 31 7 50 39 49 72-2 45-101 50-169h31l1 190h-30c-1-10 1-25-2-33-11 22-28 36-60 37" id="an"/><path fill="#333" d="M85-194c31 0 48 13 60 33l-1-100h32l1 261h-30c-2-10 0-23-3-31C134-8 116 4 85 4 32 4 16-35 15-94c0-66 23-100 70-100zm9 24c-40 0-46 34-46 75 0 40 6 74 45 74 42 0 51-32 51-76 0-42-9-74-50-73" id="ao"/><path fill="#333" d="M100-194c63 0 86 42 84 106H49c0 40 14 67 53 68 26 1 43-12 49-29l28 8c-11 28-37 45-77 45C44 4 14-33 15-96c1-61 26-98 85-98zm52 81c6-60-76-77-97-28-3 7-6 17-6 28h103" id="ap"/><path fill="#333" d="M18-27v-27l151-64-151-65v-27l175 74v36" id="aq"/><g id="t"><use transform="matrix(0.0685185185185185,0,0,0.0685185185185185,0,0)" xlink:href="#al"/><use transform="matrix(0.0685185185185185,0,0,0.0685185185185185,14.388888888888886,0)" xlink:href="#al"/><use transform="matrix(0.0685185185185185,0,0,0.0685185185185185,28.77777777777777,0)" xlink:href="#ac"/><use transform="matrix(0.0685185185185185,0,0,0.0685185185185185,34.190740740740736,0)" xlink:href="#Y"/><use transform="matrix(0.0685185185185185,0,0,0.0685185185185185,47.89444444444444,0)" xlink:href="#aa"/><use transform="matrix(0.0685185185185185,0,0,0.0685185185185185,60.22777777777777,0)" xlink:href="#am"/><use transform="matrix(0.0685185185185185,0,0,0.0685185185185185,65.64074074074072,0)" xlink:href="#an"/><use transform="matrix(0.0685185185185185,0,0,0.0685185185185185,79.34444444444442,0)" xlink:href="#ao"/><use transform="matrix(0.0685185185185185,0,0,0.0685185185185185,93.04814814814812,0)" xlink:href="#ap"/><use transform="matrix(0.0685185185185185,0,0,0.0685185185185185,106.75185185185181,0)" xlink:href="#Z"/><use transform="matrix(0.0685185185185185,0,0,0.0685185185185185,119.08518518518514,0)" xlink:href="#aq"/><use transform="matrix(0.0685185185185185,0,0,0.0685185185185185,133.47407407407403,0)" xlink:href="#aq"/></g><g id="u"><use transform="matrix(0.0685185185185185,0,0,0.0685185185185185,0,0)" xlink:href="#Q"/><use transform="matrix(0.0685185185185185,0,0,0.0685185185185185,15.964814814814813,0)" xlink:href="#R"/><use transform="matrix(0.0685185185185185,0,0,0.0685185185185185,21.377777777777776,0)" xlink:href="#J"/><use transform="matrix(0.0685185185185185,0,0,0.0685185185185185,35.081481481481475,0)" xlink:href="#S"/></g><g id="v"><use transform="matrix(0.0685185185185185,0,0,0.0685185185185185,0,0)" xlink:href="#M"/><use transform="matrix(0.0685185185185185,0,0,0.0685185185185185,16.444444444444443,0)" xlink:href="#E"/><use transform="matrix(0.0685185185185185,0,0,0.0685185185185185,30.148148148148145,0)" xlink:href="#N"/><use transform="matrix(0.0685185185185185,0,0,0.0685185185185185,43.85185185185185,0)" xlink:href="#N"/><use transform="matrix(0.0685185185185185,0,0,0.0685185185185185,57.55555555555555,0)" xlink:href="#af"/><use transform="matrix(0.0685185185185185,0,0,0.0685185185185185,62.968518518518515,0)" xlink:href="#R"/><use transform="matrix(0.0685185185185185,0,0,0.0685185185185185,68.38148148148147,0)" xlink:href="#J"/><use transform="matrix(0.0685185185185185,0,0,0.0685185185185185,82.08518518518517,0)" xlink:href="#I"/></g><g id="w"><use transform="matrix(0.0685185185185185,0,0,0.0685185185185185,0,0)" xlink:href="#M"/><use transform="matrix(0.0685185185185185,0,0,0.0685185185185185,16.444444444444443,0)" xlink:href="#K"/><use transform="matrix(0.0685185185185185,0,0,0.0685185185185185,30.148148148148145,0)" xlink:href="#C"/><use transform="matrix(0.0685185185185185,0,0,0.0685185185185185,43.85185185185185,0)" xlink:href="#N"/></g><path fill="#333" d="M212-179c-10-28-35-45-73-45-59 0-87 40-87 99 0 60 29 101 89 101 43 0 62-24 78-52l27 14C228-24 195 4 139 4 59 4 22-46 18-125c-6-104 99-153 187-111 19 9 31 26 39 46" id="ar"/><path fill="#333" d="M205 0l-28-72H64L36 0H1l101-248h38L239 0h-34zm-38-99l-47-123c-12 45-31 82-46 123h93" id="as"/><path fill="#333" d="M30-248c87 1 191-15 191 75 0 78-77 80-158 76V0H30v-248zm33 125c57 0 124 11 124-50 0-59-68-47-124-48v98" id="at"/><path fill="#333" d="M33 0v-248h34V0H33" id="au"/><g id="x"><use transform="matrix(0.0685185185185185,0,0,0.0685185185185185,0,0)" xlink:href="#ar"/><use transform="matrix(0.0685185185185185,0,0,0.0685185185185185,17.746296296296293,0)" xlink:href="#X"/><use transform="matrix(0.0685185185185185,0,0,0.0685185185185185,31.449999999999996,0)" xlink:href="#am"/><use transform="matrix(0.0685185185185185,0,0,0.0685185185185185,36.86296296296297,0)" xlink:href="#ad"/><use transform="matrix(0.0685185185185185,0,0,0.0685185185185185,50.56666666666666,0)" xlink:href="#W"/><use transform="matrix(0.0685185185185185,0,0,0.0685185185185185,58.72037037037036,0)" xlink:href="#ac"/><use transform="matrix(0.0685185185185185,0,0,0.0685185185185185,64.13333333333333,0)" xlink:href="#ap"/><use transform="matrix(0.0685185185185185,0,0,0.0685185185185185,77.83703703703702,0)" xlink:href="#as"/><use transform="matrix(0.0685185185185185,0,0,0.0685185185185185,94.28148148148146,0)" xlink:href="#at"/><use transform="matrix(0.0685185185185185,0,0,0.0685185185185185,110.7259259259259,0)" xlink:href="#au"/></g><path d="M190 0L58-211 59 0H30v-248h39L202-35l-2-213h31V0h-41" id="av"/><g id="y"><use transform="matrix(0.0685185185185185,0,0,0.0685185185185185,0,0)" xlink:href="#av"/><use transform="matrix(0.0685185185185185,0,0,0.0685185185185185,17.746296296296293,0)" xlink:href="#E"/><use transform="matrix(0.0685185185185185,0,0,0.0685185185185185,31.449999999999996,0)" xlink:href="#G"/><use transform="matrix(0.0685185185185185,0,0,0.0685185185185185,38.30185185185184,0)" xlink:href="#B"/><use transform="matrix(0.0685185185185185,0,0,0.0685185185185185,46.45555555555555,0)" xlink:href="#R"/><use transform="matrix(0.0685185185185185,0,0,0.0685185185185185,51.86851851851852,0)" xlink:href="#G"/><use transform="matrix(0.0685185185185185,0,0,0.0685185185185185,58.72037037037036,0)" xlink:href="#R"/><use transform="matrix(0.0685185185185185,0,0,0.0685185185185185,64.13333333333333,0)" xlink:href="#C"/><use transform="matrix(0.0685185185185185,0,0,0.0685185185185185,77.83703703703702,0)" xlink:href="#T"/></g><path fill="#333" d="M141 0L90-78 38 0H4l68-98-65-92h35l48 74 47-74h35l-64 92 68 98h-35" id="aw"/><g id="z"><use transform="matrix(0.0685185185185185,0,0,0.0685185185185185,0,0)" xlink:href="#al"/><use transform="matrix(0.0685185185185185,0,0,0.0685185185185185,14.388888888888886,0)" xlink:href="#al"/><use transform="matrix(0.0685185185185185,0,0,0.0685185185185185,28.77777777777777,0)" xlink:href="#ap"/><use transform="matrix(0.0685185185185185,0,0,0.0685185185185185,42.481481481481474,0)" xlink:href="#aw"/><use transform="matrix(0.0685185185185185,0,0,0.0685185185185185,54.8148148148148,0)" xlink:href="#ab"/><use transform="matrix(0.0685185185185185,0,0,0.0685185185185185,61.66666666666665,0)" xlink:href="#ap"/><use transform="matrix(0.0685185185185185,0,0,0.0685185185185185,75.37037037037035,0)" xlink:href="#Y"/><use transform="matrix(0.0685185185185185,0,0,0.0685185185185185,89.07407407407405,0)" xlink:href="#ao"/><use transform="matrix(0.0685185185185185,0,0,0.0685185185185185,102.77777777777774,0)" xlink:href="#Z"/><use transform="matrix(0.0685185185185185,0,0,0.0685185185185185,115.11111111111107,0)" xlink:href="#aq"/><use transform="matrix(0.0685185185185185,0,0,0.0685185185185185,129.49999999999994,0)" xlink:href="#aq"/></g></defs></g></svg>