<svg xmlns="http://www.w3.org/2000/svg" xmlns:xlink="http://www.w3.org/1999/xlink" xmlns:lucid="lucid" width="2116" height="1073"><g transform="translate(-4668 -6942)" lucid:page-tab-id="0_0"><path d="M0 0h10578.03v8768.17H0z" fill="#fff"/><path d="M5040 7060h1040v820H5040z" stroke="#333" stroke-width="2" fill-opacity="0"/><use xlink:href="#a" transform="matrix(1,0,0,1,5048,7068) translate(462.7351851851852 19.73333333333333)"/><path d="M4879.75 7319.75c0 10.9-8.84 19.75-19.75 19.75-10.9 0-19.75-8.84-19.75-19.75 0-10.9 8.84-19.75 19.75-19.75 10.9 0 19.75 8.84 19.75 19.75z" stroke="#000" stroke-width="2" fill="#fff"/><path d="M4860 7339.5v47.3a27.6 27.6 0 0 0 4.28 14.76L4900 7458m-40-63.2l-40 63.2m0-98.75h80" stroke="#000" stroke-width="2" fill="none"/><path d="M4820 7308a8 8 0 0 1 8-8h64a8 8 0 0 1 8 8v164a8 8 0 0 1-8 8h-64a8 8 0 0 1-8-8z" fill="none"/><use xlink:href="#b" transform="matrix(1,0,0,1,4740,7458) translate(94.03148148148148 19.73333333333333)"/><path d="M5909.92 7380c0 33.14-51.7 60-115.46 60-63.77 0-115.46-26.86-115.46-60s51.7-60 115.46-60c63.77 0 115.46 26.86 115.46 60z" stroke="#333" stroke-width="2" fill="#fff"/><use xlink:href="#c" transform="matrix(1,0,0,1,5679,7320) translate(46.609629629629644 64.73333333333333)"/><use xlink:href="#d" transform="matrix(1,0,0,1,5679,7320) translate(106.28925925925927 64.73333333333333)"/><path d="M6240 7280h400v160h-400z" stroke="#000" stroke-width="2" fill="#fff"/><use xlink:href="#e" transform="matrix(1,0,0,1,6245,7285) translate(131.14074074074077 80.67083333333333)"/><path d="M6240 7060h400v160h-400z" stroke="#000" stroke-width="2" fill="#fff"/><use xlink:href="#f" transform="matrix(1,0,0,1,6245,7065) translate(122.3703703703704 80.67083333333333)"/><path d="M5414.46 7760c0 33.14-51.7 60-115.46 60-63.77 0-115.46-26.86-115.46-60s51.7-60 115.46-60c63.77 0 115.46 26.86 115.46 60z" stroke="#333" stroke-width="2" fill="#fff"/><use xlink:href="#g" transform="matrix(1,0,0,1,5183.54011296167,7700) translate(78.57351851851853 49.733333333333334)"/><use xlink:href="#h" transform="matrix(1,0,0,1,5183.54011296167,7700) translate(48.39111111111113 79.33333333333333)"/><use xlink:href="#i" transform="matrix(1,0,0,1,5183.54011296167,7700) translate(133.35407407407408 79.33333333333333)"/><path d="M5909.92 7200c0 33.14-51.7 60-115.46 60-63.77 0-115.46-26.86-115.46-60s51.7-60 115.46-60c63.77 0 115.46 26.86 115.46 60z" stroke="#333" stroke-width="2" fill="#fff"/><use xlink:href="#c" transform="matrix(1,0,0,1,5679,7140) translate(37.770740740740756 64.73333333333333)"/><use xlink:href="#j" transform="matrix(1,0,0,1,5679,7140) translate(97.45037037037038 64.73333333333333)"/><path d="M5909.92 7560c0 33.14-51.7 60-115.46 60-63.77 0-115.46-26.86-115.46-60s51.7-60 115.46-60c63.77 0 115.46 26.86 115.46 60z" stroke="#333" stroke-width="2" fill="#fff"/><use xlink:href="#c" transform="matrix(1,0,0,1,5679,7500) translate(63.80777777777779 64.73333333333333)"/><use xlink:href="#k" transform="matrix(1,0,0,1,5679,7500) translate(123.4874074074074 64.73333333333333)"/><path d="M5414.46 7380c0 33.14-51.7 60-115.46 60-63.77 0-115.46-26.86-115.46-60s51.7-60 115.46-60c63.77 0 115.46 26.86 115.46 60z" stroke="#333" stroke-width="2" fill="#fff"/><use xlink:href="#l" transform="matrix(1,0,0,1,5183.54011296167,7320) translate(23.79296296296298 64.73333333333333)"/><use xlink:href="#m" transform="matrix(1,0,0,1,5183.54011296167,7320) translate(133.35407407407405 64.73333333333333)"/><path d="M5416.46 7380H5607a12 12 0 0 1 12 12v156a12 12 0 0 0 12 12h28.5" stroke="#333" stroke-width="2" fill="none"/><path d="M5416.5 7380.98h-1.06l.02-.97v-.4l-.02-.58h1.05z" stroke="#333" stroke-width=".05" fill="#333"/><path d="M5674.76 7560l-14.26 4.64v-9.28z" stroke="#333" stroke-width="2" fill="#333"/><path d="M5416.46 7380h243.04" stroke="#333" stroke-width="2" fill="none"/><path d="M5416.5 7380.98h-1.06l.02-.97v-.4l-.02-.58h1.05z" stroke="#333" stroke-width=".05" fill="#333"/><path d="M5674.76 7380l-14.26 4.64v-9.28z" stroke="#333" stroke-width="2" fill="#333"/><path d="M5416.46 7380H5607a12 12 0 0 0 12-12v-156a12 12 0 0 1 12-12h28.5" stroke="#333" stroke-width="2" fill="none"/><path d="M5416.5 7380.98h-1.06l.02-.97v-.4l-.02-.58h1.05z" stroke="#333" stroke-width=".05" fill="#333"/><path d="M5674.76 7200l-14.26 4.64v-9.28z" stroke="#333" stroke-width="2" fill="#333"/><use xlink:href="#n" transform="matrix(1,0,0,1,5434.024782062177,7346.400000000001) translate(0.0049999999999954525 19.73333333333333)"/><path d="M5181.54 7760H5141a12 12 0 0 1-12-12v-356a12 12 0 0 0-12-12h-255" stroke="#333" stroke-width="2" fill="none"/><path d="M5182.54 7760v.4l.02.58h-1.05v-1.95h1.06z" stroke="#333" stroke-width=".05" fill="#333"/><path d="M4862.03 7380H4858M5181.54 7380H4862" stroke="#333" stroke-width="2" fill="none"/><path d="M5182.54 7380v.4l.02.58h-1.05v-1.95h1.06z" stroke="#333" stroke-width=".05" fill="#333"/><path d="M4862.03 7380H4858" stroke="#333" stroke-width="2" fill="none"/><path d="M6240 7500h400v160h-400z" stroke="#000" stroke-width="2" fill="#fff"/><use xlink:href="#o" transform="matrix(1,0,0,1,6245,7505) translate(152.5527777777778 80.67083333333333)"/><path d="M6240 7720h400v160h-400z" stroke="#000" stroke-width="2" fill="#fff"/><use xlink:href="#p" transform="matrix(1,0,0,1,6245,7725) translate(125.17962962962966 80.67083333333333)"/><path d="M6239 7560c0 .55-.45 1-1 1s-1-.45-1-1 .45-1 1-1 1 .45 1 1zm-7.95 0c0 .55-.45 1-1 1-.56 0-1-.45-1-1s.44-1 1-1c.55 0 1 .45 1 1zm-7.96 0c0 .55-.45 1-1 1-.56 0-1-.45-1-1s.44-1 1-1c.55 0 1 .45 1 1zm-7.96 0c0 .55-.45 1-1 1s-1-.45-1-1 .45-1 1-1 1 .45 1 1zm-7.95 0c0 .55-.46 1-1 1-.56 0-1-.45-1-1s.44-1 1-1c.54 0 1 .45 1 1zm-7.97 0c0 .55-.44 1-1 1-.55 0-1-.45-1-1s.45-1 1-1c.56 0 1 .45 1 1zm-7.95 0c0 .55-.45 1-1 1s-1-.45-1-1 .45-1 1-1 1 .45 1 1zm-7.95 0c0 .55-.45 1-1 1-.56 0-1-.45-1-1s.44-1 1-1c.55 0 1 .45 1 1zm-7.95 0c0 .55-.45 1-1 1-.56 0-1-.45-1-1s.44-1 1-1c.55 0 1 .45 1 1zm-7.96 0c0 .55-.45 1-1 1s-1-.45-1-1 .45-1 1-1 1 .45 1 1zm-7.95 0c0 .55-.45 1-1 1s-1-.45-1-1 .45-1 1-1 1 .45 1 1zm-7.95 0c0 .55-.45 1-1 1-.56 0-1-.45-1-1s.44-1 1-1c.55 0 1 .45 1 1zm-7.96 0c0 .55-.45 1-1 1s-1-.45-1-1 .45-1 1-1 1 .45 1 1zm-7.95 0c0 .55-.44 1-1 1-.54 0-1-.45-1-1s.46-1 1-1c.56 0 1 .45 1 1zm-7.94 0c0 .55-.45 1-1 1-.56 0-1-.45-1-1s.44-1 1-1c.55 0 1 .45 1 1zm-7.96 0c0 .55-.44 1-1 1-.55 0-1-.45-1-1s.45-1 1-1c.56 0 1 .45 1 1zm-7.95 0c0 .55-.45 1-1 1s-1-.45-1-1 .45-1 1-1 1 .45 1 1zm-7.95 0c0 .55-.45 1-1 1-.56 0-1-.45-1-1s.44-1 1-1c.55 0 1 .45 1 1zm-7.96 0c0 .55-.44 1-1 1-.55 0-1-.45-1-1s.45-1 1-1c.56 0 1 .45 1 1zm-7.95 0c0 .55-.46 1-1 1-.56 0-1-.45-1-1s.44-1 1-1c.54 0 1 .45 1 1zm-7.96 0c0 .55-.45 1-1 1-.56 0-1-.45-1-1s.44-1 1-1c.55 0 1 .45 1 1zm-7.96 0c0 .55-.44 1-1 1-.55 0-1-.45-1-1s.45-1 1-1c.56 0 1 .45 1 1zm-7.95 0c0 .55-.45 1-1 1s-1-.45-1-1 .45-1 1-1 1 .45 1 1zm-7.95 0c0 .55-.45 1-1 1-.56 0-1-.45-1-1s.44-1 1-1c.55 0 1 .45 1 1zm-7.96 0c0 .55-.44 1-1 1-.55 0-1-.45-1-1s.45-1 1-1c.56 0 1 .45 1 1zm-7.95 0c0 .55-.45 1-1 1s-1-.45-1-1 .45-1 1-1 1 .45 1 1zm-7.95 0c0 .55-.45 1-1 1-.56 0-1-.45-1-1s.44-1 1-1c.55 0 1 .45 1 1zm-7.96 0c0 .55-.44 1-1 1-.55 0-1-.45-1-1s.45-1 1-1c.56 0 1 .45 1 1zm-7.95 0c0 .55-.44 1-1 1-.54 0-1-.45-1-1s.46-1 1-1c.56 0 1 .45 1 1zm-7.94 0c0 .55-.45 1-1 1s-1-.45-1-1 .45-1 1-1 1 .45 1 1zm-7.95 0c0 .55-.44 1-1 1-.55 0-1-.45-1-1s.45-1 1-1c.56 0 1 .45 1 1zm-7.95 0c0 .55-.45 1-1 1s-1-.45-1-1 .45-1 1-1 1 .45 1 1zm-7.95 0c0 .55-.45 1-1 1s-1-.45-1-1 .45-1 1-1 1 .45 1 1zm-7.95 0c0 .55-.45 1-1 1-.56 0-1-.45-1-1s.44-1 1-1c.55 0 1 .45 1 1zm-7.96 0c0 .55-.46 1-1 1-.56 0-1-.45-1-1s.44-1 1-1c.54 0 1 .45 1 1zm-7.96 0c0 .55-.45 1-1 1s-1-.45-1-1 .45-1 1-1 1 .45 1 1zm-7.95 0c0 .55-.46 1-1 1-.57 0-1-.45-1-1s.43-1 1-1c.54 0 1 .45 1 1zm-7.97 0c0 .55-.44 1-1 1-.55 0-1-.45-1-1s.45-1 1-1c.56 0 1 .45 1 1zm-7.95 0c0 .55-.45 1-1 1s-1-.45-1-1 .45-1 1-1 1 .45 1 1zm-7.95 0c0 .55-.45 1-1 1-.56 0-1-.45-1-1s.44-1 1-1c.55 0 1 .45 1 1zm-7.96 0c0 .55-.44 1-1 1-.55 0-1-.45-1-1s.45-1 1-1c.56 0 1 .45 1 1zm-7.95 0c0 .55-.45 1-1 1s-1-.45-1-1 .45-1 1-1 1 .45 1 1z" fill="#333"/><path d="M6239 7560.98h-1.03v-1.95h1.03zM5911.94 7560.98h-1.04l.02-.97v-.4l-.02-.58h1.05z" stroke="#333" stroke-width=".05" fill="#333"/><path d="M6238 7380h-9.88m-9.88 0h-19.76m-9.9 0h-19.75m-9.88 0h-19.76m-9.9 0h-19.76m-9.88 0h-19.76m-9.88 0h-19.76m-9.88 0h-19.77m-9.87 0h-19.76m-9.88 0h-19.77m-9.9 0h-19.75m-9.88 0h-9.88" stroke="#333" stroke-width="2" fill="none"/><path d="M6239 7380.98h-1.03v-1.95h1.03zM5911.94 7380.98h-1.04l.02-.97v-.4l-.02-.58h1.05z" stroke="#333" stroke-width=".05" fill="#333"/><path d="M6238 7380h-9.42m-9.4 0h-18.85m-9.4 0h-18.85m-9.4 0h-18.85m-9.4 0h-18.85m-9.4 0h-18.85m-9.4 0h-18.85m-9.4 0h-18.85m-9.4 0H6012l-1.88.15-1.83.44-1.75.7-1.6 1-1.43 1.22-1.23 1.43-1 1.6-.7 1.74-.45 1.82-.15 1.88v10.87m0 10.86v21.74m0 10.86v21.74m0 10.86v21.74m0 10.86v21.74m0 10.86V7555l-2.95.97-1.8 2.45-.25 1.58.97 2.95 2.45 1.8 1.58.25v10.17m0 10.16v20.34m0 10.16v20.34m0 10.16v20.34m0 10.16v20.34m0 10.16v20.34m0 10.16V7748l-.15 1.88-.44 1.83-.7 1.75-1 1.6-1.22 1.43-1.43 1.23-1.6 1-1.74.7-1.82.45-1.88.15h-10.03m-10.02 0h-20.06m-10.03 0h-20.06m-10.02 0h-20.05m-10.03 0h-20.05m-10.03 0h-20.05m-10.03 0h-20.05m-10.04 0h-20.05m-10.02 0h-20.06m-10.02 0h-20.06m-10.02 0h-20.06m-10.02 0h-20.06m-10.03 0H5617m-10.03 0h-20.05m-10.03 0h-20.06m-10.03 0h-20.04m-10.03 0h-20.05m-10.03 0h-20.05m-10.03 0h-20.06m-10 0h-10.04" stroke="#333" stroke-width="2" fill="none"/><path d="M6239 7380.98h-1.03v-1.95h1.03zM5416.5 7760.98h-1.06l.02-.97v-.4l-.02-.58h1.05z" stroke="#333" stroke-width=".05" fill="#333"/><path d="M6238 7140h-76a12 12 0 0 0-12 12v36a12 12 0 0 1-12 12h-226.08" stroke="#333" stroke-width="2" fill="none"/><path d="M6239 7140.98h-1.03v-1.95h1.03zM5911.94 7200.98h-1.04l.02-.97v-.4l-.02-.58h1.05z" stroke="#333" stroke-width=".05" fill="#333"/><path d="M6238 7343.63h-76a12 12 0 0 1-12-12V7212a12 12 0 0 0-12-12h-226.08" stroke="#333" stroke-width="2" fill="none"/><path d="M6239 7344.6h-1.03v-1.94h1.03zM5911.94 7200.98h-1.04l.02-.97v-.4l-.02-.58h1.05z" stroke="#333" stroke-width=".05" fill="#333"/><path d="M6238 7528.08h-76a12 12 0 0 1-12-12V7385c-2.76 0-5-2.24-5-5s2.24-5 5-5v-163a12 12 0 0 0-12-12h-226.08" stroke="#333" stroke-width="2" fill="none"/><path d="M6239 7529.06h-1.03v-1.96h1.03zM5911.94 7200.98h-1.04l.02-.97v-.4l-.02-.58h1.05z" stroke="#333" stroke-width=".05" fill="#333"/><path d="M6238 7800h-76a12 12 0 0 1-12-12v-223c-2.76 0-5-2.24-5-5s2.24-5 5-5v-170c-2.76 0-5-2.24-5-5s2.24-5 5-5v-163a12 12 0 0 0-12-12h-226.08" stroke="#333" stroke-width="2" fill="none"/><path d="M6239 7800.98h-1.03v-1.95h1.03zM5911.94 7200.98h-1.04l.02-.97v-.4l-.02-.58h1.05z" stroke="#333" stroke-width=".05" fill="#333"/><defs><path d="M205 0l-28-72H64L36 0H1l101-248h38L239 0h-34zm-38-99l-47-123c-12 45-31 82-46 123h93" id="q"/><path d="M117-194c89-4 53 116 60 194h-32v-121c0-31-8-49-39-48C34-167 62-67 57 0H25l-1-190h30c1 10-1 24 2 32 11-22 29-35 61-36" id="r"/><path d="M141-36C126-15 110 5 73 4 37 3 15-17 15-53c-1-64 63-63 125-63 3-35-9-54-41-54-24 1-41 7-42 31l-33-3c5-37 33-52 76-52 45 0 72 20 72 64v82c-1 20 7 32 28 27v20c-31 9-61-2-59-35zM48-53c0 20 12 33 32 33 41-3 63-29 60-74-43 2-92-5-92 41" id="s"/><path d="M24 0v-261h32V0H24" id="t"/><path d="M179-190L93 31C79 59 56 82 12 73V49c39 6 53-20 64-50L1-190h34L92-34l54-156h33" id="u"/><path d="M59-47c-2 24 18 29 38 22v24C64 9 27 4 27-40v-127H5v-23h24l9-43h21v43h35v23H59v120" id="v"/><path d="M24-231v-30h32v30H24zM24 0v-190h32V0H24" id="w"/><path d="M96-169c-40 0-48 33-48 73s9 75 48 75c24 0 41-14 43-38l32 2c-6 37-31 61-74 61-59 0-76-41-82-99-10-93 101-131 147-64 4 7 5 14 7 22l-32 3c-4-21-16-35-41-35" id="x"/><path d="M135-143c-3-34-86-38-87 0 15 53 115 12 119 90S17 21 10-45l28-5c4 36 97 45 98 0-10-56-113-15-118-90-4-57 82-63 122-42 12 7 21 19 24 35" id="y"/><g id="a"><use transform="matrix(0.0685185185185185,0,0,0.0685185185185185,0,0)" xlink:href="#q"/><use transform="matrix(0.0685185185185185,0,0,0.0685185185185185,16.444444444444443,0)" xlink:href="#r"/><use transform="matrix(0.0685185185185185,0,0,0.0685185185185185,30.148148148148145,0)" xlink:href="#s"/><use transform="matrix(0.0685185185185185,0,0,0.0685185185185185,43.85185185185185,0)" xlink:href="#t"/><use transform="matrix(0.0685185185185185,0,0,0.0685185185185185,49.26481481481481,0)" xlink:href="#u"/><use transform="matrix(0.0685185185185185,0,0,0.0685185185185185,61.598148148148134,0)" xlink:href="#v"/><use transform="matrix(0.0685185185185185,0,0,0.0685185185185185,68.44999999999999,0)" xlink:href="#w"/><use transform="matrix(0.0685185185185185,0,0,0.0685185185185185,73.86296296296295,0)" xlink:href="#x"/><use transform="matrix(0.0685185185185185,0,0,0.0685185185185185,86.19629629629628,0)" xlink:href="#y"/></g><path d="M232-93c-1 65-40 97-104 97C67 4 28-28 28-90v-158h33c8 89-33 224 67 224 102 0 64-133 71-224h33v155" id="z"/><path d="M100-194c63 0 86 42 84 106H49c0 40 14 67 53 68 26 1 43-12 49-29l28 8c-11 28-37 45-77 45C44 4 14-33 15-96c1-61 26-98 85-98zm52 81c6-60-76-77-97-28-3 7-6 17-6 28h103" id="A"/><path d="M114-163C36-179 61-72 57 0H25l-1-190h30c1 12-1 29 2 39 6-27 23-49 58-41v29" id="B"/><g id="b"><use transform="matrix(0.0685185185185185,0,0,0.0685185185185185,0,0)" xlink:href="#z"/><use transform="matrix(0.0685185185185185,0,0,0.0685185185185185,17.746296296296293,0)" xlink:href="#y"/><use transform="matrix(0.0685185185185185,0,0,0.0685185185185185,30.079629629629622,0)" xlink:href="#A"/><use transform="matrix(0.0685185185185185,0,0,0.0685185185185185,43.783333333333324,0)" xlink:href="#B"/></g><path d="M137 0h-34L2-248h35l83 218 83-218h36" id="C"/><path d="M206 0h-36l-40-164L89 0H53L-1-190h32L70-26l43-164h34l41 164 42-164h31" id="D"/><g id="c"><use transform="matrix(0.0685185185185185,0,0,0.0685185185185185,0,0)" xlink:href="#C"/><use transform="matrix(0.0685185185185185,0,0,0.0685185185185185,15.964814814814813,0)" xlink:href="#w"/><use transform="matrix(0.0685185185185185,0,0,0.0685185185185185,21.377777777777776,0)" xlink:href="#A"/><use transform="matrix(0.0685185185185185,0,0,0.0685185185185185,35.081481481481475,0)" xlink:href="#D"/></g><path d="M160-131c35 5 61 23 61 61C221 17 115-2 30 0v-248c76 3 177-17 177 60 0 33-19 50-47 57zm-97-11c50-1 110 9 110-42 0-47-63-36-110-37v79zm0 115c55-2 124 14 124-45 0-56-70-42-124-44v89" id="E"/><path d="M84 4C-5 8 30-112 23-190h32v120c0 31 7 50 39 49 72-2 45-101 50-169h31l1 190h-30c-1-10 1-25-2-33-11 22-28 36-60 37" id="F"/><path d="M85-194c31 0 48 13 60 33l-1-100h32l1 261h-30c-2-10 0-23-3-31C134-8 116 4 85 4 32 4 16-35 15-94c0-66 23-100 70-100zm9 24c-40 0-46 34-46 75 0 40 6 74 45 74 42 0 51-32 51-76 0-42-9-74-50-73" id="G"/><path d="M177-190C167-65 218 103 67 71c-23-6-38-20-44-43l32-5c15 47 100 32 89-28v-30C133-14 115 1 83 1 29 1 15-40 15-95c0-56 16-97 71-98 29-1 48 16 59 35 1-10 0-23 2-32h30zM94-22c36 0 50-32 50-73 0-42-14-75-50-75-39 0-46 34-46 75s6 73 46 73" id="H"/><g id="d"><use transform="matrix(0.0685185185185185,0,0,0.0685185185185185,0,0)" xlink:href="#E"/><use transform="matrix(0.0685185185185185,0,0,0.0685185185185185,16.444444444444443,0)" xlink:href="#F"/><use transform="matrix(0.0685185185185185,0,0,0.0685185185185185,30.148148148148145,0)" xlink:href="#G"/><use transform="matrix(0.0685185185185185,0,0,0.0685185185185185,43.85185185185185,0)" xlink:href="#H"/><use transform="matrix(0.0685185185185185,0,0,0.0685185185185185,57.55555555555555,0)" xlink:href="#A"/><use transform="matrix(0.0685185185185185,0,0,0.0685185185185185,71.25925925925925,0)" xlink:href="#v"/></g><path fill="#333" d="M127-220V0H93v-220H8v-28h204v28h-85" id="I"/><path fill="#333" d="M114-163C36-179 61-72 57 0H25l-1-190h30c1 12-1 29 2 39 6-27 23-49 58-41v29" id="J"/><path fill="#333" d="M141-36C126-15 110 5 73 4 37 3 15-17 15-53c-1-64 63-63 125-63 3-35-9-54-41-54-24 1-41 7-42 31l-33-3c5-37 33-52 76-52 45 0 72 20 72 64v82c-1 20 7 32 28 27v20c-31 9-61-2-59-35zM48-53c0 20 12 33 32 33 41-3 63-29 60-74-43 2-92-5-92 41" id="K"/><path fill="#333" d="M117-194c89-4 53 116 60 194h-32v-121c0-31-8-49-39-48C34-167 62-67 57 0H25l-1-190h30c1 10-1 24 2 32 11-22 29-35 61-36" id="L"/><path fill="#333" d="M135-143c-3-34-86-38-87 0 15 53 115 12 119 90S17 21 10-45l28-5c4 36 97 45 98 0-10-56-113-15-118-90-4-57 82-63 122-42 12 7 21 19 24 35" id="M"/><path fill="#333" d="M96-169c-40 0-48 33-48 73s9 75 48 75c24 0 41-14 43-38l32 2c-6 37-31 61-74 61-59 0-76-41-82-99-10-93 101-131 147-64 4 7 5 14 7 22l-32 3c-4-21-16-35-41-35" id="N"/><path fill="#333" d="M59-47c-2 24 18 29 38 22v24C64 9 27 4 27-40v-127H5v-23h24l9-43h21v43h35v23H59v120" id="O"/><path fill="#333" d="M24-231v-30h32v30H24zM24 0v-190h32V0H24" id="P"/><path fill="#333" d="M100-194c62-1 85 37 85 99 1 63-27 99-86 99S16-35 15-95c0-66 28-99 85-99zM99-20c44 1 53-31 53-75 0-43-8-75-51-75s-53 32-53 75 10 74 51 75" id="Q"/><g id="e"><use transform="matrix(0.0685185185185185,0,0,0.0685185185185185,0,0)" xlink:href="#I"/><use transform="matrix(0.0685185185185185,0,0,0.0685185185185185,14.114814814814812,0)" xlink:href="#J"/><use transform="matrix(0.0685185185185185,0,0,0.0685185185185185,22.268518518518512,0)" xlink:href="#K"/><use transform="matrix(0.0685185185185185,0,0,0.0685185185185185,35.972222222222214,0)" xlink:href="#L"/><use transform="matrix(0.0685185185185185,0,0,0.0685185185185185,49.67592592592592,0)" xlink:href="#M"/><use transform="matrix(0.0685185185185185,0,0,0.0685185185185185,62.009259259259245,0)" xlink:href="#K"/><use transform="matrix(0.0685185185185185,0,0,0.0685185185185185,75.71296296296295,0)" xlink:href="#N"/><use transform="matrix(0.0685185185185185,0,0,0.0685185185185185,88.04629629629628,0)" xlink:href="#O"/><use transform="matrix(0.0685185185185185,0,0,0.0685185185185185,94.89814814814814,0)" xlink:href="#P"/><use transform="matrix(0.0685185185185185,0,0,0.0685185185185185,100.31111111111109,0)" xlink:href="#Q"/><use transform="matrix(0.0685185185185185,0,0,0.0685185185185185,114.01481481481478,0)" xlink:href="#L"/></g><path fill="#333" d="M160-131c35 5 61 23 61 61C221 17 115-2 30 0v-248c76 3 177-17 177 60 0 33-19 50-47 57zm-97-11c50-1 110 9 110-42 0-47-63-36-110-37v79zm0 115c55-2 124 14 124-45 0-56-70-42-124-44v89" id="R"/><path fill="#333" d="M143 0L79-87 56-68V0H24v-261h32v163l83-92h37l-77 82L181 0h-38" id="S"/><path fill="#333" d="M205 0l-28-72H64L36 0H1l101-248h38L239 0h-34zm-38-99l-47-123c-12 45-31 82-46 123h93" id="T"/><path fill="#333" d="M84 4C-5 8 30-112 23-190h32v120c0 31 7 50 39 49 72-2 45-101 50-169h31l1 190h-30c-1-10 1-25-2-33-11 22-28 36-60 37" id="U"/><g id="f"><use transform="matrix(0.0685185185185185,0,0,0.0685185185185185,0,0)" xlink:href="#R"/><use transform="matrix(0.0685185185185185,0,0,0.0685185185185185,16.444444444444443,0)" xlink:href="#K"/><use transform="matrix(0.0685185185185185,0,0,0.0685185185185185,30.148148148148145,0)" xlink:href="#L"/><use transform="matrix(0.0685185185185185,0,0,0.0685185185185185,43.85185185185185,0)" xlink:href="#S"/><use transform="matrix(0.0685185185185185,0,0,0.0685185185185185,56.185185185185176,0)" xlink:href="#T"/><use transform="matrix(0.0685185185185185,0,0,0.0685185185185185,72.62962962962962,0)" xlink:href="#N"/><use transform="matrix(0.0685185185185185,0,0,0.0685185185185185,84.96296296296295,0)" xlink:href="#N"/><use transform="matrix(0.0685185185185185,0,0,0.0685185185185185,97.29629629629628,0)" xlink:href="#Q"/><use transform="matrix(0.0685185185185185,0,0,0.0685185185185185,110.99999999999997,0)" xlink:href="#U"/><use transform="matrix(0.0685185185185185,0,0,0.0685185185185185,124.70370370370367,0)" xlink:href="#L"/><use transform="matrix(0.0685185185185185,0,0,0.0685185185185185,138.40740740740736,0)" xlink:href="#O"/></g><path d="M212-179c-10-28-35-45-73-45-59 0-87 40-87 99 0 60 29 101 89 101 43 0 62-24 78-52l27 14C228-24 195 4 139 4 59 4 22-46 18-125c-6-104 99-153 187-111 19 9 31 26 39 46" id="V"/><g id="g"><use transform="matrix(0.0685185185185185,0,0,0.0685185185185185,0,0)" xlink:href="#V"/><use transform="matrix(0.0685185185185185,0,0,0.0685185185185185,17.746296296296293,0)" xlink:href="#B"/><use transform="matrix(0.0685185185185185,0,0,0.0685185185185185,25.899999999999995,0)" xlink:href="#A"/><use transform="matrix(0.0685185185185185,0,0,0.0685185185185185,39.603703703703694,0)" xlink:href="#s"/><use transform="matrix(0.0685185185185185,0,0,0.0685185185185185,53.307407407407396,0)" xlink:href="#v"/><use transform="matrix(0.0685185185185185,0,0,0.0685185185185185,60.159259259259244,0)" xlink:href="#A"/></g><g id="h"><use transform="matrix(0.0685185185185185,0,0,0.0685185185185185,0,0)" xlink:href="#E"/><use transform="matrix(0.0685185185185185,0,0,0.0685185185185185,16.444444444444443,0)" xlink:href="#F"/><use transform="matrix(0.0685185185185185,0,0,0.0685185185185185,30.148148148148145,0)" xlink:href="#G"/><use transform="matrix(0.0685185185185185,0,0,0.0685185185185185,43.85185185185185,0)" xlink:href="#H"/><use transform="matrix(0.0685185185185185,0,0,0.0685185185185185,57.55555555555555,0)" xlink:href="#A"/><use transform="matrix(0.0685185185185185,0,0,0.0685185185185185,71.25925925925925,0)" xlink:href="#v"/></g><path d="M30-248c87 1 191-15 191 75 0 78-77 80-158 76V0H30v-248zm33 125c57 0 124 11 124-50 0-59-68-47-124-48v98" id="W"/><g id="i"><use transform="matrix(0.0685185185185185,0,0,0.0685185185185185,0,0)" xlink:href="#W"/><use transform="matrix(0.0685185185185185,0,0,0.0685185185185185,16.444444444444443,0)" xlink:href="#t"/><use transform="matrix(0.0685185185185185,0,0,0.0685185185185185,21.857407407407404,0)" xlink:href="#s"/><use transform="matrix(0.0685185185185185,0,0,0.0685185185185185,35.5611111111111,0)" xlink:href="#r"/></g><path d="M63-220v92h138v28H63V0H30v-248h175v28H63" id="X"/><path d="M100-194c62-1 85 37 85 99 1 63-27 99-86 99S16-35 15-95c0-66 28-99 85-99zM99-20c44 1 53-31 53-75 0-43-8-75-51-75s-53 32-53 75 10 74 51 75" id="Y"/><g id="j"><use transform="matrix(0.0685185185185185,0,0,0.0685185185185185,0,0)" xlink:href="#X"/><use transform="matrix(0.0685185185185185,0,0,0.0685185185185185,15.005555555555553,0)" xlink:href="#Y"/><use transform="matrix(0.0685185185185185,0,0,0.0685185185185185,28.709259259259255,0)" xlink:href="#B"/><use transform="matrix(0.0685185185185185,0,0,0.0685185185185185,36.86296296296295,0)" xlink:href="#A"/><use transform="matrix(0.0685185185185185,0,0,0.0685185185185185,50.566666666666656,0)" xlink:href="#x"/><use transform="matrix(0.0685185185185185,0,0,0.0685185185185185,62.899999999999984,0)" xlink:href="#s"/><use transform="matrix(0.0685185185185185,0,0,0.0685185185185185,76.60370370370369,0)" xlink:href="#y"/><use transform="matrix(0.0685185185185185,0,0,0.0685185185185185,88.93703703703702,0)" xlink:href="#v"/></g><path d="M30-248c118-7 216 8 213 122C240-48 200 0 122 0H30v-248zM63-27c89 8 146-16 146-99s-60-101-146-95v194" id="Z"/><g id="k"><use transform="matrix(0.0685185185185185,0,0,0.0685185185185185,0,0)" xlink:href="#Z"/><use transform="matrix(0.0685185185185185,0,0,0.0685185185185185,17.746296296296293,0)" xlink:href="#w"/><use transform="matrix(0.0685185185185185,0,0,0.0685185185185185,23.159259259259255,0)" xlink:href="#A"/><use transform="matrix(0.0685185185185185,0,0,0.0685185185185185,36.86296296296295,0)" xlink:href="#v"/></g><path d="M143 4C61 4 22-44 18-125c-5-107 100-154 193-111 17 8 29 25 37 43l-32 9c-13-25-37-40-76-40-61 0-88 39-88 99 0 61 29 100 91 101 35 0 62-11 79-27v-45h-74v-28h105v86C228-13 192 4 143 4" id="aa"/><g id="l"><use transform="matrix(0.0685185185185185,0,0,0.0685185185185185,0,0)" xlink:href="#aa"/><use transform="matrix(0.0685185185185185,0,0,0.0685185185185185,19.185185185185183,0)" xlink:href="#A"/><use transform="matrix(0.0685185185185185,0,0,0.0685185185185185,32.888888888888886,0)" xlink:href="#r"/><use transform="matrix(0.0685185185185185,0,0,0.0685185185185185,46.59259259259258,0)" xlink:href="#A"/><use transform="matrix(0.0685185185185185,0,0,0.0685185185185185,60.29629629629629,0)" xlink:href="#B"/><use transform="matrix(0.0685185185185185,0,0,0.0685185185185185,68.44999999999999,0)" xlink:href="#s"/><use transform="matrix(0.0685185185185185,0,0,0.0685185185185185,82.15370370370368,0)" xlink:href="#v"/><use transform="matrix(0.0685185185185185,0,0,0.0685185185185185,89.00555555555552,0)" xlink:href="#A"/></g><path d="M233-177c-1 41-23 64-60 70L243 0h-38l-65-103H63V0H30v-248c88 3 205-21 203 71zM63-129c60-2 137 13 137-47 0-61-80-42-137-45v92" id="ab"/><path d="M115-194c55 1 70 41 70 98S169 2 115 4C84 4 66-9 55-30l1 105H24l-1-265h31l2 30c10-21 28-34 59-34zm-8 174c40 0 45-34 45-75s-6-73-45-74c-42 0-51 32-51 76 0 43 10 73 51 73" id="ac"/><g id="m"><use transform="matrix(0.0685185185185185,0,0,0.0685185185185185,0,0)" xlink:href="#ab"/><use transform="matrix(0.0685185185185185,0,0,0.0685185185185185,17.746296296296293,0)" xlink:href="#A"/><use transform="matrix(0.0685185185185185,0,0,0.0685185185185185,31.449999999999996,0)" xlink:href="#ac"/><use transform="matrix(0.0685185185185185,0,0,0.0685185185185185,45.1537037037037,0)" xlink:href="#Y"/><use transform="matrix(0.0685185185185185,0,0,0.0685185185185185,58.8574074074074,0)" xlink:href="#B"/><use transform="matrix(0.0685185185185185,0,0,0.0685185185185185,67.0111111111111,0)" xlink:href="#v"/></g><path fill="#333" d="M18-100v-36l175-74v27L42-118l151 64v27" id="ad"/><path fill="#333" d="M24 0v-261h32V0H24" id="ae"/><path fill="#333" d="M85-194c31 0 48 13 60 33l-1-100h32l1 261h-30c-2-10 0-23-3-31C134-8 116 4 85 4 32 4 16-35 15-94c0-66 23-100 70-100zm9 24c-40 0-46 34-46 75 0 40 6 74 45 74 42 0 51-32 51-76 0-42-9-74-50-73" id="af"/><path fill="#333" d="M100-194c63 0 86 42 84 106H49c0 40 14 67 53 68 26 1 43-12 49-29l28 8c-11 28-37 45-77 45C44 4 14-33 15-96c1-61 26-98 85-98zm52 81c6-60-76-77-97-28-3 7-6 17-6 28h103" id="ag"/><path fill="#333" d="M18-27v-27l151-64-151-65v-27l175 74v36" id="ah"/><g id="n"><use transform="matrix(0.0685185185185185,0,0,0.0685185185185185,0,0)" xlink:href="#ad"/><use transform="matrix(0.0685185185185185,0,0,0.0685185185185185,14.388888888888886,0)" xlink:href="#ad"/><use transform="matrix(0.0685185185185185,0,0,0.0685185185185185,28.77777777777777,0)" xlink:href="#P"/><use transform="matrix(0.0685185185185185,0,0,0.0685185185185185,34.190740740740736,0)" xlink:href="#L"/><use transform="matrix(0.0685185185185185,0,0,0.0685185185185185,47.89444444444444,0)" xlink:href="#N"/><use transform="matrix(0.0685185185185185,0,0,0.0685185185185185,60.22777777777777,0)" xlink:href="#ae"/><use transform="matrix(0.0685185185185185,0,0,0.0685185185185185,65.64074074074072,0)" xlink:href="#U"/><use transform="matrix(0.0685185185185185,0,0,0.0685185185185185,79.34444444444442,0)" xlink:href="#af"/><use transform="matrix(0.0685185185185185,0,0,0.0685185185185185,93.04814814814812,0)" xlink:href="#ag"/><use transform="matrix(0.0685185185185185,0,0,0.0685185185185185,106.75185185185181,0)" xlink:href="#M"/><use transform="matrix(0.0685185185185185,0,0,0.0685185185185185,119.08518518518514,0)" xlink:href="#ah"/><use transform="matrix(0.0685185185185185,0,0,0.0685185185185185,133.47407407407403,0)" xlink:href="#ah"/></g><path fill="#333" d="M30-248c87 1 191-15 191 75 0 78-77 80-158 76V0H30v-248zm33 125c57 0 124 11 124-50 0-59-68-47-124-48v98" id="ai"/><g id="o"><use transform="matrix(0.0685185185185185,0,0,0.0685185185185185,0,0)" xlink:href="#ai"/><use transform="matrix(0.0685185185185185,0,0,0.0685185185185185,16.444444444444443,0)" xlink:href="#J"/><use transform="matrix(0.0685185185185185,0,0,0.0685185185185185,24.598148148148145,0)" xlink:href="#Q"/><use transform="matrix(0.0685185185185185,0,0,0.0685185185185185,38.30185185185184,0)" xlink:href="#af"/><use transform="matrix(0.0685185185185185,0,0,0.0685185185185185,52.005555555555546,0)" xlink:href="#U"/><use transform="matrix(0.0685185185185185,0,0,0.0685185185185185,65.70925925925924,0)" xlink:href="#N"/><use transform="matrix(0.0685185185185185,0,0,0.0685185185185185,78.04259259259257,0)" xlink:href="#O"/></g><path fill="#333" d="M185-189c-5-48-123-54-124 2 14 75 158 14 163 119 3 78-121 87-175 55-17-10-28-26-33-46l33-7c5 56 141 63 141-1 0-78-155-14-162-118-5-82 145-84 179-34 5 7 8 16 11 25" id="aj"/><path fill="#333" d="M108 0H70L1-190h34L89-25l56-165h34" id="ak"/><path fill="#333" d="M177-190C167-65 218 103 67 71c-23-6-38-20-44-43l32-5c15 47 100 32 89-28v-30C133-14 115 1 83 1 29 1 15-40 15-95c0-56 16-97 71-98 29-1 48 16 59 35 1-10 0-23 2-32h30zM94-22c36 0 50-32 50-73 0-42-14-75-50-75-39 0-46 34-46 75s6 73 46 73" id="al"/><path fill="#333" d="M143 4C61 4 22-44 18-125c-5-107 100-154 193-111 17 8 29 25 37 43l-32 9c-13-25-37-40-76-40-61 0-88 39-88 99 0 61 29 100 91 101 35 0 62-11 79-27v-45h-74v-28h105v86C228-13 192 4 143 4" id="am"/><g id="p"><use transform="matrix(0.0685185185185185,0,0,0.0685185185185185,0,0)" xlink:href="#aj"/><use transform="matrix(0.0685185185185185,0,0,0.0685185185185185,16.444444444444443,0)" xlink:href="#K"/><use transform="matrix(0.0685185185185185,0,0,0.0685185185185185,30.148148148148145,0)" xlink:href="#ak"/><use transform="matrix(0.0685185185185185,0,0,0.0685185185185185,42.481481481481474,0)" xlink:href="#P"/><use transform="matrix(0.0685185185185185,0,0,0.0685185185185185,47.89444444444444,0)" xlink:href="#L"/><use transform="matrix(0.0685185185185185,0,0,0.0685185185185185,61.598148148148134,0)" xlink:href="#al"/><use transform="matrix(0.0685185185185185,0,0,0.0685185185185185,75.30185185185184,0)" xlink:href="#M"/><use transform="matrix(0.0685185185185185,0,0,0.0685185185185185,87.63518518518516,0)" xlink:href="#am"/><use transform="matrix(0.0685185185185185,0,0,0.0685185185185185,106.82037037037034,0)" xlink:href="#Q"/><use transform="matrix(0.0685185185185185,0,0,0.0685185185185185,120.52407407407404,0)" xlink:href="#K"/><use transform="matrix(0.0685185185185185,0,0,0.0685185185185185,134.22777777777773,0)" xlink:href="#ae"/></g></defs></g></svg>