<svg xmlns="http://www.w3.org/2000/svg" xmlns:xlink="http://www.w3.org/1999/xlink" xmlns:lucid="lucid" width="2063" height="1271"><g transform="translate(-6995 -5593)" lucid:page-tab-id="0_0"><path d="M0 0h10578.03v8768.17H0z" fill="#fff"/><path d="M7320 5740h1040v980H7320z" stroke="#333" stroke-width="2" fill-opacity="0"/><use xlink:href="#a" transform="matrix(1,0,0,1,7328,5748) translate(442.17962962962963 19.73333333333333)"/><path d="M7159.75 6079.75c0 10.9-8.84 19.75-19.75 19.75-10.9 0-19.75-8.84-19.75-19.75 0-10.9 8.84-19.75 19.75-19.75 10.9 0 19.75 8.84 19.75 19.75z" stroke="#000" stroke-width="2" fill="#fff"/><path d="M7140 6099.5v47.3a27.6 27.6 0 0 0 4.28 14.76L7180 6218m-40-63.2l-40 63.2m0-98.75h80" stroke="#000" stroke-width="2" fill="none"/><path d="M7100 6068a8 8 0 0 1 8-8h64a8 8 0 0 1 8 8v164a8 8 0 0 1-8 8h-64a8 8 0 0 1-8-8z" fill="none"/><use xlink:href="#b" transform="matrix(1,0,0,1,7020,6218) translate(94.03148148148148 19.73333333333333)"/><path d="M7810.92 6060c0 33.14-51.7 60-115.46 60-63.77 0-115.46-26.86-115.46-60s51.7-60 115.46-60c63.77 0 115.46 26.86 115.46 60z" stroke="#333" stroke-width="2" fill="#fff"/><use xlink:href="#c" transform="matrix(1,0,0,1,7580,6000) translate(78.57351851851853 49.733333333333334)"/><use xlink:href="#d" transform="matrix(1,0,0,1,7580,6000) translate(42.258703703703716 79.33333333333333)"/><use xlink:href="#e" transform="matrix(1,0,0,1,7580,6000) translate(136.74574074074073 79.33333333333333)"/><path d="M7805.46 6420c0 33.14-51.7 60-115.46 60-63.77 0-115.46-26.86-115.46-60s51.7-60 115.46-60c63.77 0 115.46 26.86 115.46 60z" stroke="#333" stroke-width="2" fill="#fff"/><use xlink:href="#f" transform="matrix(1,0,0,1,7574.54011296167,6360) translate(75.79851851851852 49.733333333333334)"/><use xlink:href="#d" transform="matrix(1,0,0,1,7574.54011296167,6360) translate(42.258703703703716 79.33333333333333)"/><use xlink:href="#e" transform="matrix(1,0,0,1,7574.54011296167,6360) translate(136.74574074074073 79.33333333333333)"/><path d="M7810.92 5880c0 33.14-51.7 60-115.46 60-63.77 0-115.46-26.86-115.46-60s51.7-60 115.46-60c63.77 0 115.46 26.86 115.46 60z" stroke="#333" stroke-width="2" fill="#fff"/><use xlink:href="#g" transform="matrix(1,0,0,1,7580,5820) translate(89.09111111111112 49.733333333333334)"/><use xlink:href="#h" transform="matrix(1,0,0,1,7580,5820) translate(42.258703703703716 79.33333333333333)"/><use xlink:href="#i" transform="matrix(1,0,0,1,7580,5820) translate(136.74574074074073 79.33333333333333)"/><path d="M7141.5 6138.93H7413a12 12 0 0 0 12-12V5892a12 12 0 0 1 12-12h141M7141.53 6138.93h-4.03" stroke="#333" stroke-width="2" fill="none"/><path d="M7579 5880v.4l.02.58h-1.05v-1.95h1.05z" stroke="#333" stroke-width=".05" fill="#333"/><path d="M7141.5 6138.93H7413a12 12 0 0 0 12-12V6072a12 12 0 0 1 12-12h141M7141.53 6138.93h-4.03" stroke="#333" stroke-width="2" fill="none"/><path d="M7579 6060v.4l.02.58h-1.05v-1.95h1.05z" stroke="#333" stroke-width=".05" fill="#333"/><path d="M7141.5 6138.93H7413a12 12 0 0 1 12 12V6408a12 12 0 0 0 12 12h135.54M7141.53 6138.93h-4.03" stroke="#333" stroke-width="2" fill="none"/><path d="M7573.54 6420v.4l.02.58h-1.05v-1.95h1.06z" stroke="#333" stroke-width=".05" fill="#333"/><path d="M7805.46 6600c0 33.14-51.7 60-115.46 60-63.77 0-115.46-26.86-115.46-60s51.7-60 115.46-60c63.77 0 115.46 26.86 115.46 60z" stroke="#333" stroke-width="2" fill="#fff"/><use xlink:href="#j" transform="matrix(1,0,0,1,7574.54011296167,6540) translate(79.94388888888889 49.733333333333334)"/><use xlink:href="#d" transform="matrix(1,0,0,1,7574.54011296167,6540) translate(42.258703703703716 79.33333333333333)"/><use xlink:href="#e" transform="matrix(1,0,0,1,7574.54011296167,6540) translate(136.74574074074073 79.33333333333333)"/><path d="M8540 6300h400v160h-400z" stroke="#000" stroke-width="2" fill="#fff"/><use xlink:href="#k" transform="matrix(1,0,0,1,8545,6305) translate(122.3703703703704 80.67083333333333)"/><path d="M7141.5 6138.93H7413a12 12 0 0 1 12 12V6588a12 12 0 0 0 12 12h135.54M7141.53 6138.93h-4.03" stroke="#333" stroke-width="2" fill="none"/><path d="M7573.54 6600v.4l.02.58h-1.05v-1.95h1.06z" stroke="#333" stroke-width=".05" fill="#333"/><path d="M8250.92 6240c0 33.14-51.7 60-115.46 60-63.77 0-115.46-26.86-115.46-60s51.7-60 115.46-60c63.77 0 115.46 26.86 115.46 60z" stroke="#333" stroke-width="2" fill="#fff"/><use xlink:href="#l" transform="matrix(1,0,0,1,8020,6180) translate(64.21888888888891 49.733333333333334)"/><use xlink:href="#m" transform="matrix(1,0,0,1,8020,6180) translate(116.22444444444444 49.733333333333334)"/><use xlink:href="#n" transform="matrix(1,0,0,1,8020,6180) translate(33.28277777777781 79.33333333333333)"/><use xlink:href="#o" transform="matrix(1,0,0,1,8020,6180) translate(96.31981481481483 79.33333333333333)"/><path d="M8250.92 6060c0 33.14-51.7 60-115.46 60-63.77 0-115.46-26.86-115.46-60s51.7-60 115.46-60c63.77 0 115.46 26.86 115.46 60z" stroke="#333" stroke-width="2" fill="#fff"/><use xlink:href="#l" transform="matrix(1,0,0,1,8020,6000) translate(45.684629629629654 49.733333333333334)"/><use xlink:href="#p" transform="matrix(1,0,0,1,8020,6000) translate(97.69018518518519 49.733333333333334)"/><use xlink:href="#n" transform="matrix(1,0,0,1,8020,6000) translate(33.28277777777781 79.33333333333333)"/><use xlink:href="#o" transform="matrix(1,0,0,1,8020,6000) translate(96.31981481481483 79.33333333333333)"/><path d="M8018 6060h-187.58" stroke="#333" stroke-width="2" fill="none"/><path d="M8019 6060v.4l.02.58h-1.05v-1.95h1.05z" stroke="#333" stroke-width=".05" fill="#333"/><path d="M7815.16 6060l14.26-4.64v9.28z" stroke="#333" stroke-width="2" fill="#333"/><use xlink:href="#q" transform="matrix(1,0,0,1,7854.169875379713,6026.4) translate(0.0049999999999954525 19.73333333333333)"/><path d="M8018 6240h-310.54a12 12 0 0 1-12-12v-88.5" stroke="#333" stroke-width="2" fill="none"/><path d="M8019 6240v.4l.02.58h-1.05v-1.95h1.05z" stroke="#333" stroke-width=".05" fill="#333"/><path d="M7695.46 6124.24l4.64 14.26h-9.28z" stroke="#333" stroke-width="2" fill="#333"/><use xlink:href="#q" transform="matrix(1,0,0,1,7801.72046088436,6206.4) translate(0.0049999999999954525 19.73333333333333)"/><path d="M8540 6070h400v160h-400z" stroke="#000" stroke-width="2" fill="#fff"/><use xlink:href="#r" transform="matrix(1,0,0,1,8545,6075) translate(131.14074074074077 80.67083333333333)"/><path d="M8250.92 6500c0 33.14-51.7 60-115.46 60-63.77 0-115.46-26.86-115.46-60s51.7-60 115.46-60c63.77 0 115.46 26.86 115.46 60z" stroke="#333" stroke-width="2" fill="#fff"/><use xlink:href="#s" transform="matrix(1,0,0,1,8020,6440) translate(70.96796296296297 49.733333333333334)"/><use xlink:href="#d" transform="matrix(1,0,0,1,8020,6440) translate(42.258703703703716 79.33333333333333)"/><use xlink:href="#e" transform="matrix(1,0,0,1,8020,6440) translate(136.74574074074073 79.33333333333333)"/><path d="M8538 6150h-130.54a12 12 0 0 1-12-12v-66a12 12 0 0 0-12-12h-130.54" stroke="#333" stroke-width="2" fill="none"/><path d="M8539 6150.98h-1.03v-1.95h1.03zM8252.94 6060.98h-1.04l.02-.97v-.4l-.02-.58h1.05z" stroke="#333" stroke-width=".05" fill="#333"/><path d="M8538 6380h-130.54a12 12 0 0 1-12-12v-116a12 12 0 0 0-12-12h-130.54" stroke="#333" stroke-width="2" fill="none"/><path d="M8539 6380.98h-1.03v-1.95h1.03zM8252.94 6240.98h-1.04l.02-.97v-.4l-.02-.58h1.05z" stroke="#333" stroke-width=".05" fill="#333"/><path d="M8538 6380h-130.54a12 12 0 0 1-12-12v-296a12 12 0 0 0-12-12h-130.54" stroke="#333" stroke-width="2" fill="none"/><path d="M8539 6380.98h-1.03v-1.95h1.03zM8252.94 6060.98h-1.04l.02-.97v-.4l-.02-.58h1.05z" stroke="#333" stroke-width=".05" fill="#333"/><path d="M8538 6380h-130.54a12 12 0 0 0-12 12v96a12 12 0 0 1-12 12h-130.54" stroke="#333" stroke-width="2" fill="none"/><path d="M8539 6380.98h-1.03v-1.95h1.03zM8252.94 6500.98h-1.04l.02-.97v-.4l-.02-.58h1.05z" stroke="#333" stroke-width=".05" fill="#333"/><path d="M8538 6150h-130.54a12 12 0 0 0-12 12v326a12 12 0 0 1-12 12h-130.54" stroke="#333" stroke-width="2" fill="none"/><path d="M8539 6150.98h-1.03v-1.95h1.03zM8252.94 6500.98h-1.04l.02-.97v-.4l-.02-.58h1.05z" stroke="#333" stroke-width=".05" fill="#333"/><path d="M8250.92 5880c0 33.14-51.7 60-115.46 60-63.77 0-115.46-26.86-115.46-60s51.7-60 115.46-60c63.77 0 115.46 26.86 115.46 60z" stroke="#333" stroke-width="2" fill="#fff"/><g><use xlink:href="#t" transform="matrix(1,0,0,1,8020,5820) translate(50.72074074074076 64.73333333333333)"/><use xlink:href="#u" transform="matrix(1,0,0,1,8020,5820) translate(110.40037037037038 64.73333333333333)"/></g><path d="M7812.92 5880h187.58" stroke="#333" stroke-width="2" fill="none"/><path d="M7812.94 5880.98h-1.04l.02-.97v-.4l-.02-.58h1.05z" stroke="#333" stroke-width=".05" fill="#333"/><path d="M8015.76 5880l-14.26 4.64v-9.28z" stroke="#333" stroke-width="2" fill="#333"/><g><use xlink:href="#v" transform="matrix(1,0,0,1,7841.5284055185175,5846.4) translate(0.0049999999999954525 19.73333333333333)"/></g><defs><path d="M185-189c-5-48-123-54-124 2 14 75 158 14 163 119 3 78-121 87-175 55-17-10-28-26-33-46l33-7c5 56 141 63 141-1 0-78-155-14-162-118-5-82 145-84 179-34 5 7 8 16 11 25" id="w"/><path d="M141-36C126-15 110 5 73 4 37 3 15-17 15-53c-1-64 63-63 125-63 3-35-9-54-41-54-24 1-41 7-42 31l-33-3c5-37 33-52 76-52 45 0 72 20 72 64v82c-1 20 7 32 28 27v20c-31 9-61-2-59-35zM48-53c0 20 12 33 32 33 41-3 63-29 60-74-43 2-92-5-92 41" id="x"/><path d="M108 0H70L1-190h34L89-25l56-165h34" id="y"/><path d="M24-231v-30h32v30H24zM24 0v-190h32V0H24" id="z"/><path d="M117-194c89-4 53 116 60 194h-32v-121c0-31-8-49-39-48C34-167 62-67 57 0H25l-1-190h30c1 10-1 24 2 32 11-22 29-35 61-36" id="A"/><path d="M177-190C167-65 218 103 67 71c-23-6-38-20-44-43l32-5c15 47 100 32 89-28v-30C133-14 115 1 83 1 29 1 15-40 15-95c0-56 16-97 71-98 29-1 48 16 59 35 1-10 0-23 2-32h30zM94-22c36 0 50-32 50-73 0-42-14-75-50-75-39 0-46 34-46 75s6 73 46 73" id="B"/><path d="M135-143c-3-34-86-38-87 0 15 53 115 12 119 90S17 21 10-45l28-5c4 36 97 45 98 0-10-56-113-15-118-90-4-57 82-63 122-42 12 7 21 19 24 35" id="C"/><path d="M143 4C61 4 22-44 18-125c-5-107 100-154 193-111 17 8 29 25 37 43l-32 9c-13-25-37-40-76-40-61 0-88 39-88 99 0 61 29 100 91 101 35 0 62-11 79-27v-45h-74v-28h105v86C228-13 192 4 143 4" id="D"/><path d="M100-194c62-1 85 37 85 99 1 63-27 99-86 99S16-35 15-95c0-66 28-99 85-99zM99-20c44 1 53-31 53-75 0-43-8-75-51-75s-53 32-53 75 10 74 51 75" id="E"/><path d="M24 0v-261h32V0H24" id="F"/><g id="a"><use transform="matrix(0.0685185185185185,0,0,0.0685185185185185,0,0)" xlink:href="#w"/><use transform="matrix(0.0685185185185185,0,0,0.0685185185185185,16.444444444444443,0)" xlink:href="#x"/><use transform="matrix(0.0685185185185185,0,0,0.0685185185185185,30.148148148148145,0)" xlink:href="#y"/><use transform="matrix(0.0685185185185185,0,0,0.0685185185185185,42.481481481481474,0)" xlink:href="#z"/><use transform="matrix(0.0685185185185185,0,0,0.0685185185185185,47.89444444444444,0)" xlink:href="#A"/><use transform="matrix(0.0685185185185185,0,0,0.0685185185185185,61.598148148148134,0)" xlink:href="#B"/><use transform="matrix(0.0685185185185185,0,0,0.0685185185185185,75.30185185185184,0)" xlink:href="#C"/><use transform="matrix(0.0685185185185185,0,0,0.0685185185185185,87.63518518518516,0)" xlink:href="#D"/><use transform="matrix(0.0685185185185185,0,0,0.0685185185185185,106.82037037037034,0)" xlink:href="#E"/><use transform="matrix(0.0685185185185185,0,0,0.0685185185185185,120.52407407407404,0)" xlink:href="#x"/><use transform="matrix(0.0685185185185185,0,0,0.0685185185185185,134.22777777777773,0)" xlink:href="#F"/></g><path d="M232-93c-1 65-40 97-104 97C67 4 28-28 28-90v-158h33c8 89-33 224 67 224 102 0 64-133 71-224h33v155" id="G"/><path d="M100-194c63 0 86 42 84 106H49c0 40 14 67 53 68 26 1 43-12 49-29l28 8c-11 28-37 45-77 45C44 4 14-33 15-96c1-61 26-98 85-98zm52 81c6-60-76-77-97-28-3 7-6 17-6 28h103" id="H"/><path d="M114-163C36-179 61-72 57 0H25l-1-190h30c1 12-1 29 2 39 6-27 23-49 58-41v29" id="I"/><g id="b"><use transform="matrix(0.0685185185185185,0,0,0.0685185185185185,0,0)" xlink:href="#G"/><use transform="matrix(0.0685185185185185,0,0,0.0685185185185185,17.746296296296293,0)" xlink:href="#C"/><use transform="matrix(0.0685185185185185,0,0,0.0685185185185185,30.079629629629622,0)" xlink:href="#H"/><use transform="matrix(0.0685185185185185,0,0,0.0685185185185185,43.783333333333324,0)" xlink:href="#I"/></g><path d="M212-179c-10-28-35-45-73-45-59 0-87 40-87 99 0 60 29 101 89 101 43 0 62-24 78-52l27 14C228-24 195 4 139 4 59 4 22-46 18-125c-6-104 99-153 187-111 19 9 31 26 39 46" id="J"/><path d="M59-47c-2 24 18 29 38 22v24C64 9 27 4 27-40v-127H5v-23h24l9-43h21v43h35v23H59v120" id="K"/><g id="c"><use transform="matrix(0.0685185185185185,0,0,0.0685185185185185,0,0)" xlink:href="#J"/><use transform="matrix(0.0685185185185185,0,0,0.0685185185185185,17.746296296296293,0)" xlink:href="#I"/><use transform="matrix(0.0685185185185185,0,0,0.0685185185185185,25.899999999999995,0)" xlink:href="#H"/><use transform="matrix(0.0685185185185185,0,0,0.0685185185185185,39.603703703703694,0)" xlink:href="#x"/><use transform="matrix(0.0685185185185185,0,0,0.0685185185185185,53.307407407407396,0)" xlink:href="#K"/><use transform="matrix(0.0685185185185185,0,0,0.0685185185185185,60.159259259259244,0)" xlink:href="#H"/></g><g id="d"><use transform="matrix(0.0685185185185185,0,0,0.0685185185185185,0,0)" xlink:href="#w"/><use transform="matrix(0.0685185185185185,0,0,0.0685185185185185,16.444444444444443,0)" xlink:href="#x"/><use transform="matrix(0.0685185185185185,0,0,0.0685185185185185,30.148148148148145,0)" xlink:href="#y"/><use transform="matrix(0.0685185185185185,0,0,0.0685185185185185,42.481481481481474,0)" xlink:href="#z"/><use transform="matrix(0.0685185185185185,0,0,0.0685185185185185,47.89444444444444,0)" xlink:href="#A"/><use transform="matrix(0.0685185185185185,0,0,0.0685185185185185,61.598148148148134,0)" xlink:href="#B"/><use transform="matrix(0.0685185185185185,0,0,0.0685185185185185,75.30185185185184,0)" xlink:href="#C"/></g><g id="e"><use transform="matrix(0.0685185185185185,0,0,0.0685185185185185,0,0)" xlink:href="#D"/><use transform="matrix(0.0685185185185185,0,0,0.0685185185185185,19.185185185185183,0)" xlink:href="#E"/><use transform="matrix(0.0685185185185185,0,0,0.0685185185185185,32.888888888888886,0)" xlink:href="#x"/><use transform="matrix(0.0685185185185185,0,0,0.0685185185185185,46.59259259259258,0)" xlink:href="#F"/></g><path d="M115-194c55 1 70 41 70 98S169 2 115 4C84 4 66-9 55-30l1 105H24l-1-265h31l2 30c10-21 28-34 59-34zm-8 174c40 0 45-34 45-75s-6-73-45-74c-42 0-51 32-51 76 0 43 10 73 51 73" id="L"/><path d="M85-194c31 0 48 13 60 33l-1-100h32l1 261h-30c-2-10 0-23-3-31C134-8 116 4 85 4 32 4 16-35 15-94c0-66 23-100 70-100zm9 24c-40 0-46 34-46 75 0 40 6 74 45 74 42 0 51-32 51-76 0-42-9-74-50-73" id="M"/><g id="f"><use transform="matrix(0.0685185185185185,0,0,0.0685185185185185,0,0)" xlink:href="#G"/><use transform="matrix(0.0685185185185185,0,0,0.0685185185185185,17.746296296296293,0)" xlink:href="#L"/><use transform="matrix(0.0685185185185185,0,0,0.0685185185185185,31.449999999999996,0)" xlink:href="#M"/><use transform="matrix(0.0685185185185185,0,0,0.0685185185185185,45.1537037037037,0)" xlink:href="#x"/><use transform="matrix(0.0685185185185185,0,0,0.0685185185185185,58.8574074074074,0)" xlink:href="#K"/><use transform="matrix(0.0685185185185185,0,0,0.0685185185185185,65.70925925925926,0)" xlink:href="#H"/></g><path d="M137 0h-34L2-248h35l83 218 83-218h36" id="N"/><path d="M206 0h-36l-40-164L89 0H53L-1-190h32L70-26l43-164h34l41 164 42-164h31" id="O"/><g id="g"><use transform="matrix(0.0685185185185185,0,0,0.0685185185185185,0,0)" xlink:href="#N"/><use transform="matrix(0.0685185185185185,0,0,0.0685185185185185,15.964814814814813,0)" xlink:href="#z"/><use transform="matrix(0.0685185185185185,0,0,0.0685185185185185,21.377777777777776,0)" xlink:href="#H"/><use transform="matrix(0.0685185185185185,0,0,0.0685185185185185,35.081481481481475,0)" xlink:href="#O"/></g><g id="h"><use transform="matrix(0.0685185185185185,0,0,0.0685185185185185,0,0)" xlink:href="#w"/><use transform="matrix(0.0685185185185185,0,0,0.0685185185185185,16.444444444444443,0)" xlink:href="#x"/><use transform="matrix(0.0685185185185185,0,0,0.0685185185185185,30.148148148148145,0)" xlink:href="#y"/><use transform="matrix(0.0685185185185185,0,0,0.0685185185185185,42.481481481481474,0)" xlink:href="#z"/><use transform="matrix(0.0685185185185185,0,0,0.0685185185185185,47.89444444444444,0)" xlink:href="#A"/><use transform="matrix(0.0685185185185185,0,0,0.0685185185185185,61.598148148148134,0)" xlink:href="#B"/><use transform="matrix(0.0685185185185185,0,0,0.0685185185185185,75.30185185185184,0)" xlink:href="#C"/></g><g id="i"><use transform="matrix(0.0685185185185185,0,0,0.0685185185185185,0,0)" xlink:href="#D"/><use transform="matrix(0.0685185185185185,0,0,0.0685185185185185,19.185185185185183,0)" xlink:href="#E"/><use transform="matrix(0.0685185185185185,0,0,0.0685185185185185,32.888888888888886,0)" xlink:href="#x"/><use transform="matrix(0.0685185185185185,0,0,0.0685185185185185,46.59259259259258,0)" xlink:href="#F"/></g><path d="M30-248c118-7 216 8 213 122C240-48 200 0 122 0H30v-248zM63-27c89 8 146-16 146-99s-60-101-146-95v194" id="P"/><g id="j"><use transform="matrix(0.0685185185185185,0,0,0.0685185185185185,0,0)" xlink:href="#P"/><use transform="matrix(0.0685185185185185,0,0,0.0685185185185185,17.746296296296293,0)" xlink:href="#H"/><use transform="matrix(0.0685185185185185,0,0,0.0685185185185185,31.449999999999996,0)" xlink:href="#F"/><use transform="matrix(0.0685185185185185,0,0,0.0685185185185185,36.86296296296297,0)" xlink:href="#H"/><use transform="matrix(0.0685185185185185,0,0,0.0685185185185185,50.56666666666666,0)" xlink:href="#K"/><use transform="matrix(0.0685185185185185,0,0,0.0685185185185185,57.41851851851851,0)" xlink:href="#H"/></g><path fill="#333" d="M160-131c35 5 61 23 61 61C221 17 115-2 30 0v-248c76 3 177-17 177 60 0 33-19 50-47 57zm-97-11c50-1 110 9 110-42 0-47-63-36-110-37v79zm0 115c55-2 124 14 124-45 0-56-70-42-124-44v89" id="Q"/><path fill="#333" d="M141-36C126-15 110 5 73 4 37 3 15-17 15-53c-1-64 63-63 125-63 3-35-9-54-41-54-24 1-41 7-42 31l-33-3c5-37 33-52 76-52 45 0 72 20 72 64v82c-1 20 7 32 28 27v20c-31 9-61-2-59-35zM48-53c0 20 12 33 32 33 41-3 63-29 60-74-43 2-92-5-92 41" id="R"/><path fill="#333" d="M117-194c89-4 53 116 60 194h-32v-121c0-31-8-49-39-48C34-167 62-67 57 0H25l-1-190h30c1 10-1 24 2 32 11-22 29-35 61-36" id="S"/><path fill="#333" d="M143 0L79-87 56-68V0H24v-261h32v163l83-92h37l-77 82L181 0h-38" id="T"/><path fill="#333" d="M205 0l-28-72H64L36 0H1l101-248h38L239 0h-34zm-38-99l-47-123c-12 45-31 82-46 123h93" id="U"/><path fill="#333" d="M96-169c-40 0-48 33-48 73s9 75 48 75c24 0 41-14 43-38l32 2c-6 37-31 61-74 61-59 0-76-41-82-99-10-93 101-131 147-64 4 7 5 14 7 22l-32 3c-4-21-16-35-41-35" id="V"/><path fill="#333" d="M100-194c62-1 85 37 85 99 1 63-27 99-86 99S16-35 15-95c0-66 28-99 85-99zM99-20c44 1 53-31 53-75 0-43-8-75-51-75s-53 32-53 75 10 74 51 75" id="W"/><path fill="#333" d="M84 4C-5 8 30-112 23-190h32v120c0 31 7 50 39 49 72-2 45-101 50-169h31l1 190h-30c-1-10 1-25-2-33-11 22-28 36-60 37" id="X"/><path fill="#333" d="M59-47c-2 24 18 29 38 22v24C64 9 27 4 27-40v-127H5v-23h24l9-43h21v43h35v23H59v120" id="Y"/><g id="k"><use transform="matrix(0.0685185185185185,0,0,0.0685185185185185,0,0)" xlink:href="#Q"/><use transform="matrix(0.0685185185185185,0,0,0.0685185185185185,16.444444444444443,0)" xlink:href="#R"/><use transform="matrix(0.0685185185185185,0,0,0.0685185185185185,30.148148148148145,0)" xlink:href="#S"/><use transform="matrix(0.0685185185185185,0,0,0.0685185185185185,43.85185185185185,0)" xlink:href="#T"/><use transform="matrix(0.0685185185185185,0,0,0.0685185185185185,56.185185185185176,0)" xlink:href="#U"/><use transform="matrix(0.0685185185185185,0,0,0.0685185185185185,72.62962962962962,0)" xlink:href="#V"/><use transform="matrix(0.0685185185185185,0,0,0.0685185185185185,84.96296296296295,0)" xlink:href="#V"/><use transform="matrix(0.0685185185185185,0,0,0.0685185185185185,97.29629629629628,0)" xlink:href="#W"/><use transform="matrix(0.0685185185185185,0,0,0.0685185185185185,110.99999999999997,0)" xlink:href="#X"/><use transform="matrix(0.0685185185185185,0,0,0.0685185185185185,124.70370370370367,0)" xlink:href="#S"/><use transform="matrix(0.0685185185185185,0,0,0.0685185185185185,138.40740740740736,0)" xlink:href="#Y"/></g><path d="M30 0v-248h33v221h125V0H30" id="Z"/><path d="M143 0L79-87 56-68V0H24v-261h32v163l83-92h37l-77 82L181 0h-38" id="aa"/><g id="l"><use transform="matrix(0.0685185185185185,0,0,0.0685185185185185,0,0)" xlink:href="#Z"/><use transform="matrix(0.0685185185185185,0,0,0.0685185185185185,13.7037037037037,0)" xlink:href="#z"/><use transform="matrix(0.0685185185185185,0,0,0.0685185185185185,19.116666666666664,0)" xlink:href="#A"/><use transform="matrix(0.0685185185185185,0,0,0.0685185185185185,32.82037037037036,0)" xlink:href="#aa"/></g><path d="M233-177c-1 41-23 64-60 70L243 0h-38l-65-103H63V0H30v-248c88 3 205-21 203 71zM63-129c60-2 137 13 137-47 0-61-80-42-137-45v92" id="ab"/><path d="M84 4C-5 8 30-112 23-190h32v120c0 31 7 50 39 49 72-2 45-101 50-169h31l1 190h-30c-1-10 1-25-2-33-11 22-28 36-60 37" id="ac"/><g id="m"><use transform="matrix(0.0685185185185185,0,0,0.0685185185185185,0,0)" xlink:href="#ab"/><use transform="matrix(0.0685185185185185,0,0,0.0685185185185185,17.746296296296293,0)" xlink:href="#ac"/><use transform="matrix(0.0685185185185185,0,0,0.0685185185185185,31.449999999999996,0)" xlink:href="#F"/><use transform="matrix(0.0685185185185185,0,0,0.0685185185185185,36.86296296296297,0)" xlink:href="#H"/></g><path d="M160-131c35 5 61 23 61 61C221 17 115-2 30 0v-248c76 3 177-17 177 60 0 33-19 50-47 57zm-97-11c50-1 110 9 110-42 0-47-63-36-110-37v79zm0 115c55-2 124 14 124-45 0-56-70-42-124-44v89" id="ad"/><g id="n"><use transform="matrix(0.0685185185185185,0,0,0.0685185185185185,0,0)" xlink:href="#ad"/><use transform="matrix(0.0685185185185185,0,0,0.0685185185185185,16.444444444444443,0)" xlink:href="#x"/><use transform="matrix(0.0685185185185185,0,0,0.0685185185185185,30.148148148148145,0)" xlink:href="#A"/><use transform="matrix(0.0685185185185185,0,0,0.0685185185185185,43.85185185185185,0)" xlink:href="#aa"/></g><path d="M205 0l-28-72H64L36 0H1l101-248h38L239 0h-34zm-38-99l-47-123c-12 45-31 82-46 123h93" id="ae"/><path d="M96-169c-40 0-48 33-48 73s9 75 48 75c24 0 41-14 43-38l32 2c-6 37-31 61-74 61-59 0-76-41-82-99-10-93 101-131 147-64 4 7 5 14 7 22l-32 3c-4-21-16-35-41-35" id="af"/><g id="o"><use transform="matrix(0.0685185185185185,0,0,0.0685185185185185,0,0)" xlink:href="#ae"/><use transform="matrix(0.0685185185185185,0,0,0.0685185185185185,16.444444444444443,0)" xlink:href="#af"/><use transform="matrix(0.0685185185185185,0,0,0.0685185185185185,28.77777777777777,0)" xlink:href="#af"/><use transform="matrix(0.0685185185185185,0,0,0.0685185185185185,41.11111111111111,0)" xlink:href="#E"/><use transform="matrix(0.0685185185185185,0,0,0.0685185185185185,54.8148148148148,0)" xlink:href="#ac"/><use transform="matrix(0.0685185185185185,0,0,0.0685185185185185,68.5185185185185,0)" xlink:href="#A"/><use transform="matrix(0.0685185185185185,0,0,0.0685185185185185,82.22222222222221,0)" xlink:href="#K"/><use transform="matrix(0.0685185185185185,0,0,0.0685185185185185,89.07407407407405,0)" xlink:href="#C"/></g><g id="p"><use transform="matrix(0.0685185185185185,0,0,0.0685185185185185,0,0)" xlink:href="#w"/><use transform="matrix(0.0685185185185185,0,0,0.0685185185185185,16.444444444444443,0)" xlink:href="#x"/><use transform="matrix(0.0685185185185185,0,0,0.0685185185185185,30.148148148148145,0)" xlink:href="#y"/><use transform="matrix(0.0685185185185185,0,0,0.0685185185185185,42.481481481481474,0)" xlink:href="#z"/><use transform="matrix(0.0685185185185185,0,0,0.0685185185185185,47.89444444444444,0)" xlink:href="#A"/><use transform="matrix(0.0685185185185185,0,0,0.0685185185185185,61.598148148148134,0)" xlink:href="#B"/><use transform="matrix(0.0685185185185185,0,0,0.0685185185185185,75.30185185185184,0)" xlink:href="#C"/></g><path fill="#333" d="M18-100v-36l175-74v27L42-118l151 64v27" id="ag"/><path fill="#333" d="M100-194c63 0 86 42 84 106H49c0 40 14 67 53 68 26 1 43-12 49-29l28 8c-11 28-37 45-77 45C44 4 14-33 15-96c1-61 26-98 85-98zm52 81c6-60-76-77-97-28-3 7-6 17-6 28h103" id="ah"/><path fill="#333" d="M141 0L90-78 38 0H4l68-98-65-92h35l48 74 47-74h35l-64 92 68 98h-35" id="ai"/><path fill="#333" d="M85-194c31 0 48 13 60 33l-1-100h32l1 261h-30c-2-10 0-23-3-31C134-8 116 4 85 4 32 4 16-35 15-94c0-66 23-100 70-100zm9 24c-40 0-46 34-46 75 0 40 6 74 45 74 42 0 51-32 51-76 0-42-9-74-50-73" id="aj"/><path fill="#333" d="M135-143c-3-34-86-38-87 0 15 53 115 12 119 90S17 21 10-45l28-5c4 36 97 45 98 0-10-56-113-15-118-90-4-57 82-63 122-42 12 7 21 19 24 35" id="ak"/><path fill="#333" d="M18-27v-27l151-64-151-65v-27l175 74v36" id="al"/><g id="q"><use transform="matrix(0.0685185185185185,0,0,0.0685185185185185,0,0)" xlink:href="#ag"/><use transform="matrix(0.0685185185185185,0,0,0.0685185185185185,14.388888888888886,0)" xlink:href="#ag"/><use transform="matrix(0.0685185185185185,0,0,0.0685185185185185,28.77777777777777,0)" xlink:href="#ah"/><use transform="matrix(0.0685185185185185,0,0,0.0685185185185185,42.481481481481474,0)" xlink:href="#ai"/><use transform="matrix(0.0685185185185185,0,0,0.0685185185185185,54.8148148148148,0)" xlink:href="#Y"/><use transform="matrix(0.0685185185185185,0,0,0.0685185185185185,61.66666666666665,0)" xlink:href="#ah"/><use transform="matrix(0.0685185185185185,0,0,0.0685185185185185,75.37037037037035,0)" xlink:href="#S"/><use transform="matrix(0.0685185185185185,0,0,0.0685185185185185,89.07407407407405,0)" xlink:href="#aj"/><use transform="matrix(0.0685185185185185,0,0,0.0685185185185185,102.77777777777774,0)" xlink:href="#ak"/><use transform="matrix(0.0685185185185185,0,0,0.0685185185185185,115.11111111111107,0)" xlink:href="#al"/><use transform="matrix(0.0685185185185185,0,0,0.0685185185185185,129.49999999999994,0)" xlink:href="#al"/></g><path fill="#333" d="M127-220V0H93v-220H8v-28h204v28h-85" id="am"/><path fill="#333" d="M114-163C36-179 61-72 57 0H25l-1-190h30c1 12-1 29 2 39 6-27 23-49 58-41v29" id="an"/><path fill="#333" d="M24-231v-30h32v30H24zM24 0v-190h32V0H24" id="ao"/><g id="r"><use transform="matrix(0.0685185185185185,0,0,0.0685185185185185,0,0)" xlink:href="#am"/><use transform="matrix(0.0685185185185185,0,0,0.0685185185185185,14.114814814814812,0)" xlink:href="#an"/><use transform="matrix(0.0685185185185185,0,0,0.0685185185185185,22.268518518518512,0)" xlink:href="#R"/><use transform="matrix(0.0685185185185185,0,0,0.0685185185185185,35.972222222222214,0)" xlink:href="#S"/><use transform="matrix(0.0685185185185185,0,0,0.0685185185185185,49.67592592592592,0)" xlink:href="#ak"/><use transform="matrix(0.0685185185185185,0,0,0.0685185185185185,62.009259259259245,0)" xlink:href="#R"/><use transform="matrix(0.0685185185185185,0,0,0.0685185185185185,75.71296296296295,0)" xlink:href="#V"/><use transform="matrix(0.0685185185185185,0,0,0.0685185185185185,88.04629629629628,0)" xlink:href="#Y"/><use transform="matrix(0.0685185185185185,0,0,0.0685185185185185,94.89814814814814,0)" xlink:href="#ao"/><use transform="matrix(0.0685185185185185,0,0,0.0685185185185185,100.31111111111109,0)" xlink:href="#W"/><use transform="matrix(0.0685185185185185,0,0,0.0685185185185185,114.01481481481478,0)" xlink:href="#S"/></g><path d="M30 0v-248h187v28H63v79h144v27H63v87h162V0H30" id="ap"/><path d="M141 0L90-78 38 0H4l68-98-65-92h35l48 74 47-74h35l-64 92 68 98h-35" id="aq"/><g id="s"><use transform="matrix(0.0685185185185185,0,0,0.0685185185185185,0,0)" xlink:href="#ap"/><use transform="matrix(0.0685185185185185,0,0,0.0685185185185185,16.444444444444443,0)" xlink:href="#aq"/><use transform="matrix(0.0685185185185185,0,0,0.0685185185185185,28.77777777777777,0)" xlink:href="#H"/><use transform="matrix(0.0685185185185185,0,0,0.0685185185185185,42.481481481481474,0)" xlink:href="#af"/><use transform="matrix(0.0685185185185185,0,0,0.0685185185185185,54.8148148148148,0)" xlink:href="#ac"/><use transform="matrix(0.0685185185185185,0,0,0.0685185185185185,68.5185185185185,0)" xlink:href="#K"/><use transform="matrix(0.0685185185185185,0,0,0.0685185185185185,75.37037037037035,0)" xlink:href="#H"/></g><g id="t"><use transform="matrix(0.0685185185185185,0,0,0.0685185185185185,0,0)" xlink:href="#N"/><use transform="matrix(0.0685185185185185,0,0,0.0685185185185185,15.964814814814813,0)" xlink:href="#z"/><use transform="matrix(0.0685185185185185,0,0,0.0685185185185185,21.377777777777776,0)" xlink:href="#H"/><use transform="matrix(0.0685185185185185,0,0,0.0685185185185185,35.081481481481475,0)" xlink:href="#O"/></g><g id="u"><use transform="matrix(0.0685185185185185,0,0,0.0685185185185185,0,0)" xlink:href="#w"/><use transform="matrix(0.0685185185185185,0,0,0.0685185185185185,16.444444444444443,0)" xlink:href="#K"/><use transform="matrix(0.0685185185185185,0,0,0.0685185185185185,23.29629629629629,0)" xlink:href="#x"/><use transform="matrix(0.0685185185185185,0,0,0.0685185185185185,36.99999999999999,0)" xlink:href="#K"/><use transform="matrix(0.0685185185185185,0,0,0.0685185185185185,43.85185185185185,0)" xlink:href="#ac"/><use transform="matrix(0.0685185185185185,0,0,0.0685185185185185,57.55555555555554,0)" xlink:href="#C"/></g><path fill="#333" d="M24 0v-261h32V0H24" id="ar"/><g id="v"><use transform="matrix(0.0685185185185185,0,0,0.0685185185185185,0,0)" xlink:href="#ag"/><use transform="matrix(0.0685185185185185,0,0,0.0685185185185185,14.388888888888886,0)" xlink:href="#ag"/><use transform="matrix(0.0685185185185185,0,0,0.0685185185185185,28.77777777777777,0)" xlink:href="#ao"/><use transform="matrix(0.0685185185185185,0,0,0.0685185185185185,34.190740740740736,0)" xlink:href="#S"/><use transform="matrix(0.0685185185185185,0,0,0.0685185185185185,47.89444444444444,0)" xlink:href="#V"/><use transform="matrix(0.0685185185185185,0,0,0.0685185185185185,60.22777777777777,0)" xlink:href="#ar"/><use transform="matrix(0.0685185185185185,0,0,0.0685185185185185,65.64074074074072,0)" xlink:href="#X"/><use transform="matrix(0.0685185185185185,0,0,0.0685185185185185,79.34444444444442,0)" xlink:href="#aj"/><use transform="matrix(0.0685185185185185,0,0,0.0685185185185185,93.04814814814812,0)" xlink:href="#ah"/><use transform="matrix(0.0685185185185185,0,0,0.0685185185185185,106.75185185185181,0)" xlink:href="#ak"/><use transform="matrix(0.0685185185185185,0,0,0.0685185185185185,119.08518518518514,0)" xlink:href="#al"/><use transform="matrix(0.0685185185185185,0,0,0.0685185185185185,133.47407407407403,0)" xlink:href="#al"/></g></defs></g></svg>