<svg xmlns="http://www.w3.org/2000/svg" xmlns:xlink="http://www.w3.org/1999/xlink" xmlns:lucid="lucid" width="1190" height="1033"><g transform="translate(-2724 -2750)" lucid:page-tab-id="0_0"><path d="M0 0h10578.03v8768.17H0z" fill="#fff"/><path d="M3060 2900h740v780h-740z" stroke="#333" stroke-width="2" fill-opacity="0"/><use xlink:href="#a" transform="matrix(1,0,0,1,3068,2908) translate(289.3703703703704 19.73333333333333)"/><path d="M2899.75 3239.75c0 10.9-8.84 19.75-19.75 19.75-10.9 0-19.75-8.84-19.75-19.75 0-10.9 8.84-19.75 19.75-19.75 10.9 0 19.75 8.84 19.75 19.75z" stroke="#000" stroke-width="2" fill="#fff"/><path d="M2880 3259.5v47.3a27.6 27.6 0 0 0 4.28 14.76L2920 3378m-40-63.2l-40 63.2m0-98.75h80" stroke="#000" stroke-width="2" fill="none"/><path d="M2840 3228a8 8 0 0 1 8-8h64a8 8 0 0 1 8 8v164a8 8 0 0 1-8 8h-64a8 8 0 0 1-8-8z" fill="none"/><use xlink:href="#b" transform="matrix(1,0,0,1,2760,3378) translate(94.03148148148148 19.73333333333333)"/><path d="M3550.92 3220c0 33.14-51.7 60-115.46 60-63.77 0-115.46-26.86-115.46-60s51.7-60 115.46-60c63.77 0 115.46 26.86 115.46 60z" stroke="#333" stroke-width="2" fill="#fff"/><use xlink:href="#c" transform="matrix(1,0,0,1,3320,3160) translate(47.05500000000002 49.733333333333334)"/><use xlink:href="#d" transform="matrix(1,0,0,1,3320,3160) translate(127.76981481481481 49.733333333333334)"/><use xlink:href="#e" transform="matrix(1,0,0,1,3320,3160) translate(70.96796296296297 79.33333333333333)"/><path d="M3550.92 3400c0 33.14-51.7 60-115.46 60-63.77 0-115.46-26.86-115.46-60s51.7-60 115.46-60c63.77 0 115.46 26.86 115.46 60z" stroke="#333" stroke-width="2" fill="#fff"/><use xlink:href="#f" transform="matrix(1,0,0,1,3320,3340) translate(44.280000000000015 49.733333333333334)"/><use xlink:href="#d" transform="matrix(1,0,0,1,3320,3340) translate(130.5448148148148 49.733333333333334)"/><use xlink:href="#e" transform="matrix(1,0,0,1,3320,3340) translate(70.96796296296297 79.33333333333333)"/><path d="M3545.46 3580c0 33.14-51.7 60-115.46 60-63.77 0-115.46-26.86-115.46-60s51.7-60 115.46-60c63.77 0 115.46 26.86 115.46 60z" stroke="#333" stroke-width="2" fill="#fff"/><use xlink:href="#g" transform="matrix(1,0,0,1,3314.5401129616703,3520) translate(48.42537037037039 49.733333333333334)"/><use xlink:href="#d" transform="matrix(1,0,0,1,3314.5401129616703,3520) translate(126.39944444444444 49.733333333333334)"/><use xlink:href="#e" transform="matrix(1,0,0,1,3314.5401129616703,3520) translate(70.96796296296297 79.33333333333333)"/><path d="M3550.92 3040c0 33.14-51.7 60-115.46 60-63.77 0-115.46-26.86-115.46-60s51.7-60 115.46-60c63.77 0 115.46 26.86 115.46 60z" stroke="#333" stroke-width="2" fill="#fff"/><use xlink:href="#h" transform="matrix(1,0,0,1,3320,2980) translate(89.09111111111112 49.733333333333334)"/><use xlink:href="#i" transform="matrix(1,0,0,1,3320,2980) translate(39.44944444444447 79.33333333333333)"/><use xlink:href="#j" transform="matrix(1,0,0,1,3320,2980) translate(102.48648148148149 79.33333333333333)"/><path d="M2881.5 3298.93H3153a12 12 0 0 0 12-12V3052a12 12 0 0 1 12-12h141M2881.53 3298.93h-4.03" stroke="#333" stroke-width="2" fill="none"/><path d="M3319 3040v.4l.02.57h-1.05v-1.94h1.05z" stroke="#333" stroke-width=".05" fill="#333"/><path d="M2881.5 3298.93H3153a12 12 0 0 0 12-12V3232a12 12 0 0 1 12-12h141M2881.53 3298.93h-4.03" stroke="#333" stroke-width="2" fill="none"/><path d="M3319 3220v.4l.02.57h-1.05v-1.94h1.05z" stroke="#333" stroke-width=".05" fill="#333"/><path d="M2881.5 3298.93H3153a12 12 0 0 1 12 12V3388a12 12 0 0 0 12 12h141M2881.53 3298.93h-4.03" stroke="#333" stroke-width="2" fill="none"/><path d="M3319 3400v.4l.02.57h-1.05v-1.94h1.05z" stroke="#333" stroke-width=".05" fill="#333"/><path d="M2881.5 3298.93H3153a12 12 0 0 1 12 12V3568a12 12 0 0 0 12 12h135.54M2881.53 3298.93h-4.03" stroke="#333" stroke-width="2" fill="none"/><path d="M3313.54 3580v.4l.02.57h-1.05v-1.94h1.06z" stroke="#333" stroke-width=".05" fill="#333"/><defs><path d="M160-131c35 5 61 23 61 61C221 17 115-2 30 0v-248c76 3 177-17 177 60 0 33-19 50-47 57zm-97-11c50-1 110 9 110-42 0-47-63-36-110-37v79zm0 115c55-2 124 14 124-45 0-56-70-42-124-44v89" id="k"/><path d="M141-36C126-15 110 5 73 4 37 3 15-17 15-53c-1-64 63-63 125-63 3-35-9-54-41-54-24 1-41 7-42 31l-33-3c5-37 33-52 76-52 45 0 72 20 72 64v82c-1 20 7 32 28 27v20c-31 9-61-2-59-35zM48-53c0 20 12 33 32 33 41-3 63-29 60-74-43 2-92-5-92 41" id="l"/><path d="M117-194c89-4 53 116 60 194h-32v-121c0-31-8-49-39-48C34-167 62-67 57 0H25l-1-190h30c1 10-1 24 2 32 11-22 29-35 61-36" id="m"/><path d="M143 0L79-87 56-68V0H24v-261h32v163l83-92h37l-77 82L181 0h-38" id="n"/><path d="M205 0l-28-72H64L36 0H1l101-248h38L239 0h-34zm-38-99l-47-123c-12 45-31 82-46 123h93" id="o"/><path d="M96-169c-40 0-48 33-48 73s9 75 48 75c24 0 41-14 43-38l32 2c-6 37-31 61-74 61-59 0-76-41-82-99-10-93 101-131 147-64 4 7 5 14 7 22l-32 3c-4-21-16-35-41-35" id="p"/><path d="M100-194c62-1 85 37 85 99 1 63-27 99-86 99S16-35 15-95c0-66 28-99 85-99zM99-20c44 1 53-31 53-75 0-43-8-75-51-75s-53 32-53 75 10 74 51 75" id="q"/><path d="M84 4C-5 8 30-112 23-190h32v120c0 31 7 50 39 49 72-2 45-101 50-169h31l1 190h-30c-1-10 1-25-2-33-11 22-28 36-60 37" id="r"/><path d="M59-47c-2 24 18 29 38 22v24C64 9 27 4 27-40v-127H5v-23h24l9-43h21v43h35v23H59v120" id="s"/><g id="a"><use transform="matrix(0.0685185185185185,0,0,0.0685185185185185,0,0)" xlink:href="#k"/><use transform="matrix(0.0685185185185185,0,0,0.0685185185185185,16.444444444444443,0)" xlink:href="#l"/><use transform="matrix(0.0685185185185185,0,0,0.0685185185185185,30.148148148148145,0)" xlink:href="#m"/><use transform="matrix(0.0685185185185185,0,0,0.0685185185185185,43.85185185185185,0)" xlink:href="#n"/><use transform="matrix(0.0685185185185185,0,0,0.0685185185185185,56.185185185185176,0)" xlink:href="#o"/><use transform="matrix(0.0685185185185185,0,0,0.0685185185185185,72.62962962962962,0)" xlink:href="#p"/><use transform="matrix(0.0685185185185185,0,0,0.0685185185185185,84.96296296296295,0)" xlink:href="#p"/><use transform="matrix(0.0685185185185185,0,0,0.0685185185185185,97.29629629629628,0)" xlink:href="#q"/><use transform="matrix(0.0685185185185185,0,0,0.0685185185185185,110.99999999999997,0)" xlink:href="#r"/><use transform="matrix(0.0685185185185185,0,0,0.0685185185185185,124.70370370370367,0)" xlink:href="#m"/><use transform="matrix(0.0685185185185185,0,0,0.0685185185185185,138.40740740740736,0)" xlink:href="#s"/></g><path d="M232-93c-1 65-40 97-104 97C67 4 28-28 28-90v-158h33c8 89-33 224 67 224 102 0 64-133 71-224h33v155" id="t"/><path d="M135-143c-3-34-86-38-87 0 15 53 115 12 119 90S17 21 10-45l28-5c4 36 97 45 98 0-10-56-113-15-118-90-4-57 82-63 122-42 12 7 21 19 24 35" id="u"/><path d="M100-194c63 0 86 42 84 106H49c0 40 14 67 53 68 26 1 43-12 49-29l28 8c-11 28-37 45-77 45C44 4 14-33 15-96c1-61 26-98 85-98zm52 81c6-60-76-77-97-28-3 7-6 17-6 28h103" id="v"/><path d="M114-163C36-179 61-72 57 0H25l-1-190h30c1 12-1 29 2 39 6-27 23-49 58-41v29" id="w"/><g id="b"><use transform="matrix(0.0685185185185185,0,0,0.0685185185185185,0,0)" xlink:href="#t"/><use transform="matrix(0.0685185185185185,0,0,0.0685185185185185,17.746296296296293,0)" xlink:href="#u"/><use transform="matrix(0.0685185185185185,0,0,0.0685185185185185,30.079629629629622,0)" xlink:href="#v"/><use transform="matrix(0.0685185185185185,0,0,0.0685185185185185,43.783333333333324,0)" xlink:href="#w"/></g><path d="M212-179c-10-28-35-45-73-45-59 0-87 40-87 99 0 60 29 101 89 101 43 0 62-24 78-52l27 14C228-24 195 4 139 4 59 4 22-46 18-125c-6-104 99-153 187-111 19 9 31 26 39 46" id="x"/><g id="c"><use transform="matrix(0.0685185185185185,0,0,0.0685185185185185,0,0)" xlink:href="#x"/><use transform="matrix(0.0685185185185185,0,0,0.0685185185185185,17.746296296296293,0)" xlink:href="#w"/><use transform="matrix(0.0685185185185185,0,0,0.0685185185185185,25.899999999999995,0)" xlink:href="#v"/><use transform="matrix(0.0685185185185185,0,0,0.0685185185185185,39.603703703703694,0)" xlink:href="#l"/><use transform="matrix(0.0685185185185185,0,0,0.0685185185185185,53.307407407407396,0)" xlink:href="#s"/><use transform="matrix(0.0685185185185185,0,0,0.0685185185185185,60.159259259259244,0)" xlink:href="#v"/></g><g id="d"><use transform="matrix(0.0685185185185185,0,0,0.0685185185185185,0,0)" xlink:href="#k"/><use transform="matrix(0.0685185185185185,0,0,0.0685185185185185,16.444444444444443,0)" xlink:href="#l"/><use transform="matrix(0.0685185185185185,0,0,0.0685185185185185,30.148148148148145,0)" xlink:href="#m"/><use transform="matrix(0.0685185185185185,0,0,0.0685185185185185,43.85185185185185,0)" xlink:href="#n"/></g><g id="e"><use transform="matrix(0.0685185185185185,0,0,0.0685185185185185,0,0)" xlink:href="#o"/><use transform="matrix(0.0685185185185185,0,0,0.0685185185185185,16.444444444444443,0)" xlink:href="#p"/><use transform="matrix(0.0685185185185185,0,0,0.0685185185185185,28.77777777777777,0)" xlink:href="#p"/><use transform="matrix(0.0685185185185185,0,0,0.0685185185185185,41.11111111111111,0)" xlink:href="#q"/><use transform="matrix(0.0685185185185185,0,0,0.0685185185185185,54.8148148148148,0)" xlink:href="#r"/><use transform="matrix(0.0685185185185185,0,0,0.0685185185185185,68.5185185185185,0)" xlink:href="#m"/><use transform="matrix(0.0685185185185185,0,0,0.0685185185185185,82.22222222222221,0)" xlink:href="#s"/></g><path d="M115-194c55 1 70 41 70 98S169 2 115 4C84 4 66-9 55-30l1 105H24l-1-265h31l2 30c10-21 28-34 59-34zm-8 174c40 0 45-34 45-75s-6-73-45-74c-42 0-51 32-51 76 0 43 10 73 51 73" id="y"/><path d="M85-194c31 0 48 13 60 33l-1-100h32l1 261h-30c-2-10 0-23-3-31C134-8 116 4 85 4 32 4 16-35 15-94c0-66 23-100 70-100zm9 24c-40 0-46 34-46 75 0 40 6 74 45 74 42 0 51-32 51-76 0-42-9-74-50-73" id="z"/><g id="f"><use transform="matrix(0.0685185185185185,0,0,0.0685185185185185,0,0)" xlink:href="#t"/><use transform="matrix(0.0685185185185185,0,0,0.0685185185185185,17.746296296296293,0)" xlink:href="#y"/><use transform="matrix(0.0685185185185185,0,0,0.0685185185185185,31.449999999999996,0)" xlink:href="#z"/><use transform="matrix(0.0685185185185185,0,0,0.0685185185185185,45.1537037037037,0)" xlink:href="#l"/><use transform="matrix(0.0685185185185185,0,0,0.0685185185185185,58.8574074074074,0)" xlink:href="#s"/><use transform="matrix(0.0685185185185185,0,0,0.0685185185185185,65.70925925925926,0)" xlink:href="#v"/></g><path d="M30-248c118-7 216 8 213 122C240-48 200 0 122 0H30v-248zM63-27c89 8 146-16 146-99s-60-101-146-95v194" id="A"/><path d="M24 0v-261h32V0H24" id="B"/><g id="g"><use transform="matrix(0.0685185185185185,0,0,0.0685185185185185,0,0)" xlink:href="#A"/><use transform="matrix(0.0685185185185185,0,0,0.0685185185185185,17.746296296296293,0)" xlink:href="#v"/><use transform="matrix(0.0685185185185185,0,0,0.0685185185185185,31.449999999999996,0)" xlink:href="#B"/><use transform="matrix(0.0685185185185185,0,0,0.0685185185185185,36.86296296296297,0)" xlink:href="#v"/><use transform="matrix(0.0685185185185185,0,0,0.0685185185185185,50.56666666666666,0)" xlink:href="#s"/><use transform="matrix(0.0685185185185185,0,0,0.0685185185185185,57.41851851851851,0)" xlink:href="#v"/></g><path d="M137 0h-34L2-248h35l83 218 83-218h36" id="C"/><path d="M24-231v-30h32v30H24zM24 0v-190h32V0H24" id="D"/><path d="M206 0h-36l-40-164L89 0H53L-1-190h32L70-26l43-164h34l41 164 42-164h31" id="E"/><g id="h"><use transform="matrix(0.0685185185185185,0,0,0.0685185185185185,0,0)" xlink:href="#C"/><use transform="matrix(0.0685185185185185,0,0,0.0685185185185185,15.964814814814813,0)" xlink:href="#D"/><use transform="matrix(0.0685185185185185,0,0,0.0685185185185185,21.377777777777776,0)" xlink:href="#v"/><use transform="matrix(0.0685185185185185,0,0,0.0685185185185185,35.081481481481475,0)" xlink:href="#E"/></g><g id="i"><use transform="matrix(0.0685185185185185,0,0,0.0685185185185185,0,0)" xlink:href="#k"/><use transform="matrix(0.0685185185185185,0,0,0.0685185185185185,16.444444444444443,0)" xlink:href="#l"/><use transform="matrix(0.0685185185185185,0,0,0.0685185185185185,30.148148148148145,0)" xlink:href="#m"/><use transform="matrix(0.0685185185185185,0,0,0.0685185185185185,43.85185185185185,0)" xlink:href="#n"/></g><g id="j"><use transform="matrix(0.0685185185185185,0,0,0.0685185185185185,0,0)" xlink:href="#o"/><use transform="matrix(0.0685185185185185,0,0,0.0685185185185185,16.444444444444443,0)" xlink:href="#p"/><use transform="matrix(0.0685185185185185,0,0,0.0685185185185185,28.77777777777777,0)" xlink:href="#p"/><use transform="matrix(0.0685185185185185,0,0,0.0685185185185185,41.11111111111111,0)" xlink:href="#q"/><use transform="matrix(0.0685185185185185,0,0,0.0685185185185185,54.8148148148148,0)" xlink:href="#r"/><use transform="matrix(0.0685185185185185,0,0,0.0685185185185185,68.5185185185185,0)" xlink:href="#m"/><use transform="matrix(0.0685185185185185,0,0,0.0685185185185185,82.22222222222221,0)" xlink:href="#s"/></g></defs></g></svg>