<svg xmlns="http://www.w3.org/2000/svg" xmlns:xlink="http://www.w3.org/1999/xlink" xmlns:lucid="lucid" width="1445" height="405"><g transform="translate(-2124 -1785)" lucid:page-tab-id="0_0"><path d="M0 0h5242.2v2609.4H0z" fill="#fff"/><path d="M2594.67 1904.05h393.83v226h-393.83z" stroke="#000" fill="#fff"/><path d="M2594.67 1957.38h393.83m-393.83 104.83h393.83" stroke="#000" fill="none"/><use xlink:href="#a" transform="matrix(1,0,0,1,2602.666666666667,1912.0487909057586) translate(152.29320987654322 12.777777777777775)"/><use xlink:href="#b" transform="matrix(1,0,0,1,2602.666666666667,1912.0487909057586) translate(143.19753086419752 31.444444444444446)"/><use xlink:href="#c" transform="matrix(1,0,0,1,2606.666666666667,1965.3821242390918) translate(0 28.944444444444443)"/><use xlink:href="#d" transform="matrix(1,0,0,1,2606.666666666667,1965.3821242390918) translate(9.462962962962964 28.944444444444443)"/><use xlink:href="#e" transform="matrix(1,0,0,1,2606.666666666667,1965.3821242390918) translate(30.160493827160494 28.944444444444443)"/><use xlink:href="#c" transform="matrix(1,0,0,1,2606.666666666667,1965.3821242390918) translate(0 47.611111111111114)"/><use xlink:href="#f" transform="matrix(1,0,0,1,2606.666666666667,1965.3821242390918) translate(9.462962962962964 47.611111111111114)"/><use xlink:href="#g" transform="matrix(1,0,0,1,2606.666666666667,1965.3821242390918) translate(56.95061728395062 47.611111111111114)"/><use xlink:href="#c" transform="matrix(1,0,0,1,2606.666666666667,1965.3821242390918) translate(0 66.27777777777779)"/><use xlink:href="#h" transform="matrix(1,0,0,1,2606.666666666667,1965.3821242390918) translate(9.462962962962964 66.27777777777779)"/><use xlink:href="#i" transform="matrix(1,0,0,1,2606.666666666667,1965.3821242390918) translate(93.1604938271605 66.27777777777779)"/><use xlink:href="#j" transform="matrix(1,0,0,1,2606.666666666667,2070.2116862701405) translate(0 29.11111111111111)"/><use xlink:href="#k" transform="matrix(1,0,0,1,2606.666666666667,2070.2116862701405) translate(13.395061728395063 29.11111111111111)"/><use xlink:href="#l" transform="matrix(1,0,0,1,2606.666666666667,2070.2116862701405) translate(142.24691358024694 29.11111111111111)"/><path d="M3213.9 1899.67h231.66v162H3213.9z" stroke="#000" fill="#fff"/><path d="M3213.9 1953h231.66m-231.67 63.75h231.66" stroke="#000" fill="none"/><use xlink:href="#m" transform="matrix(1,0,0,1,3221.8944294747,1907.6666666666667) translate(48.413580246913575 12.777777777777775)"/><use xlink:href="#n" transform="matrix(1,0,0,1,3221.8944294747,1907.6666666666667) translate(108 12.777777777777775)"/><use xlink:href="#o" transform="matrix(1,0,0,1,3221.8944294747,1907.6666666666667) translate(48.86728395061728 31.444444444444446)"/><use xlink:href="#c" transform="matrix(1,0,0,1,3225.8944294747,1961) translate(0 17.777777777777775)"/><use xlink:href="#p" transform="matrix(1,0,0,1,3225.8944294747,1961) translate(9.462962962962964 17.777777777777775)"/><use xlink:href="#q" transform="matrix(1,0,0,1,3225.8944294747,1961) translate(69.91358024691358 17.777777777777775)"/><use xlink:href="#c" transform="matrix(1,0,0,1,3225.8944294747,1961) translate(0 36.44444444444444)"/><use xlink:href="#r" transform="matrix(1,0,0,1,3225.8944294747,1961) translate(9.462962962962964 36.44444444444444)"/><use xlink:href="#i" transform="matrix(1,0,0,1,3225.8944294747,1961) translate(77.64814814814815 36.44444444444444)"/><path d="M3037.4 1915.2h-47.9v-1h47.9zm175.5 0h-121.1v-1h121.1z" stroke="#000" stroke-width=".05"/><path d="M2989.5 1915.2h-.5v-1h.5z"/><path d="M2989.54 1915.22h-.57v-1.05h.57zm-.5-1v.95h.45v-.95z" stroke="#000" stroke-width=".05"/><path d="M3213.4 1915.2h-.52v-1h.5z"/><path d="M3213.42 1915.22h-.56v-1.05h.56zm-.5-1v.95h.45v-.95z" stroke="#000" stroke-width=".05"/><g><use xlink:href="#s" transform="matrix(1,0,0,1,3037.3947367822934,1905.364490669573) translate(0 12.444444444444446)"/></g><path d="M3035.53 1981.1h-46.03v-1h46.03zm177.36 0h-107.54v-1h107.53z" stroke="#000" stroke-width=".05"/><path d="M2989.5 1981.1h-.5v-1h.5z"/><path d="M2989.54 1981.13h-.57v-1.05h.57zm-.5-1v.95h.45v-.94z" stroke="#000" stroke-width=".05"/><path d="M3213.4 1981.1h-.52v-1h.5z"/><path d="M3213.42 1981.13h-.56v-1.05h.56zm-.5-1v.95h.45v-.94z" stroke="#000" stroke-width=".05"/><g><use xlink:href="#t" transform="matrix(1,0,0,1,3035.5348479825498,1971.276317691552) translate(0 12.444444444444446)"/></g><path d="M2224 1899.67h231.67v143H2224z" stroke="#000" fill="#fff"/><path d="M2224 1953h231.67M2224 1998.08h231.67" stroke="#000" fill="none"/><g><use xlink:href="#m" transform="matrix(1,0,0,1,2232,1907.6666666666667) translate(48.413580246913575 12.777777777777775)"/><use xlink:href="#n" transform="matrix(1,0,0,1,2232,1907.6666666666667) translate(108 12.777777777777775)"/><use xlink:href="#u" transform="matrix(1,0,0,1,2232,1907.6666666666667) translate(76.5 31.444444444444446)"/></g><g><use xlink:href="#v" transform="matrix(1,0,0,1,2236,1961) translate(0 18.11111111111111)"/><use xlink:href="#i" transform="matrix(1,0,0,1,2236,1961) translate(47.48765432098766 18.11111111111111)"/></g><path d="M2593.67 1931.2h-137" stroke="#000" fill="none"/><path d="M2594.17 1931.7h-.52v-1h.52zM2456.68 1931.7h-.5v-1h.5z" stroke="#000" stroke-width=".05"/><g><use xlink:href="#w" transform="matrix(1,0,0,1,2586.666666666667,1905.5888230551673) translate(0 14.4)"/></g><g><use xlink:href="#w" transform="matrix(1,0,0,1,2456.666667,1935.1888230551674) translate(0 14.4)"/></g><defs><path d="M18-100v-36l175-74v27L42-118l151 64v27" id="x"/><path d="M100-194c63 0 86 42 84 106H49c0 40 14 67 53 68 26 1 43-12 49-29l28 8c-11 28-37 45-77 45C44 4 14-33 15-96c1-61 26-98 85-98zm52 81c6-60-76-77-97-28-3 7-6 17-6 28h103" id="y"/><path d="M117-194c89-4 53 116 60 194h-32v-121c0-31-8-49-39-48C34-167 62-67 57 0H25l-1-190h30c1 10-1 24 2 32 11-22 29-35 61-36" id="z"/><path d="M59-47c-2 24 18 29 38 22v24C64 9 27 4 27-40v-127H5v-23h24l9-43h21v43h35v23H59v120" id="A"/><path d="M24-231v-30h32v30H24zM24 0v-190h32V0H24" id="B"/><path d="M179-190L93 31C79 59 56 82 12 73V49c39 6 53-20 64-50L1-190h34L92-34l54-156h33" id="C"/><path d="M18-27v-27l151-64-151-65v-27l175 74v36" id="D"/><g id="a"><use transform="matrix(0.04320987654320988,0,0,0.04320987654320988,0,0)" xlink:href="#x"/><use transform="matrix(0.04320987654320988,0,0,0.04320987654320988,9.074074074074074,0)" xlink:href="#x"/><use transform="matrix(0.04320987654320988,0,0,0.04320987654320988,18.14814814814815,0)" xlink:href="#y"/><use transform="matrix(0.04320987654320988,0,0,0.04320987654320988,26.790123456790127,0)" xlink:href="#z"/><use transform="matrix(0.04320987654320988,0,0,0.04320987654320988,35.4320987654321,0)" xlink:href="#A"/><use transform="matrix(0.04320987654320988,0,0,0.04320987654320988,39.75308641975309,0)" xlink:href="#B"/><use transform="matrix(0.04320987654320988,0,0,0.04320987654320988,43.16666666666667,0)" xlink:href="#A"/><use transform="matrix(0.04320987654320988,0,0,0.04320987654320988,47.48765432098766,0)" xlink:href="#C"/><use transform="matrix(0.04320987654320988,0,0,0.04320987654320988,55.26543209876544,0)" xlink:href="#D"/><use transform="matrix(0.04320987654320988,0,0,0.04320987654320988,64.3395061728395,0)" xlink:href="#D"/></g><path d="M160-131c35 5 61 23 61 61C221 17 115-2 30 0v-248c76 3 177-17 177 60 0 33-19 50-47 57zm-97-11c50-1 110 9 110-42 0-47-63-36-110-37v79zm0 115c55-2 124 14 124-45 0-56-70-42-124-44v89" id="E"/><path d="M141-36C126-15 110 5 73 4 37 3 15-17 15-53c-1-64 63-63 125-63 3-35-9-54-41-54-24 1-41 7-42 31l-33-3c5-37 33-52 76-52 45 0 72 20 72 64v82c-1 20 7 32 28 27v20c-31 9-61-2-59-35zM48-53c0 20 12 33 32 33 41-3 63-29 60-74-43 2-92-5-92 41" id="F"/><path d="M143 0L79-87 56-68V0H24v-261h32v163l83-92h37l-77 82L181 0h-38" id="G"/><path d="M205 0l-28-72H64L36 0H1l101-248h38L239 0h-34zm-38-99l-47-123c-12 45-31 82-46 123h93" id="H"/><path d="M96-169c-40 0-48 33-48 73s9 75 48 75c24 0 41-14 43-38l32 2c-6 37-31 61-74 61-59 0-76-41-82-99-10-93 101-131 147-64 4 7 5 14 7 22l-32 3c-4-21-16-35-41-35" id="I"/><path d="M100-194c62-1 85 37 85 99 1 63-27 99-86 99S16-35 15-95c0-66 28-99 85-99zM99-20c44 1 53-31 53-75 0-43-8-75-51-75s-53 32-53 75 10 74 51 75" id="J"/><path d="M84 4C-5 8 30-112 23-190h32v120c0 31 7 50 39 49 72-2 45-101 50-169h31l1 190h-30c-1-10 1-25-2-33-11 22-28 36-60 37" id="K"/><g id="b"><use transform="matrix(0.04320987654320988,0,0,0.04320987654320988,0,0)" xlink:href="#E"/><use transform="matrix(0.04320987654320988,0,0,0.04320987654320988,10.370370370370372,0)" xlink:href="#F"/><use transform="matrix(0.04320987654320988,0,0,0.04320987654320988,19.01234567901235,0)" xlink:href="#z"/><use transform="matrix(0.04320987654320988,0,0,0.04320987654320988,27.654320987654323,0)" xlink:href="#G"/><use transform="matrix(0.04320987654320988,0,0,0.04320987654320988,35.4320987654321,0)" xlink:href="#H"/><use transform="matrix(0.04320987654320988,0,0,0.04320987654320988,45.802469135802475,0)" xlink:href="#I"/><use transform="matrix(0.04320987654320988,0,0,0.04320987654320988,53.580246913580254,0)" xlink:href="#I"/><use transform="matrix(0.04320987654320988,0,0,0.04320987654320988,61.35802469135803,0)" xlink:href="#J"/><use transform="matrix(0.04320987654320988,0,0,0.04320987654320988,70.00000000000001,0)" xlink:href="#K"/><use transform="matrix(0.04320987654320988,0,0,0.04320987654320988,78.64197530864199,0)" xlink:href="#z"/><use transform="matrix(0.04320987654320988,0,0,0.04320987654320988,87.28395061728396,0)" xlink:href="#A"/></g><path d="M16-82v-28h88v28H16" id="L"/><use transform="matrix(0.04320987654320988,0,0,0.04320987654320988,0,0)" xlink:href="#L" id="c"/><path d="M85-194c31 0 48 13 60 33l-1-100h32l1 261h-30c-2-10 0-23-3-31C134-8 116 4 85 4 32 4 16-35 15-94c0-66 23-100 70-100zm9 24c-40 0-46 34-46 75 0 40 6 74 45 74 42 0 51-32 51-76 0-42-9-74-50-73" id="M"/><path d="M33-154v-36h34v36H33zM33 0v-36h34V0H33" id="N"/><g id="d"><use transform="matrix(0.04320987654320988,0,0,0.04320987654320988,0,0)" xlink:href="#B"/><use transform="matrix(0.04320987654320988,0,0,0.04320987654320988,3.4135802469135808,0)" xlink:href="#M"/><use transform="matrix(0.04320987654320988,0,0,0.04320987654320988,12.055555555555557,0)" xlink:href="#N"/></g><path d="M232-93c-1 65-40 97-104 97C67 4 28-28 28-90v-158h33c8 89-33 224 67 224 102 0 64-133 71-224h33v155" id="O"/><path d="M33 0v-248h34V0H33" id="P"/><path d="M30-248c118-7 216 8 213 122C240-48 200 0 122 0H30v-248zM63-27c89 8 146-16 146-99s-60-101-146-95v194" id="Q"/><g id="e"><use transform="matrix(0.04320987654320988,0,0,0.04320987654320988,0,0)" xlink:href="#O"/><use transform="matrix(0.04320987654320988,0,0,0.04320987654320988,11.19135802469136,0)" xlink:href="#O"/><use transform="matrix(0.04320987654320988,0,0,0.04320987654320988,22.38271604938272,0)" xlink:href="#P"/><use transform="matrix(0.04320987654320988,0,0,0.04320987654320988,26.703703703703706,0)" xlink:href="#Q"/></g><path d="M210-169c-67 3-38 105-44 169h-31v-121c0-29-5-50-35-48C34-165 62-65 56 0H25l-1-190h30c1 10-1 24 2 32 10-44 99-50 107 0 11-21 27-35 58-36 85-2 47 119 55 194h-31v-121c0-29-5-49-35-48" id="R"/><g id="f"><use transform="matrix(0.04320987654320988,0,0,0.04320987654320988,0,0)" xlink:href="#z"/><use transform="matrix(0.04320987654320988,0,0,0.04320987654320988,8.641975308641976,0)" xlink:href="#F"/><use transform="matrix(0.04320987654320988,0,0,0.04320987654320988,17.283950617283953,0)" xlink:href="#R"/><use transform="matrix(0.04320987654320988,0,0,0.04320987654320988,30.203703703703713,0)" xlink:href="#y"/><use transform="matrix(0.04320987654320988,0,0,0.04320987654320988,38.845679012345684,0)" xlink:href="#N"/></g><path d="M185-189c-5-48-123-54-124 2 14 75 158 14 163 119 3 78-121 87-175 55-17-10-28-26-33-46l33-7c5 56 141 63 141-1 0-78-155-14-162-118-5-82 145-84 179-34 5 7 8 16 11 25" id="S"/><path d="M114-163C36-179 61-72 57 0H25l-1-190h30c1 12-1 29 2 39 6-27 23-49 58-41v29" id="T"/><path d="M177-190C167-65 218 103 67 71c-23-6-38-20-44-43l32-5c15 47 100 32 89-28v-30C133-14 115 1 83 1 29 1 15-40 15-95c0-56 16-97 71-98 29-1 48 16 59 35 1-10 0-23 2-32h30zM94-22c36 0 50-32 50-73 0-42-14-75-50-75-39 0-46 34-46 75s6 73 46 73" id="U"/><g id="g"><use transform="matrix(0.04320987654320988,0,0,0.04320987654320988,0,0)" xlink:href="#S"/><use transform="matrix(0.04320987654320988,0,0,0.04320987654320988,10.370370370370372,0)" xlink:href="#A"/><use transform="matrix(0.04320987654320988,0,0,0.04320987654320988,14.691358024691363,0)" xlink:href="#T"/><use transform="matrix(0.04320987654320988,0,0,0.04320987654320988,19.833333333333336,0)" xlink:href="#B"/><use transform="matrix(0.04320987654320988,0,0,0.04320987654320988,23.246913580246915,0)" xlink:href="#z"/><use transform="matrix(0.04320987654320988,0,0,0.04320987654320988,31.888888888888893,0)" xlink:href="#U"/></g><path d="M135-143c-3-34-86-38-87 0 15 53 115 12 119 90S17 21 10-45l28-5c4 36 97 45 98 0-10-56-113-15-118-90-4-57 82-63 122-42 12 7 21 19 24 35" id="V"/><path d="M115-194c55 1 70 41 70 98S169 2 115 4C84 4 66-9 55-30l1 105H24l-1-265h31l2 30c10-21 28-34 59-34zm-8 174c40 0 45-34 45-75s-6-73-45-74c-42 0-51 32-51 76 0 43 10 73 51 73" id="W"/><g id="h"><use transform="matrix(0.04320987654320988,0,0,0.04320987654320988,0,0)" xlink:href="#M"/><use transform="matrix(0.04320987654320988,0,0,0.04320987654320988,8.641975308641976,0)" xlink:href="#y"/><use transform="matrix(0.04320987654320988,0,0,0.04320987654320988,17.283950617283953,0)" xlink:href="#V"/><use transform="matrix(0.04320987654320988,0,0,0.04320987654320988,25.06172839506173,0)" xlink:href="#I"/><use transform="matrix(0.04320987654320988,0,0,0.04320987654320988,32.839506172839506,0)" xlink:href="#T"/><use transform="matrix(0.04320987654320988,0,0,0.04320987654320988,37.98148148148148,0)" xlink:href="#B"/><use transform="matrix(0.04320987654320988,0,0,0.04320987654320988,41.39506172839506,0)" xlink:href="#W"/><use transform="matrix(0.04320987654320988,0,0,0.04320987654320988,50.037037037037045,0)" xlink:href="#A"/><use transform="matrix(0.04320987654320988,0,0,0.04320987654320988,54.35802469135802,0)" xlink:href="#B"/><use transform="matrix(0.04320987654320988,0,0,0.04320987654320988,57.77160493827161,0)" xlink:href="#J"/><use transform="matrix(0.04320987654320988,0,0,0.04320987654320988,66.41358024691358,0)" xlink:href="#z"/><use transform="matrix(0.04320987654320988,0,0,0.04320987654320988,75.05555555555556,0)" xlink:href="#N"/></g><g id="i"><use transform="matrix(0.04320987654320988,0,0,0.04320987654320988,0,0)" xlink:href="#S"/><use transform="matrix(0.04320987654320988,0,0,0.04320987654320988,10.370370370370372,0)" xlink:href="#A"/><use transform="matrix(0.04320987654320988,0,0,0.04320987654320988,14.691358024691363,0)" xlink:href="#T"/><use transform="matrix(0.04320987654320988,0,0,0.04320987654320988,19.833333333333336,0)" xlink:href="#B"/><use transform="matrix(0.04320987654320988,0,0,0.04320987654320988,23.246913580246915,0)" xlink:href="#z"/><use transform="matrix(0.04320987654320988,0,0,0.04320987654320988,31.888888888888893,0)" xlink:href="#U"/></g><path d="M118-107v75H92v-75H18v-26h74v-75h26v75h74v26h-74" id="X"/><use transform="matrix(0.04320987654320988,0,0,0.04320987654320988,0,0)" xlink:href="#X" id="j"/><path d="M127-220V0H93v-220H8v-28h204v28h-85" id="Y"/><path d="M87 75C49 33 22-17 22-94c0-76 28-126 65-167h31c-38 41-64 92-64 168S80 34 118 75H87" id="Z"/><path d="M33-261c38 41 65 92 65 168S71 34 33 75H2C39 34 66-17 66-93S39-220 2-261h31" id="aa"/><g id="k"><use transform="matrix(0.04320987654320988,0,0,0.04320987654320988,0,0)" xlink:href="#U"/><use transform="matrix(0.04320987654320988,0,0,0.04320987654320988,8.641975308641976,0)" xlink:href="#y"/><use transform="matrix(0.04320987654320988,0,0,0.04320987654320988,17.283950617283953,0)" xlink:href="#A"/><use transform="matrix(0.04320987654320988,0,0,0.04320987654320988,21.60493827160494,0)" xlink:href="#Y"/><use transform="matrix(0.04320987654320988,0,0,0.04320987654320988,30.506172839506178,0)" xlink:href="#T"/><use transform="matrix(0.04320987654320988,0,0,0.04320987654320988,35.64814814814815,0)" xlink:href="#F"/><use transform="matrix(0.04320987654320988,0,0,0.04320987654320988,44.29012345679013,0)" xlink:href="#z"/><use transform="matrix(0.04320987654320988,0,0,0.04320987654320988,52.9320987654321,0)" xlink:href="#V"/><use transform="matrix(0.04320987654320988,0,0,0.04320987654320988,60.70987654320988,0)" xlink:href="#F"/><use transform="matrix(0.04320987654320988,0,0,0.04320987654320988,69.35185185185186,0)" xlink:href="#I"/><use transform="matrix(0.04320987654320988,0,0,0.04320987654320988,77.12962962962965,0)" xlink:href="#A"/><use transform="matrix(0.04320987654320988,0,0,0.04320987654320988,81.45061728395063,0)" xlink:href="#B"/><use transform="matrix(0.04320987654320988,0,0,0.04320987654320988,84.86419753086422,0)" xlink:href="#J"/><use transform="matrix(0.04320987654320988,0,0,0.04320987654320988,93.50617283950618,0)" xlink:href="#z"/><use transform="matrix(0.04320987654320988,0,0,0.04320987654320988,102.14814814814815,0)" xlink:href="#V"/><use transform="matrix(0.04320987654320988,0,0,0.04320987654320988,109.92592592592595,0)" xlink:href="#Z"/><use transform="matrix(0.04320987654320988,0,0,0.04320987654320988,115.06790123456793,0)" xlink:href="#aa"/><use transform="matrix(0.04320987654320988,0,0,0.04320987654320988,120.20987654320992,0)" xlink:href="#N"/></g><g id="l"><use transform="matrix(0.04320987654320988,0,0,0.04320987654320988,0,0)" xlink:href="#S"/><use transform="matrix(0.04320987654320988,0,0,0.04320987654320988,10.370370370370372,0)" xlink:href="#y"/><use transform="matrix(0.04320987654320988,0,0,0.04320987654320988,19.01234567901235,0)" xlink:href="#A"/><use transform="matrix(0.04320987654320988,0,0,0.04320987654320988,23.333333333333336,0)" xlink:href="#x"/><use transform="matrix(0.04320987654320988,0,0,0.04320987654320988,32.40740740740741,0)" xlink:href="#Y"/><use transform="matrix(0.04320987654320988,0,0,0.04320987654320988,41.308641975308646,0)" xlink:href="#T"/><use transform="matrix(0.04320987654320988,0,0,0.04320987654320988,46.45061728395062,0)" xlink:href="#F"/><use transform="matrix(0.04320987654320988,0,0,0.04320987654320988,55.092592592592595,0)" xlink:href="#z"/><use transform="matrix(0.04320987654320988,0,0,0.04320987654320988,63.73456790123458,0)" xlink:href="#V"/><use transform="matrix(0.04320987654320988,0,0,0.04320987654320988,71.51234567901236,0)" xlink:href="#F"/><use transform="matrix(0.04320987654320988,0,0,0.04320987654320988,80.15432098765433,0)" xlink:href="#I"/><use transform="matrix(0.04320987654320988,0,0,0.04320987654320988,87.9320987654321,0)" xlink:href="#A"/><use transform="matrix(0.04320987654320988,0,0,0.04320987654320988,92.2530864197531,0)" xlink:href="#B"/><use transform="matrix(0.04320987654320988,0,0,0.04320987654320988,95.66666666666667,0)" xlink:href="#J"/><use transform="matrix(0.04320987654320988,0,0,0.04320987654320988,104.30864197530865,0)" xlink:href="#z"/><use transform="matrix(0.04320987654320988,0,0,0.04320987654320988,112.95061728395063,0)" xlink:href="#D"/></g><path d="M108 0H70L1-190h34L89-25l56-165h34" id="ab"/><path d="M24 0v-261h32V0H24" id="ac"/><g id="m"><use transform="matrix(0.04320987654320988,0,0,0.04320987654320988,0,0)" xlink:href="#x"/><use transform="matrix(0.04320987654320988,0,0,0.04320987654320988,9.074074074074074,0)" xlink:href="#x"/><use transform="matrix(0.04320987654320988,0,0,0.04320987654320988,18.14814814814815,0)" xlink:href="#ab"/><use transform="matrix(0.04320987654320988,0,0,0.04320987654320988,25.925925925925927,0)" xlink:href="#F"/><use transform="matrix(0.04320987654320988,0,0,0.04320987654320988,34.567901234567906,0)" xlink:href="#ac"/><use transform="matrix(0.04320987654320988,0,0,0.04320987654320988,37.98148148148149,0)" xlink:href="#K"/><use transform="matrix(0.04320987654320988,0,0,0.04320987654320988,46.62345679012346,0)" xlink:href="#y"/></g><path d="M115-194c53 0 69 39 70 98 0 66-23 100-70 100C84 3 66-7 56-30L54 0H23l1-261h32v101c10-23 28-34 59-34zm-8 174c40 0 45-34 45-75 0-40-5-75-45-74-42 0-51 32-51 76 0 43 10 73 51 73" id="ad"/><path d="M24-231v-30h32v30H24zM-9 49c24 4 33-6 33-30v-209h32V24c2 40-23 58-65 49V49" id="ae"/><g id="n"><use transform="matrix(0.04320987654320988,0,0,0.04320987654320988,0,0)" xlink:href="#J"/><use transform="matrix(0.04320987654320988,0,0,0.04320987654320988,8.641975308641976,0)" xlink:href="#ad"/><use transform="matrix(0.04320987654320988,0,0,0.04320987654320988,17.283950617283953,0)" xlink:href="#ae"/><use transform="matrix(0.04320987654320988,0,0,0.04320987654320988,20.69753086419753,0)" xlink:href="#y"/><use transform="matrix(0.04320987654320988,0,0,0.04320987654320988,29.339506172839503,0)" xlink:href="#I"/><use transform="matrix(0.04320987654320988,0,0,0.04320987654320988,37.117283950617285,0)" xlink:href="#A"/><use transform="matrix(0.04320987654320988,0,0,0.04320987654320988,41.43827160493827,0)" xlink:href="#D"/><use transform="matrix(0.04320987654320988,0,0,0.04320987654320988,50.51234567901235,0)" xlink:href="#D"/></g><path d="M240 0l2-218c-23 76-54 145-80 218h-23L58-218 59 0H30v-248h44l77 211c21-75 51-140 76-211h43V0h-30" id="af"/><g id="o"><use transform="matrix(0.04320987654320988,0,0,0.04320987654320988,0,0)" xlink:href="#af"/><use transform="matrix(0.04320987654320988,0,0,0.04320987654320988,12.919753086419755,0)" xlink:href="#J"/><use transform="matrix(0.04320987654320988,0,0,0.04320987654320988,21.56172839506173,0)" xlink:href="#z"/><use transform="matrix(0.04320987654320988,0,0,0.04320987654320988,30.203703703703713,0)" xlink:href="#y"/><use transform="matrix(0.04320987654320988,0,0,0.04320987654320988,38.845679012345684,0)" xlink:href="#A"/><use transform="matrix(0.04320987654320988,0,0,0.04320987654320988,43.16666666666667,0)" xlink:href="#F"/><use transform="matrix(0.04320987654320988,0,0,0.04320987654320988,51.808641975308646,0)" xlink:href="#T"/><use transform="matrix(0.04320987654320988,0,0,0.04320987654320988,56.95061728395062,0)" xlink:href="#C"/><use transform="matrix(0.04320987654320988,0,0,0.04320987654320988,64.7283950617284,0)" xlink:href="#H"/><use transform="matrix(0.04320987654320988,0,0,0.04320987654320988,75.09876543209877,0)" xlink:href="#R"/><use transform="matrix(0.04320987654320988,0,0,0.04320987654320988,88.01851851851853,0)" xlink:href="#J"/><use transform="matrix(0.04320987654320988,0,0,0.04320987654320988,96.66049382716051,0)" xlink:href="#K"/><use transform="matrix(0.04320987654320988,0,0,0.04320987654320988,105.30246913580248,0)" xlink:href="#z"/><use transform="matrix(0.04320987654320988,0,0,0.04320987654320988,113.94444444444446,0)" xlink:href="#A"/></g><g id="p"><use transform="matrix(0.04320987654320988,0,0,0.04320987654320988,0,0)" xlink:href="#F"/><use transform="matrix(0.04320987654320988,0,0,0.04320987654320988,8.641975308641976,0)" xlink:href="#R"/><use transform="matrix(0.04320987654320988,0,0,0.04320987654320988,21.56172839506173,0)" xlink:href="#J"/><use transform="matrix(0.04320987654320988,0,0,0.04320987654320988,30.203703703703713,0)" xlink:href="#K"/><use transform="matrix(0.04320987654320988,0,0,0.04320987654320988,38.845679012345684,0)" xlink:href="#z"/><use transform="matrix(0.04320987654320988,0,0,0.04320987654320988,47.48765432098766,0)" xlink:href="#A"/><use transform="matrix(0.04320987654320988,0,0,0.04320987654320988,51.808641975308646,0)" xlink:href="#N"/></g><path d="M190 0L58-211 59 0H30v-248h39L202-35l-2-213h31V0h-41" id="ag"/><g id="q"><use transform="matrix(0.04320987654320988,0,0,0.04320987654320988,0,0)" xlink:href="#ag"/><use transform="matrix(0.04320987654320988,0,0,0.04320987654320988,11.19135802469136,0)" xlink:href="#K"/><use transform="matrix(0.04320987654320988,0,0,0.04320987654320988,19.833333333333336,0)" xlink:href="#R"/><use transform="matrix(0.04320987654320988,0,0,0.04320987654320988,32.75308641975309,0)" xlink:href="#ad"/><use transform="matrix(0.04320987654320988,0,0,0.04320987654320988,41.39506172839506,0)" xlink:href="#y"/><use transform="matrix(0.04320987654320988,0,0,0.04320987654320988,50.037037037037045,0)" xlink:href="#T"/></g><g id="r"><use transform="matrix(0.04320987654320988,0,0,0.04320987654320988,0,0)" xlink:href="#I"/><use transform="matrix(0.04320987654320988,0,0,0.04320987654320988,7.777777777777779,0)" xlink:href="#K"/><use transform="matrix(0.04320987654320988,0,0,0.04320987654320988,16.419753086419753,0)" xlink:href="#T"/><use transform="matrix(0.04320987654320988,0,0,0.04320987654320988,21.561728395061728,0)" xlink:href="#T"/><use transform="matrix(0.04320987654320988,0,0,0.04320987654320988,26.703703703703702,0)" xlink:href="#y"/><use transform="matrix(0.04320987654320988,0,0,0.04320987654320988,35.34567901234568,0)" xlink:href="#z"/><use transform="matrix(0.04320987654320988,0,0,0.04320987654320988,43.98765432098765,0)" xlink:href="#I"/><use transform="matrix(0.04320987654320988,0,0,0.04320987654320988,51.76543209876543,0)" xlink:href="#C"/><use transform="matrix(0.04320987654320988,0,0,0.04320987654320988,59.54320987654321,0)" xlink:href="#N"/></g><g id="s"><use transform="matrix(0.04320987654320988,0,0,0.04320987654320988,0,0)" xlink:href="#ad"/><use transform="matrix(0.04320987654320988,0,0,0.04320987654320988,8.641975308641976,0)" xlink:href="#F"/><use transform="matrix(0.04320987654320988,0,0,0.04320987654320988,17.283950617283953,0)" xlink:href="#ac"/><use transform="matrix(0.04320987654320988,0,0,0.04320987654320988,20.69753086419753,0)" xlink:href="#F"/><use transform="matrix(0.04320987654320988,0,0,0.04320987654320988,29.339506172839503,0)" xlink:href="#z"/><use transform="matrix(0.04320987654320988,0,0,0.04320987654320988,37.98148148148148,0)" xlink:href="#I"/><use transform="matrix(0.04320987654320988,0,0,0.04320987654320988,45.75925925925927,0)" xlink:href="#y"/></g><path d="M30 0v-248h33v221h125V0H30" id="ah"/><g id="t"><use transform="matrix(0.04320987654320988,0,0,0.04320987654320988,0,0)" xlink:href="#M"/><use transform="matrix(0.04320987654320988,0,0,0.04320987654320988,8.641975308641976,0)" xlink:href="#B"/><use transform="matrix(0.04320987654320988,0,0,0.04320987654320988,12.055555555555557,0)" xlink:href="#V"/><use transform="matrix(0.04320987654320988,0,0,0.04320987654320988,19.833333333333336,0)" xlink:href="#W"/><use transform="matrix(0.04320987654320988,0,0,0.04320987654320988,28.47530864197531,0)" xlink:href="#J"/><use transform="matrix(0.04320987654320988,0,0,0.04320987654320988,37.117283950617285,0)" xlink:href="#ah"/><use transform="matrix(0.04320987654320988,0,0,0.04320987654320988,45.75925925925927,0)" xlink:href="#B"/><use transform="matrix(0.04320987654320988,0,0,0.04320987654320988,49.17283950617284,0)" xlink:href="#R"/><use transform="matrix(0.04320987654320988,0,0,0.04320987654320988,62.0925925925926,0)" xlink:href="#B"/><use transform="matrix(0.04320987654320988,0,0,0.04320987654320988,65.50617283950618,0)" xlink:href="#A"/></g><path d="M212-179c-10-28-35-45-73-45-59 0-87 40-87 99 0 60 29 101 89 101 43 0 62-24 78-52l27 14C228-24 195 4 139 4 59 4 22-46 18-125c-6-104 99-153 187-111 19 9 31 26 39 46" id="ai"/><g id="u"><use transform="matrix(0.04320987654320988,0,0,0.04320987654320988,0,0)" xlink:href="#ai"/><use transform="matrix(0.04320987654320988,0,0,0.04320987654320988,11.19135802469136,0)" xlink:href="#F"/><use transform="matrix(0.04320987654320988,0,0,0.04320987654320988,19.833333333333336,0)" xlink:href="#A"/><use transform="matrix(0.04320987654320988,0,0,0.04320987654320988,24.154320987654323,0)" xlink:href="#y"/><use transform="matrix(0.04320987654320988,0,0,0.04320987654320988,32.7962962962963,0)" xlink:href="#U"/><use transform="matrix(0.04320987654320988,0,0,0.04320987654320988,41.43827160493827,0)" xlink:href="#J"/><use transform="matrix(0.04320987654320988,0,0,0.04320987654320988,50.08024691358024,0)" xlink:href="#T"/><use transform="matrix(0.04320987654320988,0,0,0.04320987654320988,55.22222222222222,0)" xlink:href="#C"/></g><g id="v"><use transform="matrix(0.04320987654320988,0,0,0.04320987654320988,0,0)" xlink:href="#z"/><use transform="matrix(0.04320987654320988,0,0,0.04320987654320988,8.641975308641976,0)" xlink:href="#F"/><use transform="matrix(0.04320987654320988,0,0,0.04320987654320988,17.283950617283953,0)" xlink:href="#R"/><use transform="matrix(0.04320987654320988,0,0,0.04320987654320988,30.203703703703713,0)" xlink:href="#y"/><use transform="matrix(0.04320987654320988,0,0,0.04320987654320988,38.845679012345684,0)" xlink:href="#N"/></g><path d="M80-196l47-18 7 23-49 13 32 44-20 13-27-46-27 45-21-12 33-44-49-13 8-23 47 19-2-53h23" id="aj"/><use transform="matrix(0.05,0,0,0.05,0,0)" xlink:href="#aj" id="w"/></defs></g></svg>