<svg xmlns="http://www.w3.org/2000/svg" xmlns:xlink="http://www.w3.org/1999/xlink" xmlns:lucid="lucid" width="1952" height="1455"><g transform="translate(-7842 -1632)" lucid:page-tab-id="0_0"><path d="M0 0h13462.03v7328.06H0z" fill="#fff"/><path d="M8594.83 2340.05h393.84v263h-393.84z" stroke="#000" fill="#fff"/><path d="M8594.83 2405.74h393.84m-393.84 123.36h393.84" stroke="#000" fill="none"/><use xlink:href="#a" transform="matrix(1,0,0,1,8602.833333333336,2348.048790905759) translate(138.99480452674896 16.718518518518515)"/><use xlink:href="#b" transform="matrix(1,0,0,1,8602.833333333336,2348.048790905759) translate(128.03909465020575 41.56296296296296)"/><use xlink:href="#c" transform="matrix(1,0,0,1,8606.833333333336,2413.7376797946476) translate(0 33.29629629629629)"/><use xlink:href="#d" transform="matrix(1,0,0,1,8606.833333333336,2413.7376797946476) translate(12.594753086419754 33.29629629629629)"/><use xlink:href="#e" transform="matrix(1,0,0,1,8606.833333333336,2413.7376797946476) translate(40.14218106995885 33.29629629629629)"/><use xlink:href="#c" transform="matrix(1,0,0,1,8606.833333333336,2413.7376797946476) translate(0 58.14074074074074)"/><use xlink:href="#f" transform="matrix(1,0,0,1,8606.833333333336,2413.7376797946476) translate(12.594753086419754 58.14074074074074)"/><use xlink:href="#g" transform="matrix(1,0,0,1,8606.833333333336,2413.7376797946476) translate(75.7985596707819 58.14074074074074)"/><use xlink:href="#c" transform="matrix(1,0,0,1,8606.833333333336,2413.7376797946476) translate(0 82.98518518518519)"/><use xlink:href="#h" transform="matrix(1,0,0,1,8606.833333333336,2413.7376797946476) translate(12.594753086419754 82.98518518518519)"/><use xlink:href="#i" transform="matrix(1,0,0,1,8606.833333333336,2413.7376797946476) translate(123.99218106995886 82.98518518518519)"/><path d="M8479 2756.83h231.67v168H8479z" stroke="#000" fill="#fff"/><path d="M8479 2822.52h231.67M8479 2873.78h231.67" stroke="#000" fill="none"/><use xlink:href="#j" transform="matrix(1,0,0,1,8487.000000000002,2764.8333333333335) translate(28.31949588477363 16.718518518518515)"/><use xlink:href="#k" transform="matrix(1,0,0,1,8487.000000000002,2764.8333333333335) translate(29.297170781893 41.56296296296296)"/><use xlink:href="#c" transform="matrix(1,0,0,1,8491.000000000002,2830.5222222222224) translate(0 22.140740740740743)"/><use xlink:href="#l" transform="matrix(1,0,0,1,8491.000000000002,2830.5222222222224) translate(12.594753086419754 22.140740740740743)"/><use xlink:href="#m" transform="matrix(1,0,0,1,8491.000000000002,2830.5222222222224) translate(93.05164609053497 22.140740740740743)"/><path d="M8542.55 2755.33v-75.4h152.8v-45.63" stroke="#000" stroke-width="2" fill="none"/><path d="M8543.53 2756.33h-1.95v-1.02h1.95z" stroke="#000" stroke-width=".05"/><path d="M8695.34 2604.96l14.85 14.85-14.86 15.16-14.85-15.15z" stroke="#000" stroke-width="2"/><use xlink:href="#n" transform="matrix(1,0,0,1,8550.552257896074,2731.988888888889) translate(0 16.459259259259262)"/><use xlink:href="#o" transform="matrix(1,0,0,1,8462.146805221177,2697.723156677574) translate(0 16.562962962962967)"/><path d="M8594.83 2755.33v-44.83h152.8v-76.2" stroke="#000" stroke-width="2" fill="none"/><path d="M8595.8 2756.33h-1.94v-1.02h1.95z" stroke="#000" stroke-width=".05"/><path d="M8747.62 2604.96l14.85 14.85-14.85 15.16-14.85-15.15z" stroke="#000" stroke-width="2"/><use xlink:href="#n" transform="matrix(1,0,0,1,8602.833333411429,2731.988888888889) translate(0 16.459259259259262)"/><use xlink:href="#p" transform="matrix(1,0,0,1,8683.104286188729,2713.976047513416) translate(0 16.562962962962967)"/><path d="M8823.38 2756.83h231.66v168h-231.67z" stroke="#000" fill="#fff"/><path d="M8823.38 2822.52h231.66m-231.67 51.26h231.67" stroke="#000" fill="none"/><use xlink:href="#j" transform="matrix(1,0,0,1,8831.375216896398,2764.8333333333335) translate(28.31949588477363 16.718518518518515)"/><use xlink:href="#q" transform="matrix(1,0,0,1,8831.375216896398,2764.8333333333335) translate(82.72422839506173 41.56296296296296)"/><use xlink:href="#c" transform="matrix(1,0,0,1,8835.375216896398,2830.5222222222224) translate(0 22.140740740740743)"/><use xlink:href="#f" transform="matrix(1,0,0,1,8835.375216896398,2830.5222222222224) translate(12.594753086419754 22.140740740740743)"/><use xlink:href="#i" transform="matrix(1,0,0,1,8835.375216896398,2830.5222222222224) translate(75.7985596707819 22.140740740740743)"/><path d="M8939.2 2755.33V2634.3" stroke="#000" stroke-width="2" fill="none"/><path d="M8940.18 2756.33h-1.95v-1.02h1.95z" stroke="#000" stroke-width=".05"/><path d="M8939.2 2604.96l14.86 14.85-14.85 15.16-14.84-15.15z" stroke="#000" stroke-width="2"/><use xlink:href="#r" transform="matrix(1,0,0,1,8947.20855022973,2731.988888888889) translate(0 16.459259259259262)"/><use xlink:href="#s" transform="matrix(1,0,0,1,8947.208550229732,2686.53312095245) translate(0 16.562962962962967)"/><path d="M7992.5 1829.67h579.17v316H7992.5z" stroke="#000" fill="#fff"/><path d="M7992.5 1895.36h579.17m-579.17 73.67h579.17" stroke="#000" fill="none"/><g><use xlink:href="#t" transform="matrix(1,0,0,1,8000.500000000002,1837.6666666666665) translate(223.39701646090535 16.718518518518515)"/><use xlink:href="#u" transform="matrix(1,0,0,1,8000.500000000002,1837.6666666666665) translate(186.59043209876543 41.56296296296296)"/></g><g><use xlink:href="#v" transform="matrix(1,0,0,1,8004.500000000002,1977.0295620310487) translate(0 33.566666666666656)"/><use xlink:href="#w" transform="matrix(1,0,0,1,8004.500000000002,1977.0295620310487) translate(18.370370370370374 33.566666666666656)"/><use xlink:href="#x" transform="matrix(1,0,0,1,8004.500000000002,1977.0295620310487) translate(296.77037037037036 33.566666666666656)"/><use xlink:href="#v" transform="matrix(1,0,0,1,8004.500000000002,1977.0295620310487) translate(0 59.166666666666664)"/><use xlink:href="#y" transform="matrix(1,0,0,1,8004.500000000002,1977.0295620310487) translate(18.370370370370374 59.166666666666664)"/><use xlink:href="#z" transform="matrix(1,0,0,1,8004.500000000002,1977.0295620310487) translate(210.2518518518519 59.166666666666664)"/><use xlink:href="#A" transform="matrix(1,0,0,1,8004.500000000002,1977.0295620310487) translate(248.17777777777783 59.166666666666664)"/><use xlink:href="#B" transform="matrix(1,0,0,1,8004.500000000002,1977.0295620310487) translate(271.88148148148156 59.166666666666664)"/><use xlink:href="#v" transform="matrix(1,0,0,1,8004.500000000002,1977.0295620310487) translate(0 84.76666666666665)"/><use xlink:href="#C" transform="matrix(1,0,0,1,8004.500000000002,1977.0295620310487) translate(18.370370370370374 84.76666666666665)"/><use xlink:href="#D" transform="matrix(1,0,0,1,8004.500000000002,1977.0295620310487) translate(209.06666666666672 84.76666666666665)"/><use xlink:href="#B" transform="matrix(1,0,0,1,8004.500000000002,1977.0295620310487) translate(283.5555555555556 84.76666666666665)"/><use xlink:href="#v" transform="matrix(1,0,0,1,8004.500000000002,1977.0295620310487) translate(0 110.36666666666667)"/><use xlink:href="#E" transform="matrix(1,0,0,1,8004.500000000002,1977.0295620310487) translate(18.370370370370374 110.36666666666667)"/><use xlink:href="#x" transform="matrix(1,0,0,1,8004.500000000002,1977.0295620310487) translate(302.75555555555553 110.36666666666667)"/><use xlink:href="#v" transform="matrix(1,0,0,1,8004.500000000002,1977.0295620310487) translate(0 135.96666666666667)"/><use xlink:href="#F" transform="matrix(1,0,0,1,8004.500000000002,1977.0295620310487) translate(18.370370370370374 135.96666666666667)"/><use xlink:href="#G" transform="matrix(1,0,0,1,8004.500000000002,1977.0295620310487) translate(237.45185185185184 135.96666666666667)"/></g><path d="M8282.08 2147.17v4m0 8.05v8.03m0 8.04v8.02m0 8.04v8.03m0 8.03v8.03m0 8.04v8.03m0 8.04v3.3h4.75m8.03 0h8.04m8.03 0h8.03m8.04 0h8.03m8.04 0h8.03m8.04 0h8.03m8.04 0h8.04m8.04 0h8.03m8.05 0h8.03m8.04 0h8.03m8.04 0h8.02m8.04 0h8.03m8.02 0h8.04m8.03 0h8.03m8.03 0h8.04m8.03 0h8.04m8.03 0h8.04m8.03 0h8.04m8.04 0h8.04m8.03 0h8.05m8.03 0h8.03m8.05 0h8.03m8.04 0h8.03m8.04 0h8.02m8.04 0h8.03m8.03 0h8.03m8.04 0h8.03m8.04 0h5.56v2.46m0 8.04v8.03m0 8.03v8.04m0 8.04v8.04m0 8.03v8.04m0 8.04v8.04m0 8.03v4.03" stroke="#000" stroke-width="2" fill="none"/><path d="M8283.06 2147.2h-1.95v-1.03h1.96z" stroke="#000" stroke-width=".05"/><path d="M8708.05 2320.37l10.18 17.2 10.18-17.2" stroke="#000" stroke-width="2" fill="none"/><g><use xlink:href="#H" transform="matrix(1,0,0,1,8326.726651643514,2214.013284341768) translate(0 16.562962962962967)"/></g><path d="M9011.83 1880.67H9591v265h-579.17z" stroke="#000" fill="#fff"/><path d="M9011.83 1946.36H9591m-579.17 73.67H9591" stroke="#000" fill="none"/><g><use xlink:href="#I" transform="matrix(1,0,0,1,9019.833333333334,1888.6666666666665) translate(208.4730967078189 16.718518518518515)"/><use xlink:href="#J" transform="matrix(1,0,0,1,9019.833333333334,1888.6666666666665) translate(171.66651234567902 41.56296296296296)"/></g><g><use xlink:href="#v" transform="matrix(1,0,0,1,9023.833333333334,2028.0295620310487) translate(0 33.666666666666664)"/><use xlink:href="#K" transform="matrix(1,0,0,1,9023.833333333334,2028.0295620310487) translate(18.370370370370374 33.666666666666664)"/><use xlink:href="#x" transform="matrix(1,0,0,1,9023.833333333334,2028.0295620310487) translate(156.9777777777778 33.666666666666664)"/><use xlink:href="#L" transform="matrix(1,0,0,1,9023.833333333334,2028.0295620310487) translate(0 59.26666666666667)"/><use xlink:href="#D" transform="matrix(1,0,0,1,9023.833333333334,2028.0295620310487) translate(124.85925925925926 59.26666666666667)"/><use xlink:href="#B" transform="matrix(1,0,0,1,9023.833333333334,2028.0295620310487) translate(199.34814814814814 59.26666666666667)"/><use xlink:href="#M" transform="matrix(1,0,0,1,9023.833333333334,2028.0295620310487) translate(0 84.86666666666667)"/><use xlink:href="#z" transform="matrix(1,0,0,1,9023.833333333334,2028.0295620310487) translate(96.2962962962963 84.86666666666667)"/><use xlink:href="#A" transform="matrix(1,0,0,1,9023.833333333334,2028.0295620310487) translate(134.22222222222223 84.86666666666667)"/><use xlink:href="#N" transform="matrix(1,0,0,1,9023.833333333334,2028.0295620310487) translate(157.92592592592592 84.86666666666667)"/></g><path d="M9301.42 2147.17v4m0 7.98v8m0 7.98v8m0 7.98v8m0 8v8m0 7.98v8m0 7.98v3.8h-4.2m-7.98 0h-8m-8 0h-7.98m-8 0h-7.98m-8 0h-7.98m-8 0h-7.98m-8 0h-7.98m-8 0h-7.98m-8 0h-7.98m-8 0h-7.98m-8 0h-7.98m-8 0h-7.98m-8 0h-8m-7.98 0h-8m-7.98 0h-8m-7.98 0h-8m-7.98 0h-8m-7.98 0h-8m-7.98 0h-8m-7.98 0h-8m-7.98 0h-8m-7.98 0h-8m-7.98 0h-8m-7.98 0h-8m-8 0h-7.98m-8 0h-7.98m-8 0h-7.98m-8 0h-5v2.98m0 8v7.98m0 8v7.98m0 8v7.98m0 8v7.98m0 8v7.98m0 8v4" stroke="#000" stroke-width="2" fill="none"/><path d="M9302.4 2147.2h-1.96v-1.03h1.95z" stroke="#000" stroke-width=".05"/><path d="M8858.54 2320.37l10.18 17.2 10.18-17.2" stroke="#000" stroke-width="2" fill="none"/><g><use xlink:href="#O" transform="matrix(1,0,0,1,9112.19000484716,2214.013284341768) translate(0 16.562962962962967)"/></g><defs><path d="M18-100v-36l175-74v27L42-118l151 64v27" id="P"/><path d="M30 0v-248h187v28H63v79h144v27H63v87h162V0H30" id="Q"/><path d="M117-194c89-4 53 116 60 194h-32v-121c0-31-8-49-39-48C34-167 62-67 57 0H25l-1-190h30c1 10-1 24 2 32 11-22 29-35 61-36" id="R"/><path d="M59-47c-2 24 18 29 38 22v24C64 9 27 4 27-40v-127H5v-23h24l9-43h21v43h35v23H59v120" id="S"/><path d="M24-231v-30h32v30H24zM24 0v-190h32V0H24" id="T"/><path d="M179-190L93 31C79 59 56 82 12 73V49c39 6 53-20 64-50L1-190h34L92-34l54-156h33" id="U"/><path d="M18-27v-27l151-64-151-65v-27l175 74v36" id="V"/><g id="a"><use transform="matrix(0.05751028806584363,0,0,0.05751028806584363,0,0)" xlink:href="#P"/><use transform="matrix(0.05751028806584363,0,0,0.05751028806584363,12.077160493827162,0)" xlink:href="#P"/><use transform="matrix(0.05751028806584363,0,0,0.05751028806584363,24.154320987654323,0)" xlink:href="#Q"/><use transform="matrix(0.05751028806584363,0,0,0.05751028806584363,37.9567901234568,0)" xlink:href="#R"/><use transform="matrix(0.05751028806584363,0,0,0.05751028806584363,49.45884773662552,0)" xlink:href="#S"/><use transform="matrix(0.05751028806584363,0,0,0.05751028806584363,55.20987654320989,0)" xlink:href="#T"/><use transform="matrix(0.05751028806584363,0,0,0.05751028806584363,59.75318930041153,0)" xlink:href="#S"/><use transform="matrix(0.05751028806584363,0,0,0.05751028806584363,65.50421810699589,0)" xlink:href="#U"/><use transform="matrix(0.05751028806584363,0,0,0.05751028806584363,75.85606995884774,0)" xlink:href="#V"/><use transform="matrix(0.05751028806584363,0,0,0.05751028806584363,87.9332304526749,0)" xlink:href="#V"/></g><path d="M160-131c35 5 61 23 61 61C221 17 115-2 30 0v-248c76 3 177-17 177 60 0 33-19 50-47 57zm-97-11c50-1 110 9 110-42 0-47-63-36-110-37v79zm0 115c55-2 124 14 124-45 0-56-70-42-124-44v89" id="W"/><path d="M141-36C126-15 110 5 73 4 37 3 15-17 15-53c-1-64 63-63 125-63 3-35-9-54-41-54-24 1-41 7-42 31l-33-3c5-37 33-52 76-52 45 0 72 20 72 64v82c-1 20 7 32 28 27v20c-31 9-61-2-59-35zM48-53c0 20 12 33 32 33 41-3 63-29 60-74-43 2-92-5-92 41" id="X"/><path d="M143 0L79-87 56-68V0H24v-261h32v163l83-92h37l-77 82L181 0h-38" id="Y"/><path d="M205 0l-28-72H64L36 0H1l101-248h38L239 0h-34zm-38-99l-47-123c-12 45-31 82-46 123h93" id="Z"/><path d="M96-169c-40 0-48 33-48 73s9 75 48 75c24 0 41-14 43-38l32 2c-6 37-31 61-74 61-59 0-76-41-82-99-10-93 101-131 147-64 4 7 5 14 7 22l-32 3c-4-21-16-35-41-35" id="aa"/><path d="M100-194c62-1 85 37 85 99 1 63-27 99-86 99S16-35 15-95c0-66 28-99 85-99zM99-20c44 1 53-31 53-75 0-43-8-75-51-75s-53 32-53 75 10 74 51 75" id="ab"/><path d="M84 4C-5 8 30-112 23-190h32v120c0 31 7 50 39 49 72-2 45-101 50-169h31l1 190h-30c-1-10 1-25-2-33-11 22-28 36-60 37" id="ac"/><g id="b"><use transform="matrix(0.05751028806584363,0,0,0.05751028806584363,0,0)" xlink:href="#W"/><use transform="matrix(0.05751028806584363,0,0,0.05751028806584363,13.802469135802472,0)" xlink:href="#X"/><use transform="matrix(0.05751028806584363,0,0,0.05751028806584363,25.3045267489712,0)" xlink:href="#R"/><use transform="matrix(0.05751028806584363,0,0,0.05751028806584363,36.80658436213992,0)" xlink:href="#Y"/><use transform="matrix(0.05751028806584363,0,0,0.05751028806584363,47.15843621399178,0)" xlink:href="#Z"/><use transform="matrix(0.05751028806584363,0,0,0.05751028806584363,60.960905349794245,0)" xlink:href="#aa"/><use transform="matrix(0.05751028806584363,0,0,0.05751028806584363,71.3127572016461,0)" xlink:href="#aa"/><use transform="matrix(0.05751028806584363,0,0,0.05751028806584363,81.66460905349794,0)" xlink:href="#ab"/><use transform="matrix(0.05751028806584363,0,0,0.05751028806584363,93.16666666666667,0)" xlink:href="#ac"/><use transform="matrix(0.05751028806584363,0,0,0.05751028806584363,104.6687242798354,0)" xlink:href="#R"/><use transform="matrix(0.05751028806584363,0,0,0.05751028806584363,116.17078189300413,0)" xlink:href="#S"/></g><path d="M16-82v-28h88v28H16" id="ad"/><use transform="matrix(0.05751028806584363,0,0,0.05751028806584363,0,0)" xlink:href="#ad" id="c"/><path d="M85-194c31 0 48 13 60 33l-1-100h32l1 261h-30c-2-10 0-23-3-31C134-8 116 4 85 4 32 4 16-35 15-94c0-66 23-100 70-100zm9 24c-40 0-46 34-46 75 0 40 6 74 45 74 42 0 51-32 51-76 0-42-9-74-50-73" id="ae"/><path d="M33-154v-36h34v36H33zM33 0v-36h34V0H33" id="af"/><g id="d"><use transform="matrix(0.05751028806584363,0,0,0.05751028806584363,0,0)" xlink:href="#T"/><use transform="matrix(0.05751028806584363,0,0,0.05751028806584363,4.5433127572016465,0)" xlink:href="#ae"/><use transform="matrix(0.05751028806584363,0,0,0.05751028806584363,16.04537037037037,0)" xlink:href="#af"/></g><path d="M232-93c-1 65-40 97-104 97C67 4 28-28 28-90v-158h33c8 89-33 224 67 224 102 0 64-133 71-224h33v155" id="ag"/><path d="M33 0v-248h34V0H33" id="ah"/><path d="M30-248c118-7 216 8 213 122C240-48 200 0 122 0H30v-248zM63-27c89 8 146-16 146-99s-60-101-146-95v194" id="ai"/><g id="e"><use transform="matrix(0.05751028806584363,0,0,0.05751028806584363,0,0)" xlink:href="#ag"/><use transform="matrix(0.05751028806584363,0,0,0.05751028806584363,14.8951646090535,0)" xlink:href="#ag"/><use transform="matrix(0.05751028806584363,0,0,0.05751028806584363,29.790329218107,0)" xlink:href="#ah"/><use transform="matrix(0.05751028806584363,0,0,0.05751028806584363,35.54135802469136,0)" xlink:href="#ai"/></g><path d="M210-169c-67 3-38 105-44 169h-31v-121c0-29-5-50-35-48C34-165 62-65 56 0H25l-1-190h30c1 10-1 24 2 32 10-44 99-50 107 0 11-21 27-35 58-36 85-2 47 119 55 194h-31v-121c0-29-5-49-35-48" id="aj"/><path d="M100-194c63 0 86 42 84 106H49c0 40 14 67 53 68 26 1 43-12 49-29l28 8c-11 28-37 45-77 45C44 4 14-33 15-96c1-61 26-98 85-98zm52 81c6-60-76-77-97-28-3 7-6 17-6 28h103" id="ak"/><g id="f"><use transform="matrix(0.05751028806584363,0,0,0.05751028806584363,0,0)" xlink:href="#R"/><use transform="matrix(0.05751028806584363,0,0,0.05751028806584363,11.502057613168725,0)" xlink:href="#X"/><use transform="matrix(0.05751028806584363,0,0,0.05751028806584363,23.00411522633745,0)" xlink:href="#aj"/><use transform="matrix(0.05751028806584363,0,0,0.05751028806584363,40.199691358024694,0)" xlink:href="#ak"/><use transform="matrix(0.05751028806584363,0,0,0.05751028806584363,51.70174897119342,0)" xlink:href="#af"/></g><path d="M185-189c-5-48-123-54-124 2 14 75 158 14 163 119 3 78-121 87-175 55-17-10-28-26-33-46l33-7c5 56 141 63 141-1 0-78-155-14-162-118-5-82 145-84 179-34 5 7 8 16 11 25" id="al"/><path d="M114-163C36-179 61-72 57 0H25l-1-190h30c1 12-1 29 2 39 6-27 23-49 58-41v29" id="am"/><path d="M177-190C167-65 218 103 67 71c-23-6-38-20-44-43l32-5c15 47 100 32 89-28v-30C133-14 115 1 83 1 29 1 15-40 15-95c0-56 16-97 71-98 29-1 48 16 59 35 1-10 0-23 2-32h30zM94-22c36 0 50-32 50-73 0-42-14-75-50-75-39 0-46 34-46 75s6 73 46 73" id="an"/><g id="g"><use transform="matrix(0.05751028806584363,0,0,0.05751028806584363,0,0)" xlink:href="#al"/><use transform="matrix(0.05751028806584363,0,0,0.05751028806584363,13.802469135802472,0)" xlink:href="#S"/><use transform="matrix(0.05751028806584363,0,0,0.05751028806584363,19.553497942386834,0)" xlink:href="#am"/><use transform="matrix(0.05751028806584363,0,0,0.05751028806584363,26.397222222222226,0)" xlink:href="#T"/><use transform="matrix(0.05751028806584363,0,0,0.05751028806584363,30.940534979423873,0)" xlink:href="#R"/><use transform="matrix(0.05751028806584363,0,0,0.05751028806584363,42.4425925925926,0)" xlink:href="#an"/></g><path d="M135-143c-3-34-86-38-87 0 15 53 115 12 119 90S17 21 10-45l28-5c4 36 97 45 98 0-10-56-113-15-118-90-4-57 82-63 122-42 12 7 21 19 24 35" id="ao"/><path d="M115-194c55 1 70 41 70 98S169 2 115 4C84 4 66-9 55-30l1 105H24l-1-265h31l2 30c10-21 28-34 59-34zm-8 174c40 0 45-34 45-75s-6-73-45-74c-42 0-51 32-51 76 0 43 10 73 51 73" id="ap"/><g id="h"><use transform="matrix(0.05751028806584363,0,0,0.05751028806584363,0,0)" xlink:href="#ae"/><use transform="matrix(0.05751028806584363,0,0,0.05751028806584363,11.502057613168725,0)" xlink:href="#ak"/><use transform="matrix(0.05751028806584363,0,0,0.05751028806584363,23.00411522633745,0)" xlink:href="#ao"/><use transform="matrix(0.05751028806584363,0,0,0.05751028806584363,33.3559670781893,0)" xlink:href="#aa"/><use transform="matrix(0.05751028806584363,0,0,0.05751028806584363,43.70781893004116,0)" xlink:href="#am"/><use transform="matrix(0.05751028806584363,0,0,0.05751028806584363,50.55154320987655,0)" xlink:href="#T"/><use transform="matrix(0.05751028806584363,0,0,0.05751028806584363,55.094855967078196,0)" xlink:href="#ap"/><use transform="matrix(0.05751028806584363,0,0,0.05751028806584363,66.59691358024692,0)" xlink:href="#S"/><use transform="matrix(0.05751028806584363,0,0,0.05751028806584363,72.34794238683128,0)" xlink:href="#T"/><use transform="matrix(0.05751028806584363,0,0,0.05751028806584363,76.89125514403293,0)" xlink:href="#ab"/><use transform="matrix(0.05751028806584363,0,0,0.05751028806584363,88.39331275720166,0)" xlink:href="#R"/><use transform="matrix(0.05751028806584363,0,0,0.05751028806584363,99.89537037037039,0)" xlink:href="#af"/></g><g id="i"><use transform="matrix(0.05751028806584363,0,0,0.05751028806584363,0,0)" xlink:href="#al"/><use transform="matrix(0.05751028806584363,0,0,0.05751028806584363,13.802469135802472,0)" xlink:href="#S"/><use transform="matrix(0.05751028806584363,0,0,0.05751028806584363,19.553497942386834,0)" xlink:href="#am"/><use transform="matrix(0.05751028806584363,0,0,0.05751028806584363,26.397222222222226,0)" xlink:href="#T"/><use transform="matrix(0.05751028806584363,0,0,0.05751028806584363,30.940534979423873,0)" xlink:href="#R"/><use transform="matrix(0.05751028806584363,0,0,0.05751028806584363,42.4425925925926,0)" xlink:href="#an"/></g><path d="M137 0h-34L2-248h35l83 218 83-218h36" id="aq"/><path d="M24 0v-261h32V0H24" id="ar"/><path d="M140-251c81 0 123 46 123 126C263-46 219 4 140 4 59 4 17-45 17-125s42-126 123-126zm0 227c63 0 89-41 89-101s-29-99-89-99c-61 0-89 39-89 99S79-25 140-24" id="as"/><path d="M115-194c53 0 69 39 70 98 0 66-23 100-70 100C84 3 66-7 56-30L54 0H23l1-261h32v101c10-23 28-34 59-34zm-8 174c40 0 45-34 45-75 0-40-5-75-45-74-42 0-51 32-51 76 0 43 10 73 51 73" id="at"/><path d="M24-231v-30h32v30H24zM-9 49c24 4 33-6 33-30v-209h32V24c2 40-23 58-65 49V49" id="au"/><g id="j"><use transform="matrix(0.05751028806584363,0,0,0.05751028806584363,0,0)" xlink:href="#P"/><use transform="matrix(0.05751028806584363,0,0,0.05751028806584363,12.077160493827162,0)" xlink:href="#P"/><use transform="matrix(0.05751028806584363,0,0,0.05751028806584363,24.154320987654323,0)" xlink:href="#aq"/><use transform="matrix(0.05751028806584363,0,0,0.05751028806584363,36.40401234567902,0)" xlink:href="#X"/><use transform="matrix(0.05751028806584363,0,0,0.05751028806584363,47.906069958847745,0)" xlink:href="#ar"/><use transform="matrix(0.05751028806584363,0,0,0.05751028806584363,52.44938271604939,0)" xlink:href="#ac"/><use transform="matrix(0.05751028806584363,0,0,0.05751028806584363,63.951440329218116,0)" xlink:href="#ak"/><use transform="matrix(0.05751028806584363,0,0,0.05751028806584363,75.45349794238685,0)" xlink:href="#as"/><use transform="matrix(0.05751028806584363,0,0,0.05751028806584363,91.55637860082307,0)" xlink:href="#at"/><use transform="matrix(0.05751028806584363,0,0,0.05751028806584363,103.0584362139918,0)" xlink:href="#au"/><use transform="matrix(0.05751028806584363,0,0,0.05751028806584363,107.60174897119344,0)" xlink:href="#ak"/><use transform="matrix(0.05751028806584363,0,0,0.05751028806584363,119.10380658436218,0)" xlink:href="#aa"/><use transform="matrix(0.05751028806584363,0,0,0.05751028806584363,129.45565843621404,0)" xlink:href="#S"/><use transform="matrix(0.05751028806584363,0,0,0.05751028806584363,135.2066872427984,0)" xlink:href="#V"/><use transform="matrix(0.05751028806584363,0,0,0.05751028806584363,147.28384773662557,0)" xlink:href="#V"/></g><path d="M240 0l2-218c-23 76-54 145-80 218h-23L58-218 59 0H30v-248h44l77 211c21-75 51-140 76-211h43V0h-30" id="av"/><g id="k"><use transform="matrix(0.05751028806584363,0,0,0.05751028806584363,0,0)" xlink:href="#av"/><use transform="matrix(0.05751028806584363,0,0,0.05751028806584363,17.195576131687243,0)" xlink:href="#ab"/><use transform="matrix(0.05751028806584363,0,0,0.05751028806584363,28.69763374485597,0)" xlink:href="#R"/><use transform="matrix(0.05751028806584363,0,0,0.05751028806584363,40.199691358024694,0)" xlink:href="#ak"/><use transform="matrix(0.05751028806584363,0,0,0.05751028806584363,51.70174897119342,0)" xlink:href="#S"/><use transform="matrix(0.05751028806584363,0,0,0.05751028806584363,57.45277777777778,0)" xlink:href="#X"/><use transform="matrix(0.05751028806584363,0,0,0.05751028806584363,68.95483539094651,0)" xlink:href="#am"/><use transform="matrix(0.05751028806584363,0,0,0.05751028806584363,75.79855967078191,0)" xlink:href="#U"/><use transform="matrix(0.05751028806584363,0,0,0.05751028806584363,86.15041152263376,0)" xlink:href="#Z"/><use transform="matrix(0.05751028806584363,0,0,0.05751028806584363,99.95288065843623,0)" xlink:href="#aj"/><use transform="matrix(0.05751028806584363,0,0,0.05751028806584363,117.14845679012348,0)" xlink:href="#ab"/><use transform="matrix(0.05751028806584363,0,0,0.05751028806584363,128.6505144032922,0)" xlink:href="#ac"/><use transform="matrix(0.05751028806584363,0,0,0.05751028806584363,140.1525720164609,0)" xlink:href="#R"/><use transform="matrix(0.05751028806584363,0,0,0.05751028806584363,151.65462962962962,0)" xlink:href="#S"/></g><g id="l"><use transform="matrix(0.05751028806584363,0,0,0.05751028806584363,0,0)" xlink:href="#X"/><use transform="matrix(0.05751028806584363,0,0,0.05751028806584363,11.502057613168725,0)" xlink:href="#aj"/><use transform="matrix(0.05751028806584363,0,0,0.05751028806584363,28.69763374485597,0)" xlink:href="#ab"/><use transform="matrix(0.05751028806584363,0,0,0.05751028806584363,40.199691358024694,0)" xlink:href="#ac"/><use transform="matrix(0.05751028806584363,0,0,0.05751028806584363,51.70174897119342,0)" xlink:href="#R"/><use transform="matrix(0.05751028806584363,0,0,0.05751028806584363,63.203806584362134,0)" xlink:href="#S"/><use transform="matrix(0.05751028806584363,0,0,0.05751028806584363,68.9548353909465,0)" xlink:href="#af"/></g><path d="M190 0L58-211 59 0H30v-248h39L202-35l-2-213h31V0h-41" id="aw"/><g id="m"><use transform="matrix(0.05751028806584363,0,0,0.05751028806584363,0,0)" xlink:href="#aw"/><use transform="matrix(0.05751028806584363,0,0,0.05751028806584363,14.8951646090535,0)" xlink:href="#ac"/><use transform="matrix(0.05751028806584363,0,0,0.05751028806584363,26.397222222222226,0)" xlink:href="#aj"/><use transform="matrix(0.05751028806584363,0,0,0.05751028806584363,43.59279835390947,0)" xlink:href="#at"/><use transform="matrix(0.05751028806584363,0,0,0.05751028806584363,55.094855967078196,0)" xlink:href="#ak"/><use transform="matrix(0.05751028806584363,0,0,0.05751028806584363,66.59691358024692,0)" xlink:href="#am"/></g><path d="M27 0v-27h64v-190l-56 39v-29l58-41h29v221h61V0H27" id="ax"/><use transform="matrix(0.05715020576131688,0,0,0.05715020576131688,0,0)" xlink:href="#ax" id="n"/><g id="o"><use transform="matrix(0.05751028806584363,0,0,0.05751028806584363,0,0)" xlink:href="#at"/><use transform="matrix(0.05751028806584363,0,0,0.05751028806584363,11.502057613168725,0)" xlink:href="#X"/><use transform="matrix(0.05751028806584363,0,0,0.05751028806584363,23.00411522633745,0)" xlink:href="#ar"/><use transform="matrix(0.05751028806584363,0,0,0.05751028806584363,27.547427983539098,0)" xlink:href="#X"/><use transform="matrix(0.05751028806584363,0,0,0.05751028806584363,39.049485596707825,0)" xlink:href="#R"/><use transform="matrix(0.05751028806584363,0,0,0.05751028806584363,50.55154320987655,0)" xlink:href="#aa"/><use transform="matrix(0.05751028806584363,0,0,0.05751028806584363,60.9033950617284,0)" xlink:href="#ak"/></g><path d="M30 0v-248h33v221h125V0H30" id="ay"/><g id="p"><use transform="matrix(0.05751028806584363,0,0,0.05751028806584363,0,0)" xlink:href="#ae"/><use transform="matrix(0.05751028806584363,0,0,0.05751028806584363,11.502057613168725,0)" xlink:href="#T"/><use transform="matrix(0.05751028806584363,0,0,0.05751028806584363,16.04537037037037,0)" xlink:href="#ao"/><use transform="matrix(0.05751028806584363,0,0,0.05751028806584363,26.397222222222226,0)" xlink:href="#ap"/><use transform="matrix(0.05751028806584363,0,0,0.05751028806584363,37.89927983539095,0)" xlink:href="#ab"/><use transform="matrix(0.05751028806584363,0,0,0.05751028806584363,49.40133744855967,0)" xlink:href="#ao"/><use transform="matrix(0.05751028806584363,0,0,0.05751028806584363,59.75318930041153,0)" xlink:href="#T"/><use transform="matrix(0.05751028806584363,0,0,0.05751028806584363,64.29650205761317,0)" xlink:href="#S"/><use transform="matrix(0.05751028806584363,0,0,0.05751028806584363,70.04753086419753,0)" xlink:href="#T"/><use transform="matrix(0.05751028806584363,0,0,0.05751028806584363,74.59084362139917,0)" xlink:href="#ab"/><use transform="matrix(0.05751028806584363,0,0,0.05751028806584363,86.0929012345679,0)" xlink:href="#R"/><use transform="matrix(0.05751028806584363,0,0,0.05751028806584363,97.59495884773663,0)" xlink:href="#ay"/><use transform="matrix(0.05751028806584363,0,0,0.05751028806584363,109.09701646090537,0)" xlink:href="#T"/><use transform="matrix(0.05751028806584363,0,0,0.05751028806584363,113.64032921810701,0)" xlink:href="#aj"/><use transform="matrix(0.05751028806584363,0,0,0.05751028806584363,130.83590534979425,0)" xlink:href="#T"/><use transform="matrix(0.05751028806584363,0,0,0.05751028806584363,135.3792181069959,0)" xlink:href="#S"/></g><g id="q"><use transform="matrix(0.05751028806584363,0,0,0.05751028806584363,0,0)" xlink:href="#ay"/><use transform="matrix(0.05751028806584363,0,0,0.05751028806584363,11.502057613168725,0)" xlink:href="#X"/><use transform="matrix(0.05751028806584363,0,0,0.05751028806584363,23.00411522633745,0)" xlink:href="#at"/><use transform="matrix(0.05751028806584363,0,0,0.05751028806584363,34.50617283950618,0)" xlink:href="#ak"/><use transform="matrix(0.05751028806584363,0,0,0.05751028806584363,46.0082304526749,0)" xlink:href="#ar"/></g><path d="M80-196l47-18 7 23-49 13 32 44-20 13-27-46-27 45-21-12 33-44-49-13 8-23 47 19-2-53h23" id="az"/><use transform="matrix(0.05715020576131688,0,0,0.05715020576131688,0,0)" xlink:href="#az" id="r"/><g id="s"><use transform="matrix(0.05751028806584363,0,0,0.05751028806584363,0,0)" xlink:href="#ar"/><use transform="matrix(0.05751028806584363,0,0,0.05751028806584363,4.5433127572016465,0)" xlink:href="#X"/><use transform="matrix(0.05751028806584363,0,0,0.05751028806584363,16.04537037037037,0)" xlink:href="#at"/><use transform="matrix(0.05751028806584363,0,0,0.05751028806584363,27.547427983539094,0)" xlink:href="#ak"/><use transform="matrix(0.05751028806584363,0,0,0.05751028806584363,39.04948559670782,0)" xlink:href="#ar"/><use transform="matrix(0.05751028806584363,0,0,0.05751028806584363,43.592798353909465,0)" xlink:href="#ao"/></g><path d="M108 0H70L1-190h34L89-25l56-165h34" id="aA"/><g id="t"><use transform="matrix(0.05751028806584363,0,0,0.05751028806584363,0,0)" xlink:href="#P"/><use transform="matrix(0.05751028806584363,0,0,0.05751028806584363,12.077160493827162,0)" xlink:href="#P"/><use transform="matrix(0.05751028806584363,0,0,0.05751028806584363,24.154320987654323,0)" xlink:href="#al"/><use transform="matrix(0.05751028806584363,0,0,0.05751028806584363,37.9567901234568,0)" xlink:href="#ak"/><use transform="matrix(0.05751028806584363,0,0,0.05751028806584363,49.45884773662552,0)" xlink:href="#am"/><use transform="matrix(0.05751028806584363,0,0,0.05751028806584363,56.302572016460914,0)" xlink:href="#aA"/><use transform="matrix(0.05751028806584363,0,0,0.05751028806584363,66.65442386831276,0)" xlink:href="#T"/><use transform="matrix(0.05751028806584363,0,0,0.05751028806584363,71.19773662551441,0)" xlink:href="#aa"/><use transform="matrix(0.05751028806584363,0,0,0.05751028806584363,81.54958847736626,0)" xlink:href="#ak"/><use transform="matrix(0.05751028806584363,0,0,0.05751028806584363,93.05164609053499,0)" xlink:href="#V"/><use transform="matrix(0.05751028806584363,0,0,0.05751028806584363,105.12880658436215,0)" xlink:href="#V"/></g><g id="u"><use transform="matrix(0.05751028806584363,0,0,0.05751028806584363,0,0)" xlink:href="#W"/><use transform="matrix(0.05751028806584363,0,0,0.05751028806584363,13.802469135802472,0)" xlink:href="#X"/><use transform="matrix(0.05751028806584363,0,0,0.05751028806584363,25.3045267489712,0)" xlink:href="#R"/><use transform="matrix(0.05751028806584363,0,0,0.05751028806584363,36.80658436213992,0)" xlink:href="#Y"/><use transform="matrix(0.05751028806584363,0,0,0.05751028806584363,47.15843621399178,0)" xlink:href="#Z"/><use transform="matrix(0.05751028806584363,0,0,0.05751028806584363,60.960905349794245,0)" xlink:href="#aa"/><use transform="matrix(0.05751028806584363,0,0,0.05751028806584363,71.3127572016461,0)" xlink:href="#aa"/><use transform="matrix(0.05751028806584363,0,0,0.05751028806584363,81.66460905349794,0)" xlink:href="#ab"/><use transform="matrix(0.05751028806584363,0,0,0.05751028806584363,93.16666666666667,0)" xlink:href="#ac"/><use transform="matrix(0.05751028806584363,0,0,0.05751028806584363,104.6687242798354,0)" xlink:href="#R"/><use transform="matrix(0.05751028806584363,0,0,0.05751028806584363,116.17078189300413,0)" xlink:href="#S"/><use transform="matrix(0.05751028806584363,0,0,0.05751028806584363,121.92181069958849,0)" xlink:href="#al"/><use transform="matrix(0.05751028806584363,0,0,0.05751028806584363,135.72427983539097,0)" xlink:href="#ak"/><use transform="matrix(0.05751028806584363,0,0,0.05751028806584363,147.2263374485597,0)" xlink:href="#am"/><use transform="matrix(0.05751028806584363,0,0,0.05751028806584363,154.07006172839507,0)" xlink:href="#aA"/><use transform="matrix(0.05751028806584363,0,0,0.05751028806584363,164.42191358024692,0)" xlink:href="#T"/><use transform="matrix(0.05751028806584363,0,0,0.05751028806584363,168.96522633744857,0)" xlink:href="#aa"/><use transform="matrix(0.05751028806584363,0,0,0.05751028806584363,179.31707818930042,0)" xlink:href="#ak"/></g><path fill="#131300" d="M118-107v75H92v-75H18v-26h74v-75h26v75h74v26h-74" id="aB"/><use transform="matrix(0.05925925925925927,0,0,0.05925925925925927,0,0)" xlink:href="#aB" id="v"/><path fill="#131300" d="M96-169c-40 0-48 33-48 73s9 75 48 75c24 0 41-14 43-38l32 2c-6 37-31 61-74 61-59 0-76-41-82-99-10-93 101-131 147-64 4 7 5 14 7 22l-32 3c-4-21-16-35-41-35" id="aC"/><path fill="#131300" d="M114-163C36-179 61-72 57 0H25l-1-190h30c1 12-1 29 2 39 6-27 23-49 58-41v29" id="aD"/><path fill="#131300" d="M100-194c63 0 86 42 84 106H49c0 40 14 67 53 68 26 1 43-12 49-29l28 8c-11 28-37 45-77 45C44 4 14-33 15-96c1-61 26-98 85-98zm52 81c6-60-76-77-97-28-3 7-6 17-6 28h103" id="aE"/><path fill="#131300" d="M141-36C126-15 110 5 73 4 37 3 15-17 15-53c-1-64 63-63 125-63 3-35-9-54-41-54-24 1-41 7-42 31l-33-3c5-37 33-52 76-52 45 0 72 20 72 64v82c-1 20 7 32 28 27v20c-31 9-61-2-59-35zM48-53c0 20 12 33 32 33 41-3 63-29 60-74-43 2-92-5-92 41" id="aF"/><path fill="#131300" d="M59-47c-2 24 18 29 38 22v24C64 9 27 4 27-40v-127H5v-23h24l9-43h21v43h35v23H59v120" id="aG"/><path fill="#131300" d="M160-131c35 5 61 23 61 61C221 17 115-2 30 0v-248c76 3 177-17 177 60 0 33-19 50-47 57zm-97-11c50-1 110 9 110-42 0-47-63-36-110-37v79zm0 115c55-2 124 14 124-45 0-56-70-42-124-44v89" id="aH"/><path fill="#131300" d="M117-194c89-4 53 116 60 194h-32v-121c0-31-8-49-39-48C34-167 62-67 57 0H25l-1-190h30c1 10-1 24 2 32 11-22 29-35 61-36" id="aI"/><path fill="#131300" d="M143 0L79-87 56-68V0H24v-261h32v163l83-92h37l-77 82L181 0h-38" id="aJ"/><path fill="#131300" d="M205 0l-28-72H64L36 0H1l101-248h38L239 0h-34zm-38-99l-47-123c-12 45-31 82-46 123h93" id="aK"/><path fill="#131300" d="M100-194c62-1 85 37 85 99 1 63-27 99-86 99S16-35 15-95c0-66 28-99 85-99zM99-20c44 1 53-31 53-75 0-43-8-75-51-75s-53 32-53 75 10 74 51 75" id="aL"/><path fill="#131300" d="M84 4C-5 8 30-112 23-190h32v120c0 31 7 50 39 49 72-2 45-101 50-169h31l1 190h-30c-1-10 1-25-2-33-11 22-28 36-60 37" id="aM"/><path fill="#131300" d="M87 75C49 33 22-17 22-94c0-76 28-126 65-167h31c-38 41-64 92-64 168S80 34 118 75H87" id="aN"/><path fill="#131300" d="M33-154v-36h34v36H33zM33 0v-36h34V0H33" id="aO"/><g id="w"><use transform="matrix(0.05925925925925927,0,0,0.05925925925925927,0,0)" xlink:href="#aC"/><use transform="matrix(0.05925925925925927,0,0,0.05925925925925927,10.666666666666668,0)" xlink:href="#aD"/><use transform="matrix(0.05925925925925927,0,0,0.05925925925925927,17.718518518518522,0)" xlink:href="#aE"/><use transform="matrix(0.05925925925925927,0,0,0.05925925925925927,29.570370370370377,0)" xlink:href="#aF"/><use transform="matrix(0.05925925925925927,0,0,0.05925925925925927,41.42222222222223,0)" xlink:href="#aG"/><use transform="matrix(0.05925925925925927,0,0,0.05925925925925927,47.348148148148155,0)" xlink:href="#aE"/><use transform="matrix(0.05925925925925927,0,0,0.05925925925925927,59.20000000000001,0)" xlink:href="#aH"/><use transform="matrix(0.05925925925925927,0,0,0.05925925925925927,73.42222222222223,0)" xlink:href="#aF"/><use transform="matrix(0.05925925925925927,0,0,0.05925925925925927,85.27407407407408,0)" xlink:href="#aI"/><use transform="matrix(0.05925925925925927,0,0,0.05925925925925927,97.12592592592593,0)" xlink:href="#aJ"/><use transform="matrix(0.05925925925925927,0,0,0.05925925925925927,107.7925925925926,0)" xlink:href="#aK"/><use transform="matrix(0.05925925925925927,0,0,0.05925925925925927,122.01481481481484,0)" xlink:href="#aC"/><use transform="matrix(0.05925925925925927,0,0,0.05925925925925927,132.68148148148148,0)" xlink:href="#aC"/><use transform="matrix(0.05925925925925927,0,0,0.05925925925925927,143.34814814814814,0)" xlink:href="#aL"/><use transform="matrix(0.05925925925925927,0,0,0.05925925925925927,155.2,0)" xlink:href="#aM"/><use transform="matrix(0.05925925925925927,0,0,0.05925925925925927,167.05185185185184,0)" xlink:href="#aI"/><use transform="matrix(0.05925925925925927,0,0,0.05925925925925927,178.90370370370368,0)" xlink:href="#aG"/><use transform="matrix(0.05925925925925927,0,0,0.05925925925925927,184.8296296296296,0)" xlink:href="#aN"/><use transform="matrix(0.05925925925925927,0,0,0.05925925925925927,191.88148148148147,0)" xlink:href="#aF"/><use transform="matrix(0.05925925925925927,0,0,0.05925925925925927,203.73333333333332,0)" xlink:href="#aC"/><use transform="matrix(0.05925925925925927,0,0,0.05925925925925927,214.39999999999998,0)" xlink:href="#aC"/><use transform="matrix(0.05925925925925927,0,0,0.05925925925925927,225.06666666666663,0)" xlink:href="#aL"/><use transform="matrix(0.05925925925925927,0,0,0.05925925925925927,236.91851851851848,0)" xlink:href="#aM"/><use transform="matrix(0.05925925925925927,0,0,0.05925925925925927,248.77037037037036,0)" xlink:href="#aI"/><use transform="matrix(0.05925925925925927,0,0,0.05925925925925927,260.6222222222222,0)" xlink:href="#aG"/><use transform="matrix(0.05925925925925927,0,0,0.05925925925925927,266.54814814814813,0)" xlink:href="#aO"/></g><path fill="#131300" d="M33-261c38 41 65 92 65 168S71 34 33 75H2C39 34 66-17 66-93S39-220 2-261h31" id="aP"/><g id="x"><use transform="matrix(0.05925925925925927,0,0,0.05925925925925927,0,0)" xlink:href="#aH"/><use transform="matrix(0.05925925925925927,0,0,0.05925925925925927,14.222222222222225,0)" xlink:href="#aF"/><use transform="matrix(0.05925925925925927,0,0,0.05925925925925927,26.074074074074076,0)" xlink:href="#aI"/><use transform="matrix(0.05925925925925927,0,0,0.05925925925925927,37.92592592592593,0)" xlink:href="#aJ"/><use transform="matrix(0.05925925925925927,0,0,0.05925925925925927,48.592592592592595,0)" xlink:href="#aK"/><use transform="matrix(0.05925925925925927,0,0,0.05925925925925927,62.814814814814824,0)" xlink:href="#aC"/><use transform="matrix(0.05925925925925927,0,0,0.05925925925925927,73.4814814814815,0)" xlink:href="#aC"/><use transform="matrix(0.05925925925925927,0,0,0.05925925925925927,84.14814814814817,0)" xlink:href="#aL"/><use transform="matrix(0.05925925925925927,0,0,0.05925925925925927,96.00000000000001,0)" xlink:href="#aM"/><use transform="matrix(0.05925925925925927,0,0,0.05925925925925927,107.85185185185186,0)" xlink:href="#aI"/><use transform="matrix(0.05925925925925927,0,0,0.05925925925925927,119.70370370370371,0)" xlink:href="#aG"/><use transform="matrix(0.05925925925925927,0,0,0.05925925925925927,125.62962962962962,0)" xlink:href="#aP"/></g><path fill="#131300" d="M177-190C167-65 218 103 67 71c-23-6-38-20-44-43l32-5c15 47 100 32 89-28v-30C133-14 115 1 83 1 29 1 15-40 15-95c0-56 16-97 71-98 29-1 48 16 59 35 1-10 0-23 2-32h30zM94-22c36 0 50-32 50-73 0-42-14-75-50-75-39 0-46 34-46 75s6 73 46 73" id="aQ"/><path fill="#131300" d="M135-143c-3-34-86-38-87 0 15 53 115 12 119 90S17 21 10-45l28-5c4 36 97 45 98 0-10-56-113-15-118-90-4-57 82-63 122-42 12 7 21 19 24 35" id="aR"/><g id="y"><use transform="matrix(0.05925925925925927,0,0,0.05925925925925927,0,0)" xlink:href="#aQ"/><use transform="matrix(0.05925925925925927,0,0,0.05925925925925927,11.851851851851853,0)" xlink:href="#aE"/><use transform="matrix(0.05925925925925927,0,0,0.05925925925925927,23.703703703703706,0)" xlink:href="#aG"/><use transform="matrix(0.05925925925925927,0,0,0.05925925925925927,29.629629629629633,0)" xlink:href="#aH"/><use transform="matrix(0.05925925925925927,0,0,0.05925925925925927,43.85185185185186,0)" xlink:href="#aF"/><use transform="matrix(0.05925925925925927,0,0,0.05925925925925927,55.70370370370372,0)" xlink:href="#aI"/><use transform="matrix(0.05925925925925927,0,0,0.05925925925925927,67.55555555555557,0)" xlink:href="#aJ"/><use transform="matrix(0.05925925925925927,0,0,0.05925925925925927,78.22222222222224,0)" xlink:href="#aK"/><use transform="matrix(0.05925925925925927,0,0,0.05925925925925927,92.44444444444447,0)" xlink:href="#aC"/><use transform="matrix(0.05925925925925927,0,0,0.05925925925925927,103.11111111111114,0)" xlink:href="#aC"/><use transform="matrix(0.05925925925925927,0,0,0.05925925925925927,113.77777777777781,0)" xlink:href="#aL"/><use transform="matrix(0.05925925925925927,0,0,0.05925925925925927,125.62962962962965,0)" xlink:href="#aM"/><use transform="matrix(0.05925925925925927,0,0,0.05925925925925927,137.48148148148152,0)" xlink:href="#aI"/><use transform="matrix(0.05925925925925927,0,0,0.05925925925925927,149.33333333333337,0)" xlink:href="#aG"/><use transform="matrix(0.05925925925925927,0,0,0.05925925925925927,155.2592592592593,0)" xlink:href="#aR"/><use transform="matrix(0.05925925925925927,0,0,0.05925925925925927,165.92592592592595,0)" xlink:href="#aN"/><use transform="matrix(0.05925925925925927,0,0,0.05925925925925927,172.97777777777782,0)" xlink:href="#aP"/><use transform="matrix(0.05925925925925927,0,0,0.05925925925925927,180.02962962962968,0)" xlink:href="#aO"/></g><path fill="#131300" d="M185-189c-5-48-123-54-124 2 14 75 158 14 163 119 3 78-121 87-175 55-17-10-28-26-33-46l33-7c5 56 141 63 141-1 0-78-155-14-162-118-5-82 145-84 179-34 5 7 8 16 11 25" id="aS"/><g id="z"><use transform="matrix(0.05925925925925927,0,0,0.05925925925925927,0,0)" xlink:href="#aS"/><use transform="matrix(0.05925925925925927,0,0,0.05925925925925927,14.222222222222225,0)" xlink:href="#aE"/><use transform="matrix(0.05925925925925927,0,0,0.05925925925925927,26.074074074074076,0)" xlink:href="#aG"/></g><path fill="#131300" d="M101-234c-31-9-42 10-38 44h38v23H63V0H32v-167H5v-23h27c-7-52 17-82 69-68v24" id="aT"/><g id="A"><use transform="matrix(0.05925925925925927,0,0,0.05925925925925927,0,0)" xlink:href="#aL"/><use transform="matrix(0.05925925925925927,0,0,0.05925925925925927,11.851851851851853,0)" xlink:href="#aT"/></g><g id="B"><use transform="matrix(0.05925925925925927,0,0,0.05925925925925927,0,0)" xlink:href="#aH"/><use transform="matrix(0.05925925925925927,0,0,0.05925925925925927,14.222222222222225,0)" xlink:href="#aF"/><use transform="matrix(0.05925925925925927,0,0,0.05925925925925927,26.074074074074076,0)" xlink:href="#aI"/><use transform="matrix(0.05925925925925927,0,0,0.05925925925925927,37.92592592592593,0)" xlink:href="#aJ"/><use transform="matrix(0.05925925925925927,0,0,0.05925925925925927,48.592592592592595,0)" xlink:href="#aK"/><use transform="matrix(0.05925925925925927,0,0,0.05925925925925927,62.814814814814824,0)" xlink:href="#aC"/><use transform="matrix(0.05925925925925927,0,0,0.05925925925925927,73.4814814814815,0)" xlink:href="#aC"/><use transform="matrix(0.05925925925925927,0,0,0.05925925925925927,84.14814814814817,0)" xlink:href="#aL"/><use transform="matrix(0.05925925925925927,0,0,0.05925925925925927,96.00000000000001,0)" xlink:href="#aM"/><use transform="matrix(0.05925925925925927,0,0,0.05925925925925927,107.85185185185186,0)" xlink:href="#aI"/><use transform="matrix(0.05925925925925927,0,0,0.05925925925925927,119.70370370370371,0)" xlink:href="#aG"/></g><path fill="#131300" d="M24-231v-30h32v30H24zM24 0v-190h32V0H24" id="aU"/><path fill="#131300" d="M85-194c31 0 48 13 60 33l-1-100h32l1 261h-30c-2-10 0-23-3-31C134-8 116 4 85 4 32 4 16-35 15-94c0-66 23-100 70-100zm9 24c-40 0-46 34-46 75 0 40 6 74 45 74 42 0 51-32 51-76 0-42-9-74-50-73" id="aV"/><g id="C"><use transform="matrix(0.05925925925925927,0,0,0.05925925925925927,0,0)" xlink:href="#aQ"/><use transform="matrix(0.05925925925925927,0,0,0.05925925925925927,11.851851851851853,0)" xlink:href="#aE"/><use transform="matrix(0.05925925925925927,0,0,0.05925925925925927,23.703703703703706,0)" xlink:href="#aG"/><use transform="matrix(0.05925925925925927,0,0,0.05925925925925927,29.629629629629633,0)" xlink:href="#aH"/><use transform="matrix(0.05925925925925927,0,0,0.05925925925925927,43.85185185185186,0)" xlink:href="#aF"/><use transform="matrix(0.05925925925925927,0,0,0.05925925925925927,55.70370370370372,0)" xlink:href="#aI"/><use transform="matrix(0.05925925925925927,0,0,0.05925925925925927,67.55555555555557,0)" xlink:href="#aJ"/><use transform="matrix(0.05925925925925927,0,0,0.05925925925925927,78.22222222222224,0)" xlink:href="#aK"/><use transform="matrix(0.05925925925925927,0,0,0.05925925925925927,92.44444444444447,0)" xlink:href="#aC"/><use transform="matrix(0.05925925925925927,0,0,0.05925925925925927,103.11111111111114,0)" xlink:href="#aC"/><use transform="matrix(0.05925925925925927,0,0,0.05925925925925927,113.77777777777781,0)" xlink:href="#aL"/><use transform="matrix(0.05925925925925927,0,0,0.05925925925925927,125.62962962962965,0)" xlink:href="#aM"/><use transform="matrix(0.05925925925925927,0,0,0.05925925925925927,137.48148148148152,0)" xlink:href="#aI"/><use transform="matrix(0.05925925925925927,0,0,0.05925925925925927,149.33333333333337,0)" xlink:href="#aG"/><use transform="matrix(0.05925925925925927,0,0,0.05925925925925927,155.2592592592593,0)" xlink:href="#aN"/><use transform="matrix(0.05925925925925927,0,0,0.05925925925925927,162.31111111111116,0)" xlink:href="#aU"/><use transform="matrix(0.05925925925925927,0,0,0.05925925925925927,166.99259259259264,0)" xlink:href="#aV"/><use transform="matrix(0.05925925925925927,0,0,0.05925925925925927,178.8444444444445,0)" xlink:href="#aO"/></g><g id="D"><use transform="matrix(0.05925925925925927,0,0,0.05925925925925927,0,0)" xlink:href="#aS"/><use transform="matrix(0.05925925925925927,0,0,0.05925925925925927,14.222222222222225,0)" xlink:href="#aG"/><use transform="matrix(0.05925925925925927,0,0,0.05925925925925927,20.148148148148152,0)" xlink:href="#aD"/><use transform="matrix(0.05925925925925927,0,0,0.05925925925925927,27.200000000000006,0)" xlink:href="#aU"/><use transform="matrix(0.05925925925925927,0,0,0.05925925925925927,31.881481481481487,0)" xlink:href="#aI"/><use transform="matrix(0.05925925925925927,0,0,0.05925925925925927,43.73333333333334,0)" xlink:href="#aQ"/><use transform="matrix(0.05925925925925927,0,0,0.05925925925925927,55.585185185185196,0)" xlink:href="#aP"/><use transform="matrix(0.05925925925925927,0,0,0.05925925925925927,62.63703703703705,0)" xlink:href="#aO"/></g><path fill="#131300" d="M115-194c55 1 70 41 70 98S169 2 115 4C84 4 66-9 55-30l1 105H24l-1-265h31l2 30c10-21 28-34 59-34zm-8 174c40 0 45-34 45-75s-6-73-45-74c-42 0-51 32-51 76 0 43 10 73 51 73" id="aW"/><g id="E"><use transform="matrix(0.05925925925925927,0,0,0.05925925925925927,0,0)" xlink:href="#aM"/><use transform="matrix(0.05925925925925927,0,0,0.05925925925925927,11.851851851851853,0)" xlink:href="#aW"/><use transform="matrix(0.05925925925925927,0,0,0.05925925925925927,23.703703703703706,0)" xlink:href="#aV"/><use transform="matrix(0.05925925925925927,0,0,0.05925925925925927,35.55555555555556,0)" xlink:href="#aF"/><use transform="matrix(0.05925925925925927,0,0,0.05925925925925927,47.40740740740741,0)" xlink:href="#aG"/><use transform="matrix(0.05925925925925927,0,0,0.05925925925925927,53.333333333333336,0)" xlink:href="#aE"/><use transform="matrix(0.05925925925925927,0,0,0.05925925925925927,65.18518518518519,0)" xlink:href="#aH"/><use transform="matrix(0.05925925925925927,0,0,0.05925925925925927,79.40740740740742,0)" xlink:href="#aF"/><use transform="matrix(0.05925925925925927,0,0,0.05925925925925927,91.25925925925927,0)" xlink:href="#aI"/><use transform="matrix(0.05925925925925927,0,0,0.05925925925925927,103.11111111111111,0)" xlink:href="#aJ"/><use transform="matrix(0.05925925925925927,0,0,0.05925925925925927,113.77777777777779,0)" xlink:href="#aK"/><use transform="matrix(0.05925925925925927,0,0,0.05925925925925927,128,0)" xlink:href="#aC"/><use transform="matrix(0.05925925925925927,0,0,0.05925925925925927,138.66666666666666,0)" xlink:href="#aC"/><use transform="matrix(0.05925925925925927,0,0,0.05925925925925927,149.33333333333331,0)" xlink:href="#aL"/><use transform="matrix(0.05925925925925927,0,0,0.05925925925925927,161.18518518518516,0)" xlink:href="#aM"/><use transform="matrix(0.05925925925925927,0,0,0.05925925925925927,173.037037037037,0)" xlink:href="#aI"/><use transform="matrix(0.05925925925925927,0,0,0.05925925925925927,184.88888888888886,0)" xlink:href="#aG"/><use transform="matrix(0.05925925925925927,0,0,0.05925925925925927,190.81481481481478,0)" xlink:href="#aN"/><use transform="matrix(0.05925925925925927,0,0,0.05925925925925927,197.86666666666665,0)" xlink:href="#aF"/><use transform="matrix(0.05925925925925927,0,0,0.05925925925925927,209.7185185185185,0)" xlink:href="#aC"/><use transform="matrix(0.05925925925925927,0,0,0.05925925925925927,220.38518518518515,0)" xlink:href="#aC"/><use transform="matrix(0.05925925925925927,0,0,0.05925925925925927,231.0518518518518,0)" xlink:href="#aL"/><use transform="matrix(0.05925925925925927,0,0,0.05925925925925927,242.90370370370363,0)" xlink:href="#aM"/><use transform="matrix(0.05925925925925927,0,0,0.05925925925925927,254.75555555555547,0)" xlink:href="#aI"/><use transform="matrix(0.05925925925925927,0,0,0.05925925925925927,266.6074074074074,0)" xlink:href="#aG"/><use transform="matrix(0.05925925925925927,0,0,0.05925925925925927,272.5333333333333,0)" xlink:href="#aO"/></g><path fill="#131300" d="M24 0v-261h32V0H24" id="aX"/><g id="F"><use transform="matrix(0.05925925925925927,0,0,0.05925925925925927,0,0)" xlink:href="#aV"/><use transform="matrix(0.05925925925925927,0,0,0.05925925925925927,11.851851851851853,0)" xlink:href="#aE"/><use transform="matrix(0.05925925925925927,0,0,0.05925925925925927,23.703703703703706,0)" xlink:href="#aX"/><use transform="matrix(0.05925925925925927,0,0,0.05925925925925927,28.385185185185186,0)" xlink:href="#aE"/><use transform="matrix(0.05925925925925927,0,0,0.05925925925925927,40.23703703703704,0)" xlink:href="#aG"/><use transform="matrix(0.05925925925925927,0,0,0.05925925925925927,46.162962962962965,0)" xlink:href="#aE"/><use transform="matrix(0.05925925925925927,0,0,0.05925925925925927,58.01481481481482,0)" xlink:href="#aH"/><use transform="matrix(0.05925925925925927,0,0,0.05925925925925927,72.23703703703704,0)" xlink:href="#aF"/><use transform="matrix(0.05925925925925927,0,0,0.05925925925925927,84.08888888888889,0)" xlink:href="#aI"/><use transform="matrix(0.05925925925925927,0,0,0.05925925925925927,95.94074074074074,0)" xlink:href="#aJ"/><use transform="matrix(0.05925925925925927,0,0,0.05925925925925927,106.60740740740741,0)" xlink:href="#aK"/><use transform="matrix(0.05925925925925927,0,0,0.05925925925925927,120.82962962962964,0)" xlink:href="#aC"/><use transform="matrix(0.05925925925925927,0,0,0.05925925925925927,131.4962962962963,0)" xlink:href="#aC"/><use transform="matrix(0.05925925925925927,0,0,0.05925925925925927,142.16296296296295,0)" xlink:href="#aL"/><use transform="matrix(0.05925925925925927,0,0,0.05925925925925927,154.0148148148148,0)" xlink:href="#aM"/><use transform="matrix(0.05925925925925927,0,0,0.05925925925925927,165.86666666666665,0)" xlink:href="#aI"/><use transform="matrix(0.05925925925925927,0,0,0.05925925925925927,177.7185185185185,0)" xlink:href="#aG"/><use transform="matrix(0.05925925925925927,0,0,0.05925925925925927,183.64444444444442,0)" xlink:href="#aN"/><use transform="matrix(0.05925925925925927,0,0,0.05925925925925927,190.69629629629628,0)" xlink:href="#aU"/><use transform="matrix(0.05925925925925927,0,0,0.05925925925925927,195.37777777777777,0)" xlink:href="#aV"/><use transform="matrix(0.05925925925925927,0,0,0.05925925925925927,207.2296296296296,0)" xlink:href="#aO"/></g><g id="G"><use transform="matrix(0.05925925925925927,0,0,0.05925925925925927,0,0)" xlink:href="#aS"/><use transform="matrix(0.05925925925925927,0,0,0.05925925925925927,14.222222222222225,0)" xlink:href="#aG"/><use transform="matrix(0.05925925925925927,0,0,0.05925925925925927,20.148148148148152,0)" xlink:href="#aD"/><use transform="matrix(0.05925925925925927,0,0,0.05925925925925927,27.200000000000006,0)" xlink:href="#aU"/><use transform="matrix(0.05925925925925927,0,0,0.05925925925925927,31.881481481481487,0)" xlink:href="#aI"/><use transform="matrix(0.05925925925925927,0,0,0.05925925925925927,43.73333333333334,0)" xlink:href="#aQ"/><use transform="matrix(0.05925925925925927,0,0,0.05925925925925927,55.585185185185196,0)" xlink:href="#aP"/></g><g id="H"><use transform="matrix(0.05751028806584363,0,0,0.05751028806584363,0,0)" xlink:href="#P"/><use transform="matrix(0.05751028806584363,0,0,0.05751028806584363,12.077160493827162,0)" xlink:href="#P"/><use transform="matrix(0.05751028806584363,0,0,0.05751028806584363,24.154320987654323,0)" xlink:href="#aa"/><use transform="matrix(0.05751028806584363,0,0,0.05751028806584363,34.50617283950618,0)" xlink:href="#am"/><use transform="matrix(0.05751028806584363,0,0,0.05751028806584363,41.34989711934157,0)" xlink:href="#ak"/><use transform="matrix(0.05751028806584363,0,0,0.05751028806584363,52.85195473251029,0)" xlink:href="#X"/><use transform="matrix(0.05751028806584363,0,0,0.05751028806584363,64.35401234567902,0)" xlink:href="#S"/><use transform="matrix(0.05751028806584363,0,0,0.05751028806584363,70.10504115226338,0)" xlink:href="#ak"/><use transform="matrix(0.05751028806584363,0,0,0.05751028806584363,81.60709876543211,0)" xlink:href="#ao"/><use transform="matrix(0.05751028806584363,0,0,0.05751028806584363,91.95895061728396,0)" xlink:href="#V"/><use transform="matrix(0.05751028806584363,0,0,0.05751028806584363,104.03611111111113,0)" xlink:href="#V"/></g><path d="M233-177c-1 41-23 64-60 70L243 0h-38l-65-103H63V0H30v-248c88 3 205-21 203 71zM63-129c60-2 137 13 137-47 0-61-80-42-137-45v92" id="aY"/><g id="I"><use transform="matrix(0.05751028806584363,0,0,0.05751028806584363,0,0)" xlink:href="#P"/><use transform="matrix(0.05751028806584363,0,0,0.05751028806584363,12.077160493827162,0)" xlink:href="#P"/><use transform="matrix(0.05751028806584363,0,0,0.05751028806584363,24.154320987654323,0)" xlink:href="#aY"/><use transform="matrix(0.05751028806584363,0,0,0.05751028806584363,39.049485596707825,0)" xlink:href="#ak"/><use transform="matrix(0.05751028806584363,0,0,0.05751028806584363,50.55154320987655,0)" xlink:href="#ap"/><use transform="matrix(0.05751028806584363,0,0,0.05751028806584363,62.05360082304527,0)" xlink:href="#ab"/><use transform="matrix(0.05751028806584363,0,0,0.05751028806584363,73.555658436214,0)" xlink:href="#ao"/><use transform="matrix(0.05751028806584363,0,0,0.05751028806584363,83.90751028806585,0)" xlink:href="#T"/><use transform="matrix(0.05751028806584363,0,0,0.05751028806584363,88.4508230452675,0)" xlink:href="#S"/><use transform="matrix(0.05751028806584363,0,0,0.05751028806584363,94.20185185185186,0)" xlink:href="#ab"/><use transform="matrix(0.05751028806584363,0,0,0.05751028806584363,105.70390946502059,0)" xlink:href="#am"/><use transform="matrix(0.05751028806584363,0,0,0.05751028806584363,112.54763374485597,0)" xlink:href="#U"/><use transform="matrix(0.05751028806584363,0,0,0.05751028806584363,122.8994855967078,0)" xlink:href="#V"/><use transform="matrix(0.05751028806584363,0,0,0.05751028806584363,134.97664609053498,0)" xlink:href="#V"/></g><g id="J"><use transform="matrix(0.05751028806584363,0,0,0.05751028806584363,0,0)" xlink:href="#W"/><use transform="matrix(0.05751028806584363,0,0,0.05751028806584363,13.802469135802472,0)" xlink:href="#X"/><use transform="matrix(0.05751028806584363,0,0,0.05751028806584363,25.3045267489712,0)" xlink:href="#R"/><use transform="matrix(0.05751028806584363,0,0,0.05751028806584363,36.80658436213992,0)" xlink:href="#Y"/><use transform="matrix(0.05751028806584363,0,0,0.05751028806584363,47.15843621399178,0)" xlink:href="#Z"/><use transform="matrix(0.05751028806584363,0,0,0.05751028806584363,60.960905349794245,0)" xlink:href="#aa"/><use transform="matrix(0.05751028806584363,0,0,0.05751028806584363,71.3127572016461,0)" xlink:href="#aa"/><use transform="matrix(0.05751028806584363,0,0,0.05751028806584363,81.66460905349794,0)" xlink:href="#ab"/><use transform="matrix(0.05751028806584363,0,0,0.05751028806584363,93.16666666666667,0)" xlink:href="#ac"/><use transform="matrix(0.05751028806584363,0,0,0.05751028806584363,104.6687242798354,0)" xlink:href="#R"/><use transform="matrix(0.05751028806584363,0,0,0.05751028806584363,116.17078189300413,0)" xlink:href="#S"/><use transform="matrix(0.05751028806584363,0,0,0.05751028806584363,121.92181069958849,0)" xlink:href="#aY"/><use transform="matrix(0.05751028806584363,0,0,0.05751028806584363,136.816975308642,0)" xlink:href="#ak"/><use transform="matrix(0.05751028806584363,0,0,0.05751028806584363,148.3190329218107,0)" xlink:href="#ap"/><use transform="matrix(0.05751028806584363,0,0,0.05751028806584363,159.82109053497942,0)" xlink:href="#ab"/><use transform="matrix(0.05751028806584363,0,0,0.05751028806584363,171.32314814814814,0)" xlink:href="#ao"/><use transform="matrix(0.05751028806584363,0,0,0.05751028806584363,181.67499999999998,0)" xlink:href="#T"/><use transform="matrix(0.05751028806584363,0,0,0.05751028806584363,186.21831275720163,0)" xlink:href="#S"/><use transform="matrix(0.05751028806584363,0,0,0.05751028806584363,191.969341563786,0)" xlink:href="#ab"/><use transform="matrix(0.05751028806584363,0,0,0.05751028806584363,203.47139917695472,0)" xlink:href="#am"/><use transform="matrix(0.05751028806584363,0,0,0.05751028806584363,210.3151234567901,0)" xlink:href="#U"/></g><path fill="#131300" d="M108 0H70L1-190h34L89-25l56-165h34" id="aZ"/><g id="K"><use transform="matrix(0.05925925925925927,0,0,0.05925925925925927,0,0)" xlink:href="#aR"/><use transform="matrix(0.05925925925925927,0,0,0.05925925925925927,10.666666666666668,0)" xlink:href="#aF"/><use transform="matrix(0.05925925925925927,0,0,0.05925925925925927,22.51851851851852,0)" xlink:href="#aZ"/><use transform="matrix(0.05925925925925927,0,0,0.05925925925925927,33.18518518518519,0)" xlink:href="#aE"/><use transform="matrix(0.05925925925925927,0,0,0.05925925925925927,45.037037037037045,0)" xlink:href="#aN"/><use transform="matrix(0.05925925925925927,0,0,0.05925925925925927,52.088888888888896,0)" xlink:href="#aF"/><use transform="matrix(0.05925925925925927,0,0,0.05925925925925927,63.94074074074075,0)" xlink:href="#aC"/><use transform="matrix(0.05925925925925927,0,0,0.05925925925925927,74.60740740740742,0)" xlink:href="#aC"/><use transform="matrix(0.05925925925925927,0,0,0.05925925925925927,85.2740740740741,0)" xlink:href="#aL"/><use transform="matrix(0.05925925925925927,0,0,0.05925925925925927,97.12592592592594,0)" xlink:href="#aM"/><use transform="matrix(0.05925925925925927,0,0,0.05925925925925927,108.97777777777779,0)" xlink:href="#aI"/><use transform="matrix(0.05925925925925927,0,0,0.05925925925925927,120.82962962962964,0)" xlink:href="#aG"/><use transform="matrix(0.05925925925925927,0,0,0.05925925925925927,126.75555555555555,0)" xlink:href="#aO"/></g><path fill="#131300" d="M179-190L93 31C79 59 56 82 12 73V49c39 6 53-20 64-50L1-190h34L92-34l54-156h33" id="ba"/><path fill="#131300" d="M33 0v-248h34V0H33" id="bb"/><g id="L"><use transform="matrix(0.05925925925925927,0,0,0.05925925925925927,0,0)" xlink:href="#aB"/><use transform="matrix(0.05925925925925927,0,0,0.05925925925925927,12.444444444444446,0)" xlink:href="#aT"/><use transform="matrix(0.05925925925925927,0,0,0.05925925925925927,18.370370370370374,0)" xlink:href="#aU"/><use transform="matrix(0.05925925925925927,0,0,0.05925925925925927,23.051851851851858,0)" xlink:href="#aI"/><use transform="matrix(0.05925925925925927,0,0,0.05925925925925927,34.90370370370371,0)" xlink:href="#aV"/><use transform="matrix(0.05925925925925927,0,0,0.05925925925925927,46.75555555555557,0)" xlink:href="#aH"/><use transform="matrix(0.05925925925925927,0,0,0.05925925925925927,60.97777777777779,0)" xlink:href="#ba"/><use transform="matrix(0.05925925925925927,0,0,0.05925925925925927,71.64444444444446,0)" xlink:href="#bb"/><use transform="matrix(0.05925925925925927,0,0,0.05925925925925927,77.57037037037038,0)" xlink:href="#aV"/><use transform="matrix(0.05925925925925927,0,0,0.05925925925925927,89.42222222222223,0)" xlink:href="#aN"/><use transform="matrix(0.05925925925925927,0,0,0.05925925925925927,96.47407407407408,0)" xlink:href="#aU"/><use transform="matrix(0.05925925925925927,0,0,0.05925925925925927,101.15555555555557,0)" xlink:href="#aV"/><use transform="matrix(0.05925925925925927,0,0,0.05925925925925927,113.00740740740741,0)" xlink:href="#aO"/></g><g id="M"><use transform="matrix(0.05925925925925927,0,0,0.05925925925925927,0,0)" xlink:href="#aB"/><use transform="matrix(0.05925925925925927,0,0,0.05925925925925927,12.444444444444446,0)" xlink:href="#aT"/><use transform="matrix(0.05925925925925927,0,0,0.05925925925925927,18.370370370370374,0)" xlink:href="#aU"/><use transform="matrix(0.05925925925925927,0,0,0.05925925925925927,23.051851851851858,0)" xlink:href="#aI"/><use transform="matrix(0.05925925925925927,0,0,0.05925925925925927,34.90370370370371,0)" xlink:href="#aV"/><use transform="matrix(0.05925925925925927,0,0,0.05925925925925927,46.75555555555557,0)" xlink:href="#aK"/><use transform="matrix(0.05925925925925927,0,0,0.05925925925925927,60.97777777777779,0)" xlink:href="#aX"/><use transform="matrix(0.05925925925925927,0,0,0.05925925925925927,65.65925925925927,0)" xlink:href="#aX"/><use transform="matrix(0.05925925925925927,0,0,0.05925925925925927,70.34074074074076,0)" xlink:href="#aN"/><use transform="matrix(0.05925925925925927,0,0,0.05925925925925927,77.3925925925926,0)" xlink:href="#aP"/><use transform="matrix(0.05925925925925927,0,0,0.05925925925925927,84.44444444444446,0)" xlink:href="#aO"/></g><g id="N"><use transform="matrix(0.05925925925925927,0,0,0.05925925925925927,0,0)" xlink:href="#aH"/><use transform="matrix(0.05925925925925927,0,0,0.05925925925925927,14.222222222222225,0)" xlink:href="#aF"/><use transform="matrix(0.05925925925925927,0,0,0.05925925925925927,26.074074074074076,0)" xlink:href="#aI"/><use transform="matrix(0.05925925925925927,0,0,0.05925925925925927,37.92592592592593,0)" xlink:href="#aJ"/><use transform="matrix(0.05925925925925927,0,0,0.05925925925925927,48.592592592592595,0)" xlink:href="#aK"/><use transform="matrix(0.05925925925925927,0,0,0.05925925925925927,62.814814814814824,0)" xlink:href="#aC"/><use transform="matrix(0.05925925925925927,0,0,0.05925925925925927,73.4814814814815,0)" xlink:href="#aC"/><use transform="matrix(0.05925925925925927,0,0,0.05925925925925927,84.14814814814817,0)" xlink:href="#aL"/><use transform="matrix(0.05925925925925927,0,0,0.05925925925925927,96.00000000000001,0)" xlink:href="#aM"/><use transform="matrix(0.05925925925925927,0,0,0.05925925925925927,107.85185185185186,0)" xlink:href="#aI"/><use transform="matrix(0.05925925925925927,0,0,0.05925925925925927,119.70370370370371,0)" xlink:href="#aG"/></g><g id="O"><use transform="matrix(0.05751028806584363,0,0,0.05751028806584363,0,0)" xlink:href="#P"/><use transform="matrix(0.05751028806584363,0,0,0.05751028806584363,12.077160493827162,0)" xlink:href="#P"/><use transform="matrix(0.05751028806584363,0,0,0.05751028806584363,24.154320987654323,0)" xlink:href="#ap"/><use transform="matrix(0.05751028806584363,0,0,0.05751028806584363,35.65637860082305,0)" xlink:href="#ak"/><use transform="matrix(0.05751028806584363,0,0,0.05751028806584363,47.15843621399177,0)" xlink:href="#am"/><use transform="matrix(0.05751028806584363,0,0,0.05751028806584363,54.00216049382716,0)" xlink:href="#ao"/><use transform="matrix(0.05751028806584363,0,0,0.05751028806584363,64.35401234567901,0)" xlink:href="#T"/><use transform="matrix(0.05751028806584363,0,0,0.05751028806584363,68.89732510288066,0)" xlink:href="#ao"/><use transform="matrix(0.05751028806584363,0,0,0.05751028806584363,79.2491769547325,0)" xlink:href="#S"/><use transform="matrix(0.05751028806584363,0,0,0.05751028806584363,85.00020576131686,0)" xlink:href="#ao"/><use transform="matrix(0.05751028806584363,0,0,0.05751028806584363,95.35205761316871,0)" xlink:href="#V"/><use transform="matrix(0.05751028806584363,0,0,0.05751028806584363,107.42921810699588,0)" xlink:href="#V"/></g></defs></g></svg>