<svg xmlns="http://www.w3.org/2000/svg" xmlns:xlink="http://www.w3.org/1999/xlink" xmlns:lucid="lucid" width="3562" height="4423.5"><g transform="translate(3782 2441.5)" lucid:page-tab-id="0_0"><path d="M-4000-2500H0v4500h-4000z" fill="#fff"/><path d="M-3700-480h700v380h-700z" stroke="#5e5e5e" stroke-width="3" fill="#fff"/><path d="M-3010-470h-15v20h15z" stroke="#5e5e5e" fill="#fff"/><path d="M-3020-466.67h-10v3.34h10zm0 10h-10v3.34h10z" stroke="#5e5e5e" fill="#fff"/><use xlink:href="#a" transform="matrix(1,0,0,1,-3700,-480) translate(226.64080246913582 119.88888888888889)"/><use xlink:href="#b" transform="matrix(1,0,0,1,-3700,-480) translate(350.005 157.2222222222222)"/><use xlink:href="#c" transform="matrix(1,0,0,1,-3700,-480) translate(193.7148765432099 194.55555555555551)"/><use xlink:href="#b" transform="matrix(1,0,0,1,-3700,-480) translate(350.005 231.88888888888883)"/><use xlink:href="#d" transform="matrix(1,0,0,1,-3700,-480) translate(266.22104938271605 269.2222222222222)"/><path d="M-3350-480v-36m0-144c38.66 0 70 32.24 70 72s-31.34 72-70 72-70-32.24-70-72 31.34-72 70-72z" stroke="#5e5e5e" stroke-width="3" fill="#fff"/><path d="M-3352.8-480v-36h5.6v36zM-3280-614a6 6 0 0 1 6-6h288a6 6 0 0 1 6 6v48a6 6 0 0 1-6 6h-288a6 6 0 0 1-6-6z" fill="none"/><use xlink:href="#e" transform="matrix(1,0,0,1,-3280,-620) translate(29.444444444444457 36.22222222222222)"/><use xlink:href="#f" transform="matrix(1,0,0,1,-3280,-620) translate(129.60493827160494 36.22222222222222)"/><use xlink:href="#g" transform="matrix(1,0,0,1,-3280,-620) translate(220.4320987654321 36.22222222222222)"/><g fill="none"><path d="M-3590-70v-30m-70 90c0-33.14 31.34-60 70-60s70 26.86 70 60" stroke="#5e5e5e" stroke-width="3"/><path d="M-3660-10c0-33.14 31.34-60 70-60s70 26.86 70 60z"/><path d="M-3590-70a2.8 2.8 0 0 1-2.8-2.8v-24.4a2.8 2.8 0 0 1 2.8-2.8 2.8 2.8 0 0 1 2.8 2.8v24.4a2.8 2.8 0 0 1-2.8 2.8z"/></g><path d="M-2630-480h700v380h-700z" stroke="#5e5e5e" stroke-width="3" fill="#fff"/><path d="M-1940-470h-15v20h15z" stroke="#5e5e5e" fill="#fff"/><path d="M-1950-466.67h-10v3.34h10zm0 10h-10v3.34h10z" stroke="#5e5e5e" fill="#fff"/><use xlink:href="#a" transform="matrix(1,0,0,1,-2630,-480) translate(226.64080246913582 119.88888888888889)"/><use xlink:href="#b" transform="matrix(1,0,0,1,-2630,-480) translate(350.005 157.2222222222222)"/><use xlink:href="#h" transform="matrix(1,0,0,1,-2630,-480) translate(178.8074691358025 194.55555555555551)"/><use xlink:href="#b" transform="matrix(1,0,0,1,-2630,-480) translate(350.005 231.88888888888883)"/><use xlink:href="#d" transform="matrix(1,0,0,1,-2630,-480) translate(266.22104938271605 269.2222222222222)"/><path d="M-2280-480v-36m0-144c38.66 0 70 32.24 70 72s-31.34 72-70 72-70-32.24-70-72 31.34-72 70-72z" stroke="#5e5e5e" stroke-width="3" fill="#fff"/><path d="M-2282.8-480v-36h5.6v36zM-2210-614a6 6 0 0 1 6-6h288a6 6 0 0 1 6 6v48a6 6 0 0 1-6 6h-288a6 6 0 0 1-6-6z" fill="none"/><use xlink:href="#e" transform="matrix(1,0,0,1,-2210,-620) translate(29.444444444444457 36.22222222222222)"/><use xlink:href="#f" transform="matrix(1,0,0,1,-2210,-620) translate(129.60493827160494 36.22222222222222)"/><use xlink:href="#g" transform="matrix(1,0,0,1,-2210,-620) translate(220.4320987654321 36.22222222222222)"/><path d="M-2630 700h700v380h-700z" stroke="#5e5e5e" stroke-width="3" fill="#fff"/><path d="M-1940 710h-15v20h15z" stroke="#5e5e5e" fill="#fff"/><path d="M-1950 713.33h-10v3.34h10zm0 10h-10v3.34h10z" stroke="#5e5e5e" fill="#fff"/><use xlink:href="#a" transform="matrix(1,0,0,1,-2630,700) translate(226.64080246913582 119.88888888888889)"/><use xlink:href="#b" transform="matrix(1,0,0,1,-2630,700) translate(350.005 157.2222222222222)"/><use xlink:href="#i" transform="matrix(1,0,0,1,-2630,700) translate(167.74574074074079 194.55555555555551)"/><use xlink:href="#b" transform="matrix(1,0,0,1,-2630,700) translate(350.005 231.88888888888883)"/><use xlink:href="#j" transform="matrix(1,0,0,1,-2630,700) translate(267.94944444444445 269.2222222222222)"/><path d="M-2280 700v-36m0-144c38.66 0 70 32.24 70 72s-31.34 72-70 72-70-32.24-70-72 31.34-72 70-72z" stroke="#5e5e5e" stroke-width="3" fill="#fff"/><path d="M-2282.8 700v-36h5.6v36zM-2210 566a6 6 0 0 1 6-6h288a6 6 0 0 1 6 6v48a6 6 0 0 1-6 6h-288a6 6 0 0 1-6-6z" fill="none"/><use xlink:href="#e" transform="matrix(1,0,0,1,-2210,560) translate(29.444444444444457 36.22222222222222)"/><use xlink:href="#f" transform="matrix(1,0,0,1,-2210,560) translate(129.60493827160494 36.22222222222222)"/><use xlink:href="#g" transform="matrix(1,0,0,1,-2210,560) translate(220.4320987654321 36.22222222222222)"/><path d="M-1540-480h700v380h-700z" stroke="#5e5e5e" stroke-width="3" fill="#fff"/><path d="M-850-470h-15v20h15z" stroke="#5e5e5e" fill="#fff"/><path d="M-860-466.67h-10v3.34h10zm0 10h-10v3.34h10z" stroke="#5e5e5e" fill="#fff"/><use xlink:href="#a" transform="matrix(1,0,0,1,-1540,-480) translate(226.64080246913582 119.88888888888889)"/><use xlink:href="#b" transform="matrix(1,0,0,1,-1540,-480) translate(350.005 157.2222222222222)"/><use xlink:href="#k" transform="matrix(1,0,0,1,-1540,-480) translate(171.28895061728397 194.55555555555551)"/><use xlink:href="#b" transform="matrix(1,0,0,1,-1540,-480) translate(350.005 231.88888888888883)"/><use xlink:href="#d" transform="matrix(1,0,0,1,-1540,-480) translate(266.22104938271605 269.2222222222222)"/><path d="M-1190-480v-36m0-144c38.66 0 70 32.23 70 72s-31.34 72-70 72-70-32.23-70-72 31.34-72 70-72z" stroke="#5e5e5e" stroke-width="3" fill="#fff"/><path d="M-1192.8-480v-36h5.6v36zM-1120-614a6 6 0 0 1 6-6h288a6 6 0 0 1 6 6v48a6 6 0 0 1-6 6h-288a6 6 0 0 1-6-6z" fill="none"/><use xlink:href="#e" transform="matrix(1,0,0,1,-1120,-620) translate(29.444444444444457 36.22222222222222)"/><use xlink:href="#f" transform="matrix(1,0,0,1,-1120,-620) translate(129.60493827160494 36.22222222222222)"/><use xlink:href="#g" transform="matrix(1,0,0,1,-1120,-620) translate(220.4320987654321 36.22222222222222)"/><g fill="none"><path d="M-2510-70v-30m-70 90c0-33.14 31.34-60 70-60s70 26.86 70 60" stroke="#5e5e5e" stroke-width="3"/><path d="M-2580-10c0-33.14 31.34-60 70-60s70 26.86 70 60z"/><path d="M-2510-70a2.8 2.8 0 0 1-2.8-2.8v-24.4a2.8 2.8 0 0 1 2.8-2.8 2.8 2.8 0 0 1 2.8 2.8v24.4a2.8 2.8 0 0 1-2.8 2.8z"/></g><path d="M-3180 1920c0 22.1-129.84 40-290 40s-290-17.9-290-40v-320c0-22.1 129.84-40 290-40s290 17.9 290 40z" stroke="#5e5e5e" stroke-width="4" fill="#fff"/><path d="M-3180 1600c0 22.1-129.84 40-290 40s-290-17.9-290-40" stroke="#5e5e5e" stroke-width="4" fill="none"/><use xlink:href="#l" transform="matrix(1,0,0,1,-3755,1645) translate(145.21604938271608 160.51388888888889)"/><use xlink:href="#m" transform="matrix(1,0,0,1,-3755,1645) translate(291.78395061728395 160.51388888888889)"/><g fill="none"><path d="M-2280 1110v-30m-70 90c0-33.14 31.34-60 70-60s70 26.86 70 60" stroke="#5e5e5e" stroke-width="3"/><path d="M-2350 1170c0-33.14 31.34-60 70-60s70 26.86 70 60zM-2280 1110a2.8 2.8 0 0 1-2.8-2.8v-24.4a2.8 2.8 0 0 1 2.8-2.8 2.8 2.8 0 0 1 2.8 2.8v24.4a2.8 2.8 0 0 1-2.8 2.8z"/></g><path d="M-3470 1540v-36m0-144c38.66 0 70 32.24 70 72s-31.34 72-70 72-70-32.24-70-72 31.34-72 70-72z" stroke="#5e5e5e" stroke-width="3" fill="#fff"/><path d="M-3472.8 1540v-36h5.6v36z" fill="none"/><g fill="none"><path d="M-1190-70v-30m-70 90c0-33.14 31.34-60 70-60s70 26.86 70 60" stroke="#5e5e5e" stroke-width="3"/><path d="M-1260-10c0-33.14 31.34-60 70-60s70 26.86 70 60z"/><path d="M-1190-70a2.8 2.8 0 0 1-2.8-2.8v-24.4a2.8 2.8 0 0 1 2.8-2.8 2.8 2.8 0 0 1 2.8 2.8v24.4a2.8 2.8 0 0 1-2.8 2.8z"/></g><path d="M-3400 1406a6 6 0 0 1 6-6h188a6 6 0 0 1 6 6v48a6 6 0 0 1-6 6h-188a6 6 0 0 1-6-6z" fill="none"/><use xlink:href="#n" transform="matrix(1,0,0,1,-3400,1400) translate(32.72222222222224 36.22222222222222)"/><g fill="none"><path d="M-3350-910v-30m-70 90c0-33.14 31.34-60 70-60s70 26.86 70 60" stroke="#5e5e5e" stroke-width="3"/><path d="M-3420-850c0-33.14 31.34-60 70-60s70 26.86 70 60zM-3350-910a2.8 2.8 0 0 1-2.8-2.8v-24.4a2.8 2.8 0 0 1 2.8-2.8 2.8 2.8 0 0 1 2.8 2.8v24.4a2.8 2.8 0 0 1-2.8 2.8z"/></g><path d="M-3700-1320h700v380h-700z" stroke="#5e5e5e" stroke-width="3" fill="#fff"/><path d="M-3010-1310h-15v20h15z" stroke="#5e5e5e" fill="#fff"/><path d="M-3020-1306.67h-10v3.34h10zm0 10h-10v3.34h10z" stroke="#5e5e5e" fill="#fff"/><use xlink:href="#a" transform="matrix(1,0,0,1,-3700,-1320) translate(226.64080246913582 119.88888888888889)"/><use xlink:href="#b" transform="matrix(1,0,0,1,-3700,-1320) translate(350.005 157.2222222222222)"/><use xlink:href="#o" transform="matrix(1,0,0,1,-3700,-1320) translate(212.72722222222225 194.55555555555551)"/><use xlink:href="#b" transform="matrix(1,0,0,1,-3700,-1320) translate(350.005 231.88888888888883)"/><use xlink:href="#j" transform="matrix(1,0,0,1,-3700,-1320) translate(267.94944444444445 269.2222222222222)"/><path d="M-3350-1320v-36m0-144c38.66 0 70 32.24 70 72s-31.34 72-70 72-70-32.24-70-72 31.34-72 70-72z" stroke="#5e5e5e" stroke-width="3" fill="#fff"/><path d="M-3352.8-1320v-36h5.6v36zM-3280-1454a6 6 0 0 1 6-6h288a6 6 0 0 1 6 6v48a6 6 0 0 1-6 6h-288a6 6 0 0 1-6-6z" fill="none"/><use xlink:href="#e" transform="matrix(1,0,0,1,-3280,-1460) translate(29.444444444444457 36.22222222222222)"/><use xlink:href="#f" transform="matrix(1,0,0,1,-3280,-1460) translate(129.60493827160494 36.22222222222222)"/><use xlink:href="#g" transform="matrix(1,0,0,1,-3280,-1460) translate(220.4320987654321 36.22222222222222)"/><path d="M-3350-937v30.3m0 30.32v60.6m0 30.32v60.62m0 30.3v30.3" stroke="#5e5e5e" stroke-width="3" fill="none"/><path d="M-3348.5-936.96h-3v-1.54h3z" stroke="#5e5e5e" stroke-width=".05" fill="#5e5e5e"/><path d="M-3360.18-681.66l10.18 17.2 10.18-17.2" stroke="#5e5e5e" stroke-width="3" fill="none"/><g fill="none"><path d="M-2280-70v-30m-70 90c0-33.14 31.34-60 70-60s70 26.86 70 60" stroke="#5e5e5e" stroke-width="3"/><path d="M-2350-10c0-33.14 31.34-60 70-60s70 26.86 70 60z"/><path d="M-2280-70a2.8 2.8 0 0 1-2.8-2.8v-24.4a2.8 2.8 0 0 1 2.8-2.8 2.8 2.8 0 0 1 2.8 2.8v24.4a2.8 2.8 0 0 1-2.8 2.8z"/></g><g fill="none"><path d="M-2060-70v-30m-70 90c0-33.14 31.34-60 70-60s70 26.86 70 60" stroke="#5e5e5e" stroke-width="3"/><path d="M-2130-10c0-33.14 31.34-60 70-60s70 26.86 70 60z"/><path d="M-2060-70a2.8 2.8 0 0 1-2.8-2.8v-24.4a2.8 2.8 0 0 1 2.8-2.8 2.8 2.8 0 0 1 2.8 2.8v24.4a2.8 2.8 0 0 1-2.8 2.8z"/></g><path d="M-2510-53.47v32.3m0 32.28V75.7m0 32.3v64.57m0 32.3v64.57m0 32.3V334l-.07.94-.22.9-.35.88-.5.8-.6.72-.72.6-.8.5-.88.37-.9.23-.95.07h-31.47m-31.47 0h-62.94m-31.47 0h-62.95m-31.47 0h-62.94m-31.48 0h-62.94m-31.47 0h-62.94m-31.47 0h-62.95m-31.47 0h-62.94m-31.47 0h-62.95m-31.47 0h-62.94m-31.46 0h-31.47l-.94.07-.9.22-.9.35-.8.5-.7.6-.62.72-.48.8-.36.88-.22.9-.07.95v30.6m0 30.6v61.2m0 30.62v61.2m0 30.6v61.2m0 30.62v61.2m0 30.6v61.2m0 30.62v61.2m0 30.6v61.2m0 30.6v61.22m0 30.6v61.2m0 30.6v61.22m0 30.6v30.6M-2510-53.44v-4.53M-3476.3 1338.47l10.17 17.22 10.18-17.23M-3590-53.47v32.3m0 32.28V75.7m0 32.3v64.57m0 32.3v64.57m0 32.3V334l.07.94.22.9.35.88.5.8.6.72.72.6.8.5.88.37.9.23.95.07h37.3m37.28 0h37.3l.93.07.92.22.87.35.8.5.7.6.62.72.5.8.36.88.22.9.07.95v30.6m0 30.6v61.2m0 30.62v61.2m0 30.6v61.2m0 30.62v61.2m0 30.6v61.2m0 30.62v61.2m0 30.6v61.2m0 30.6v61.22m0 30.6v61.2m0 30.6v61.22m0 30.6v30.6M-3590-53.44v-4.53" stroke="#5e5e5e" stroke-width="3" fill="none"/><path d="M-3476.3 1338.47l10.17 17.22 10.18-17.23" stroke="#5e5e5e" stroke-width="3" fill="none"/><g fill="none"><path d="M-1430-70v-30m-70 90c0-33.14 31.34-60 70-60s70 26.86 70 60" stroke="#5e5e5e" stroke-width="3"/><path d="M-1500-10c0-33.14 31.34-60 70-60s70 26.86 70 60z"/><path d="M-1430-70a2.8 2.8 0 0 1-2.8-2.8v-24.4a2.8 2.8 0 0 1 2.8-2.8 2.8 2.8 0 0 1 2.8 2.8v24.4a2.8 2.8 0 0 1-2.8 2.8z"/></g><path d="M-1430-53.47v32.3m0 32.28V75.7m0 32.3v64.57m0 32.3v64.57m0 32.3V334l-.07.94-.22.9-.35.88-.5.8-.6.72-.72.6-.8.5-.88.37-.9.23-.95.07h-30.67m-30.67 0h-61.34m-30.66 0h-61.34m-30.67 0h-61.34m-30.65 0h-61.34m-30.66 0h-61.34m-30.67 0h-61.33m-30.67 0h-61.34m-30.68 0h-61.34m-30.67 0h-61.32m-30.67 0h-61.33m-30.67 0h-61.33m-30.67 0h-61.34m-30.67 0h-61.35m-30.66 0h-61.35m-30.67 0h-61.34m-30.67 0h-61.33m-30.67 0h-61.34m-30.67 0h-61.34m-30.66 0h-61.34m-30.67 0h-61.34m-30.66 0h-61.33m-30.66 0h-30.67l-.94.07-.9.22-.9.35-.8.5-.7.6-.62.72-.48.8-.36.88-.22.9-.07.95v30.6m0 30.6v61.2m0 30.62v61.2m0 30.6v61.2m0 30.62v61.2m0 30.6v61.2m0 30.62v61.2m0 30.6v61.2m0 30.6v61.22m0 30.6v61.2m0 30.6v61.22m0 30.6v30.6M-1430-53.44v-4.53M-3476.3 1338.47l10.17 17.22 10.18-17.23" stroke="#5e5e5e" stroke-width="3" fill="none"/><path d="M-2280 1126.53v27.9m0 27.92v55.83m0 27.9V1294l-.07.94-.22.9-.35.88-.5.8-.6.72-.72.6-.8.5-.88.37-.9.23-.95.07h-30.1m-30.1 0h-60.22m-30.1 0h-60.22m-30.1 0h-60.22m-30.1 0h-60.22m-30.1 0h-60.22m-30.1 0h-60.2m-30.12 0h-60.2m-30.12 0h-60.2m-30.1 0h-60.23m-30.1 0h-60.2m-30.12 0h-60.2m-30.1 0h-60.22m-30.1 0h-30.1l-.95.07-.9.22-.9.35-.8.5-.7.6-.62.72-.48.8-.36.88-.22.9-.07.95v49.9M-2280 1126.57v-4.54" stroke="#5e5e5e" stroke-width="3" fill="none"/><path d="M-3476.3 1338.47l10.17 17.22 10.18-17.23M-2280-53.47v31.62m0 31.63v63.25m0 31.62v63.25m0 31.63v63.24m0 31.63v63.25m0 31.62v63.25m0 31.63v31.62M-2280-53.44v-4.53M-2290.18 498.34l10.18 17.2 10.18-17.2M-1190-53.47v31.02m0 31.03v62.05m0 31.03v62.05m0 31.04v31.02l-.07.94-.22.92-.35.87-.5.8-.6.7-.72.62-.8.5-.88.35-.9.22-.95.06h-29.94m-29.95 0h-59.88m-29.94 0h-59.9m-29.94 0h-59.88m-29.95 0h-59.88m-29.94 0h-59.9m-29.94 0h-59.88m-29.95 0h-59.88m-29.94 0h-59.9m-29.94 0h-59.88m-29.95 0h-59.88m-29.94 0h-59.9m-29.94 0H-2274l-.94.08-.9.22-.88.36-.8.5-.72.6-.6.72-.5.8-.37.87-.23.92-.07.94v30.9m0 30.88v61.78m0 30.9v61.77m0 30.88v30.9M-1190-53.44v-4.53" stroke="#5e5e5e" stroke-width="3" fill="none"/><path d="M-2290.18 498.34l10.18 17.2 10.18-17.2" stroke="#5e5e5e" stroke-width="3" fill="none"/><g fill="none"><path d="M-3350-70v-30m-70 90c0-33.14 31.34-60 70-60s70 26.86 70 60" stroke="#5e5e5e" stroke-width="3"/><path d="M-3420-10c0-33.14 31.34-60 70-60s70 26.86 70 60z"/><path d="M-3350-70a2.8 2.8 0 0 1-2.8-2.8v-24.4a2.8 2.8 0 0 1 2.8-2.8 2.8 2.8 0 0 1 2.8 2.8v24.4a2.8 2.8 0 0 1-2.8 2.8z"/></g><path d="M-3350-53.47v31.02m0 31.03v62.05m0 31.03v62.05m0 31.04v31.02l.07.94.22.92.35.87.5.8.6.7.72.62.8.5.88.35.9.22.95.06h29.4m29.38 0h58.78m29.38 0h58.78m29.4 0h58.77m29.38 0h58.78m29.38 0h58.78m29.4 0h58.77m29.38 0h58.78m29.38 0h58.78m29.4 0h58.77m29.38 0h58.78m29.38 0h58.78m29.4 0h29.38l.94.08.9.22.88.36.8.5.72.6.6.72.5.8.37.87.23.92.07.94v30.9m0 30.88v61.78m0 30.9v61.77m0 30.88v30.9M-3350-53.44v-4.53M-2290.18 498.34l10.18 17.2 10.18-17.2" stroke="#5e5e5e" stroke-width="3" fill="none"/><path d="M-1060 700h700v380h-700z" stroke="#5e5e5e" stroke-width="3" fill="#fff"/><path d="M-370 710h-15v20h15z" stroke="#5e5e5e" fill="#fff"/><path d="M-380 713.33h-10v3.34h10zm0 10h-10v3.34h10z" stroke="#5e5e5e" fill="#fff"/><use xlink:href="#a" transform="matrix(1,0,0,1,-1060,700) translate(226.64080246913582 119.88888888888889)"/><use xlink:href="#b" transform="matrix(1,0,0,1,-1060,700) translate(350.005 157.2222222222222)"/><use xlink:href="#p" transform="matrix(1,0,0,1,-1060,700) translate(287.8691975308642 194.55555555555551)"/><use xlink:href="#b" transform="matrix(1,0,0,1,-1060,700) translate(350.005 231.88888888888883)"/><use xlink:href="#j" transform="matrix(1,0,0,1,-1060,700) translate(267.94944444444445 269.2222222222222)"/><path d="M-850 700v-36m0-144c38.66 0 70 32.24 70 72s-31.34 72-70 72-70-32.24-70-72 31.34-72 70-72z" stroke="#5e5e5e" stroke-width="3" fill="#fff"/><path d="M-852.8 700v-36h5.6v36zM-1280 565.5a6 6 0 0 1 6-6h348a6 6 0 0 1 6 6v48a6 6 0 0 1-6 6h-348a6 6 0 0 1-6-6z" fill="none"/><use xlink:href="#q" transform="matrix(1,0,0,1,-1280,559.4885521213796) translate(20.253086419753117 36.22222222222222)"/><use xlink:href="#r" transform="matrix(1,0,0,1,-1280,559.4885521213796) translate(108.40123456790124 36.22222222222222)"/><use xlink:href="#s" transform="matrix(1,0,0,1,-1280,559.4885521213796) translate(196.54938271604937 36.22222222222222)"/><path d="M-2060-53.47v31.24m0 31.25v62.5m0 31.23V134l.07.94.22.9.35.88.5.8.6.72.72.6.8.5.88.37.9.23.95.07h30.66m30.67 0h61.32m30.67 0h61.32m30.66 0h61.33m30.66 0h61.32m30.66 0h61.33m30.67 0h61.33m30.66 0h61.33m30.65 0h61.33m30.66 0h61.33m30.66 0h61.33m30.66 0h61.33m30.66 0h61.34m30.66 0h30.66l.94.07.92.22.87.35.8.5.7.6.62.72.5.8.35.88.22.9.06.95v30.82m0 30.82v61.63m0 30.82v61.63m0 30.82v61.63m0 30.82v30.82M-2060-53.44v-4.53M-862.32 498.38l10.18 17.22 10.18-17.22" stroke="#5e5e5e" stroke-width="3" fill="none"/><g fill="none"><path d="M-3110-70v-30m-70 90c0-33.14 31.34-60 70-60s70 26.86 70 60" stroke="#5e5e5e" stroke-width="3"/><path d="M-3180-10c0-33.14 31.34-60 70-60s70 26.86 70 60z"/><path d="M-3110-70a2.8 2.8 0 0 1-2.8-2.8v-24.4a2.8 2.8 0 0 1 2.8-2.8 2.8 2.8 0 0 1 2.8 2.8v24.4a2.8 2.8 0 0 1-2.8 2.8z"/></g><path d="M-3110-53.47v31.24m0 31.25v62.5m0 31.23V134l.07.94.22.9.35.88.5.8.6.72.72.6.8.5.88.37.9.23.95.07h29.95m29.94 0h59.88m29.94 0h59.9m29.94 0h59.9m29.93 0h59.88m29.95 0h59.9m29.93 0h59.9m29.94 0h59.9m29.93 0h59.9m29.94 0h59.9m29.93 0h59.9m29.93 0h59.9m29.94 0h59.9m29.93 0h59.9m29.94 0h59.9m29.93 0h59.9m29.94 0h59.9m29.94 0h59.9m29.94 0h59.9m29.93 0h59.9m29.95 0h59.88m29.95 0h59.9m29.93 0h59.9m29.95 0h59.9m29.93 0h59.9m29.94 0h29.94l.94.07.92.22.87.35.8.5.7.6.62.72.5.8.35.88.22.9.06.95v30.82m0 30.82v61.63m0 30.82v61.63m0 30.82v61.63m0 30.82v30.82M-3110-53.44v-4.53M-862.32 498.38l10.18 17.22 10.18-17.22" stroke="#5e5e5e" stroke-width="3" fill="none"/><g fill="none"><path d="M-950-70v-30m-70 90c0-33.14 31.34-60 70-60s70 26.86 70 60" stroke="#5e5e5e" stroke-width="3"/><path d="M-1020-10c0-33.14 31.34-60 70-60s70 26.86 70 60zM-950-70a2.8 2.8 0 0 1-2.8-2.8v-24.4a2.8 2.8 0 0 1 2.8-2.8 2.8 2.8 0 0 1 2.8 2.8v24.4A2.8 2.8 0 0 1-950-70z"/></g><path d="M-950-53.47v31.24m0 31.25v62.5m0 31.23V134l.07.94.22.9.35.88.5.8.6.72.72.6.8.5.88.37.9.23.95.07h28.62m28.62 0h28.62l.94.07.92.22.87.35.8.5.7.6.62.72.5.8.35.88.22.9.06.95v30.82m0 30.82v61.63m0 30.82v61.63m0 30.82v61.63m0 30.82v30.82M-950-53.44v-4.53M-862.32 498.38l10.18 17.22 10.18-17.22" stroke="#5e5e5e" stroke-width="3" fill="none"/><g fill="none"><path d="M-710 1110v-30m-70 90c0-33.14 31.34-60 70-60s70 26.86 70 60" stroke="#5e5e5e" stroke-width="3"/><path d="M-780 1170c0-33.14 31.34-60 70-60s70 26.86 70 60zM-710 1110a2.8 2.8 0 0 1-2.8-2.8v-24.4a2.8 2.8 0 0 1 2.8-2.8 2.8 2.8 0 0 1 2.8 2.8v24.4a2.8 2.8 0 0 1-2.8 2.8z"/></g><path d="M-710 1126.53v27.9m0 27.92v55.83m0 27.9V1294l-.07.94-.22.9-.35.88-.5.8-.6.72-.72.6-.8.5-.88.37-.9.23-.95.07h-30.5m-30.48 0h-60.98m-30.5 0h-60.97m-30.5 0h-60.97m-30.5 0h-60.97m-30.5 0h-60.98m-30.5 0h-60.97m-30.5 0h-60.97m-30.48 0h-60.98m-30.5 0h-60.97m-30.5 0h-60.97m-30.5 0h-60.97m-30.5 0h-60.97m-30.5 0h-60.97m-30.5 0h-61m-30.47 0h-61m-30.48 0h-60.98m-30.5 0h-60.97m-30.5 0h-60.97m-30.5 0h-60.97m-30.5 0h-60.97m-30.5 0h-60.98m-30.5 0h-60.97m-30.5 0h-60.97m-30.5 0h-60.97m-30.48 0h-61m-30.48 0h-60.98m-30.5 0h-60.97m-30.5 0h-60.98m-30.5 0h-60.97m-30.5 0h-30.48l-.94.07-.9.22-.9.35-.8.5-.7.6-.62.72-.48.8-.36.88-.22.9-.07.95v49.9M-710 1126.57v-4.54" stroke="#5e5e5e" stroke-width="3" fill="none"/><path d="M-3476.3 1338.47l10.17 17.22 10.18-17.23" stroke="#5e5e5e" stroke-width="3" fill="none"/><g><path d="M-610 700v-36m0-144c38.66 0 70 32.24 70 72s-31.34 72-70 72-70-32.24-70-72 31.34-72 70-72z" stroke="#5e5e5e" stroke-width="3" fill="#fff"/><path d="M-612.8 700v-36h5.6v36z" fill="none"/></g><path d="M-540 565.5a6 6 0 0 1 6-6h288a6 6 0 0 1 6 6v48a6 6 0 0 1-6 6h-288a6 6 0 0 1-6-6z" fill="none"/><g><use xlink:href="#e" transform="matrix(1,0,0,1,-540,559.4885521213796) translate(29.444444444444457 36.22222222222222)"/><use xlink:href="#f" transform="matrix(1,0,0,1,-540,559.4885521213796) translate(129.60493827160494 36.22222222222222)"/><use xlink:href="#g" transform="matrix(1,0,0,1,-540,559.4885521213796) translate(220.4320987654321 36.22222222222222)"/></g><g fill="none"><path d="M-2770-2010v-30m-70 90c0-33.14 31.34-60 70-60s70 26.86 70 60"/><path d="M-2770-2010v-7.5m0-15v-7.5m-70 90l.13-3.73.3-2.64m3.07-12.37l1.3-3.13 1.77-3.55 2.08-3.5.78-1.1m8.2-9.76l2.62-2.43 3.75-3.02 3.62-2.52m11.27-5.98l3.23-1.34 5.2-1.73 3.68-.92m12.62-2.02l.53-.05 5.85-.2 5.9.2.48.06m12.6 2.02l3.73.95 5.22 1.73 3.2 1.32m11.26 5.98l3.66 2.54 3.74 3.02 2.58 2.4m8.2 9.75l.8 1.14 2.1 3.52 1.76 3.54 1.28 3.1m3.08 12.37l.3 2.67.12 3.7" stroke="#5e5e5e" stroke-width="3"/><path d="M-2840-1950c0-33.14 31.34-60 70-60s70 26.86 70 60zM-2770-2010a2.8 2.8 0 0 1-2.8-2.8v-24.4a2.8 2.8 0 0 1 2.8-2.8 2.8 2.8 0 0 1 2.8 2.8v24.4a2.8 2.8 0 0 1-2.8 2.8z"/></g><path d="M-3120-2420h700v380h-700z" fill="#fff"/><path d="M-3101.9-2420h12.07m12.07 0h12.07m12.08 0h12.07m12.07 0h12.07m12.06 0h12.06m12.07 0h12.06m12.07 0h12.07m12.07 0h12.07m12.07 0h12.08m12.06 0h12.07m12.08 0h12.07m12.07 0h12.07m12.06 0h12.07m12.07 0h12.07m12.06 0h12.07m12.07 0h12.07m12.07 0h12.08m12.07 0h12.07m12.07 0h12.06m12.06 0h12.07m12.06 0h12.07m12.07 0h12.07m12.07 0h12.07m12.08 0h12.06m12.07 0h12.08m12.07 0h12.07m12.07 0h12.06m12.07 0h12.07m12.07 0h6.03v5.94m0 11.87v11.9m0 11.86v11.88m0 11.87v11.9m0 11.86v11.88m0 11.87v11.9m0 11.86v11.88m0 11.87v11.9m0 11.86v11.88m0 11.87v11.9m0 11.86v11.88m0 11.87v11.9m0 11.86v11.88m0 11.87v11.9m0 11.86v11.88m0 11.87v11.9m0 11.86v5.94h-6.03m-12.07 0h-12.07m-12.07 0h-12.07m-12.08 0h-12.07m-12.07 0h-12.07m-12.06 0h-12.06m-12.07 0h-12.06m-12.07 0H-2595m-12.07 0h-12.07m-12.07 0h-12.08m-12.06 0h-12.07m-12.08 0h-12.07m-12.07 0h-12.07m-12.06 0h-12.07m-12.07 0h-12.07m-12.06 0h-12.07m-12.07 0h-12.07m-12.07 0h-12.08m-12.07 0h-12.07m-12.07 0h-12.06m-12.06 0h-12.07m-12.06 0h-12.07m-12.07 0h-12.07m-12.07 0h-12.07m-12.08 0h-12.06m-12.07 0h-12.08m-12.07 0h-12.07m-12.07 0h-12.06m-12.07 0h-12.07m-12.07 0h-6.03v-5.94m0-11.87v-11.9m0-11.86v-11.88m0-11.87v-11.9m0-11.86v-11.88m0-11.87v-11.9m0-11.86v-11.88m0-11.87v-11.9m0-11.86v-11.88m0-11.87v-11.9m0-11.86v-11.88m0-11.87v-11.9m0-11.86v-11.88m0-11.87v-11.9m0-11.86v-11.88m0-11.87v-11.9m0-11.86v-5.94h6.03" stroke="#5e5e5e" stroke-width="3" fill="none"/><path d="M-2430-2410h-15v20h15z" fill="#fff"/><path d="M-2445-2395v5h15v-5m0-10v-5h-15v5" stroke="#5e5e5e" fill="none"/><path d="M-2440-2406.67h-10v3.34h10zm0 10h-10v3.34h10z" fill="#fff"/><path d="M-2440-2406.67h-10v3.34h10zm0 10h-10v3.34h10z" stroke="#5e5e5e" fill="none"/><g><use xlink:href="#t" transform="matrix(1,0,0,1,-3120,-2420) translate(264.5358641975309 119.88888888888889)"/><use xlink:href="#b" transform="matrix(1,0,0,1,-3120,-2420) translate(350.005 157.2222222222222)"/><use xlink:href="#u" transform="matrix(1,0,0,1,-3120,-2420) translate(236.92475308641974 194.55555555555551)"/><use xlink:href="#v" transform="matrix(1,0,0,1,-3120,-2420) translate(359.46796296296293 194.55555555555551)"/><use xlink:href="#b" transform="matrix(1,0,0,1,-3120,-2420) translate(350.005 231.88888888888883)"/><use xlink:href="#w" transform="matrix(1,0,0,1,-3120,-2420) translate(350.005 269.2222222222222)"/></g><g fill="none"><path d="M-1770-2010v-30m-70 90c0-33.14 31.34-60 70-60s70 26.86 70 60" stroke="#5e5e5e" stroke-width="3"/><path d="M-1840-1950c0-33.14 31.34-60 70-60s70 26.86 70 60zM-1770-2010a2.8 2.8 0 0 1-2.8-2.8v-24.4a2.8 2.8 0 0 1 2.8-2.8 2.8 2.8 0 0 1 2.8 2.8v24.4a2.8 2.8 0 0 1-2.8 2.8z"/></g><path d="M-2120-2420h700v380h-700z" stroke="#5e5e5e" stroke-width="3" fill="#fff"/><path d="M-1430-2410h-15v20h15z" stroke="#5e5e5e" fill="#fff"/><path d="M-1440-2406.67h-10v3.34h10zm0 10h-10v3.34h10z" stroke="#5e5e5e" fill="#fff"/><g><use xlink:href="#x" transform="matrix(1,0,0,1,-2120,-2420) translate(301.65314814814815 119.88888888888889)"/><use xlink:href="#b" transform="matrix(1,0,0,1,-2120,-2420) translate(350.005 157.2222222222222)"/><use xlink:href="#y" transform="matrix(1,0,0,1,-2120,-2420) translate(222.10376543209878 194.55555555555551)"/><use xlink:href="#b" transform="matrix(1,0,0,1,-2120,-2420) translate(350.005 231.88888888888883)"/><use xlink:href="#z" transform="matrix(1,0,0,1,-2120,-2420) translate(184.1654938271605 269.2222222222222)"/><use xlink:href="#A" transform="matrix(1,0,0,1,-2120,-2420) translate(356.91858024691356 269.2222222222222)"/></g><path d="M-2770-1993.47v26.58m0 26.6v53.17m0 26.6v53.16m0 26.58v26.6l-.07.94-.22.9-.35.88-.5.8-.6.72-.72.6-.8.5-.88.37-.9.22-.95.08h-31.44m-31.44 0h-62.88m-31.44 0h-62.88m-31.44 0h-62.88m-31.44 0h-62.88m-31.45 0h-62.88m-31.44 0h-31.43l-.93.07-.92.22-.87.35-.8.5-.72.6-.6.72-.5.8-.36.88-.22.9-.08.95v26.45m0 26.45v52.9m0 26.45v52.9m0 26.44v26.44M-2770-1993.43v-4.54M-3358.1-1521.6l10.17 17.22 10.18-17.2M-1770-1993.47v31.4m0 31.4v62.78m0 31.4v62.8m0 31.4v62.8m0 31.38v62.8m0 31.4v62.78m0 31.4v62.8m0 31.4v31.38l-.07.94-.22.92-.35.87-.5.8-.6.72-.72.6-.8.5-.88.35-.9.22-.95.07h-32.9m-32.9 0h-65.78m-32.9 0h-65.8m-32.88 0h-65.8m-32.88 0h-65.8m-32.9 0h-32.9l-.92.08-.92.22-.87.36-.8.5-.72.6-.6.72-.5.8-.36.87-.22.9-.08.94v31.34m0 31.34v62.67m0 31.33v62.67m0 31.34v62.68m0 31.33v62.68m0 31.34v62.67m0 31.34v62.67m0 31.34v31.33M-1770-1993.43v-4.54M-2285.6-681.5l10.17 17.2 10.2-17.2" stroke="#5e5e5e" stroke-width="3" fill="none"/><path d="M-1770-1993.47v26.58m0 26.6v53.17m0 26.6v53.16m0 26.58v26.6l-.07.94-.22.9-.35.88-.5.8-.6.72-.72.6-.8.5-.88.37-.9.22-.95.08h-30.7m-30.7 0h-61.42m-30.7 0h-61.4m-30.7 0h-61.42m-30.7 0h-61.42m-30.7 0h-61.4m-30.7 0h-61.42m-30.7 0h-61.42m-30.7 0h-61.4m-30.72 0h-61.4m-30.7 0h-61.42m-30.7 0h-61.4m-30.72 0h-61.4m-30.7 0h-61.42m-30.7 0h-61.4m-30.7 0h-61.42m-30.7 0h-61.42m-30.7 0h-30.7l-.94.07-.92.22-.87.35-.8.5-.72.6-.6.72-.5.8-.36.88-.22.9-.08.95v26.45m0 26.45v52.9m0 26.45v52.9m0 26.44v26.44M-1770-1993.43v-4.54M-3358.1-1521.6l10.17 17.22 10.18-17.2M-1770-1993.47v31.4m0 31.38v62.8m0 31.4v62.78m0 31.4v62.78m0 31.4v62.78m0 31.4v62.78m0 31.4v62.77m0 31.4v31.38l.07.94.22.9.35.88.5.8.6.72.72.6.8.5.88.37.9.2.95.08h31.6m31.62 0h63.22m31.6 0h63.23m31.6 0h63.22m31.6 0h63.22m31.6 0h63.23m31.6 0h31.62l.94.07.92.22.87.36.8.5.7.6.62.72.5.8.36.88.22.9.07.95v31.33m0 31.35v62.67m0 31.33v62.67m0 31.34v62.66m0 31.34v62.67m0 31.33v62.67m0 31.34v62.67m0 31.33v31.33M-1770-1993.43v-4.54M-1199.2-681.63l10.17 17.22 10.18-17.23" stroke="#5e5e5e" stroke-width="3" fill="none"/><path d="M-1770-1993.47v31.4m0 31.4v62.78m0 31.4v62.8m0 31.4v62.8m0 31.38v62.8m0 31.4v62.78m0 31.4v62.8m0 31.4v31.38l.07.94.22.92.35.87.5.8.6.72.72.6.8.5.88.35.9.22.95.07h29.38m29.37 0h58.75m29.37 0h58.75m29.38 0h58.75m29.37 0h58.75m29.38 0h58.75m29.37 0h58.75m29.38 0h58.75m29.37 0h58.75m29.38 0h58.75m29.37 0h58.75m29.38 0h58.75m29.37 0h58.75m29.38 0h29.37l.94.08.9.22.88.36.8.5.72.6.6.72.5.8.37.87.22.9.07.94v30.63m0 30.64v61.27m0 30.64v61.27m0 30.64v61.27m0 30.63v61.27m0 30.63v61.27m0 30.63v61.27m0 30.63v61.27m0 30.63v61.27m0 30.63v61.27m0 30.63v61.27m0 30.63v61.26m0 30.64v61.26m0 30.64v61.26m0 30.64v61.26m0 30.64v61.26m0 30.63v61.26m0 30.63v61.26m0 30.63v61.26m0 30.63v61.26m0 30.63v30.62M-1770-1993.43v-4.54M-622.56 498.4l10.18 17.2 10.18-17.2M-1770-1993.47v29.84m0 29.84v59.68m0 29.84v59.68m0 29.84v59.68m0 29.84v59.68m0 29.84v59.68m0 29.84v59.67m0 29.85v59.67m0 29.83v59.68m0 29.85v59.68m0 29.84v59.68m0 29.84v59.67m0 29.84v59.7m0 29.82v59.68m0 29.84v59.68m0 29.84v59.68m0 29.84v59.68m0 29.84v59.68m0 29.83v59.7m0 29.83v59.68m0 29.85v59.68m0 29.84v59.68m0 29.84V5.76m0 29.84V95.3m0 29.84v59.68m0 29.84v59.68m0 29.84V334l-.07.94-.22.9-.35.88-.5.8-.6.72-.72.6-.8.5-.88.37-.9.23-.95.07h-27.67m-27.66 0h-55.34m-27.66 0h-55.34m-27.66 0h-55.34m-27.66 0h-55.34m-27.66 0h-55.34m-27.66 0H-2274l-.94.07-.9.22-.88.35-.8.5-.72.6-.6.72-.5.8-.37.88-.23.9-.07.95v28.3m0 28.3v56.58m0 28.3v28.3M-1770-1993.43v-4.54M-2290.18 498.34l10.18 17.2 10.18-17.2" stroke="#5e5e5e" stroke-width="3" fill="none"/><defs><path fill="#333" d="M18-100v-36l175-74v27L42-118l151 64v27" id="B"/><path fill="#333" d="M210-169c-67 3-38 105-44 169h-31v-121c0-29-5-50-35-48C34-165 62-65 56 0H25l-1-190h30c1 10-1 24 2 32 10-44 99-50 107 0 11-21 27-35 58-36 85-2 47 119 55 194h-31v-121c0-29-5-49-35-48" id="C"/><path fill="#333" d="M24-231v-30h32v30H24zM24 0v-190h32V0H24" id="D"/><path fill="#333" d="M96-169c-40 0-48 33-48 73s9 75 48 75c24 0 41-14 43-38l32 2c-6 37-31 61-74 61-59 0-76-41-82-99-10-93 101-131 147-64 4 7 5 14 7 22l-32 3c-4-21-16-35-41-35" id="E"/><path fill="#333" d="M114-163C36-179 61-72 57 0H25l-1-190h30c1 12-1 29 2 39 6-27 23-49 58-41v29" id="F"/><path fill="#333" d="M100-194c62-1 85 37 85 99 1 63-27 99-86 99S16-35 15-95c0-66 28-99 85-99zM99-20c44 1 53-31 53-75 0-43-8-75-51-75s-53 32-53 75 10 74 51 75" id="G"/><path fill="#333" d="M135-143c-3-34-86-38-87 0 15 53 115 12 119 90S17 21 10-45l28-5c4 36 97 45 98 0-10-56-113-15-118-90-4-57 82-63 122-42 12 7 21 19 24 35" id="H"/><path fill="#333" d="M100-194c63 0 86 42 84 106H49c0 40 14 67 53 68 26 1 43-12 49-29l28 8c-11 28-37 45-77 45C44 4 14-33 15-96c1-61 26-98 85-98zm52 81c6-60-76-77-97-28-3 7-6 17-6 28h103" id="I"/><path fill="#333" d="M108 0H70L1-190h34L89-25l56-165h34" id="J"/><path fill="#333" d="M18-27v-27l151-64-151-65v-27l175 74v36" id="K"/><g id="a"><use transform="matrix(0.08641975308641973,0,0,0.08641975308641973,0,0)" xlink:href="#B"/><use transform="matrix(0.08641975308641973,0,0,0.08641975308641973,18.148148148148145,0)" xlink:href="#B"/><use transform="matrix(0.08641975308641973,0,0,0.08641975308641973,36.29629629629629,0)" xlink:href="#C"/><use transform="matrix(0.08641975308641973,0,0,0.08641975308641973,62.13580246913579,0)" xlink:href="#D"/><use transform="matrix(0.08641975308641973,0,0,0.08641975308641973,68.96296296296295,0)" xlink:href="#E"/><use transform="matrix(0.08641975308641973,0,0,0.08641975308641973,84.5185185185185,0)" xlink:href="#F"/><use transform="matrix(0.08641975308641973,0,0,0.08641975308641973,94.80246913580245,0)" xlink:href="#G"/><use transform="matrix(0.08641975308641973,0,0,0.08641975308641973,112.08641975308639,0)" xlink:href="#H"/><use transform="matrix(0.08641975308641973,0,0,0.08641975308641973,127.64197530864196,0)" xlink:href="#I"/><use transform="matrix(0.08641975308641973,0,0,0.08641975308641973,144.9259259259259,0)" xlink:href="#F"/><use transform="matrix(0.08641975308641973,0,0,0.08641975308641973,155.20987654320984,0)" xlink:href="#J"/><use transform="matrix(0.08641975308641973,0,0,0.08641975308641973,170.7654320987654,0)" xlink:href="#D"/><use transform="matrix(0.08641975308641973,0,0,0.08641975308641973,177.59259259259255,0)" xlink:href="#E"/><use transform="matrix(0.08641975308641973,0,0,0.08641975308641973,193.1481481481481,0)" xlink:href="#I"/><use transform="matrix(0.08641975308641973,0,0,0.08641975308641973,210.43209876543204,0)" xlink:href="#K"/><use transform="matrix(0.08641975308641973,0,0,0.08641975308641973,228.5802469135802,0)" xlink:href="#K"/></g><path fill="#333" d="M30-248c87 1 191-15 191 75 0 78-77 80-158 76V0H30v-248zm33 125c57 0 124 11 124-50 0-59-68-47-124-48v98" id="L"/><path fill="#333" d="M84 4C-5 8 30-112 23-190h32v120c0 31 7 50 39 49 72-2 45-101 50-169h31l1 190h-30c-1-10 1-25-2-33-11 22-28 36-60 37" id="M"/><path fill="#333" d="M106-169C34-169 62-67 57 0H25v-261h32l-1 103c12-21 28-36 61-36 89 0 53 116 60 194h-32v-121c2-32-8-49-39-48" id="N"/><path fill="#333" d="M141-36C126-15 110 5 73 4 37 3 15-17 15-53c-1-64 63-63 125-63 3-35-9-54-41-54-24 1-41 7-42 31l-33-3c5-37 33-52 76-52 45 0 72 20 72 64v82c-1 20 7 32 28 27v20c-31 9-61-2-59-35zM48-53c0 20 12 33 32 33 41-3 63-29 60-74-43 2-92-5-92 41" id="O"/><path fill="#333" d="M240 0l2-218c-23 76-54 145-80 218h-23L58-218 59 0H30v-248h44l77 211c21-75 51-140 76-211h43V0h-30" id="P"/><path fill="#333" d="M117-194c89-4 53 116 60 194h-32v-121c0-31-8-49-39-48C34-167 62-67 57 0H25l-1-190h30c1 10-1 24 2 32 11-22 29-35 61-36" id="Q"/><path fill="#333" d="M177-190C167-65 218 103 67 71c-23-6-38-20-44-43l32-5c15 47 100 32 89-28v-30C133-14 115 1 83 1 29 1 15-40 15-95c0-56 16-97 71-98 29-1 48 16 59 35 1-10 0-23 2-32h30zM94-22c36 0 50-32 50-73 0-42-14-75-50-75-39 0-46 34-46 75s6 73 46 73" id="R"/><path fill="#333" d="M59-47c-2 24 18 29 38 22v24C64 9 27 4 27-40v-127H5v-23h24l9-43h21v43h35v23H59v120" id="S"/><g id="c"><use transform="matrix(0.08641975308641973,0,0,0.08641975308641973,0,0)" xlink:href="#L"/><use transform="matrix(0.08641975308641973,0,0,0.08641975308641973,20.740740740740737,0)" xlink:href="#M"/><use transform="matrix(0.08641975308641973,0,0,0.08641975308641973,38.02469135802468,0)" xlink:href="#F"/><use transform="matrix(0.08641975308641973,0,0,0.08641975308641973,48.30864197530863,0)" xlink:href="#E"/><use transform="matrix(0.08641975308641973,0,0,0.08641975308641973,63.86419753086418,0)" xlink:href="#N"/><use transform="matrix(0.08641975308641973,0,0,0.08641975308641973,81.14814814814812,0)" xlink:href="#O"/><use transform="matrix(0.08641975308641973,0,0,0.08641975308641973,98.43209876543207,0)" xlink:href="#H"/><use transform="matrix(0.08641975308641973,0,0,0.08641975308641973,113.98765432098763,0)" xlink:href="#I"/><use transform="matrix(0.08641975308641973,0,0,0.08641975308641973,131.27160493827157,0)" xlink:href="#P"/><use transform="matrix(0.08641975308641973,0,0,0.08641975308641973,157.11111111111106,0)" xlink:href="#O"/><use transform="matrix(0.08641975308641973,0,0,0.08641975308641973,174.395061728395,0)" xlink:href="#Q"/><use transform="matrix(0.08641975308641973,0,0,0.08641975308641973,191.67901234567898,0)" xlink:href="#O"/><use transform="matrix(0.08641975308641973,0,0,0.08641975308641973,208.9629629629629,0)" xlink:href="#R"/><use transform="matrix(0.08641975308641973,0,0,0.08641975308641973,226.24691358024685,0)" xlink:href="#I"/><use transform="matrix(0.08641975308641973,0,0,0.08641975308641973,243.5308641975308,0)" xlink:href="#C"/><use transform="matrix(0.08641975308641973,0,0,0.08641975308641973,269.3703703703703,0)" xlink:href="#I"/><use transform="matrix(0.08641975308641973,0,0,0.08641975308641973,286.6543209876543,0)" xlink:href="#Q"/><use transform="matrix(0.08641975308641973,0,0,0.08641975308641973,303.9382716049382,0)" xlink:href="#S"/></g><path fill="#333" d="M26 75v-336h71v23H56V52h41v23H26" id="T"/><path fill="#333" d="M30 0v-248h33v221h125V0H30" id="U"/><path fill="#333" d="M3 75V52h41v-290H3v-23h71V75H3" id="V"/><g id="d"><use transform="matrix(0.08641975308641973,0,0,0.08641975308641973,0,0)" xlink:href="#T"/><use transform="matrix(0.08641975308641973,0,0,0.08641975308641973,8.641975308641973,0)" xlink:href="#U"/><use transform="matrix(0.08641975308641973,0,0,0.08641975308641973,25.925925925925917,0)" xlink:href="#O"/><use transform="matrix(0.08641975308641973,0,0,0.08641975308641973,43.20987654320986,0)" xlink:href="#E"/><use transform="matrix(0.08641975308641973,0,0,0.08641975308641973,58.76543209876541,0)" xlink:href="#N"/><use transform="matrix(0.08641975308641973,0,0,0.08641975308641973,76.04938271604935,0)" xlink:href="#I"/><use transform="matrix(0.08641975308641973,0,0,0.08641975308641973,93.3333333333333,0)" xlink:href="#Q"/><use transform="matrix(0.08641975308641973,0,0,0.08641975308641973,110.61728395061724,0)" xlink:href="#D"/><use transform="matrix(0.08641975308641973,0,0,0.08641975308641973,117.44444444444441,0)" xlink:href="#E"/><use transform="matrix(0.08641975308641973,0,0,0.08641975308641973,132.99999999999997,0)" xlink:href="#N"/><use transform="matrix(0.08641975308641973,0,0,0.08641975308641973,150.28395061728392,0)" xlink:href="#S"/><use transform="matrix(0.08641975308641973,0,0,0.08641975308641973,158.9259259259259,0)" xlink:href="#V"/></g><path fill="#333" d="M153-248C145-148 188 4 80 4 36 3 13-21 6-62l32-5c4 25 16 42 43 43 27 0 39-20 39-49v-147H72v-28h81" id="W"/><path fill="#333" d="M179-190L93 31C79 59 56 82 12 73V49c39 6 53-20 64-50L1-190h34L92-34l54-156h33" id="X"/><g id="e"><use transform="matrix(0.08641975308641973,0,0,0.08641975308641973,0,0)" xlink:href="#W"/><use transform="matrix(0.08641975308641973,0,0,0.08641975308641973,15.555555555555552,0)" xlink:href="#I"/><use transform="matrix(0.08641975308641973,0,0,0.08641975308641973,32.8395061728395,0)" xlink:href="#F"/><use transform="matrix(0.08641975308641973,0,0,0.08641975308641973,43.12345679012345,0)" xlink:href="#H"/><use transform="matrix(0.08641975308641973,0,0,0.08641975308641973,58.679012345679,0)" xlink:href="#I"/><use transform="matrix(0.08641975308641973,0,0,0.08641975308641973,75.96296296296295,0)" xlink:href="#X"/></g><path fill="#333" d="M233-177c-1 41-23 64-60 70L243 0h-38l-65-103H63V0H30v-248c88 3 205-21 203 71zM63-129c60-2 137 13 137-47 0-61-80-42-137-45v92" id="Y"/><path fill="#333" d="M30 0v-248h187v28H63v79h144v27H63v87h162V0H30" id="Z"/><path fill="#333" d="M185-189c-5-48-123-54-124 2 14 75 158 14 163 119 3 78-121 87-175 55-17-10-28-26-33-46l33-7c5 56 141 63 141-1 0-78-155-14-162-118-5-82 145-84 179-34 5 7 8 16 11 25" id="aa"/><path fill="#333" d="M127-220V0H93v-220H8v-28h204v28h-85" id="ab"/><g id="f"><use transform="matrix(0.08641975308641973,0,0,0.08641975308641973,0,0)" xlink:href="#Y"/><use transform="matrix(0.08641975308641973,0,0,0.08641975308641973,22.38271604938271,0)" xlink:href="#Z"/><use transform="matrix(0.08641975308641973,0,0,0.08641975308641973,43.12345679012345,0)" xlink:href="#aa"/><use transform="matrix(0.08641975308641973,0,0,0.08641975308641973,63.864197530864196,0)" xlink:href="#ab"/></g><path fill="#333" d="M205 0l-28-72H64L36 0H1l101-248h38L239 0h-34zm-38-99l-47-123c-12 45-31 82-46 123h93" id="ac"/><path fill="#333" d="M33 0v-248h34V0H33" id="ad"/><g id="g"><use transform="matrix(0.08641975308641973,0,0,0.08641975308641973,0,0)" xlink:href="#ac"/><use transform="matrix(0.08641975308641973,0,0,0.08641975308641973,20.740740740740737,0)" xlink:href="#L"/><use transform="matrix(0.08641975308641973,0,0,0.08641975308641973,41.481481481481474,0)" xlink:href="#ad"/></g><g id="h"><use transform="matrix(0.08641975308641973,0,0,0.08641975308641973,0,0)" xlink:href="#ab"/><use transform="matrix(0.08641975308641973,0,0,0.08641975308641973,17.802469135802465,0)" xlink:href="#F"/><use transform="matrix(0.08641975308641973,0,0,0.08641975308641973,28.086419753086414,0)" xlink:href="#O"/><use transform="matrix(0.08641975308641973,0,0,0.08641975308641973,45.37037037037036,0)" xlink:href="#Q"/><use transform="matrix(0.08641975308641973,0,0,0.08641975308641973,62.654320987654295,0)" xlink:href="#H"/><use transform="matrix(0.08641975308641973,0,0,0.08641975308641973,78.20987654320986,0)" xlink:href="#O"/><use transform="matrix(0.08641975308641973,0,0,0.08641975308641973,95.49382716049381,0)" xlink:href="#E"/><use transform="matrix(0.08641975308641973,0,0,0.08641975308641973,111.04938271604937,0)" xlink:href="#S"/><use transform="matrix(0.08641975308641973,0,0,0.08641975308641973,119.69135802469133,0)" xlink:href="#D"/><use transform="matrix(0.08641975308641973,0,0,0.08641975308641973,126.5185185185185,0)" xlink:href="#G"/><use transform="matrix(0.08641975308641973,0,0,0.08641975308641973,143.80246913580245,0)" xlink:href="#Q"/><use transform="matrix(0.08641975308641973,0,0,0.08641975308641973,161.0864197530864,0)" xlink:href="#P"/><use transform="matrix(0.08641975308641973,0,0,0.08641975308641973,186.9259259259259,0)" xlink:href="#O"/><use transform="matrix(0.08641975308641973,0,0,0.08641975308641973,204.20987654320984,0)" xlink:href="#Q"/><use transform="matrix(0.08641975308641973,0,0,0.08641975308641973,221.49382716049377,0)" xlink:href="#O"/><use transform="matrix(0.08641975308641973,0,0,0.08641975308641973,238.77777777777771,0)" xlink:href="#R"/><use transform="matrix(0.08641975308641973,0,0,0.08641975308641973,256.06172839506166,0)" xlink:href="#I"/><use transform="matrix(0.08641975308641973,0,0,0.08641975308641973,273.3456790123456,0)" xlink:href="#C"/><use transform="matrix(0.08641975308641973,0,0,0.08641975308641973,299.1851851851851,0)" xlink:href="#I"/><use transform="matrix(0.08641975308641973,0,0,0.08641975308641973,316.46913580246905,0)" xlink:href="#Q"/><use transform="matrix(0.08641975308641973,0,0,0.08641975308641973,333.753086419753,0)" xlink:href="#S"/></g><path fill="#333" d="M160-131c35 5 61 23 61 61C221 17 115-2 30 0v-248c76 3 177-17 177 60 0 33-19 50-47 57zm-97-11c50-1 110 9 110-42 0-47-63-36-110-37v79zm0 115c55-2 124 14 124-45 0-56-70-42-124-44v89" id="ae"/><path fill="#333" d="M143 0L79-87 56-68V0H24v-261h32v163l83-92h37l-77 82L181 0h-38" id="af"/><g id="i"><use transform="matrix(0.08641975308641973,0,0,0.08641975308641973,0,0)" xlink:href="#ae"/><use transform="matrix(0.08641975308641973,0,0,0.08641975308641973,20.740740740740737,0)" xlink:href="#O"/><use transform="matrix(0.08641975308641973,0,0,0.08641975308641973,38.02469135802468,0)" xlink:href="#Q"/><use transform="matrix(0.08641975308641973,0,0,0.08641975308641973,55.30864197530863,0)" xlink:href="#af"/><use transform="matrix(0.08641975308641973,0,0,0.08641975308641973,70.86419753086419,0)" xlink:href="#ac"/><use transform="matrix(0.08641975308641973,0,0,0.08641975308641973,91.60493827160492,0)" xlink:href="#E"/><use transform="matrix(0.08641975308641973,0,0,0.08641975308641973,107.16049382716047,0)" xlink:href="#E"/><use transform="matrix(0.08641975308641973,0,0,0.08641975308641973,122.71604938271604,0)" xlink:href="#G"/><use transform="matrix(0.08641975308641973,0,0,0.08641975308641973,139.99999999999997,0)" xlink:href="#M"/><use transform="matrix(0.08641975308641973,0,0,0.08641975308641973,157.28395061728392,0)" xlink:href="#Q"/><use transform="matrix(0.08641975308641973,0,0,0.08641975308641973,174.56790123456787,0)" xlink:href="#S"/><use transform="matrix(0.08641975308641973,0,0,0.08641975308641973,183.20987654320984,0)" xlink:href="#P"/><use transform="matrix(0.08641975308641973,0,0,0.08641975308641973,209.04938271604934,0)" xlink:href="#O"/><use transform="matrix(0.08641975308641973,0,0,0.08641975308641973,226.3333333333333,0)" xlink:href="#Q"/><use transform="matrix(0.08641975308641973,0,0,0.08641975308641973,243.61728395061724,0)" xlink:href="#O"/><use transform="matrix(0.08641975308641973,0,0,0.08641975308641973,260.90123456790116,0)" xlink:href="#R"/><use transform="matrix(0.08641975308641973,0,0,0.08641975308641973,278.1851851851851,0)" xlink:href="#I"/><use transform="matrix(0.08641975308641973,0,0,0.08641975308641973,295.46913580246905,0)" xlink:href="#C"/><use transform="matrix(0.08641975308641973,0,0,0.08641975308641973,321.30864197530855,0)" xlink:href="#I"/><use transform="matrix(0.08641975308641973,0,0,0.08641975308641973,338.5925925925925,0)" xlink:href="#Q"/><use transform="matrix(0.08641975308641973,0,0,0.08641975308641973,355.87654320987644,0)" xlink:href="#S"/></g><path fill="#333" d="M194 0L95-120 63-95V0H30v-248h33v124l119-124h40L117-140 236 0h-42" id="ag"/><path fill="#333" d="M141-36C126-15 110 5 73 4 37 3 15-17 15-53c-1-64 63-63 125-63 3-35-9-54-41-54-24 1-41 7-42 31l-33-3c5-37 33-52 76-52 45 0 72 20 72 64v82c-1 20 7 32 28 27v20c-31 9-61-2-59-35zM48-53c0 20 12 33 32 33 41-3 63-29 60-74-43 2-92-5-92 41zm70-161v-33h29v33h-29zm-69 0v-33h29v33H49" id="ah"/><g id="j"><use transform="matrix(0.08641975308641973,0,0,0.08641975308641973,0,0)" xlink:href="#T"/><use transform="matrix(0.08641975308641973,0,0,0.08641975308641973,8.641975308641973,0)" xlink:href="#ag"/><use transform="matrix(0.08641975308641973,0,0,0.08641975308641973,29.382716049382708,0)" xlink:href="#ah"/><use transform="matrix(0.08641975308641973,0,0,0.08641975308641973,46.66666666666666,0)" xlink:href="#H"/><use transform="matrix(0.08641975308641973,0,0,0.08641975308641973,62.22222222222221,0)" xlink:href="#H"/><use transform="matrix(0.08641975308641973,0,0,0.08641975308641973,77.77777777777776,0)" xlink:href="#C"/><use transform="matrix(0.08641975308641973,0,0,0.08641975308641973,103.61728395061726,0)" xlink:href="#O"/><use transform="matrix(0.08641975308641973,0,0,0.08641975308641973,120.90123456790121,0)" xlink:href="#Q"/><use transform="matrix(0.08641975308641973,0,0,0.08641975308641973,138.18518518518516,0)" xlink:href="#Q"/><use transform="matrix(0.08641975308641973,0,0,0.08641975308641973,155.4691358024691,0)" xlink:href="#V"/></g><path fill="#333" d="M143 4C61 4 22-44 18-125c-5-107 100-154 193-111 17 8 29 25 37 43l-32 9c-13-25-37-40-76-40-61 0-88 39-88 99 0 61 29 100 91 101 35 0 62-11 79-27v-45h-74v-28h105v86C228-13 192 4 143 4" id="ai"/><path fill="#333" d="M24 0v-261h32V0H24" id="aj"/><g id="k"><use transform="matrix(0.08641975308641973,0,0,0.08641975308641973,0,0)" xlink:href="#aa"/><use transform="matrix(0.08641975308641973,0,0,0.08641975308641973,20.740740740740737,0)" xlink:href="#O"/><use transform="matrix(0.08641975308641973,0,0,0.08641975308641973,38.02469135802468,0)" xlink:href="#J"/><use transform="matrix(0.08641975308641973,0,0,0.08641975308641973,53.58024691358023,0)" xlink:href="#D"/><use transform="matrix(0.08641975308641973,0,0,0.08641975308641973,60.4074074074074,0)" xlink:href="#Q"/><use transform="matrix(0.08641975308641973,0,0,0.08641975308641973,77.69135802469134,0)" xlink:href="#R"/><use transform="matrix(0.08641975308641973,0,0,0.08641975308641973,94.97530864197529,0)" xlink:href="#H"/><use transform="matrix(0.08641975308641973,0,0,0.08641975308641973,110.53086419753085,0)" xlink:href="#ai"/><use transform="matrix(0.08641975308641973,0,0,0.08641975308641973,134.72839506172838,0)" xlink:href="#G"/><use transform="matrix(0.08641975308641973,0,0,0.08641975308641973,152.01234567901233,0)" xlink:href="#O"/><use transform="matrix(0.08641975308641973,0,0,0.08641975308641973,169.29629629629628,0)" xlink:href="#aj"/><use transform="matrix(0.08641975308641973,0,0,0.08641975308641973,176.12345679012344,0)" xlink:href="#P"/><use transform="matrix(0.08641975308641973,0,0,0.08641975308641973,201.96296296296293,0)" xlink:href="#O"/><use transform="matrix(0.08641975308641973,0,0,0.08641975308641973,219.24691358024685,0)" xlink:href="#Q"/><use transform="matrix(0.08641975308641973,0,0,0.08641975308641973,236.5308641975308,0)" xlink:href="#O"/><use transform="matrix(0.08641975308641973,0,0,0.08641975308641973,253.8148148148148,0)" xlink:href="#R"/><use transform="matrix(0.08641975308641973,0,0,0.08641975308641973,271.09876543209873,0)" xlink:href="#I"/><use transform="matrix(0.08641975308641973,0,0,0.08641975308641973,288.3827160493827,0)" xlink:href="#C"/><use transform="matrix(0.08641975308641973,0,0,0.08641975308641973,314.2222222222222,0)" xlink:href="#I"/><use transform="matrix(0.08641975308641973,0,0,0.08641975308641973,331.5061728395061,0)" xlink:href="#Q"/><use transform="matrix(0.08641975308641973,0,0,0.08641975308641973,348.79012345679007,0)" xlink:href="#S"/></g><g id="l"><use transform="matrix(0.08641975308641973,0,0,0.08641975308641973,0,0)" xlink:href="#Y"/><use transform="matrix(0.08641975308641973,0,0,0.08641975308641973,22.38271604938271,0)" xlink:href="#I"/><use transform="matrix(0.08641975308641973,0,0,0.08641975308641973,39.66666666666666,0)" xlink:href="#aj"/><use transform="matrix(0.08641975308641973,0,0,0.08641975308641973,46.493827160493815,0)" xlink:href="#O"/><use transform="matrix(0.08641975308641973,0,0,0.08641975308641973,63.77777777777776,0)" xlink:href="#S"/><use transform="matrix(0.08641975308641973,0,0,0.08641975308641973,72.41975308641973,0)" xlink:href="#D"/><use transform="matrix(0.08641975308641973,0,0,0.08641975308641973,79.2469135802469,0)" xlink:href="#G"/><use transform="matrix(0.08641975308641973,0,0,0.08641975308641973,96.53086419753085,0)" xlink:href="#Q"/><use transform="matrix(0.08641975308641973,0,0,0.08641975308641973,113.8148148148148,0)" xlink:href="#O"/><use transform="matrix(0.08641975308641973,0,0,0.08641975308641973,131.09876543209873,0)" xlink:href="#aj"/></g><path fill="#333" d="M30-248c118-7 216 8 213 122C240-48 200 0 122 0H30v-248zM63-27c89 8 146-16 146-99s-60-101-146-95v194" id="ak"/><path fill="#333" d="M115-194c53 0 69 39 70 98 0 66-23 100-70 100C84 3 66-7 56-30L54 0H23l1-261h32v101c10-23 28-34 59-34zm-8 174c40 0 45-34 45-75 0-40-5-75-45-74-42 0-51 32-51 76 0 43 10 73 51 73" id="al"/><g id="m"><use transform="matrix(0.08641975308641973,0,0,0.08641975308641973,0,0)" xlink:href="#ak"/><use transform="matrix(0.08641975308641973,0,0,0.08641975308641973,22.38271604938271,0)" xlink:href="#O"/><use transform="matrix(0.08641975308641973,0,0,0.08641975308641973,39.66666666666666,0)" xlink:href="#S"/><use transform="matrix(0.08641975308641973,0,0,0.08641975308641973,48.30864197530863,0)" xlink:href="#O"/><use transform="matrix(0.08641975308641973,0,0,0.08641975308641973,65.59259259259258,0)" xlink:href="#al"/><use transform="matrix(0.08641975308641973,0,0,0.08641975308641973,82.87654320987653,0)" xlink:href="#O"/><use transform="matrix(0.08641975308641973,0,0,0.08641975308641973,100.16049382716047,0)" xlink:href="#H"/><use transform="matrix(0.08641975308641973,0,0,0.08641975308641973,115.71604938271605,0)" xlink:href="#I"/></g><path fill="#333" d="M197 0v-115H63V0H30v-248h33v105h134v-105h34V0h-34" id="am"/><g id="n"><use transform="matrix(0.08641975308641973,0,0,0.08641975308641973,0,0)" xlink:href="#am"/><use transform="matrix(0.08641975308641973,0,0,0.08641975308641973,22.38271604938271,0)" xlink:href="#D"/><use transform="matrix(0.08641975308641973,0,0,0.08641975308641973,29.20987654320987,0)" xlink:href="#al"/><use transform="matrix(0.08641975308641973,0,0,0.08641975308641973,46.493827160493815,0)" xlink:href="#I"/><use transform="matrix(0.08641975308641973,0,0,0.08641975308641973,63.77777777777776,0)" xlink:href="#F"/><use transform="matrix(0.08641975308641973,0,0,0.08641975308641973,74.0617283950617,0)" xlink:href="#Q"/><use transform="matrix(0.08641975308641973,0,0,0.08641975308641973,91.34567901234566,0)" xlink:href="#O"/><use transform="matrix(0.08641975308641973,0,0,0.08641975308641973,108.6296296296296,0)" xlink:href="#S"/><use transform="matrix(0.08641975308641973,0,0,0.08641975308641973,117.27160493827158,0)" xlink:href="#I"/></g><path fill="#333" d="M212-179c-10-28-35-45-73-45-59 0-87 40-87 99 0 60 29 101 89 101 43 0 62-24 78-52l27 14C228-24 195 4 139 4 59 4 22-46 18-125c-6-104 99-153 187-111 19 9 31 26 39 46" id="an"/><g id="o"><use transform="matrix(0.08641975308641973,0,0,0.08641975308641973,0,0)" xlink:href="#L"/><use transform="matrix(0.08641975308641973,0,0,0.08641975308641973,20.740740740740737,0)" xlink:href="#M"/><use transform="matrix(0.08641975308641973,0,0,0.08641975308641973,38.02469135802468,0)" xlink:href="#F"/><use transform="matrix(0.08641975308641973,0,0,0.08641975308641973,48.30864197530863,0)" xlink:href="#E"/><use transform="matrix(0.08641975308641973,0,0,0.08641975308641973,63.86419753086418,0)" xlink:href="#N"/><use transform="matrix(0.08641975308641973,0,0,0.08641975308641973,81.14814814814812,0)" xlink:href="#O"/><use transform="matrix(0.08641975308641973,0,0,0.08641975308641973,98.43209876543207,0)" xlink:href="#H"/><use transform="matrix(0.08641975308641973,0,0,0.08641975308641973,113.98765432098763,0)" xlink:href="#I"/><use transform="matrix(0.08641975308641973,0,0,0.08641975308641973,131.27160493827157,0)" xlink:href="#an"/><use transform="matrix(0.08641975308641973,0,0,0.08641975308641973,153.65432098765427,0)" xlink:href="#G"/><use transform="matrix(0.08641975308641973,0,0,0.08641975308641973,170.93827160493822,0)" xlink:href="#Q"/><use transform="matrix(0.08641975308641973,0,0,0.08641975308641973,188.22222222222217,0)" xlink:href="#Q"/><use transform="matrix(0.08641975308641973,0,0,0.08641975308641973,205.50617283950612,0)" xlink:href="#I"/><use transform="matrix(0.08641975308641973,0,0,0.08641975308641973,222.79012345679007,0)" xlink:href="#E"/><use transform="matrix(0.08641975308641973,0,0,0.08641975308641973,238.34567901234564,0)" xlink:href="#S"/><use transform="matrix(0.08641975308641973,0,0,0.08641975308641973,246.9876543209876,0)" xlink:href="#G"/><use transform="matrix(0.08641975308641973,0,0,0.08641975308641973,264.27160493827154,0)" xlink:href="#F"/></g><g id="p"><use transform="matrix(0.08641975308641973,0,0,0.08641975308641973,0,0)" xlink:href="#ac"/><use transform="matrix(0.08641975308641973,0,0,0.08641975308641973,20.740740740740737,0)" xlink:href="#Q"/><use transform="matrix(0.08641975308641973,0,0,0.08641975308641973,38.02469135802468,0)" xlink:href="#O"/><use transform="matrix(0.08641975308641973,0,0,0.08641975308641973,55.30864197530863,0)" xlink:href="#aj"/><use transform="matrix(0.08641975308641973,0,0,0.08641975308641973,62.13580246913579,0)" xlink:href="#X"/><use transform="matrix(0.08641975308641973,0,0,0.08641975308641973,77.69135802469134,0)" xlink:href="#S"/><use transform="matrix(0.08641975308641973,0,0,0.08641975308641973,86.33333333333331,0)" xlink:href="#D"/><use transform="matrix(0.08641975308641973,0,0,0.08641975308641973,93.16049382716048,0)" xlink:href="#E"/><use transform="matrix(0.08641975308641973,0,0,0.08641975308641973,108.71604938271605,0)" xlink:href="#H"/></g><path fill="#333" d="M101-234c-31-9-42 10-38 44h38v23H63V0H32v-167H5v-23h27c-7-52 17-82 69-68v24" id="ao"/><g id="q"><use transform="matrix(0.08641975308641973,0,0,0.08641975308641973,0,0)" xlink:href="#ag"/><use transform="matrix(0.08641975308641973,0,0,0.08641975308641973,20.740740740740737,0)" xlink:href="#O"/><use transform="matrix(0.08641975308641973,0,0,0.08641975308641973,38.02469135802468,0)" xlink:href="#ao"/><use transform="matrix(0.08641975308641973,0,0,0.08641975308641973,46.66666666666666,0)" xlink:href="#af"/><use transform="matrix(0.08641975308641973,0,0,0.08641975308641973,62.22222222222221,0)" xlink:href="#O"/></g><g id="r"><use transform="matrix(0.08641975308641973,0,0,0.08641975308641973,0,0)" xlink:href="#Z"/><use transform="matrix(0.08641975308641973,0,0,0.08641975308641973,20.740740740740737,0)" xlink:href="#J"/><use transform="matrix(0.08641975308641973,0,0,0.08641975308641973,36.29629629629629,0)" xlink:href="#I"/><use transform="matrix(0.08641975308641973,0,0,0.08641975308641973,53.58024691358023,0)" xlink:href="#Q"/><use transform="matrix(0.08641975308641973,0,0,0.08641975308641973,70.86419753086419,0)" xlink:href="#S"/></g><g id="s"><use transform="matrix(0.08641975308641973,0,0,0.08641975308641973,0,0)" xlink:href="#an"/><use transform="matrix(0.08641975308641973,0,0,0.08641975308641973,22.38271604938271,0)" xlink:href="#G"/><use transform="matrix(0.08641975308641973,0,0,0.08641975308641973,39.66666666666666,0)" xlink:href="#Q"/><use transform="matrix(0.08641975308641973,0,0,0.08641975308641973,56.950617283950606,0)" xlink:href="#H"/><use transform="matrix(0.08641975308641973,0,0,0.08641975308641973,72.50617283950616,0)" xlink:href="#M"/><use transform="matrix(0.08641975308641973,0,0,0.08641975308641973,89.7901234567901,0)" xlink:href="#C"/><use transform="matrix(0.08641975308641973,0,0,0.08641975308641973,115.62962962962962,0)" xlink:href="#I"/><use transform="matrix(0.08641975308641973,0,0,0.08641975308641973,132.91358024691357,0)" xlink:href="#F"/></g><g id="t"><use transform="matrix(0.08641975308641973,0,0,0.08641975308641973,0,0)" xlink:href="#B"/><use transform="matrix(0.08641975308641973,0,0,0.08641975308641973,18.148148148148145,0)" xlink:href="#B"/><use transform="matrix(0.08641975308641973,0,0,0.08641975308641973,36.29629629629629,0)" xlink:href="#H"/><use transform="matrix(0.08641975308641973,0,0,0.08641975308641973,51.85185185185184,0)" xlink:href="#I"/><use transform="matrix(0.08641975308641973,0,0,0.08641975308641973,69.13580246913578,0)" xlink:href="#F"/><use transform="matrix(0.08641975308641973,0,0,0.08641975308641973,79.41975308641973,0)" xlink:href="#J"/><use transform="matrix(0.08641975308641973,0,0,0.08641975308641973,94.97530864197529,0)" xlink:href="#D"/><use transform="matrix(0.08641975308641973,0,0,0.08641975308641973,101.80246913580245,0)" xlink:href="#E"/><use transform="matrix(0.08641975308641973,0,0,0.08641975308641973,117.35802469135803,0)" xlink:href="#I"/><use transform="matrix(0.08641975308641973,0,0,0.08641975308641973,134.64197530864195,0)" xlink:href="#K"/><use transform="matrix(0.08641975308641973,0,0,0.08641975308641973,152.7901234567901,0)" xlink:href="#K"/></g><path fill="#333" d="M141 0L90-78 38 0H4l68-98-65-92h35l48 74 47-74h35l-64 92 68 98h-35" id="ap"/><g id="u"><use transform="matrix(0.08641975308641973,0,0,0.08641975308641973,0,0)" xlink:href="#Z"/><use transform="matrix(0.08641975308641973,0,0,0.08641975308641973,20.740740740740737,0)" xlink:href="#ap"/><use transform="matrix(0.08641975308641973,0,0,0.08641975308641973,36.29629629629629,0)" xlink:href="#S"/><use transform="matrix(0.08641975308641973,0,0,0.08641975308641973,44.938271604938265,0)" xlink:href="#I"/><use transform="matrix(0.08641975308641973,0,0,0.08641975308641973,62.22222222222222,0)" xlink:href="#F"/><use transform="matrix(0.08641975308641973,0,0,0.08641975308641973,72.50617283950616,0)" xlink:href="#Q"/><use transform="matrix(0.08641975308641973,0,0,0.08641975308641973,89.7901234567901,0)" xlink:href="#O"/><use transform="matrix(0.08641975308641973,0,0,0.08641975308641973,107.07407407407408,0)" xlink:href="#aj"/></g><g id="v"><use transform="matrix(0.08641975308641973,0,0,0.08641975308641973,0,0)" xlink:href="#aa"/><use transform="matrix(0.08641975308641973,0,0,0.08641975308641973,20.740740740740737,0)" xlink:href="#X"/><use transform="matrix(0.08641975308641973,0,0,0.08641975308641973,36.29629629629629,0)" xlink:href="#H"/><use transform="matrix(0.08641975308641973,0,0,0.08641975308641973,51.85185185185184,0)" xlink:href="#S"/><use transform="matrix(0.08641975308641973,0,0,0.08641975308641973,60.493827160493815,0)" xlink:href="#I"/><use transform="matrix(0.08641975308641973,0,0,0.08641975308641973,77.77777777777776,0)" xlink:href="#C"/></g><g id="x"><use transform="matrix(0.08641975308641973,0,0,0.08641975308641973,0,0)" xlink:href="#B"/><use transform="matrix(0.08641975308641973,0,0,0.08641975308641973,18.148148148148145,0)" xlink:href="#B"/><use transform="matrix(0.08641975308641973,0,0,0.08641975308641973,36.29629629629629,0)" xlink:href="#M"/><use transform="matrix(0.08641975308641973,0,0,0.08641975308641973,53.58024691358023,0)" xlink:href="#D"/><use transform="matrix(0.08641975308641973,0,0,0.08641975308641973,60.4074074074074,0)" xlink:href="#K"/><use transform="matrix(0.08641975308641973,0,0,0.08641975308641973,78.55555555555554,0)" xlink:href="#K"/></g><path fill="#333" d="M232-93c-1 65-40 97-104 97C67 4 28-28 28-90v-158h33c8 89-33 224 67 224 102 0 64-133 71-224h33v155" id="aq"/><path fill="#333" d="M16-82v-28h88v28H16" id="ar"/><path fill="#333" d="M63-220v92h138v28H63V0H30v-248h175v28H63" id="as"/><g id="y"><use transform="matrix(0.08641975308641973,0,0,0.08641975308641973,0,0)" xlink:href="#aq"/><use transform="matrix(0.08641975308641973,0,0,0.08641975308641973,22.38271604938271,0)" xlink:href="#ad"/><use transform="matrix(0.08641975308641973,0,0,0.08641975308641973,31.024691358024686,0)" xlink:href="#ar"/><use transform="matrix(0.08641975308641973,0,0,0.08641975308641973,41.30864197530863,0)" xlink:href="#as"/><use transform="matrix(0.08641975308641973,0,0,0.08641975308641973,60.234567901234556,0)" xlink:href="#D"/><use transform="matrix(0.08641975308641973,0,0,0.08641975308641973,67.06172839506172,0)" xlink:href="#Q"/><use transform="matrix(0.08641975308641973,0,0,0.08641975308641973,84.34567901234567,0)" xlink:href="#O"/><use transform="matrix(0.08641975308641973,0,0,0.08641975308641973,101.62962962962963,0)" xlink:href="#Q"/><use transform="matrix(0.08641975308641973,0,0,0.08641975308641973,118.91358024691357,0)" xlink:href="#E"/><use transform="matrix(0.08641975308641973,0,0,0.08641975308641973,134.4691358024691,0)" xlink:href="#I"/><use transform="matrix(0.08641975308641973,0,0,0.08641975308641973,151.75308641975306,0)" xlink:href="#ab"/><use transform="matrix(0.08641975308641973,0,0,0.08641975308641973,169.55555555555551,0)" xlink:href="#F"/><use transform="matrix(0.08641975308641973,0,0,0.08641975308641973,179.83950617283946,0)" xlink:href="#O"/><use transform="matrix(0.08641975308641973,0,0,0.08641975308641973,197.1234567901234,0)" xlink:href="#E"/><use transform="matrix(0.08641975308641973,0,0,0.08641975308641973,212.67901234567896,0)" xlink:href="#af"/><use transform="matrix(0.08641975308641973,0,0,0.08641975308641973,228.23456790123447,0)" xlink:href="#I"/><use transform="matrix(0.08641975308641973,0,0,0.08641975308641973,245.51851851851848,0)" xlink:href="#F"/></g><path fill="#333" d="M68-38c1 34 0 65-14 84H32c9-13 17-26 17-46H33v-38h35" id="at"/><g id="z"><use transform="matrix(0.08641975308641973,0,0,0.08641975308641973,0,0)" xlink:href="#T"/><use transform="matrix(0.08641975308641973,0,0,0.08641975308641973,8.641975308641973,0)" xlink:href="#ag"/><use transform="matrix(0.08641975308641973,0,0,0.08641975308641973,29.382716049382708,0)" xlink:href="#ah"/><use transform="matrix(0.08641975308641973,0,0,0.08641975308641973,46.66666666666666,0)" xlink:href="#H"/><use transform="matrix(0.08641975308641973,0,0,0.08641975308641973,62.22222222222221,0)" xlink:href="#H"/><use transform="matrix(0.08641975308641973,0,0,0.08641975308641973,77.77777777777776,0)" xlink:href="#C"/><use transform="matrix(0.08641975308641973,0,0,0.08641975308641973,103.61728395061726,0)" xlink:href="#O"/><use transform="matrix(0.08641975308641973,0,0,0.08641975308641973,120.90123456790121,0)" xlink:href="#Q"/><use transform="matrix(0.08641975308641973,0,0,0.08641975308641973,138.18518518518516,0)" xlink:href="#Q"/><use transform="matrix(0.08641975308641973,0,0,0.08641975308641973,155.4691358024691,0)" xlink:href="#at"/></g><g id="A"><use transform="matrix(0.08641975308641973,0,0,0.08641975308641973,0,0)" xlink:href="#U"/><use transform="matrix(0.08641975308641973,0,0,0.08641975308641973,17.283950617283946,0)" xlink:href="#O"/><use transform="matrix(0.08641975308641973,0,0,0.08641975308641973,34.56790123456789,0)" xlink:href="#E"/><use transform="matrix(0.08641975308641973,0,0,0.08641975308641973,50.12345679012345,0)" xlink:href="#N"/><use transform="matrix(0.08641975308641973,0,0,0.08641975308641973,67.40740740740739,0)" xlink:href="#I"/><use transform="matrix(0.08641975308641973,0,0,0.08641975308641973,84.69135802469134,0)" xlink:href="#Q"/><use transform="matrix(0.08641975308641973,0,0,0.08641975308641973,101.97530864197529,0)" xlink:href="#D"/><use transform="matrix(0.08641975308641973,0,0,0.08641975308641973,108.80246913580244,0)" xlink:href="#E"/><use transform="matrix(0.08641975308641973,0,0,0.08641975308641973,124.35802469135801,0)" xlink:href="#N"/><use transform="matrix(0.08641975308641973,0,0,0.08641975308641973,141.64197530864195,0)" xlink:href="#S"/><use transform="matrix(0.08641975308641973,0,0,0.08641975308641973,150.28395061728392,0)" xlink:href="#V"/></g></defs></g></svg>