<svg width="4060" height="2149" xmlns="http://www.w3.org/2000/svg" xmlns:xlink="http://www.w3.org/1999/xlink" xml:space="preserve" overflow="hidden"><g transform="translate(-252 -110)"><g><g><g><g><path d="M151.667 125.125C151.568 120.375 149.34 115.921 145.6 112.992 137.258 106.167 126.642 101.617 116.025 98.5832 107.914 96.1003 99.4822 94.8229 90.9999 94.7916 82.5269 94.9377 74.1111 96.2129 65.9749 98.5832 55.3721 101.677 45.3716 106.549 36.4 112.992 32.6595 115.921 30.4323 120.375 30.3333 125.125L30.3333 155.458 151.667 155.458Z" fill="#000000" fill-rule="nonzero" fill-opacity="1" transform="matrix(1 0 0 1 2109 533)"/><path d="M85.3124 48.8177C90.2416 45.917 102.375 36.5516 102.375 36.5516L102.375 36.5516C104.29 36.7175 106.111 37.4501 107.607 38.656 111.248 41.2125 114.332 44.4828 116.669 48.2679 118.774 51.415 120.575 53.9554 121.125 54.7137L121.333 54.9791C122.281 53.0833 122.243 47.7939 121.58 42.9785 120.651 36.3431 119.892 34.3714 115.646 30.8073 112.94 28.355 109.329 27.1512 105.693 27.4896 100.759 23.6613 94.8164 21.3554 88.5922 20.8541 79.1131 20.5129 68.7618 25.461 64.3635 31.2623 57.7091 39.9831 58.4485 45.6706 58.4485 47.6991 58.4485 49.7277 56.1166 53.2539 57.747 53.2539 58.8087 53.2539 59.8514 53.2539 60.9131 53.2539 66.9229 53.0833 79.1889 52.4197 85.3124 48.8177Z" fill="#000000" fill-rule="nonzero" fill-opacity="1" transform="matrix(1 0 0 1 2109 533)"/><path d="M118.338 57.1972C118.243 57.0645 116.158 54.1639 113.617 50.3912 111.531 46.9694 108.762 44.0136 105.484 41.7083 104.846 41.2436 104.152 40.8614 103.418 40.5708 100.043 43.1302 91.3601 49.6518 87.2272 52.0595 80.6676 55.8512 68.7049 56.856 60.6856 57.0266 60.8933 73.778 74.6413 87.1891 91.3927 86.9813 106.355 86.7959 118.946 75.7277 121.049 60.9131Z" fill="#000000" fill-rule="nonzero" fill-opacity="1" transform="matrix(1 0 0 1 2109 533)"/></g></g></g><text fill="#000000" fill-opacity="1" font-family="Calibri,Calibri_MSFontService,sans-serif" font-style="normal" font-variant="normal" font-weight="400" font-stretch="normal" font-size="83" text-anchor="start" direction="ltr" writing-mode="lr-tb" unicode-bidi="normal" text-decoration="none" transform="matrix(1 0 0 1 2133.11 809)">Lars</text><g><g><g><path d="M157.177 149.219 157.177 145.239 149.219 145.239 149.219 77.5937 157.177 77.5937 157.177 73.6145 163.146 73.6145 163.146 61.677 157.177 61.677 95.4999 23.875 33.8229 61.677 27.8541 61.677 27.8541 73.6145 33.8229 73.6145 33.8229 77.5937 41.7812 77.5937 41.7812 145.239 33.8229 145.239 33.8229 149.219 19.8958 159.166 19.8958 167.125 95.4999 167.125 171.104 167.125 171.104 159.166 157.177 149.219ZM65.6562 145.239 53.7187 145.239 53.7187 77.5937 65.6562 77.5937 65.6562 145.239ZM89.5311 145.239 77.5937 145.239 77.5937 77.5937 89.5311 77.5937 89.5311 145.239ZM93.5103 57.6978C89.1332 57.6978 85.552 54.1166 85.552 49.7395 85.552 45.3624 89.1332 41.7812 93.5103 41.7812 97.8874 41.7812 101.469 45.3624 101.469 49.7395 101.469 54.1166 97.8874 57.6978 93.5103 57.6978ZM113.406 145.239 101.469 145.239 101.469 77.5937 113.406 77.5937 113.406 145.239ZM137.281 145.239 125.344 145.239 125.344 77.5937 137.281 77.5937 137.281 145.239Z" fill="#000000" fill-rule="nonzero" fill-opacity="1" transform="matrix(1 0 0 1 2781 1059)"/></g></g></g><text fill="#000000" fill-opacity="1" font-family="Calibri,Calibri_MSFontService,sans-serif" font-style="normal" font-variant="normal" font-weight="400" font-stretch="normal" font-size="83" text-anchor="start" direction="ltr" writing-mode="lr-tb" unicode-bidi="normal" text-decoration="none" transform="matrix(1 0 0 1 2631.33 1354)">Bank Accounts</text><path d="M2291.68 623.08 2858.7 1044.24 2857.33 1046.08 2290.32 624.92ZM2862.53 1031.39 2876.41 1058.83 2846.14 1053.47Z" fill="#4472C4" fill-rule="nonzero" fill-opacity="1"/><text fill="#0070C0" fill-opacity="1" font-family="Calibri,Calibri_MSFontService,sans-serif" font-style="normal" font-variant="normal" font-weight="400" font-stretch="normal" font-size="64" text-anchor="start" direction="ltr" writing-mode="lr-tb" unicode-bidi="normal" text-decoration="none" transform="matrix(1 0 0 1 2587.93 802)">owns</text><g><g><g><path d="M1608.1 1526.25C1608.1 1528.84 1605.12 1531.22 1600.15 1533.01L1600.15 1525.85C1602.93 1525.06 1605.72 1523.86 1608.1 1522.67L1608.1 1526.25ZM1592.19 1513.12 1592.19 1505.96C1594.97 1505.16 1597.76 1503.97 1600.15 1502.77L1600.15 1506.35C1600.15 1508.94 1597.16 1511.33 1592.19 1513.12ZM1592.19 1535.4C1589.8 1536 1587.01 1536.4 1584.23 1536.79L1584.23 1529.04C1586.82 1528.64 1589.6 1528.24 1592.19 1527.84L1592.19 1535.4ZM1576.27 1509.14C1578.86 1508.74 1581.64 1508.34 1584.23 1507.95L1584.23 1515.51C1581.84 1516.1 1579.06 1516.5 1576.27 1516.9L1576.27 1509.14ZM1576.27 1537.79C1573.68 1537.99 1571.1 1538.19 1568.31 1538.19L1568.31 1530.23C1570.7 1530.23 1573.49 1530.03 1576.27 1529.83L1576.27 1537.79ZM1560.35 1518.29 1560.35 1510.33C1562.74 1510.33 1565.53 1510.13 1568.31 1509.94L1568.31 1517.89C1565.73 1518.09 1563.14 1518.09 1560.35 1518.29ZM1560.35 1538.19C1557.57 1538.19 1554.98 1537.99 1552.4 1537.79L1552.4 1530.23C1553.79 1530.23 1554.98 1530.23 1556.38 1530.23 1557.57 1530.23 1558.96 1530.23 1560.35 1530.23L1560.35 1538.19ZM1544.44 1509.94C1547.02 1510.13 1549.61 1510.33 1552.4 1510.33L1552.4 1518.29C1549.61 1518.29 1547.02 1518.09 1544.44 1517.89L1544.44 1509.94ZM1544.44 1536.79C1541.65 1536.4 1538.87 1536 1536.48 1535.4L1536.48 1529.04C1539.07 1529.43 1541.65 1529.63 1544.44 1529.83L1544.44 1536.79ZM1528.52 1515.51 1528.52 1507.75C1531.11 1508.14 1533.69 1508.74 1536.48 1508.94L1536.48 1516.9C1533.69 1516.5 1530.91 1516.1 1528.52 1515.51ZM1528.52 1533.01C1523.55 1531.03 1520.56 1528.64 1520.56 1526.25L1520.56 1525.85C1520.56 1525.85 1520.56 1525.85 1520.76 1525.85 1521.36 1526.05 1521.76 1526.25 1522.35 1526.25 1524.34 1526.85 1526.33 1527.24 1528.52 1527.64L1528.52 1533.01ZM1496.69 1505.96C1498.08 1505.96 1499.27 1506.16 1500.67 1506.16L1500.67 1506.35C1500.67 1509.14 1501.26 1511.92 1502.66 1514.11 1500.67 1514.11 1498.68 1513.91 1496.69 1513.72L1496.69 1505.96ZM1488.73 1482.08C1491.32 1482.48 1493.9 1483.08 1496.69 1483.27L1496.69 1491.23C1493.9 1490.84 1491.12 1490.44 1488.73 1489.84L1488.73 1482.08ZM1488.73 1512.92C1485.94 1512.52 1483.16 1512.12 1480.77 1511.53L1480.77 1503.77C1483.36 1504.17 1485.94 1504.76 1488.73 1504.96L1488.73 1512.92ZM1472.81 1480.49 1472.81 1476.91C1475.2 1478.1 1477.79 1479.1 1480.77 1479.89L1480.77 1487.25C1475.8 1485.46 1472.81 1483.08 1472.81 1480.49ZM1472.81 1509.14C1467.84 1507.15 1464.85 1504.76 1464.85 1502.38L1464.85 1498.79C1467.24 1499.99 1469.83 1500.98 1472.81 1501.78L1472.81 1509.14ZM1464.85 1447.06C1467.24 1448.26 1469.83 1449.25 1472.81 1450.05L1472.81 1457.41C1467.84 1455.42 1464.85 1453.03 1464.85 1450.65L1464.85 1447.06ZM1488.73 1453.43 1488.73 1461.39C1485.94 1460.99 1483.16 1460.59 1480.77 1460L1480.77 1452.24C1483.36 1452.64 1485.94 1453.03 1488.73 1453.43ZM1508.62 1418.81C1532.9 1418.81 1552.4 1424.18 1552.4 1430.75 1552.4 1437.32 1532.9 1442.69 1508.62 1442.69 1484.35 1442.69 1464.85 1437.32 1464.85 1430.75 1464.85 1424.18 1484.35 1418.81 1508.62 1418.81ZM1520.56 1513.12C1515.59 1511.13 1512.6 1508.74 1512.6 1506.35L1512.6 1502.77C1514.99 1503.97 1517.58 1504.96 1520.56 1505.76L1520.56 1513.12ZM1544.44 1457.41 1544.44 1450.25C1547.22 1449.45 1550.01 1448.26 1552.4 1447.06L1552.4 1450.65C1552.4 1453.23 1549.41 1455.62 1544.44 1457.41ZM1528.52 1461.19 1528.52 1453.43C1531.11 1453.03 1533.89 1452.64 1536.48 1452.24L1536.48 1459.8C1534.09 1460.39 1531.31 1460.79 1528.52 1461.19ZM1512.6 1462.58 1512.6 1454.62C1514.99 1454.62 1517.78 1454.43 1520.56 1454.23L1520.56 1462.19C1517.98 1462.38 1515.39 1462.38 1512.6 1462.58ZM1496.69 1462.19 1496.69 1454.23C1499.27 1454.43 1501.86 1454.62 1504.65 1454.62L1504.65 1462.58C1501.86 1462.38 1499.27 1462.38 1496.69 1462.19ZM1600.15 1486.46C1600.15 1493.02 1580.65 1498.4 1556.38 1498.4 1532.1 1498.4 1512.6 1493.02 1512.6 1486.46 1512.6 1479.89 1532.1 1474.52 1556.38 1474.52 1580.65 1474.52 1600.15 1479.89 1600.15 1486.46ZM1612.08 1492.43 1612.08 1486.46C1612.08 1477.11 1604.72 1470.34 1590.4 1466.56 1585.03 1465.17 1578.86 1463.98 1571.89 1463.38 1572.09 1462.58 1572.09 1461.59 1572.09 1460.59 1572.09 1455.02 1569.51 1450.25 1564.13 1446.67L1564.13 1430.75C1564.13 1421.4 1556.77 1414.63 1542.45 1410.85 1533.1 1408.27 1521.16 1406.87 1508.43 1406.87 1491.71 1406.87 1452.72 1409.26 1452.72 1430.75L1452.72 1450.65C1452.72 1456.22 1455.3 1460.99 1460.68 1464.57L1460.68 1468.35C1455.9 1471.74 1452.72 1476.31 1452.72 1482.48L1452.72 1502.38C1452.72 1511.73 1460.08 1518.49 1474.4 1522.27 1483.76 1524.86 1495.69 1526.25 1508.43 1526.25 1508.43 1535.6 1515.79 1542.37 1530.11 1546.15 1539.46 1548.73 1551.4 1550.12 1564.13 1550.12 1580.85 1550.12 1619.84 1547.74 1619.84 1526.25L1619.84 1506.35C1620.04 1500.78 1617.46 1496.01 1612.08 1492.43Z" fill="#000000" fill-rule="nonzero" fill-opacity="1"/></g></g></g><text fill="#000000" fill-opacity="1" font-family="Calibri,Calibri_MSFontService,sans-serif" font-style="normal" font-variant="normal" font-weight="400" font-stretch="normal" font-size="83" text-anchor="start" direction="ltr" writing-mode="lr-tb" unicode-bidi="normal" text-decoration="none" transform="matrix(1 0 0 1 1268.4 1677)">Income Sources</text><path d="M0.912237-0.693366 563.358 739.296 561.533 740.683-0.912237 0.693366ZM570.618 728.019 576.312 758.233 548.724 744.659Z" fill="#4472C4" fill-rule="nonzero" fill-opacity="1" transform="matrix(-1 0 0 1 2109.31 624)"/><text fill="#0070C0" fill-opacity="1" font-family="Calibri,Calibri_MSFontService,sans-serif" font-style="normal" font-variant="normal" font-weight="400" font-stretch="normal" font-size="64" text-anchor="start" direction="ltr" writing-mode="lr-tb" unicode-bidi="normal" text-decoration="none" transform="matrix(1 0 0 1 1696.4 1012)">has</text><g><g><g><path d="M169.91 116.788 169.91 102.662C169.91 93.1124 154.59 86.7457 136.087 84.1593L136.087 72.8187C136.087 69.6353 134.297 65.2583 126.139 61.0801L126.139 46.9541C126.139 34.0218 98.4843 27.0583 72.4208 27.0583 46.3572 27.0583 18.7021 34.0218 18.7021 46.9541L18.7021 62.8708C18.7021 67.6458 22.4823 71.6249 28.65 74.8082L28.65 88.7353C28.65 88.7353 28.65 88.7353 28.65 88.9343 20.4927 93.1124 18.7021 97.6884 18.7021 100.673L18.7021 116.589C18.7021 129.522 46.3572 136.485 72.4208 136.485L72.4208 144.444C72.4208 157.376 100.076 164.339 126.139 164.339 152.203 164.339 179.858 157.376 179.858 144.444L179.858 128.527C179.858 125.543 178.068 120.967 169.91 116.788ZM175.879 128.726C175.879 136.286 155.386 144.643 126.139 144.643 102.861 144.643 85.1541 139.271 78.7874 133.302 78.7874 133.302 78.7874 133.302 78.7874 133.302 90.9239 137.082 103.458 138.873 115.993 138.674 140.265 138.674 166.13 132.506 169.313 121.364 173.69 123.553 175.879 126.139 175.879 128.726ZM142.056 147.627 142.056 159.564C139.47 159.763 136.883 160.161 134.098 160.161L134.098 148.224C136.883 148.224 139.47 148.025 142.056 147.627ZM146.035 147.229C148.821 146.831 151.407 146.433 153.994 145.836L153.994 157.575C151.606 158.172 148.821 158.57 146.035 158.968L146.035 147.229ZM157.973 144.842C160.758 144.245 163.345 143.25 165.931 142.255L165.931 153.795C163.345 154.988 160.758 155.784 157.973 156.58L157.973 144.842ZM94.3061 156.58C91.5207 155.784 88.9343 154.988 86.3478 153.795L86.3478 142.255C88.9343 143.25 91.5207 144.046 94.3061 144.842L94.3061 156.58ZM98.2853 145.836C100.872 146.433 103.458 146.831 106.244 147.229L106.244 159.166C103.458 158.769 100.673 158.172 98.2853 157.774L98.2853 145.836ZM110.223 147.627C112.809 147.826 115.595 148.224 118.181 148.224L118.181 160.161C115.396 159.962 112.809 159.763 110.223 159.564L110.223 147.627ZM62.4728 102.861 62.4728 103.458C59.6874 103.06 56.902 102.463 54.5145 102.066L54.5145 90.327C57.101 90.9239 59.6874 91.3218 62.4728 91.7197L62.4728 102.861ZM66.452 118.778 66.452 110.82C68.2426 112.411 70.2322 113.804 72.4208 114.799L72.4208 126.139C68.6405 123.553 66.452 121.165 66.452 118.778ZM165.931 118.778C165.931 121.165 163.743 123.752 159.962 125.94L159.962 114.6C162.151 113.605 164.14 112.212 165.931 110.621L165.931 118.778ZM155.983 127.93C153.397 129.124 150.81 129.92 148.025 130.715L148.025 118.977C150.81 118.38 153.397 117.385 155.983 116.39L155.983 127.93ZM144.046 131.71C141.658 132.307 138.873 132.705 136.087 133.103L136.087 121.165C138.873 120.768 141.459 120.37 144.046 119.773L144.046 131.71ZM132.108 133.7C129.522 133.899 126.935 134.297 124.15 134.297L124.15 122.359C126.736 122.16 129.522 121.961 132.108 121.762L132.108 133.7ZM120.171 134.496C118.778 134.496 117.584 134.496 116.192 134.496 114.799 134.496 113.605 134.496 112.212 134.496L112.212 122.558C113.605 122.558 114.799 122.558 116.192 122.558 117.584 122.558 118.778 122.558 120.171 122.558L120.171 134.496ZM108.233 134.496C105.448 134.297 102.861 134.098 100.275 133.899L100.275 121.961C102.861 122.16 105.647 122.558 108.233 122.558L108.233 134.496ZM96.2957 133.302C93.5103 132.904 90.7249 132.307 88.3374 131.909L88.3374 120.171C90.9239 120.768 93.5103 121.165 96.2957 121.563L96.2957 133.302ZM84.3582 130.715C81.5728 129.92 78.9864 129.124 76.3999 127.93L76.3999 116.39C78.9864 117.385 81.5728 118.181 84.3582 118.977L84.3582 130.715ZM165.931 102.861C165.931 110.422 145.438 118.778 116.192 118.778 86.9447 118.778 66.452 110.422 66.452 102.861 66.452 95.3009 86.9447 86.9447 116.192 86.9447 145.438 86.9447 165.931 95.3009 165.931 102.861ZM66.452 94.903 66.452 91.9186C67.6458 92.1176 68.8395 92.1176 70.0332 92.3166 68.8395 93.1124 67.6458 93.9082 66.452 94.903ZM128.726 83.3634C129.92 82.5676 131.113 81.7718 132.307 80.777L132.307 83.7614C130.914 83.5624 129.92 83.5624 128.726 83.3634ZM125.742 65.4572C129.92 67.8447 132.108 70.4312 132.108 72.8187 132.108 76.201 127.731 79.9812 120.37 82.7666 118.977 82.7666 117.584 82.7666 116.192 82.7666 102.264 82.7666 87.7405 84.7561 77.3947 88.7353 56.5041 88.1384 40.9854 83.1645 35.2156 77.5937 35.2156 77.5937 35.2156 77.5937 35.2156 77.5937 47.352 81.3739 59.8864 83.1645 72.4208 82.9655 96.6936 82.9655 122.558 76.7978 125.742 65.4572ZM50.5354 89.1332 50.5354 100.872C47.7499 100.076 45.1635 99.2801 42.577 98.0863L42.577 86.5468C45.1635 87.5416 47.9489 88.5364 50.5354 89.1332ZM38.5979 84.7561 38.5979 96.0968C34.8177 93.7093 32.6291 91.3218 32.6291 88.9343L32.6291 80.9759C34.4198 82.3687 36.4093 83.7614 38.5979 84.7561ZM32.6291 72.2218 32.6291 60.6822C35.2156 61.677 37.802 62.4728 40.5875 63.2687L40.5875 75.0072C38.001 74.2114 35.2156 73.4155 32.6291 72.2218ZM44.5666 76.002 44.5666 64.2635C47.1531 64.8603 49.7395 65.2583 52.5249 65.6562L52.5249 77.5937C49.7395 77.1957 47.1531 76.5989 44.5666 76.002ZM56.5041 77.9916 56.5041 66.0541C59.0906 66.253 61.876 66.651 64.4624 66.651L64.4624 78.5884C61.677 78.5884 59.0906 78.3895 56.5041 77.9916ZM68.4416 78.7874 68.4416 66.8499C69.8343 66.8499 71.028 66.8499 72.4208 66.8499 73.8135 66.8499 75.0072 66.8499 76.3999 66.8499L76.3999 78.7874C75.0072 78.7874 73.8135 78.7874 72.4208 78.7874 71.028 78.7874 69.8343 78.9864 68.4416 78.7874ZM80.3791 78.7874 80.3791 66.8499C82.9655 66.651 85.7509 66.452 88.3374 66.253L88.3374 78.1905C85.7509 78.3895 83.1645 78.5884 80.3791 78.7874ZM92.3166 77.5937 92.3166 65.6562C95.102 65.2583 97.6884 64.8603 100.275 64.2635L100.275 76.002C97.8874 76.5989 95.102 77.1957 92.3166 77.5937ZM104.254 75.0072 104.254 63.2687C107.039 62.6718 109.626 61.677 112.212 60.6822L112.212 72.2218C109.626 73.4155 107.039 74.2114 104.254 75.0072ZM116.192 70.2322 116.192 58.8916C118.38 57.8968 120.37 56.5041 122.16 54.9124L122.16 62.8708C122.16 65.4572 120.171 67.8447 116.192 70.2322ZM28.65 70.2322C24.8698 67.8447 22.6812 65.4572 22.6812 63.0697L22.6812 55.1114C24.4718 56.7031 26.4614 58.0958 28.65 59.0906L28.65 70.2322ZM22.6812 47.1531C22.6812 39.5927 43.1739 31.2364 72.4208 31.2364 101.668 31.2364 122.16 39.5927 122.16 47.1531 122.16 54.7135 101.668 63.0697 72.4208 63.0697 43.1739 63.0697 22.6812 54.5145 22.6812 47.1531ZM29.6448 92.9134C33.226 100.275 46.7552 105.05 62.4728 107.238L62.4728 116.192C38.5979 114.6 22.6812 107.238 22.6812 100.673 22.6812 98.0863 25.2677 95.4999 29.6448 92.9134ZM28.65 123.951C24.8698 121.563 22.6812 119.176 22.6812 116.788L22.6812 108.83C24.4718 110.422 26.4614 111.814 28.65 112.809L28.65 123.951ZM40.5875 128.726C37.802 127.93 35.2156 127.134 32.6291 125.94L32.6291 114.401C35.2156 115.396 37.802 116.192 40.5875 116.987L40.5875 128.726ZM52.5249 131.312C49.7395 130.914 46.9541 130.318 44.5666 129.92L44.5666 118.181C47.1531 118.778 49.7395 119.176 52.5249 119.574L52.5249 131.312ZM56.5041 119.773C58.4937 119.972 60.4833 120.171 62.6718 120.37 62.8708 121.762 63.6666 123.155 64.4624 124.548L64.4624 132.506C61.677 132.307 59.0906 132.108 56.5041 131.909L56.5041 119.773ZM68.4416 128.129C69.6353 128.925 71.028 129.721 72.4208 130.517L72.4208 132.506C71.028 132.506 69.8343 132.506 68.4416 132.506L68.4416 128.129ZM76.3999 144.643 76.3999 136.684C78.1905 138.276 80.1801 139.669 82.3687 140.663L82.3687 152.004C78.5884 149.418 76.3999 147.03 76.3999 144.643ZM122.16 148.423C123.553 148.423 124.747 148.423 126.139 148.423 127.532 148.423 128.726 148.423 130.119 148.423L130.119 160.36C128.726 160.36 127.532 160.36 126.139 160.36 124.747 160.36 123.553 160.36 122.16 160.36L122.16 148.423ZM169.91 140.464C172.099 139.47 174.088 138.077 175.879 136.485L175.879 144.444C175.879 146.831 173.69 149.418 169.91 151.606L169.91 140.464Z" fill="#000000" fill-rule="nonzero" fill-opacity="1" transform="matrix(1 0 0 1 1094 925)"/></g></g></g><text fill="#000000" fill-opacity="1" font-family="Calibri,Calibri_MSFontService,sans-serif" font-style="normal" font-variant="normal" font-weight="400" font-stretch="normal" font-size="83" text-anchor="start" direction="ltr" writing-mode="lr-tb" unicode-bidi="normal" text-decoration="none" transform="matrix(1 0 0 1 1034.86 1220)">Expenses</text><path d="M0.356205-1.08906 898.049 292.525 897.337 294.703-0.356205 1.08906ZM897.614 279.121 919.477 300.738 889.065 305.258Z" fill="#4472C4" fill-rule="nonzero" fill-opacity="1" transform="matrix(-1 0 0 1 2109.48 624)"/><text fill="#0070C0" fill-opacity="1" font-family="Calibri,Calibri_MSFontService,sans-serif" font-style="normal" font-variant="normal" font-weight="400" font-stretch="normal" font-size="64" text-anchor="start" direction="ltr" writing-mode="lr-tb" unicode-bidi="normal" text-decoration="none" transform="matrix(1 0 0 1 1562.67 722)">has</text><path d="M0.309534-1.10323 1130.93 316.114 1130.31 318.32-0.309534 1.10323ZM1129.92 302.74 1152.68 323.408 1122.49 329.218Z" fill="#70AD47" fill-rule="nonzero" fill-opacity="1" transform="matrix(1 0 0 -1 1628 1478.41)"/><text fill="#92D050" fill-opacity="1" font-family="Calibri,Calibri_MSFontService,sans-serif" font-style="normal" font-variant="normal" font-weight="400" font-stretch="normal" font-size="64" text-anchor="start" direction="ltr" writing-mode="lr-tb" unicode-bidi="normal" text-decoration="none" transform="matrix(1 0 0 1 2038.77 1444)">d</text><text fill="#92D050" fill-opacity="1" font-family="Calibri,Calibri_MSFontService,sans-serif" font-style="normal" font-variant="normal" font-weight="400" font-stretch="normal" font-size="64" text-anchor="start" direction="ltr" writing-mode="lr-tb" unicode-bidi="normal" text-decoration="none" transform="matrix(1 0 0 1 2072.57 1444)">eposited into</text><path d="M1285.1 1019.86 2758.13 1153.3 2757.92 1155.58 1284.9 1022.14ZM2754.7 1140.34 2780.85 1156.51 2752.22 1167.72Z" fill="#70AD47" fill-rule="nonzero" fill-opacity="1"/><text fill="#92D050" fill-opacity="1" font-family="Calibri,Calibri_MSFontService,sans-serif" font-style="normal" font-variant="normal" font-weight="400" font-stretch="normal" font-size="64" text-anchor="start" direction="ltr" writing-mode="lr-tb" unicode-bidi="normal" text-decoration="none" transform="matrix(1 0 0 1 1824.64 1198)">d</text><text fill="#92D050" fill-opacity="1" font-family="Calibri,Calibri_MSFontService,sans-serif" font-style="normal" font-variant="normal" font-weight="400" font-stretch="normal" font-size="64" text-anchor="start" direction="ltr" writing-mode="lr-tb" unicode-bidi="normal" text-decoration="none" transform="matrix(1 0 0 1 1858.45 1198)">eposited from</text><g><g><g><path d="M422.081 1402.9 427.18 1429.35 429.249 1430.62 432.586 1428.57 435.715 1426.64 438.843 1428.57 442.181 1430.62 445.518 1428.57 448.647 1426.64 451.775 1428.57 455.114 1430.62 458.45 1428.57 460.663 1427.21 454.761 1396.6 422.081 1402.9Z" fill="#000000" fill-rule="nonzero" fill-opacity="1"/><path d="M490.52 1407.18 486.861 1402.69C485.555 1401.31 483.496 1400.96 481.806 1401.82 481.691 1401.88 481.58 1401.95 481.472 1402.02L476.237 1405.39C474.641 1406.36 472.634 1406.36 471.037 1405.39L465.803 1402.02C464.602 1401.29 463.126 1401.16 461.822 1401.69L467.313 1430.17 468.045 1430.62 471.383 1428.57 474.512 1426.64 477.64 1428.57 480.978 1430.62 484.315 1428.57 487.444 1426.64 488.557 1427.33 497.007 1407.97 495.465 1408.44C493.71 1409.02 491.78 1408.53 490.52 1407.18Z" fill="#000000" fill-rule="nonzero" fill-opacity="1"/><path d="M500.374 1415.51C498.695 1419.58 496.954 1423.86 495.11 1428.25 494.798 1429 494.489 1429.73 494.179 1430.46L497.248 1428.57 500.376 1426.64 503.505 1428.57 506.842 1430.62 510.18 1428.57 513.308 1426.64 516.437 1428.57 519.337 1430.35C529.726 1406.14 538.172 1387.66 526.73 1382.85 517.914 1379.13 511.564 1389.54 504.529 1405.66 508.057 1402.56 511.771 1399.68 515.652 1397.04 516.613 1396.4 517.916 1396.65 518.563 1397.61 519.206 1398.57 518.958 1399.86 518.007 1400.51 511.604 1404.86 505.692 1409.89 500.374 1415.51Z" fill="#000000" fill-rule="nonzero" fill-opacity="1"/><path d="M413.974 1519.9C408.647 1525.78 413.205 1555.89 429.955 1547.59 446.65 1555.95 451.153 1525.83 445.826 1519.95 440.883 1514.57 435.556 1518.25 431.492 1519.19 431.367 1517.93 431.091 1516.69 430.669 1515.5 432.897 1515.38 435.013 1514.49 436.655 1512.98 438.441 1510.82 439.361 1508.08 439.236 1505.28 436.44 1505.15 433.696 1506.07 431.547 1507.87 430.354 1509.15 429.554 1510.75 429.241 1512.48 427.684 1509.93 425.584 1507.75 423.09 1506.11L421.388 1508.91C424.947 1511.26 427.404 1514.94 428.197 1519.13 424.188 1518.14 418.806 1514.57 413.974 1519.9Z" fill="#000000" fill-rule="nonzero" fill-opacity="1"/><path d="M455.113 1437.63 448.647 1433.65 442.181 1437.63 435.715 1433.65 429.249 1437.63 422.782 1433.65 422.782 1498.41 426.562 1501.25C427.212 1501.69 427.84 1502.15 428.446 1502.64 431.471 1500.43 435.135 1499.26 438.883 1499.31L438.883 1499.31C439.322 1499.31 439.571 1499.32 439.571 1499.32L444.896 1499.68 445.195 1504.95C445.278 1507.28 444.933 1509.62 444.177 1511.83 446.516 1512.67 448.605 1514.09 450.249 1515.95 455.385 1521.62 454.715 1534.71 450.867 1543.39 450.605 1543.98 450.306 1544.52 450.018 1545.07L518.282 1545.07C522.678 1545.07 526.24 1541.51 526.241 1537.11 526.241 1537.11 526.241 1537.11 526.241 1537.11L526.241 1433.65 519.775 1437.63 513.308 1433.65 506.842 1437.63 500.376 1433.65 493.91 1437.63 487.444 1433.65 480.978 1437.63 474.512 1433.65 468.045 1437.63 461.579 1433.65Z" fill="#000000" fill-rule="nonzero" fill-opacity="1"/></g></g></g><text fill="#000000" fill-opacity="1" font-family="Calibri,Calibri_MSFontService,sans-serif" font-style="normal" font-variant="normal" font-weight="400" font-stretch="normal" font-size="83" text-anchor="start" direction="ltr" writing-mode="lr-tb" unicode-bidi="normal" text-decoration="none" transform="matrix(1 0 0 1 305.652 1662)">Purchases</text><path d="M0.547394-1.00662 380.249 205.472 379.154 207.485-0.547394 1.00662ZM382.243 192.209 399.834 217.426 369.106 216.368Z" fill="#70AD47" fill-rule="nonzero" fill-opacity="1" transform="matrix(1 0 0 -1 600 1410.43)"/><text fill="#92D050" fill-opacity="1" font-family="Calibri,Calibri_MSFontService,sans-serif" font-style="normal" font-variant="normal" font-weight="400" font-stretch="normal" font-size="64" text-anchor="start" direction="ltr" writing-mode="lr-tb" unicode-bidi="normal" text-decoration="none" transform="matrix(1 0 0 1 625.233 1260)">part</text><text fill="#92D050" fill-opacity="1" font-family="Calibri,Calibri_MSFontService,sans-serif" font-style="normal" font-variant="normal" font-weight="400" font-stretch="normal" font-size="64" text-anchor="start" direction="ltr" writing-mode="lr-tb" unicode-bidi="normal" text-decoration="none" transform="matrix(1 0 0 1 748.41 1260)">of</text><g><g><g><path d="M167.125 169.234C163.318 167.72 159.281 166.866 155.187 166.707L155.187 166.707C151.094 166.866 147.057 167.72 143.25 169.234 140.715 170.283 138.028 170.914 135.292 171.104 132.555 170.914 129.868 170.283 127.333 169.234 123.526 167.72 119.489 166.866 115.396 166.707 111.302 166.866 107.265 167.72 103.458 169.234 100.924 170.283 98.2362 170.914 95.4999 171.104 92.7636 170.914 90.0759 170.283 87.5416 169.234 83.7347 167.72 79.6978 166.866 75.6041 166.707 71.5103 166.866 67.4734 167.72 63.6666 169.234 61.1321 170.283 58.4445 170.914 55.7083 171.104 52.972 170.914 50.2845 170.283 47.7499 169.234 43.9431 167.72 39.9062 166.866 35.8125 166.707 31.7187 166.866 27.6818 167.72 23.875 169.234 21.3404 170.283 18.653 170.914 15.9166 171.104L15.9166 183.041C20.0104 182.883 24.0473 182.028 27.8541 180.515 30.3817 179.425 33.0694 178.753 35.8125 178.525 38.5555 178.753 41.2432 179.425 43.7708 180.515 47.5776 182.028 51.6145 182.883 55.7083 183.041 59.802 182.883 63.8389 182.028 67.6458 180.515 70.1733 179.425 72.861 178.753 75.6041 178.525 78.3403 178.715 81.0281 179.346 83.5624 180.395 87.3593 181.959 91.398 182.854 95.4999 183.041 99.5936 182.883 103.631 182.028 107.437 180.515 109.965 179.425 112.653 178.753 115.396 178.525 118.139 178.753 120.826 179.425 123.354 180.515 127.161 182.028 131.198 182.883 135.292 183.041 139.385 182.883 143.422 182.028 147.229 180.515 149.757 179.425 152.444 178.753 155.187 178.525 157.924 178.715 160.611 179.346 163.146 180.395 166.943 181.959 170.981 182.854 175.083 183.041L175.083 171.104C172.347 170.914 169.659 170.283 167.125 169.234Z" fill="#000000" fill-rule="nonzero" fill-opacity="1" transform="matrix(1 0 0 1 4019 111)"/><path d="M98.1062 46.7154C97.5786 49.5901 99.4816 52.3485 102.356 52.8759 104.558 53.28 106.776 52.2552 107.895 50.3165L107.895 50.3165C112.372 71.6647 110.641 93.4904 108.054 109.208 96.9845 109.763 86.0971 112.248 75.8826 116.55 75.8826 116.55 74.5695 116.55 72.4406 116.55 68.8994 105.558 67.3431 94.0246 67.8447 82.488 68.9137 83.8561 70.8892 84.0986 72.2572 83.0296 73.1406 82.3392 73.5894 81.2308 73.4354 80.1204 73.4169 79.9374 73.3767 79.7569 73.3161 79.5832 77.4146 84.02 78.4691 88.4369 79.822 90.506 80.0504 90.8423 80.5082 90.9298 80.8446 90.7014 80.9835 90.6069 81.0862 90.4678 81.1351 90.3071 82.6406 85.5784 82.2262 80.4475 79.9812 76.0219 78.6438 73.8194 76.5042 72.2218 74.0124 71.5652 80.0211 72.682 85.8072 74.772 91.1427 77.7528 91.5136 77.9675 91.9883 77.8408 92.2029 77.4697 92.3366 77.2383 92.342 76.9544 92.2171 76.7182 90.3469 72.8784 85.9698 65.3975 80.0011 64.1242 74.0323 62.8509 68.9589 68.4615 67.4667 70.0929 67.4142 70.149 67.326 70.1518 67.2699 70.0993 67.2355 70.0671 67.2198 70.0199 67.2279 69.9736 68.7046 65.9234 67.0923 61.3955 63.3881 59.19 59.767 57.0811 52.8035 58.6926 48.9238 59.8864 48.5062 59.9829 48.2459 60.3995 48.3424 60.8171 48.4091 61.106 48.6347 61.3318 48.9238 61.3985 53.0842 62.4382 57.0439 64.1594 60.6424 66.4918 56.8011 64.4294 52.0982 64.8683 48.7049 67.606 45.5216 70.0531 43.2535 75.7235 42.0995 79.2251 41.9376 79.6218 42.1278 80.0749 42.5245 80.2368 42.8168 80.3562 43.1522 80.2866 43.3729 80.0607 46.7689 76.9723 50.7552 74.6035 55.0915 73.0972 53.2555 74.4048 51.8662 76.2455 51.1123 78.3696 49.6997 81.9707 50.595 87.1436 51.4307 90.3071 51.5498 90.7301 51.9895 90.9764 52.4125 90.8572 52.6791 90.782 52.8874 90.5737 52.9626 90.3071 53.9326 86.6972 55.6098 83.3159 57.8968 80.3592 57.744 80.7448 57.6762 81.1586 57.6978 81.5728 57.933 83.293 59.5179 84.4969 61.2381 84.2617 61.2451 84.2607 61.2522 84.2597 61.2592 84.2588 61.9488 84.1539 62.5851 83.8252 63.0697 83.3237 62.6479 94.5365 63.1805 105.765 64.6614 116.888 53.7187 117.704 37.9413 120.608 33.8229 130.019L35.8125 129.86C39.9062 130.019 43.9431 130.873 47.7499 132.387 50.2813 133.445 52.9704 134.077 55.7083 134.257 58.4461 134.077 61.1352 133.445 63.6666 132.387 67.4734 130.873 71.5103 130.019 75.6041 129.86 79.6978 130.019 83.7347 130.873 87.5416 132.387 90.0729 133.445 92.762 134.077 95.4999 134.257 98.2377 134.077 100.927 133.445 103.458 132.387 107.265 130.873 111.302 130.019 115.396 129.86 119.489 130.019 123.526 130.873 127.333 132.387 129.865 133.445 132.554 134.077 135.292 134.257 138.029 134.077 140.718 133.445 143.25 132.387 146.929 130.938 150.82 130.098 154.77 129.9 146.432 119.36 134.492 112.273 121.245 110.004 121.066 97.8874 120.27 70.8092 115.933 50.4558 117.055 51.3461 118.492 51.741 119.912 51.55 121.555 51.2675 122.973 50.2385 123.752 48.7646 124.511 47.472 124.635 45.903 124.09 44.5069 128.637 48.9341 132.255 54.2234 134.734 60.0655 135.028 60.7407 135.813 61.0501 136.488 60.7564 136.924 60.567 137.226 60.1596 137.281 59.6874 137.898 54.1166 138.196 45.3227 134.973 39.6722 133.221 36.4543 130.565 33.8193 127.333 32.0919 127.234 32.0919 127.333 31.9129 127.333 31.9328 134.761 33.4498 141.814 36.4253 148.085 40.6869 148.665 41.1402 149.502 41.0373 149.956 40.4569 150.283 40.0373 150.33 39.4627 150.074 38.9958 147.328 33.4449 142.215 24.5514 136.346 21.2288 128.049 16.5334 120.787 18.9607 115.435 22.8006 115.435 22.8006 115.435 22.8006 115.435 22.8006 121.04 17.805 127.46 13.8077 134.416 10.9825 135.094 10.7245 135.434 9.96595 135.176 9.28816 135.007 8.84275 134.609 8.52414 134.138 8.45572 127.333 7.34155 115.396 6.26718 109.924 10.6443 101.847 17.0308 104.433 25.8646 106.204 29.8437 106.242 29.8986 106.229 29.9744 106.174 30.0128 106.119 30.0512 106.043 30.0379 106.005 29.983 102.762 26.6803 93.7093 18.901 83.443 22.6414 73.8334 26.1431 68.3222 39.6126 66.0939 46.5164 65.8822 47.21 66.2729 47.9439 66.9667 48.1556 67.3451 48.271 67.7554 48.2097 68.0835 47.9887 76.2019 41.817 85.2655 36.9996 94.9229 33.7234L94.9229 33.8428C90.9469 35.5114 87.7586 38.6357 86.0096 42.577 82.0304 52.0275 85.4326 61.9556 87.4222 66.452 87.7075 67.0948 88.4598 67.3847 89.1026 67.0994 89.3911 66.9715 89.6219 66.7407 89.75 66.452 91.4809 62.6519 92.2768 55.0915 98.0068 46.8148Z" fill="#000000" fill-rule="nonzero" fill-opacity="1" transform="matrix(1 0 0 1 4019 111)"/><path d="M167.125 145.359C163.318 143.845 159.281 142.991 155.187 142.832L155.187 142.832C151.094 142.991 147.057 143.845 143.25 145.359 140.715 146.408 138.028 147.039 135.292 147.229 132.555 147.039 129.868 146.408 127.333 145.359 123.526 143.845 119.489 142.991 115.396 142.832 111.302 142.991 107.265 143.845 103.458 145.359 100.924 146.408 98.2362 147.039 95.4999 147.229 92.7636 147.039 90.0759 146.408 87.5416 145.359 83.7347 143.845 79.6978 142.991 75.6041 142.832 71.5103 142.991 67.4734 143.845 63.6666 145.359 61.1321 146.408 58.4445 147.039 55.7083 147.229 52.972 147.039 50.2845 146.408 47.7499 145.359 43.9431 143.845 39.9062 142.991 35.8125 142.832 31.7187 142.991 27.6818 143.845 23.875 145.359 21.3404 146.408 18.653 147.039 15.9166 147.229L15.9166 159.166C20.0104 159.008 24.0473 158.153 27.8541 156.64 30.3817 155.55 33.0694 154.878 35.8125 154.65 38.5555 154.878 41.2432 155.55 43.7708 156.64 47.5776 158.153 51.6145 159.008 55.7083 159.166 59.802 159.008 63.8389 158.153 67.6458 156.64 70.1733 155.55 72.861 154.878 75.6041 154.65 78.3403 154.84 81.0281 155.471 83.5624 156.52 87.3593 158.084 91.398 158.979 95.4999 159.166 99.5936 159.008 103.631 158.153 107.437 156.64 109.965 155.55 112.653 154.878 115.396 154.65 118.139 154.878 120.826 155.55 123.354 156.64 127.161 158.153 131.198 159.008 135.292 159.166 139.385 159.008 143.422 158.153 147.229 156.64 149.757 155.55 152.444 154.878 155.187 154.65 157.924 154.84 160.611 155.471 163.146 156.52 166.943 158.084 170.981 158.979 175.083 159.166L175.083 147.229C172.347 147.039 169.659 146.408 167.125 145.359Z" fill="#000000" fill-rule="nonzero" fill-opacity="1" transform="matrix(1 0 0 1 4019 111)"/></g></g></g><text fill="#000000" fill-opacity="1" font-family="Calibri,Calibri_MSFontService,sans-serif" font-style="normal" font-variant="normal" font-weight="400" font-stretch="normal" font-size="83" text-anchor="start" direction="ltr" writing-mode="lr-tb" unicode-bidi="normal" text-decoration="none" transform="matrix(1 0 0 1 3970.09 406)">Vacation</text><path d="M2291.3 622.893 3559.28 963.44 3558.69 965.654 2290.7 625.107ZM3558.12 950.078 3581.11 970.491 3550.99 976.637Z" fill="#4472C4" fill-rule="nonzero" fill-opacity="1"/><text fill="#0070C0" fill-opacity="1" font-family="Calibri,Calibri_MSFontService,sans-serif" font-style="normal" font-variant="normal" font-weight="400" font-stretch="normal" font-size="64" text-anchor="start" direction="ltr" writing-mode="lr-tb" unicode-bidi="normal" text-decoration="none" transform="matrix(1 0 0 1 3149.8 797)">sets</text><text fill="#0070C0" fill-opacity="1" font-family="Calibri,Calibri_MSFontService,sans-serif" font-style="normal" font-variant="normal" font-weight="400" font-stretch="normal" font-size="64" text-anchor="start" direction="ltr" writing-mode="lr-tb" unicode-bidi="normal" text-decoration="none" transform="matrix(1 0 0 1 3268.05 797)">up</text><g><g><g><path d="M3790.14 989.49C3789.14 989.49 3788.34 988.893 3787.75 988.296 3786.75 987.301 3786.16 985.511 3786.16 983.72 3786.16 981.133 3787.95 979.144 3789.54 977.95L3789.74 977.751C3793.52 979.741 3794.11 981.73 3794.11 983.521 3794.11 986.704 3792.32 989.49 3790.14 989.49ZM3736.02 950.295C3735.42 951.688 3733.83 952.682 3732.44 952.682 3731.84 952.682 3731.24 952.483 3730.85 952.284 3724.48 949.3 3717.52 947.708 3710.95 947.708 3707.17 947.708 3703.39 948.305 3699.61 949.3 3697.42 949.897 3695.23 948.703 3694.64 946.515 3694.04 944.326 3695.23 942.138 3697.42 941.541 3701.8 940.347 3706.37 939.75 3710.75 939.75 3718.31 939.75 3726.47 941.541 3733.83 944.923 3736.02 945.918 3737.01 948.305 3736.02 950.295ZM3804.66 965.615C3799.69 964.819 3793.52 966.212 3788.54 968.997 3783.97 968.002 3777 968.002 3770.64 970.191 3761.29 947.907 3735.22 931.792 3710.55 931.792 3702 931.792 3693.44 933.781 3685.68 937.363L3661.21 925.823C3659.62 925.027 3657.83 926.619 3658.42 928.211L3666.38 950.693C3661.61 955.667 3657.63 961.437 3654.84 967.803 3654.45 968.997 3653.45 969.793 3652.06 970.191L3644.9 971.981C3641.31 972.777 3638.93 975.961 3638.93 979.741L3638.93 995.26C3638.93 998.841 3641.31 1002.02 3644.9 1003.02L3652.26 1004.81C3653.45 1005.21 3654.45 1006 3655.04 1007.2 3658.42 1014.96 3663.6 1021.92 3669.96 1027.69 3670.56 1028.29 3671.16 1029.08 3671.36 1030.08L3674.34 1048.18C3674.74 1050.17 3676.33 1051.56 3678.32 1051.56L3691.45 1051.56C3693.44 1051.56 3695.03 1050.17 3695.43 1048.18L3696.43 1041.82C3701 1043.01 3705.78 1043.61 3710.75 1043.61 3716.12 1043.61 3721.69 1042.81 3726.87 1041.42L3728.06 1048.18C3728.46 1050.17 3730.05 1051.56 3732.04 1051.56L3745.17 1051.56C3747.16 1051.56 3748.75 1050.17 3749.15 1048.18L3752.13 1030.08C3752.33 1029.08 3752.73 1028.29 3753.53 1027.69 3765.66 1017.14 3774.22 1003.22 3774.22 987.5 3774.22 984.118 3773.82 980.935 3773.02 977.751 3775.41 976.955 3778 976.358 3780.39 976.358 3778.99 978.547 3778.2 980.935 3778.2 983.521 3778 987.5 3779.59 991.28 3782.18 994.066 3784.37 996.254 3787.15 997.647 3790.14 997.647 3796.7 997.647 3802.07 991.479 3802.07 983.72 3802.07 979.94 3800.68 976.557 3797.89 973.971 3799.88 973.573 3801.67 973.374 3803.47 973.573 3805.65 973.971 3807.64 972.379 3808.04 970.191 3808.24 968.002 3806.85 966.013 3804.66 965.615Z" fill="#000000" fill-rule="nonzero" fill-opacity="1"/></g></g></g><text fill="#000000" fill-opacity="1" font-family="Calibri,Calibri_MSFontService,sans-serif" font-style="normal" font-variant="normal" font-weight="400" font-stretch="normal" font-size="83" text-anchor="start" direction="ltr" writing-mode="lr-tb" unicode-bidi="normal" text-decoration="none" transform="matrix(1 0 0 1 3510.78 1187)">Savings Goal</text><path d="M0.85955-0.757699 379.389 428.654 377.67 430.17-0.85955 0.757699ZM385.813 416.881 393.683 446.603 365.184 435.066Z" fill="#70AD47" fill-rule="nonzero" fill-opacity="1" transform="matrix(1 0 0 -1 3721 891.603)"/><text fill="#92D050" fill-opacity="1" font-family="Calibri,Calibri_MSFontService,sans-serif" font-style="normal" font-variant="normal" font-weight="400" font-stretch="normal" font-size="64" text-anchor="start" direction="ltr" writing-mode="lr-tb" unicode-bidi="normal" text-decoration="none" transform="matrix(1 0 0 1 3633.84 652)">to</text><text fill="#92D050" fill-opacity="1" font-family="Calibri,Calibri_MSFontService,sans-serif" font-style="normal" font-variant="normal" font-weight="400" font-stretch="normal" font-size="64" text-anchor="start" direction="ltr" writing-mode="lr-tb" unicode-bidi="normal" text-decoration="none" transform="matrix(1 0 0 1 3703.12 652)">make</text><path d="M3721.86 1226 3721.86 1651.14 1855.92 1651.14 1855.92 1648.84 3720.71 1648.84 3719.57 1649.99 3719.57 1226ZM1860.5 1663.74 1833 1649.99 1860.5 1636.24Z" fill="#70AD47" fill-rule="nonzero" fill-opacity="1"/><text fill="#92D050" fill-opacity="1" font-family="Calibri,Calibri_MSFontService,sans-serif" font-style="normal" font-variant="normal" font-weight="400" font-stretch="normal" font-size="64" text-anchor="start" direction="ltr" writing-mode="lr-tb" unicode-bidi="normal" text-decoration="none" transform="matrix(1 0 0 1 2542.38 1839)">budgeting</text><g><g><g><path d="M3186.89 1415.84 3182.91 1415.84 3182.91 1551.14 3318.15 1551.14 3318.15 1547.16 3186.89 1547.16 3186.89 1415.84Z" fill="#000000" fill-rule="nonzero" fill-opacity="1"/><path d="M3212.76 1529.25C3217.14 1529.26 3220.7 1525.71 3220.71 1521.33 3220.71 1518.83 3219.54 1516.47 3217.53 1514.97L3234.8 1461.59C3235.95 1461.56 3237.08 1461.28 3238.1 1460.78L3268.61 1484.02C3267.79 1488.34 3270.62 1492.5 3274.94 1493.32 3279.26 1494.14 3283.42 1491.3 3284.24 1486.98 3284.34 1486.49 3284.38 1485.98 3284.38 1485.48 3284.38 1483.06 3283.26 1480.78 3281.36 1479.28L3295.77 1437.67C3295.95 1437.69 3296.13 1437.73 3296.32 1437.73 3300.73 1437.74 3304.32 1434.18 3304.33 1429.77 3304.35 1425.36 3300.79 1421.77 3296.38 1421.76 3291.97 1421.74 3288.38 1425.3 3288.36 1429.72 3288.35 1432.42 3289.72 1434.95 3291.98 1436.43L3277.72 1477.65C3277.29 1477.57 3276.86 1477.53 3276.42 1477.52 3274.09 1477.53 3271.87 1478.57 3270.38 1480.36L3241.21 1458.14C3243.72 1454.52 3242.82 1449.55 3239.2 1447.04 3235.58 1444.54 3230.61 1445.44 3228.1 1449.06 3225.6 1452.67 3226.5 1457.64 3230.12 1460.15 3230.38 1460.33 3230.65 1460.5 3230.93 1460.65L3213.85 1513.44C3209.51 1512.83 3205.49 1515.86 3204.88 1520.2 3204.27 1524.54 3207.29 1528.56 3211.64 1529.17 3212.01 1529.22 3212.38 1529.25 3212.76 1529.25Z" fill="#000000" fill-rule="nonzero" fill-opacity="1"/></g></g></g><rect x="3006.5" y="1587.5" width="490" height="133" stroke="#92D050" stroke-width="3.4375" stroke-linecap="butt" stroke-linejoin="round" stroke-miterlimit="10" stroke-opacity="1" fill="#FFFFFF" fill-opacity="1"/><text fill="#000000" fill-opacity="1" font-family="Calibri,Calibri_MSFontService,sans-serif" font-style="normal" font-variant="normal" font-weight="400" font-stretch="normal" font-size="83" text-anchor="start" direction="ltr" writing-mode="lr-tb" unicode-bidi="normal" text-decoration="none" transform="matrix(1 0 0 1 3041.08 1680)">Data Analyst</text><path d="M0-1.14583 271.009-1.14583 271.009 2777.86 40.7591 2777.86 40.7591 2775.56 269.863 2775.56 268.717 2776.71 268.717 0 269.863 1.14583 0 1.14583ZM45.3425 2790.46 17.8425 2776.71 45.3425 2762.96Z" fill="#70AD47" fill-rule="nonzero" fill-opacity="1" transform="matrix(1.83697e-16 1 1 -1.83697e-16 474 1702)"/><g><g><g><path d="M3990.76 2054.15 3990.76 1918.85 4040.5 1918.85 4040.5 1960.64 4090.24 1960.64 4090.24 2054.15 3990.76 2054.15ZM4052.44 1923.83 4077.31 1948.7 4052.44 1948.7 4052.44 1923.83ZM4052.44 1906.92 3978.82 1906.92 3978.82 2066.08 4102.18 2066.08 4102.18 1950.69 4052.44 1906.92Z" fill="#000000" fill-rule="nonzero" fill-opacity="1"/><path d="M4002.7 1980.53 4078.3 1980.53 4078.3 1988.49 4002.7 1988.49Z" fill="#000000" fill-rule="nonzero" fill-opacity="1"/><path d="M4002.7 1964.61 4028.56 1964.61 4028.56 1972.57 4002.7 1972.57Z" fill="#000000" fill-rule="nonzero" fill-opacity="1"/><path d="M4002.7 1996.45 4078.3 1996.45 4078.3 2004.41 4002.7 2004.41Z" fill="#000000" fill-rule="nonzero" fill-opacity="1"/><path d="M4002.7 2012.36 4078.3 2012.36 4078.3 2020.32 4002.7 2020.32Z" fill="#000000" fill-rule="nonzero" fill-opacity="1"/><path d="M4002.7 2028.28 4078.3 2028.28 4078.3 2036.24 4002.7 2036.24Z" fill="#000000" fill-rule="nonzero" fill-opacity="1"/></g></g></g><text fill="#000000" fill-opacity="1" font-family="Calibri,Calibri_MSFontService,sans-serif" font-style="normal" font-variant="normal" font-weight="400" font-stretch="normal" font-size="83" text-anchor="start" direction="ltr" writing-mode="lr-tb" unicode-bidi="normal" text-decoration="none" transform="matrix(1 0 0 1 3927.08 2185)">Report</text><path d="M3408.77 1719.15 3875.93 2142.15 3874.39 2143.85 3407.23 1720.85ZM3880.99 2129.73 3892.15 2158.38 3862.54 2150.11Z" fill="#70AD47" fill-rule="nonzero" fill-opacity="1"/><text fill="#92D050" fill-opacity="1" font-family="Calibri,Calibri_MSFontService,sans-serif" font-style="normal" font-variant="normal" font-weight="400" font-stretch="normal" font-size="64" text-anchor="start" direction="ltr" writing-mode="lr-tb" unicode-bidi="normal" text-decoration="none" transform="matrix(1 0 0 1 3441.49 2087)">generates</text><g><g><g><path d="M95.4999 145.239C75.6041 145.239 59.6874 129.323 59.6874 109.427 59.6874 89.5311 75.6041 73.6145 95.4999 73.6145 115.396 73.6145 131.312 89.5311 131.312 109.427 131.312 129.323 115.396 145.239 95.4999 145.239ZM55.7083 81.5728 31.8333 81.5728 31.8333 65.6562 55.7083 65.6562 55.7083 81.5728ZM167.125 49.7395 127.333 49.7395 115.396 29.8437 75.6041 29.8437 63.6666 49.7395 23.875 49.7395C19.4979 49.7395 15.9166 53.3208 15.9166 57.6978L15.9166 153.198C15.9166 157.575 19.4979 161.156 23.875 161.156L167.125 161.156C171.502 161.156 175.083 157.575 175.083 153.198L175.083 57.6978C175.083 53.3208 171.502 49.7395 167.125 49.7395Z" fill="#000000" fill-rule="nonzero" fill-opacity="1" transform="matrix(1 0 0 1 741 491)"/><path d="M95.4999 89.5311C84.3582 89.5311 75.6041 98.2853 75.6041 109.427 75.6041 120.569 84.3582 129.323 95.4999 129.323 106.642 129.323 115.396 120.569 115.396 109.427 115.396 98.2853 106.642 89.5311 95.4999 89.5311ZM95.4999 137.281C79.9812 137.281 67.6458 124.946 67.6458 109.427 67.6458 93.9082 79.9812 81.5728 95.4999 81.5728 111.019 81.5728 123.354 93.9082 123.354 109.427 123.354 124.946 111.019 137.281 95.4999 137.281Z" fill="#000000" fill-rule="nonzero" fill-opacity="1" transform="matrix(1 0 0 1 741 491)"/></g></g></g><text fill="#000000" fill-opacity="1" font-family="Calibri,Calibri_MSFontService,sans-serif" font-style="normal" font-variant="normal" font-weight="400" font-stretch="normal" font-size="83" text-anchor="start" direction="ltr" writing-mode="lr-tb" unicode-bidi="normal" text-decoration="none" transform="matrix(1 0 0 1 708.187 785)">Camera</text><path d="M2098.72 629.881 996.899 615.446 996.929 613.154 2098.75 627.59ZM1001.32 628.109 974 614 1001.68 600.611Z" fill="#4472C4" fill-rule="nonzero" fill-opacity="1"/><text fill="#0070C0" fill-opacity="1" font-family="Calibri,Calibri_MSFontService,sans-serif" font-style="normal" font-variant="normal" font-weight="400" font-stretch="normal" font-size="64" text-anchor="start" direction="ltr" writing-mode="lr-tb" unicode-bidi="normal" text-decoration="none" transform="matrix(1 0 0 1 1207.2 569)">owns</text><path d="M0.91624-0.688069 377.422 500.67 375.589 502.046-0.91624 0.688069ZM384.748 489.437 390.267 519.684 362.759 505.951Z" fill="#70AD47" fill-rule="nonzero" fill-opacity="1" transform="matrix(-1 0 0 1 837.267 825)"/><text fill="#92D050" fill-opacity="1" font-family="Calibri,Calibri_MSFontService,sans-serif" font-style="normal" font-variant="normal" font-weight="400" font-stretch="normal" font-size="64" text-anchor="start" direction="ltr" writing-mode="lr-tb" unicode-bidi="normal" text-decoration="none" transform="matrix(1 0 0 1 475.451 957)">input</text></g></g></svg>