<svg xmlns="http://www.w3.org/2000/svg" xmlns:xlink="http://www.w3.org/1999/xlink" xmlns:lucid="lucid" width="7455" height="4552"><g transform="translate(1544 2001)" lucid:page-tab-id="0_0"><path d="M-1500-2000h11500v4500H-1500z" fill="#fff"/><path d="M1760-800h700v380h-700z" stroke="#5e5e5e" stroke-width="5" fill="#fff"/><path d="M2450-790h-15v20h15z" stroke="#5e5e5e" fill="#fff"/><path d="M2440-786.67h-10v3.34h10zm0 10h-10v3.34h10z" stroke="#5e5e5e" fill="#fff"/><use xlink:href="#a" transform="matrix(1,0,0,1,1760,-800) translate(147.33524691358042 76.51388888888886)"/><use xlink:href="#b" transform="matrix(1,0,0,1,1760,-800) translate(350.005 137.84722222222214)"/><use xlink:href="#c" transform="matrix(1,0,0,1,1760,-800) translate(217.6840123456791 199.18055555555543)"/><use xlink:href="#b" transform="matrix(1,0,0,1,1760,-800) translate(350.005 260.5138888888887)"/><use xlink:href="#d" transform="matrix(1,0,0,1,1760,-800) translate(212.35993827160505 321.847222222222)"/><path d="M2110-800v-36m0-144c38.66 0 70 32.24 70 72s-31.34 72-70 72-70-32.24-70-72 31.34-72 70-72z" stroke="#5e5e5e" stroke-width="5" fill="#fff"/><path d="M2107.2-800v-36h5.6v36zM2160-1014a6 6 0 0 1 6-6h288a6 6 0 0 1 6 6v48a6 6 0 0 1-6 6h-288a6 6 0 0 1-6-6z" fill="none"/><use xlink:href="#e" transform="matrix(1,0,0,1,2160,-1020) translate(47.26543209876547 37.55555555555556)"/><use xlink:href="#f" transform="matrix(1,0,0,1,2160,-1020) translate(191.87037037037035 37.55555555555556)"/><path d="M2290 222c0 15.46-80.6 28-180 28s-180-12.54-180-28V-2c0-15.46 80.6-28 180-28s180 12.54 180 28z" stroke="#5e5e5e" stroke-width="5" fill="#fff"/><path d="M2290-2c0 15.46-80.6 28-180 28s-180-12.54-180-28" stroke="#5e5e5e" stroke-width="5" fill="none"/><use xlink:href="#g" transform="matrix(1,0,0,1,1935,31) translate(61.703703703703795 87.70138888888886)"/><use xlink:href="#h" transform="matrix(1,0,0,1,1935,31) translate(65.75000000000009 149.03472222222214)"/><path d="M2110-30v-26m0-104c27.6 0 50 23.28 50 52s-22.4 52-50 52-50-23.28-50-52 22.4-52 50-52z" stroke="#5e5e5e" stroke-width="5" fill="#fff"/><path d="M2108-30v-26h4v26zM2180-134a6 6 0 0 1 6-6h268a6 6 0 0 1 6 6v48a6 6 0 0 1-6 6h-268a6 6 0 0 1-6-6z" fill="none"/><use xlink:href="#i" transform="matrix(1,0,0,1,2180,-140) translate(2.0061728395062346 37.55555555555556)"/><use xlink:href="#j" transform="matrix(1,0,0,1,2180,-140) translate(121.42592592592594 37.55555555555556)"/><use xlink:href="#k" transform="matrix(1,0,0,1,2180,-140) translate(211.5679012345679 37.55555555555556)"/><g fill="none"><path d="M2110-1410v-30m-70 90c0-33.14 31.34-60 70-60s70 26.86 70 60" stroke="#5e5e5e" stroke-width="5"/><path d="M2040-1350c0-33.14 31.34-60 70-60s70 26.86 70 60zM2110-1410a2.8 2.8 0 0 1-2.8-2.8v-24.4a2.8 2.8 0 0 1 2.8-2.8 2.8 2.8 0 0 1 2.8 2.8v24.4a2.8 2.8 0 0 1-2.8 2.8z"/></g><path d="M1760-1820h700v380h-700z" stroke="#5e5e5e" stroke-width="5" fill="#fff"/><path d="M2450-1810h-15v20h15z" stroke="#5e5e5e" fill="#fff"/><path d="M2440-1806.67h-10v3.34h10zm0 10h-10v3.34h10z" stroke="#5e5e5e" fill="#fff"/><use xlink:href="#l" transform="matrix(1,0,0,1,1760,-1820) translate(270.5698148148149 76.51388888888886)"/><use xlink:href="#b" transform="matrix(1,0,0,1,1760,-1820) translate(350.005 137.84722222222214)"/><use xlink:href="#m" transform="matrix(1,0,0,1,1760,-1820) translate(139.88154320987672 199.18055555555543)"/><use xlink:href="#b" transform="matrix(1,0,0,1,1760,-1820) translate(350.005 260.5138888888887)"/><use xlink:href="#d" transform="matrix(1,0,0,1,1760,-1820) translate(212.35993827160505 321.847222222222)"/><g fill="none"><path d="M2110-220v-30m-62.5 90c0-33.14 27.98-60 62.5-60 34.52 0 62.5 26.86 62.5 60" stroke="#5e5e5e" stroke-width="5"/><path d="M2047.5-160c0-33.14 27.98-60 62.5-60 34.52 0 62.5 26.86 62.5 60zM2110-220a2.5 2.5 0 0 1-2.5-2.5v-25a2.5 2.5 0 0 1 2.5-2.5 2.5 2.5 0 0 1 2.5 2.5v25a2.5 2.5 0 0 1-2.5 2.5z"/></g><path d="M2110-415v162.5" stroke="#5e5e5e" stroke-width="5" fill="none"/><path d="M2112.48-414.94h-4.95v-2.56h4.95zM2112.48-250h-4.95v-2.56h4.95z" stroke="#5e5e5e" stroke-width=".05" fill="#5e5e5e"/><g fill="none"><path d="M2490-717.5h-30m90 62.5c-33.14 0-60-27.98-60-62.5 0-34.52 26.86-62.5 60-62.5" stroke="#5e5e5e" stroke-width="5"/><path d="M2550-655c-33.14 0-60-27.98-60-62.5 0-34.52 26.86-62.5 60-62.5zM2490-717.5a2.5 2.5 0 0 1-2.5 2.5h-25a2.5 2.5 0 0 1-2.5-2.5 2.5 2.5 0 0 1 2.5-2.5h25a2.5 2.5 0 0 1 2.5 2.5z"/></g><g fill="none"><path d="M2490-517.5h-30m90 62.5c-33.14 0-60-27.98-60-62.5 0-34.52 26.86-62.5 60-62.5" stroke="#5e5e5e" stroke-width="5"/><path d="M2550-455c-33.14 0-60-27.98-60-62.5 0-34.52 26.86-62.5 60-62.5zM2490-517.5a2.5 2.5 0 0 1-2.5 2.5h-25a2.5 2.5 0 0 1-2.5-2.5 2.5 2.5 0 0 1 2.5-2.5h25a2.5 2.5 0 0 1 2.5 2.5z"/></g><path d="M200-800h700v380H200z" stroke="#5e5e5e" stroke-width="5" fill="#fff"/><path d="M890-790h-15v20h15z" stroke="#5e5e5e" fill="#fff"/><path d="M880-786.67h-10v3.34h10zm0 10h-10v3.34h10z" stroke="#5e5e5e" fill="#fff"/><use xlink:href="#a" transform="matrix(1,0,0,1,200,-800) translate(147.33524691358042 76.51388888888886)"/><use xlink:href="#b" transform="matrix(1,0,0,1,200,-800) translate(350.005 137.84722222222214)"/><use xlink:href="#n" transform="matrix(1,0,0,1,200,-800) translate(262.05129629629636 199.18055555555543)"/><use xlink:href="#b" transform="matrix(1,0,0,1,200,-800) translate(350.005 260.5138888888887)"/><use xlink:href="#d" transform="matrix(1,0,0,1,200,-800) translate(212.35993827160505 321.847222222222)"/><path d="M550-800v-36m0-144c38.66 0 70 32.24 70 72s-31.34 72-70 72-70-32.24-70-72 31.34-72 70-72z" stroke="#5e5e5e" stroke-width="5" fill="#fff"/><path d="M547.2-800v-36h5.6v36zM620-934a6 6 0 0 1 6-6h288a6 6 0 0 1 6 6v48a6 6 0 0 1-6 6H626a6 6 0 0 1-6-6z" fill="none"/><use xlink:href="#e" transform="matrix(1,0,0,1,620,-940) translate(47.26543209876547 37.55555555555556)"/><use xlink:href="#f" transform="matrix(1,0,0,1,620,-940) translate(191.87037037037035 37.55555555555556)"/><path d="M730 222c0 15.46-80.6 28-180 28s-180-12.54-180-28V-2c0-15.46 80.6-28 180-28S730-17.46 730-2z" stroke="#5e5e5e" stroke-width="5" fill="#fff"/><path d="M730-2c0 15.46-80.6 28-180 28S370 13.46 370-2" stroke="#5e5e5e" stroke-width="5" fill="none"/><use xlink:href="#g" transform="matrix(1,0,0,1,375,31) translate(61.703703703703795 87.70138888888886)"/><use xlink:href="#h" transform="matrix(1,0,0,1,375,31) translate(65.75000000000009 149.03472222222214)"/><path d="M550-30v-26m0-104c27.6 0 50 23.28 50 52s-22.4 52-50 52-50-23.28-50-52 22.4-52 50-52z" stroke="#5e5e5e" stroke-width="5" fill="#fff"/><path d="M548-30v-26h4v26z" fill="none"/><path d="M-360-630h26m104 0c0 27.6-23.28 50-52 50s-52-22.4-52-50 23.28-50 52-50 52 22.4 52 50z" stroke="#5e5e5e" stroke-width="5" fill="#fff"/><path d="M-360-632h26v4h-26z" fill="none"/><path d="M3240-800h700v380h-700z" stroke="#5e5e5e" stroke-width="5" fill="#fff"/><path d="M3930-790h-15v20h15z" stroke="#5e5e5e" fill="#fff"/><path d="M3920-786.67h-10v3.34h10zm0 10h-10v3.34h10z" stroke="#5e5e5e" fill="#fff"/><use xlink:href="#a" transform="matrix(1,0,0,1,3240,-800) translate(147.33524691358042 76.51388888888886)"/><use xlink:href="#b" transform="matrix(1,0,0,1,3240,-800) translate(350.005 137.84722222222214)"/><use xlink:href="#o" transform="matrix(1,0,0,1,3240,-800) translate(205.33216049382725 199.18055555555543)"/><use xlink:href="#b" transform="matrix(1,0,0,1,3240,-800) translate(350.005 260.5138888888887)"/><use xlink:href="#p" transform="matrix(1,0,0,1,3240,-800) translate(215.19944444444454 321.847222222222)"/><path d="M3590-800v-36m0-144c38.66 0 70 32.24 70 72s-31.34 72-70 72-70-32.24-70-72 31.34-72 70-72z" stroke="#5e5e5e" stroke-width="5" fill="#fff"/><path d="M3587.2-800v-36h5.6v36zM3660-934a6 6 0 0 1 6-6h288a6 6 0 0 1 6 6v48a6 6 0 0 1-6 6h-288a6 6 0 0 1-6-6z" fill="none"/><use xlink:href="#i" transform="matrix(1,0,0,1,3660,-940) translate(59.858024691358054 37.55555555555556)"/><use xlink:href="#f" transform="matrix(1,0,0,1,3660,-940) translate(179.27777777777777 37.55555555555556)"/><path d="M3960-434a6 6 0 0 1 6-6h288a6 6 0 0 1 6 6v48a6 6 0 0 1-6 6h-288a6 6 0 0 1-6-6z" fill="none"/><use xlink:href="#q" transform="matrix(1,0,0,1,3960,-440) translate(9.540123456790184 37.55555555555556)"/><use xlink:href="#r" transform="matrix(1,0,0,1,3960,-440) translate(116.57716049382718 37.55555555555556)"/><path d="M620-134a6 6 0 0 1 6-6h268a6 6 0 0 1 6 6v48a6 6 0 0 1-6 6H626a6 6 0 0 1-6-6z" fill="none"/><use xlink:href="#i" transform="matrix(1,0,0,1,620,-140) translate(2.0061728395062346 37.55555555555556)"/><use xlink:href="#j" transform="matrix(1,0,0,1,620,-140) translate(121.42592592592594 37.55555555555556)"/><use xlink:href="#k" transform="matrix(1,0,0,1,620,-140) translate(211.5679012345679 37.55555555555556)"/><g fill="none"><path d="M550-220v-30m-62.5 90c0-33.14 27.98-60 62.5-60 34.52 0 62.5 26.86 62.5 60" stroke="#5e5e5e" stroke-width="5"/><path d="M487.5-160c0-33.14 27.98-60 62.5-60 34.52 0 62.5 26.86 62.5 60zM550-220a2.5 2.5 0 0 1-2.5-2.5v-25a2.5 2.5 0 0 1 2.5-2.5 2.5 2.5 0 0 1 2.5 2.5v25a2.5 2.5 0 0 1-2.5 2.5z"/></g><path d="M550-415v162.5" stroke="#5e5e5e" stroke-width="5" fill="none"/><path d="M552.48-414.94h-4.95v-2.56h4.95zM552.48-250h-4.95v-2.56h4.95z" stroke="#5e5e5e" stroke-width=".05" fill="#5e5e5e"/><g fill="none"><path d="M930-717.5h-30m90 62.5c-33.14 0-60-27.98-60-62.5 0-34.52 26.86-62.5 60-62.5" stroke="#5e5e5e" stroke-width="5"/><path d="M990-655c-33.14 0-60-27.98-60-62.5 0-34.52 26.86-62.5 60-62.5zM930-717.5a2.5 2.5 0 0 1-2.5 2.5h-25a2.5 2.5 0 0 1-2.5-2.5 2.5 2.5 0 0 1 2.5-2.5h25a2.5 2.5 0 0 1 2.5 2.5z"/></g><path d="M170-630h30m-90-62.5c33.14 0 60 27.98 60 62.5 0 34.52-26.86 62.5-60 62.5" stroke="#5e5e5e" stroke-width="5" fill="none"/><path d="M110-692.5c33.14 0 60 27.98 60 62.5 0 34.52-26.86 62.5-60 62.5zM170-630a2.5 2.5 0 0 1 2.5-2.5h25a2.5 2.5 0 0 1 2.5 2.5 2.5 2.5 0 0 1-2.5 2.5h-25a2.5 2.5 0 0 1-2.5-2.5z" fill="none"/><path d="M3770 222c0 15.46-80.6 28-180 28s-180-12.54-180-28V-2c0-15.46 80.6-28 180-28s180 12.54 180 28z" stroke="#5e5e5e" stroke-width="5" fill="#fff"/><path d="M3770-2c0 15.46-80.6 28-180 28s-180-12.54-180-28" stroke="#5e5e5e" stroke-width="5" fill="none"/><use xlink:href="#g" transform="matrix(1,0,0,1,3415,31) translate(61.703703703703795 87.70138888888886)"/><use xlink:href="#h" transform="matrix(1,0,0,1,3415,31) translate(65.75000000000009 149.03472222222214)"/><path d="M3590-30v-26m0-104c27.6 0 50 23.28 50 52s-22.4 52-50 52-50-23.28-50-52 22.4-52 50-52z" stroke="#5e5e5e" stroke-width="5" fill="#fff"/><path d="M3588-30v-26h4v26z" fill="none"/><path d="M3940-517.5h26m104 0c0 27.6-23.28 50-52 50s-52-22.4-52-50 23.28-50 52-50 52 22.4 52 50z" stroke="#5e5e5e" stroke-width="5" fill="#fff"/><path d="M3940-519.5h26v4h-26z" fill="none"/><g fill="none"><path d="M930-517.5h-30m90 62.5c-33.14 0-60-27.98-60-62.5 0-34.52 26.86-62.5 60-62.5" stroke="#5e5e5e" stroke-width="5"/><path d="M990-455c-33.14 0-60-27.98-60-62.5 0-34.52 26.86-62.5 60-62.5zM930-517.5a2.5 2.5 0 0 1-2.5 2.5h-25a2.5 2.5 0 0 1-2.5-2.5 2.5 2.5 0 0 1 2.5-2.5h25a2.5 2.5 0 0 1 2.5 2.5z"/></g><path d="M3660-134a6 6 0 0 1 6-6h268a6 6 0 0 1 6 6v48a6 6 0 0 1-6 6h-268a6 6 0 0 1-6-6z" fill="none"/><use xlink:href="#i" transform="matrix(1,0,0,1,3660,-140) translate(2.0061728395062346 37.55555555555556)"/><use xlink:href="#j" transform="matrix(1,0,0,1,3660,-140) translate(121.42592592592594 37.55555555555556)"/><use xlink:href="#k" transform="matrix(1,0,0,1,3660,-140) translate(211.5679012345679 37.55555555555556)"/><g fill="none"><path d="M3590-220v-30m-62.5 90c0-33.14 27.98-60 62.5-60 34.52 0 62.5 26.86 62.5 60" stroke="#5e5e5e" stroke-width="5"/><path d="M3527.5-160c0-33.14 27.98-60 62.5-60 34.52 0 62.5 26.86 62.5 60zM3590-220a2.5 2.5 0 0 1-2.5-2.5v-25a2.5 2.5 0 0 1 2.5-2.5 2.5 2.5 0 0 1 2.5 2.5v25a2.5 2.5 0 0 1-2.5 2.5z"/></g><path d="M3590-415v162.5" stroke="#5e5e5e" stroke-width="5" fill="none"/><path d="M3592.48-414.94h-4.95v-2.56h4.95zM3592.48-250h-4.95v-2.56h4.95z" stroke="#5e5e5e" stroke-width=".05" fill="#5e5e5e"/><path d="M3210-517.5h30m-90-62.5c33.14 0 60 27.98 60 62.5 0 34.52-26.86 62.5-60 62.5" stroke="#5e5e5e" stroke-width="5" fill="none"/><path d="M3150-580c33.14 0 60 27.98 60 62.5 0 34.52-26.86 62.5-60 62.5zM3210-517.5a2.5 2.5 0 0 1 2.5-2.5h25a2.5 2.5 0 0 1 2.5 2.5 2.5 2.5 0 0 1-2.5 2.5h-25a2.5 2.5 0 0 1-2.5-2.5z" fill="none"/><path d="M3210-717.5h30m-90-62.5c33.14 0 60 27.98 60 62.5 0 34.52-26.86 62.5-60 62.5" stroke="#5e5e5e" stroke-width="5" fill="none"/><path d="M3150-780c33.14 0 60 27.98 60 62.5 0 34.52-26.86 62.5-60 62.5zM3210-717.5a2.5 2.5 0 0 1 2.5-2.5h25a2.5 2.5 0 0 1 2.5 2.5 2.5 2.5 0 0 1-2.5 2.5h-25a2.5 2.5 0 0 1-2.5-2.5z" fill="none"/><path d="M1760 1320h700v380h-700z" stroke="#5e5e5e" stroke-width="5" fill="#fff"/><path d="M2450 1330h-15v20h15z" stroke="#5e5e5e" fill="#fff"/><path d="M2440 1333.33h-10v3.34h10zm0 10h-10v3.34h10z" stroke="#5e5e5e" fill="#fff"/><use xlink:href="#a" transform="matrix(1,0,0,1,1760,1320) translate(147.33524691358042 76.51388888888886)"/><use xlink:href="#b" transform="matrix(1,0,0,1,1760,1320) translate(350.005 137.84722222222214)"/><use xlink:href="#s" transform="matrix(1,0,0,1,1760,1320) translate(247.92475308641983 199.18055555555543)"/><use xlink:href="#b" transform="matrix(1,0,0,1,1760,1320) translate(350.005 260.5138888888887)"/><use xlink:href="#p" transform="matrix(1,0,0,1,1760,1320) translate(215.19944444444454 321.847222222222)"/><path d="M1910 1320v-36m0-144c38.66 0 70 32.23 70 72s-31.34 72-70 72-70-32.23-70-72 31.34-72 70-72z" stroke="#5e5e5e" stroke-width="5" fill="#fff"/><path d="M1907.2 1320v-36h5.6v36zM1540 1186a6 6 0 0 1 6-6h288a6 6 0 0 1 6 6v48a6 6 0 0 1-6 6h-288a6 6 0 0 1-6-6z" fill="none"/><use xlink:href="#i" transform="matrix(1,0,0,1,1540,1180) translate(59.858024691358054 37.55555555555556)"/><use xlink:href="#f" transform="matrix(1,0,0,1,1540,1180) translate(179.27777777777777 37.55555555555556)"/><path d="M2290 2342c0 15.46-80.6 28-180 28s-180-12.54-180-28v-224c0-15.46 80.6-28 180-28s180 12.54 180 28z" stroke="#5e5e5e" stroke-width="5" fill="#fff"/><path d="M2290 2118c0 15.46-80.6 28-180 28s-180-12.54-180-28" stroke="#5e5e5e" stroke-width="5" fill="none"/><use xlink:href="#g" transform="matrix(1,0,0,1,1935,2151) translate(61.703703703703795 87.70138888888886)"/><use xlink:href="#h" transform="matrix(1,0,0,1,1935,2151) translate(65.75000000000009 149.03472222222214)"/><path d="M2110 2090v-26m0-104c27.6 0 50 23.28 50 52s-22.4 52-50 52-50-23.28-50-52 22.4-52 50-52z" stroke="#5e5e5e" stroke-width="5" fill="#fff"/><path d="M2108 2090v-26h4v26zM2180 1986a6 6 0 0 1 6-6h268a6 6 0 0 1 6 6v48a6 6 0 0 1-6 6h-268a6 6 0 0 1-6-6z" fill="none"/><use xlink:href="#i" transform="matrix(1,0,0,1,2180,1980) translate(2.0061728395062346 37.55555555555556)"/><use xlink:href="#j" transform="matrix(1,0,0,1,2180,1980) translate(121.42592592592594 37.55555555555556)"/><use xlink:href="#k" transform="matrix(1,0,0,1,2180,1980) translate(211.5679012345679 37.55555555555556)"/><g fill="none"><path d="M2110 1900v-30m-62.5 90c0-33.14 27.98-60 62.5-60 34.52 0 62.5 26.86 62.5 60" stroke="#5e5e5e" stroke-width="5"/><path d="M2047.5 1960c0-33.14 27.98-60 62.5-60 34.52 0 62.5 26.86 62.5 60zM2110 1900a2.5 2.5 0 0 1-2.5-2.5v-25a2.5 2.5 0 0 1 2.5-2.5 2.5 2.5 0 0 1 2.5 2.5v25a2.5 2.5 0 0 1-2.5 2.5z"/></g><path d="M2110 1705v162.5" stroke="#5e5e5e" stroke-width="5" fill="none"/><path d="M2112.47 1705.06h-4.94v-2.56h4.94zM2112.47 1870h-4.94v-2.57h4.94z" stroke="#5e5e5e" stroke-width=".05" fill="#5e5e5e"/><path d="M4720-780h700v380h-700z" stroke="#5e5e5e" stroke-width="5" fill="#fff"/><path d="M5410-770h-15v20h15z" stroke="#5e5e5e" fill="#fff"/><path d="M5400-766.67h-10v3.34h10zm0 10h-10v3.34h10z" stroke="#5e5e5e" fill="#fff"/><use xlink:href="#a" transform="matrix(1,0,0,1,4720,-780) translate(147.33524691358042 76.51388888888886)"/><use xlink:href="#b" transform="matrix(1,0,0,1,4720,-780) translate(350.005 137.84722222222214)"/><use xlink:href="#t" transform="matrix(1,0,0,1,4720,-780) translate(199.5111728395063 199.18055555555543)"/><use xlink:href="#b" transform="matrix(1,0,0,1,4720,-780) translate(350.005 260.5138888888887)"/><use xlink:href="#d" transform="matrix(1,0,0,1,4720,-780) translate(212.35993827160505 321.847222222222)"/><path d="M5070-780v-36m0-144c38.66 0 70 32.23 70 72s-31.34 72-70 72-70-32.23-70-72 31.34-72 70-72z" stroke="#5e5e5e" stroke-width="5" fill="#fff"/><path d="M5067.2-780v-36h5.6v36z" fill="none"/><path d="M5250 242c0 15.46-80.6 28-180 28s-180-12.54-180-28V18c0-15.46 80.6-28 180-28s180 12.54 180 28z" stroke="#5e5e5e" stroke-width="5" fill="#fff"/><path d="M5250 18c0 15.46-80.6 28-180 28s-180-12.54-180-28" stroke="#5e5e5e" stroke-width="5" fill="none"/><use xlink:href="#g" transform="matrix(1,0,0,1,4895,51) translate(61.703703703703795 87.70138888888886)"/><use xlink:href="#h" transform="matrix(1,0,0,1,4895,51) translate(65.75000000000009 149.03472222222214)"/><path d="M5070-10v-26m0-104c27.6 0 50 23.28 50 52s-22.4 52-50 52-50-23.28-50-52 22.4-52 50-52z" stroke="#5e5e5e" stroke-width="5" fill="#fff"/><path d="M5068-10v-26h4v26zM5140-994a6 6 0 0 1 6-6h288a6 6 0 0 1 6 6v48a6 6 0 0 1-6 6h-288a6 6 0 0 1-6-6z" fill="none"/><use xlink:href="#i" transform="matrix(1,0,0,1,5140,-1000) translate(59.858024691358054 37.55555555555556)"/><use xlink:href="#f" transform="matrix(1,0,0,1,5140,-1000) translate(179.27777777777777 37.55555555555556)"/><path d="M5140-114a6 6 0 0 1 6-6h268a6 6 0 0 1 6 6v48a6 6 0 0 1-6 6h-268a6 6 0 0 1-6-6z" fill="none"/><use xlink:href="#i" transform="matrix(1,0,0,1,5140,-120) translate(2.0061728395062346 37.55555555555556)"/><use xlink:href="#j" transform="matrix(1,0,0,1,5140,-120) translate(121.42592592592594 37.55555555555556)"/><use xlink:href="#k" transform="matrix(1,0,0,1,5140,-120) translate(211.5679012345679 37.55555555555556)"/><g fill="none"><path d="M5070-200v-30m-62.5 90c0-33.14 27.98-60 62.5-60 34.52 0 62.5 26.86 62.5 60" stroke="#5e5e5e" stroke-width="5"/><path d="M5007.5-140c0-33.14 27.98-60 62.5-60 34.52 0 62.5 26.86 62.5 60zM5070-200a2.5 2.5 0 0 1-2.5-2.5v-25a2.5 2.5 0 0 1 2.5-2.5 2.5 2.5 0 0 1 2.5 2.5v25a2.5 2.5 0 0 1-2.5 2.5z"/></g><path d="M5070-395v162.5" stroke="#5e5e5e" stroke-width="5" fill="none"/><path d="M5072.48-394.94h-4.95v-2.56h4.95zM5072.48-230h-4.95v-2.56h4.95z" stroke="#5e5e5e" stroke-width=".05" fill="#5e5e5e"/><path d="M2110.4-1404.98v46.43m0 46.44v92.87m0 46.44v92.9m0 46.43v46.44M2110.4-1404.92v-5.56M2100.23-1004.6l10.18 17.2 10.2-17.2M2110.4-1404.98v68m0 68v68l-.06.93-.22.92-.36.87-.5.8-.6.72-.72.6-.8.5-.87.36-.92.22-.94.07h-51.6m-51.6 0H1898m-51.6 0h-103.2m-51.6 0h-103.2m-51.6 0h-103.2m-51.6 0h-103.2m-51.6 0H1124m-51.62 0h-103.2m-51.6 0h-103.2m-51.6 0h-103.2m-51.6 0h-51.6l-.95.1-.9.2-.88.37-.8.5-.72.6-.6.72-.5.8-.37.86-.2.9-.1.95v67.33m0 67.32v67.32M2110.4-1404.92v-5.56M540.2-1004.6l10.17 17.2 10.18-17.22M2110.4-1404.98v68m0 68v68l.1.93.2.92.37.87.5.8.6.72.72.6.8.5.86.36.9.22.95.07h48.92m48.9 0h97.8m48.9 0h97.8m48.9 0h97.82m48.9 0h97.8m48.9 0h97.8m48.9 0h97.82m48.9 0h97.8m48.9 0h97.8m48.92 0h97.8m48.9 0h48.9l.95.1.9.2.88.37.8.5.73.6.6.72.5.8.36.86.2.9.1.95v67.33m0 67.32v67.3M2110.4-1404.92v-5.56M3579.3-1004.62l10.2 17.22 10.17-17.22M935-717.27h45.4m45.38 0h90.77m45.38 0h90.77m45.4 0h90.76m45.38 0h45.4l.93-.07.9-.22.88-.36.8-.5.72-.6.6-.72.5-.8.37-.87.22-.93.07-.94v-64.12m0-64.1v-64.12l.07-.94.22-.92.36-.87.5-.8.6-.72.72-.6.8-.5.88-.36.9-.22.95-.07h45.2m45.23 0h90.43m45.2 0h90.43m45.22 0h90.43m45.2 0h45.23M935.07-717.27h-5.56M2016.63-911.44l17.2-10.18-17.2-10.18" stroke="#5e5e5e" stroke-width="5" fill="none"/><path d="M-1060-820h700v380h-700z" fill="#fff"/><path d="M-1042.5-820h15m10 0h15m10 0h15m10 0h15m10 0h15m10 0h15m10 0h15m10 0h15m10 0h15m10 0h15m10 0h15m10 0h15m10 0h15m10 0h15m10 0h15m10 0h15m10 0h15m10 0h15m10 0h15m10 0h15m10 0h15m10 0h15m10 0h15m10 0h15m10 0h15m10 0h15m10 0h15m10 0h7.5v7.6m0 10.13v15.2m0 10.14v15.2m0 10.13v15.2m0 10.13v15.2m0 10.14v15.2m0 10.13v15.2m0 10.13v15.2m0 10.14v15.2m0 10.13v15.2m0 10.13v15.2m0 10.14v15.2m0 10.13v15.2m0 10.13v15.2m0 10.14v15.2m0 10.13v7.6h-7.5m-10 0h-15m-10 0h-15m-10 0h-15m-10 0h-15m-10 0h-15m-10 0h-15m-10 0h-15m-10 0h-15m-10 0h-15m-10 0h-15m-10 0h-15m-10 0h-15m-10 0h-15m-10 0h-15m-10 0h-15m-10 0h-15m-10 0h-15m-10 0h-15m-10 0h-15m-10 0h-15m-10 0h-15m-10 0h-15m-10 0h-15m-10 0h-15m-10 0h-15m-10 0h-15m-10 0h-15m-10 0h-7.5v-7.6m0-10.13v-15.2m0-10.14v-15.2m0-10.13v-15.2m0-10.13v-15.2m0-10.14v-15.2m0-10.13v-15.2m0-10.13v-15.2m0-10.14v-15.2m0-10.13v-15.2m0-10.13v-15.2m0-10.14v-15.2m0-10.13v-15.2m0-10.13v-15.2m0-10.14v-15.2m0-10.13v-7.6h7.5" stroke="#5e5e5e" stroke-width="5" fill="none"/><path d="M-370-810h-15v20h15z" fill="#fff"/><path d="M-385-796v6h15v-6m0-8v-6h-15v6" stroke="#5e5e5e" fill="none"/><path d="M-380-806.67h-10v3.34h10zm0 10h-10v3.34h10z" fill="#fff"/><path d="M-380-806.67h-10v3.34h10zm0 10h-10v3.34h10z" stroke="#5e5e5e" fill="none"/><g><use xlink:href="#u" transform="matrix(1,0,0,1,-1060,-820) translate(111.6994444444447 76.51388888888886)"/><use xlink:href="#v" transform="matrix(1,0,0,1,-1060,-820) translate(366.97104938271605 76.51388888888886)"/><use xlink:href="#b" transform="matrix(1,0,0,1,-1060,-820) translate(350.005 137.84722222222214)"/><use xlink:href="#w" transform="matrix(1,0,0,1,-1060,-820) translate(160.25500000000017 199.18055555555543)"/><use xlink:href="#b" transform="matrix(1,0,0,1,-1060,-820) translate(350.005 260.5138888888887)"/><use xlink:href="#x" transform="matrix(1,0,0,1,-1060,-820) translate(350.005 321.847222222222)"/></g><path d="M165-630.4h-43.12m-43.1 0h-86.2m-43.12 0h-86.2m-43.1 0h-43.12M164.93-630.4h5.56M-205.38-640.6l-17.22 10.2 17.22 10.17M3205-717.58h-37.38l-.03.02-.03.02h-.02l-.02.03v.02l-.02.02v.11l-.02.02-.02.03v.02l-.03.02h-.03l-.02.02H3120.22m-47.1 0H3026l-.94-.06-.9-.22-.88-.36-.8-.5-.72-.6-.6-.72-.5-.8-.37-.88-.23-.9-.07-.95v-64.23m0-64.23v-64.22l-.07-.94-.22-.9-.35-.88-.5-.8-.6-.72-.72-.6-.8-.5-.88-.36-.9-.22-.95-.08h-46m-46.02 0h-92.03m-46 0h-92.03m-46.02 0h-92.02m-46 0h-92.04m-46 0h-92.03m-46 0h-46.02M3204.93-717.58h5.57M2203.36-932.1l-17.2 10.18 17.2 10.18M2110-1405v37.36l.02.03.02.02.02.02.03.02v.02h.04l.04.02h.1l.03.02.03.02.02.02.03.03v.02l.02.03v55.5m0 55.44v55.43l-.06.95-.22.92-.36.87-.5.8-.6.72-.72.6-.8.5-.87.36-.92.22-.94.07H2054m-50.4 0h-100.83m-50.4 0h-100.84m-50.4 0H1600.3m-50.42 0h-100.82m-50.4 0H1297.8m-50.4 0h-100.83m-50.42 0H995.35m-50.4 0H844.1m-50.4 0H692.87m-50.4 0H541.64m-50.4 0H390.4m-50.4 0H239.18m-50.4 0H87.93m-50.4 0H-63.3m-50.4 0h-100.83m-50.4 0h-100.83m-50.42 0H-517m-50.4 0h-100.84m-50.4 0h-100.83m-50.4 0h-100.84m-50.42 0h-100.82m-50.4 0h-100.84m-50.4 0H-1374l-.94.1-.9.2-.88.37-.8.5-.72.6-.6.72-.5.8-.37.86-.23.9-.07.95v51.5m0 51.5v103m0 51.5v103m0 51.5v103m0 51.5v103m0 51.5v103m0 51.5v103m0 51.5v103m0 51.5v103m0 51.5v103m0 51.5v103m0 51.5v103m0 51.5v103m0 51.5v103m0 51.5V974l.07.94.22.9.35.88.5.8.6.72.72.6.8.5.88.37.9.23.95.07h49.8m49.78 0h99.6m49.78 0h99.58m49.8 0h99.58m49.8 0h99.57m49.78 0h99.6m49.78 0h99.58m49.8 0h99.58m49.8 0h99.57m49.78 0h99.6m49.78 0h99.58m49.8 0h99.58m49.8 0h99.57m49.78 0h99.6m49.78 0h99.58m49.8 0h99.58m49.8 0h99.57m49.78 0h99.6m49.78 0h99.58m49.8 0h99.58m49.8 0h99.57m49.78 0h99.6m49.78 0h49.8l.93.07.9.22.87.35.8.5.72.6.6.72.5.8.36.88.2.9.1.95v49.16m0 49.15v49.17M2110-1404.93v-5.57M1908.07 1115.9l10.18 17.2 10.18-17.2" stroke="#5e5e5e" stroke-width="5" fill="none"/><path d="M2110-1405v68m0 68v68l.07.95.22.92.35.87.5.8.6.72.72.6.8.5.88.36.9.22.95.07h49.25m49.24 0h98.5m49.24 0h98.5m49.24 0h98.5m49.24 0h98.5m49.25 0h98.5m49.24 0h98.5m49.26 0h98.5m49.24 0h98.5m49.24 0h98.5m49.24 0h98.5m49.25 0h98.5m49.24 0h98.5m49.24 0h98.5m49.26 0h98.5m49.24 0h98.5m49.24 0h98.5m49.25 0h98.48m49.25 0h98.5m49.24 0h98.5m49.25 0h49.24l.94.1.92.2.87.37.8.5.7.6.62.72.5.8.35.86.22.9.06.95v74.12m0 74.1v74.1M2110-1404.93v-5.57M5066.68-984.26l10.18 17.22 10.2-17.22M4687.5-517.5h30m-90-62.5c33.14 0 60 27.98 60 62.5 0 34.52-26.86 62.5-60 62.5" stroke="#5e5e5e" stroke-width="5" fill="none"/><path d="M4627.5-580c33.14 0 60 27.98 60 62.5 0 34.52-26.86 62.5-60 62.5zM4687.5-517.5a2.5 2.5 0 0 1 2.5-2.5h25a2.5 2.5 0 0 1 2.5 2.5 2.5 2.5 0 0 1-2.5 2.5h-25a2.5 2.5 0 0 1-2.5-2.5z" fill="none"/><path d="M4669.95-517.5h-49.58m-49.58 0h-99.17m-49.58 0h-98.81m-49.24 0h-98.48m-49.24 0h-49.23M4669.9-517.5h5.55M4094.63-527.68l-17.22 10.18 17.23 10.18" stroke="#5e5e5e" stroke-width="5" fill="none"/><g fill="none"><path d="M3965-717.5h-30m90 62.5c-33.14 0-60-27.98-60-62.5 0-34.52 26.86-62.5 60-62.5" stroke="#5e5e5e" stroke-width="5"/><path d="M4025-655c-33.14 0-60-27.98-60-62.5 0-34.52 26.86-62.5 60-62.5zM3965-717.5a2.5 2.5 0 0 1-2.5 2.5h-25a2.5 2.5 0 0 1-2.5-2.5 2.5 2.5 0 0 1 2.5-2.5h25a2.5 2.5 0 0 1 2.5 2.5z"/></g><path d="M3982.55-717.5h55.58m55.6 0h111.16m55.57 0h111.17m55.58 0h55.6l.93-.07.9-.22.88-.36.8-.5.72-.6.6-.7.5-.82.36-.87.23-.9.08-.95v-53.45m0-53.44v-53.43l.08-.94.22-.92.36-.86.5-.8.6-.72.72-.6.8-.5.87-.36.92-.22.94-.07h55.36m55.36 0h110.7m55.37 0h110.7m55.36 0h55.36M3982.6-717.5h-5.55M4975.44-879.65l17.2-10.18-17.2-10.18" stroke="#5e5e5e" stroke-width="5" fill="none"/><g><path d="M2250 1320v-36m0-144c38.66 0 70 32.24 70 72s-31.34 72-70 72-70-32.24-70-72 31.34-72 70-72z" stroke="#5e5e5e" stroke-width="5" fill="#fff"/><path d="M2247.2 1320v-36h5.6v36z" fill="none"/></g><path d="M2355 1186a6 6 0 0 1 6-6h288a6 6 0 0 1 6 6v48a6 6 0 0 1-6 6h-288a6 6 0 0 1-6-6z" fill="none"/><g><use xlink:href="#q" transform="matrix(1,0,0,1,2355,1180) translate(9.540123456790184 37.55555555555556)"/><use xlink:href="#r" transform="matrix(1,0,0,1,2355,1180) translate(116.57716049382718 37.55555555555556)"/></g><path d="M947.55-517.5h39.4m39.42 0h78.8m39.42 0h39.4l.94.07.9.22.88.35.8.5.72.6.6.72.5.8.37.88.23.9.07.95v52.17m0 52.16v104.34m0 52.16v104.34m0 52.16V10.17m0 52.16v104.34m0 52.16v104.34m0 52.16v104.34m0 52.16V584l.07.94.22.9.35.88.5.8.6.72.72.6.8.5.88.37.9.23.95.07h49.67m49.68 0h99.35m49.67 0h99.35m49.67 0h99.34m49.68 0h99.35m49.67 0h99.35m49.66 0h99.35m49.68 0h49.68l.94.07.9.22.88.35.8.5.72.6.6.72.5.8.37.88.22.9.06.95v44.76m0 44.77v89.52m0 44.77v89.52m0 44.76v89.53m0 44.76v44.76M947.6-517.5h-5.55M2234.98 1115.58l10.18 17.2 10.18-17.2M2507.55-517.5h62.15m62.15 0H2694l.94.07.9.22.88.35.8.5.72.6.6.72.5.8.37.88.23.9.07.95v52.17m0 52.16v104.34m0 52.16v104.34m0 52.16V10.17m0 52.16v104.34m0 52.16v104.34m0 52.16v104.34m0 52.16V584l-.07.94-.22.9-.35.88-.5.8-.6.72-.72.6-.8.5-.88.37-.9.23-.95.07h-49.2m-49.2 0h-98.42m-49.2 0h-98.4m-49.22 0h-49.2l-.94.07-.9.22-.88.35-.8.5-.72.6-.6.72-.5.8-.37.88-.22.9-.07.95v44.76m0 44.77v89.52m0 44.77v89.52m0 44.76v89.53m0 44.76v44.76M2507.6-517.5h-5.55" stroke="#5e5e5e" stroke-width="5" fill="none"/><path d="M2234.98 1115.58l10.18 17.2 10.18-17.2M3192.45-517.5h-55.48m-55.5 0H3026l-.94.07-.9.22-.88.36-.8.5-.72.6-.6.7-.5.82-.37.87-.23.9-.07.95v52.17m0 52.16v104.34m0 52.16v104.34m0 52.16V10.17m0 52.16v104.34m0 52.16v104.34m0 52.16v104.34m0 52.16V584l-.07.94-.22.9-.35.88-.5.8-.6.72-.72.6-.8.5-.88.37-.9.23-.95.07h-50.86m-50.85 0h-101.72m-50.86 0h-101.7m-50.87 0h-101.7m-50.87 0h-101.7m-50.86 0h-50.86l-.94.07-.9.22-.88.35-.8.5-.72.6-.6.72-.5.8-.37.88-.22.9-.07.95v44.76m0 44.77v89.52m0 44.77v89.52m0 44.76v89.53m0 44.76v44.76M3192.4-517.5h5.55" stroke="#5e5e5e" stroke-width="5" fill="none"/><path d="M2234.98 1115.58l10.18 17.2 10.18-17.2M4669.95-517.5h-58.38m-58.38 0h-58.4l-.93.07-.92.22-.87.36-.8.5-.72.6-.6.7-.5.82-.36.87-.22.9-.07.95v52.17m0 52.16v104.34m0 52.16v104.34m0 52.16V10.17m0 52.16v104.34m0 52.16v104.34m0 52.16v104.34m0 52.16V584l-.07.94-.22.9-.35.88-.5.8-.6.72-.72.6-.8.5-.87.37-.9.23-.95.07h-49.6m-49.58 0h-99.18m-49.6 0h-99.18m-49.6 0h-99.17m-49.6 0h-99.2m-49.58 0h-99.2m-49.58 0h-99.18m-49.6 0h-99.18m-49.6 0H3243m-49.6 0h-99.17m-49.6 0h-99.18m-49.6 0h-99.18m-49.6 0h-99.17m-49.6 0h-99.18m-49.6 0h-99.18m-49.6 0h-49.58l-.94.07-.9.22-.88.35-.8.5-.72.6-.6.72-.5.8-.37.88-.22.9-.07.95v44.76m0 44.77v89.52m0 44.77v89.52m0 44.76v89.53m0 44.76v44.76M4669.9-517.5h5.55" stroke="#5e5e5e" stroke-width="5" fill="none"/><path d="M2234.98 1115.58l10.18 17.2 10.18-17.2M2507.55-717.5h57.74m57.73 0h115.5m57.73 0H2854l.94.07.9.22.88.35.8.5.72.6.6.72.5.8.37.88.23.9.07.95v48.95m0 48.96v97.92m0 48.95v97.9m0 48.97v97.9m0 48.96v97.9m0 48.96v97.9m0 48.97v97.9m0 48.96v97.9m0 48.95v97.9m0 48.97v97.9m0 48.96v97.9m0 48.96V904l.07.94.22.9.35.88.5.8.6.72.72.6.8.5.88.37.9.23.95.07h49.97m49.96 0h99.93m49.96 0h99.93m49.97 0h99.93m49.96 0h99.94m49.97 0h99.94m49.96 0h99.93m49.97 0h99.93m49.96 0h99.92m49.97 0H4265m49.96 0h99.93m49.98 0h99.93m49.97 0h99.93m49.97 0h99.93m49.96 0h99.93m49.96 0h99.93m49.95 0h99.93m49.97 0h99.93m49.96 0h99.93m49.97 0H5714l.94-.07.9-.22.88-.35.8-.5.72-.6.6-.72.5-.8.37-.88.23-.9.07-.95v-49.73m0-49.72V705.1m0-49.73v-99.45m0-49.72v-99.45m0-49.73v-99.45m0-49.73V108.4m0-49.73v-99.45m0-49.73v-99.46m0-49.72v-99.45m0-49.73v-99.45m0-49.74v-99.45m0-49.7v-99.46m0-49.73v-49.72l-.07-.93-.22-.92-.35-.87-.5-.8-.6-.72-.72-.6-.8-.5-.88-.36-.9-.22-.95-.08h-47.26m-47.25 0h-94.53m-47.26 0h-94.5m-47.26 0h-94.5m-47.27 0h-47.26M2507.6-717.5h-5.55M5164.5-902.3l-17.22 10.18 17.22 10.2" stroke="#5e5e5e" stroke-width="5" fill="none"/><defs><path fill="#333" d="M18-100v-36l175-74v27L42-118l151 64v27" id="y"/><path fill="#333" d="M210-169c-67 3-38 105-44 169h-31v-121c0-29-5-50-35-48C34-165 62-65 56 0H25l-1-190h30c1 10-1 24 2 32 10-44 99-50 107 0 11-21 27-35 58-36 85-2 47 119 55 194h-31v-121c0-29-5-49-35-48" id="z"/><path fill="#333" d="M24-231v-30h32v30H24zM24 0v-190h32V0H24" id="A"/><path fill="#333" d="M96-169c-40 0-48 33-48 73s9 75 48 75c24 0 41-14 43-38l32 2c-6 37-31 61-74 61-59 0-76-41-82-99-10-93 101-131 147-64 4 7 5 14 7 22l-32 3c-4-21-16-35-41-35" id="B"/><path fill="#333" d="M114-163C36-179 61-72 57 0H25l-1-190h30c1 12-1 29 2 39 6-27 23-49 58-41v29" id="C"/><path fill="#333" d="M100-194c62-1 85 37 85 99 1 63-27 99-86 99S16-35 15-95c0-66 28-99 85-99zM99-20c44 1 53-31 53-75 0-43-8-75-51-75s-53 32-53 75 10 74 51 75" id="D"/><path fill="#333" d="M135-143c-3-34-86-38-87 0 15 53 115 12 119 90S17 21 10-45l28-5c4 36 97 45 98 0-10-56-113-15-118-90-4-57 82-63 122-42 12 7 21 19 24 35" id="E"/><path fill="#333" d="M100-194c63 0 86 42 84 106H49c0 40 14 67 53 68 26 1 43-12 49-29l28 8c-11 28-37 45-77 45C44 4 14-33 15-96c1-61 26-98 85-98zm52 81c6-60-76-77-97-28-3 7-6 17-6 28h103" id="F"/><path fill="#333" d="M108 0H70L1-190h34L89-25l56-165h34" id="G"/><path fill="#333" d="M18-27v-27l151-64-151-65v-27l175 74v36" id="H"/><g id="a"><use transform="matrix(0.1419753086419752,0,0,0.1419753086419752,0,0)" xlink:href="#y"/><use transform="matrix(0.1419753086419752,0,0,0.1419753086419752,29.81481481481479,0)" xlink:href="#y"/><use transform="matrix(0.1419753086419752,0,0,0.1419753086419752,59.62962962962958,0)" xlink:href="#z"/><use transform="matrix(0.1419753086419752,0,0,0.1419753086419752,102.08024691358015,0)" xlink:href="#A"/><use transform="matrix(0.1419753086419752,0,0,0.1419753086419752,113.2962962962962,0)" xlink:href="#B"/><use transform="matrix(0.1419753086419752,0,0,0.1419753086419752,138.85185185185173,0)" xlink:href="#C"/><use transform="matrix(0.1419753086419752,0,0,0.1419753086419752,155.74691358024677,0)" xlink:href="#D"/><use transform="matrix(0.1419753086419752,0,0,0.1419753086419752,184.14197530864178,0)" xlink:href="#E"/><use transform="matrix(0.1419753086419752,0,0,0.1419753086419752,209.69753086419735,0)" xlink:href="#F"/><use transform="matrix(0.1419753086419752,0,0,0.1419753086419752,238.09259259259238,0)" xlink:href="#C"/><use transform="matrix(0.1419753086419752,0,0,0.1419753086419752,254.98765432098742,0)" xlink:href="#G"/><use transform="matrix(0.1419753086419752,0,0,0.1419753086419752,280.54320987654296,0)" xlink:href="#A"/><use transform="matrix(0.1419753086419752,0,0,0.1419753086419752,291.759259259259,0)" xlink:href="#B"/><use transform="matrix(0.1419753086419752,0,0,0.1419753086419752,317.31481481481455,0)" xlink:href="#F"/><use transform="matrix(0.1419753086419752,0,0,0.1419753086419752,345.7098765432096,0)" xlink:href="#H"/><use transform="matrix(0.1419753086419752,0,0,0.1419753086419752,375.52469135802437,0)" xlink:href="#H"/></g><path fill="#333" d="M127-220V0H93v-220H8v-28h204v28h-85" id="I"/><path fill="#333" d="M141-36C126-15 110 5 73 4 37 3 15-17 15-53c-1-64 63-63 125-63 3-35-9-54-41-54-24 1-41 7-42 31l-33-3c5-37 33-52 76-52 45 0 72 20 72 64v82c-1 20 7 32 28 27v20c-31 9-61-2-59-35zM48-53c0 20 12 33 32 33 41-3 63-29 60-74-43 2-92-5-92 41" id="J"/><path fill="#333" d="M117-194c89-4 53 116 60 194h-32v-121c0-31-8-49-39-48C34-167 62-67 57 0H25l-1-190h30c1 10-1 24 2 32 11-22 29-35 61-36" id="K"/><path fill="#333" d="M59-47c-2 24 18 29 38 22v24C64 9 27 4 27-40v-127H5v-23h24l9-43h21v43h35v23H59v120" id="L"/><g id="c"><use transform="matrix(0.1419753086419752,0,0,0.1419753086419752,0,0)" xlink:href="#I"/><use transform="matrix(0.1419753086419752,0,0,0.1419753086419752,29.24691358024689,0)" xlink:href="#C"/><use transform="matrix(0.1419753086419752,0,0,0.1419753086419752,46.14197530864194,0)" xlink:href="#J"/><use transform="matrix(0.1419753086419752,0,0,0.1419753086419752,74.53703703703698,0)" xlink:href="#K"/><use transform="matrix(0.1419753086419752,0,0,0.1419753086419752,102.93209876543202,0)" xlink:href="#E"/><use transform="matrix(0.1419753086419752,0,0,0.1419753086419752,128.48765432098756,0)" xlink:href="#J"/><use transform="matrix(0.1419753086419752,0,0,0.1419753086419752,156.8827160493826,0)" xlink:href="#B"/><use transform="matrix(0.1419753086419752,0,0,0.1419753086419752,182.43827160493814,0)" xlink:href="#L"/><use transform="matrix(0.1419753086419752,0,0,0.1419753086419752,196.63580246913568,0)" xlink:href="#A"/><use transform="matrix(0.1419753086419752,0,0,0.1419753086419752,207.8518518518517,0)" xlink:href="#D"/><use transform="matrix(0.1419753086419752,0,0,0.1419753086419752,236.24691358024674,0)" xlink:href="#K"/></g><path fill="#333" d="M26 75v-336h71v23H56V52h41v23H26" id="M"/><path fill="#333" d="M30 0v-248h33v221h125V0H30" id="N"/><path fill="#333" d="M106-169C34-169 62-67 57 0H25v-261h32l-1 103c12-21 28-36 61-36 89 0 53 116 60 194h-32v-121c2-32-8-49-39-48" id="O"/><path fill="#333" d="M3 75V52h41v-290H3v-23h71V75H3" id="P"/><g id="d"><use transform="matrix(0.1419753086419752,0,0,0.1419753086419752,0,0)" xlink:href="#M"/><use transform="matrix(0.1419753086419752,0,0,0.1419753086419752,14.19753086419752,0)" xlink:href="#N"/><use transform="matrix(0.1419753086419752,0,0,0.1419753086419752,42.59259259259256,0)" xlink:href="#J"/><use transform="matrix(0.1419753086419752,0,0,0.1419753086419752,70.9876543209876,0)" xlink:href="#B"/><use transform="matrix(0.1419753086419752,0,0,0.1419753086419752,96.54320987654313,0)" xlink:href="#O"/><use transform="matrix(0.1419753086419752,0,0,0.1419753086419752,124.93827160493817,0)" xlink:href="#F"/><use transform="matrix(0.1419753086419752,0,0,0.1419753086419752,153.3333333333332,0)" xlink:href="#K"/><use transform="matrix(0.1419753086419752,0,0,0.1419753086419752,181.72839506172824,0)" xlink:href="#A"/><use transform="matrix(0.1419753086419752,0,0,0.1419753086419752,192.9444444444443,0)" xlink:href="#B"/><use transform="matrix(0.1419753086419752,0,0,0.1419753086419752,218.49999999999983,0)" xlink:href="#O"/><use transform="matrix(0.1419753086419752,0,0,0.1419753086419752,246.89506172839486,0)" xlink:href="#L"/><use transform="matrix(0.1419753086419752,0,0,0.1419753086419752,261.0925925925924,0)" xlink:href="#P"/></g><path d="M153-248C145-148 188 4 80 4 36 3 13-21 6-62l32-5c4 25 16 42 43 43 27 0 39-20 39-49v-147H72v-28h81" id="Q"/><path d="M205 0l-28-72H64L36 0H1l101-248h38L239 0h-34zm-38-99l-47-123c-12 45-31 82-46 123h93" id="R"/><path d="M195 0l-74-108L45 0H8l94-129-87-119h37l69 98 67-98h37l-84 118L233 0h-38" id="S"/><path d="M16-82v-28h88v28H16" id="T"/><path d="M233-177c-1 41-23 64-60 70L243 0h-38l-65-103H63V0H30v-248c88 3 205-21 203 71zM63-129c60-2 137 13 137-47 0-61-80-42-137-45v92" id="U"/><path d="M185-189c-5-48-123-54-124 2 14 75 158 14 163 119 3 78-121 87-175 55-17-10-28-26-33-46l33-7c5 56 141 63 141-1 0-78-155-14-162-118-5-82 145-84 179-34 5 7 8 16 11 25" id="V"/><g id="e"><use transform="matrix(0.10493827160493824,0,0,0.10493827160493824,0,0)" xlink:href="#Q"/><use transform="matrix(0.10493827160493824,0,0,0.10493827160493824,18.888888888888882,0)" xlink:href="#R"/><use transform="matrix(0.10493827160493824,0,0,0.10493827160493824,44.07407407407406,0)" xlink:href="#S"/><use transform="matrix(0.10493827160493824,0,0,0.10493827160493824,69.25925925925924,0)" xlink:href="#T"/><use transform="matrix(0.10493827160493824,0,0,0.10493827160493824,81.74691358024688,0)" xlink:href="#U"/><use transform="matrix(0.10493827160493824,0,0,0.10493827160493824,108.9259259259259,0)" xlink:href="#V"/></g><path d="M30-248c87 1 191-15 191 75 0 78-77 80-158 76V0H30v-248zm33 125c57 0 124 11 124-50 0-59-68-47-124-48v98" id="W"/><path d="M33 0v-248h34V0H33" id="X"/><g id="f"><use transform="matrix(0.10493827160493824,0,0,0.10493827160493824,0,0)" xlink:href="#R"/><use transform="matrix(0.10493827160493824,0,0,0.10493827160493824,25.185185185185176,0)" xlink:href="#W"/><use transform="matrix(0.10493827160493824,0,0,0.10493827160493824,50.37037037037035,0)" xlink:href="#X"/></g><path fill="#333" d="M233-177c-1 41-23 64-60 70L243 0h-38l-65-103H63V0H30v-248c88 3 205-21 203 71zM63-129c60-2 137 13 137-47 0-61-80-42-137-45v92" id="Y"/><path fill="#333" d="M24 0v-261h32V0H24" id="Z"/><g id="g"><use transform="matrix(0.1419753086419752,0,0,0.1419753086419752,0,0)" xlink:href="#Y"/><use transform="matrix(0.1419753086419752,0,0,0.1419753086419752,36.77160493827157,0)" xlink:href="#F"/><use transform="matrix(0.1419753086419752,0,0,0.1419753086419752,65.16666666666661,0)" xlink:href="#Z"/><use transform="matrix(0.1419753086419752,0,0,0.1419753086419752,76.38271604938265,0)" xlink:href="#J"/><use transform="matrix(0.1419753086419752,0,0,0.1419753086419752,104.77777777777769,0)" xlink:href="#L"/><use transform="matrix(0.1419753086419752,0,0,0.1419753086419752,118.9753086419752,0)" xlink:href="#A"/><use transform="matrix(0.1419753086419752,0,0,0.1419753086419752,130.19135802469125,0)" xlink:href="#D"/><use transform="matrix(0.1419753086419752,0,0,0.1419753086419752,158.5864197530863,0)" xlink:href="#K"/><use transform="matrix(0.1419753086419752,0,0,0.1419753086419752,186.98148148148132,0)" xlink:href="#J"/><use transform="matrix(0.1419753086419752,0,0,0.1419753086419752,215.37654320987636,0)" xlink:href="#Z"/></g><path fill="#333" d="M30-248c118-7 216 8 213 122C240-48 200 0 122 0H30v-248zM63-27c89 8 146-16 146-99s-60-101-146-95v194" id="aa"/><path fill="#333" d="M115-194c53 0 69 39 70 98 0 66-23 100-70 100C84 3 66-7 56-30L54 0H23l1-261h32v101c10-23 28-34 59-34zm-8 174c40 0 45-34 45-75 0-40-5-75-45-74-42 0-51 32-51 76 0 43 10 73 51 73" id="ab"/><g id="h"><use transform="matrix(0.1419753086419752,0,0,0.1419753086419752,0,0)" xlink:href="#aa"/><use transform="matrix(0.1419753086419752,0,0,0.1419753086419752,36.77160493827157,0)" xlink:href="#J"/><use transform="matrix(0.1419753086419752,0,0,0.1419753086419752,65.16666666666661,0)" xlink:href="#L"/><use transform="matrix(0.1419753086419752,0,0,0.1419753086419752,79.36419753086413,0)" xlink:href="#J"/><use transform="matrix(0.1419753086419752,0,0,0.1419753086419752,107.75925925925917,0)" xlink:href="#ab"/><use transform="matrix(0.1419753086419752,0,0,0.1419753086419752,136.15432098765422,0)" xlink:href="#J"/><use transform="matrix(0.1419753086419752,0,0,0.1419753086419752,164.54938271604925,0)" xlink:href="#E"/><use transform="matrix(0.1419753086419752,0,0,0.1419753086419752,190.10493827160477,0)" xlink:href="#F"/></g><path d="M115-194c55 1 70 41 70 98S169 2 115 4C84 4 66-9 55-30l1 105H24l-1-265h31l2 30c10-21 28-34 59-34zm-8 174c40 0 45-34 45-75s-6-73-45-74c-42 0-51 32-51 76 0 43 10 73 51 73" id="ac"/><path d="M114-163C36-179 61-72 57 0H25l-1-190h30c1 12-1 29 2 39 6-27 23-49 58-41v29" id="ad"/><path d="M24-231v-30h32v30H24zM24 0v-190h32V0H24" id="ae"/><path d="M117-194c89-4 53 116 60 194h-32v-121c0-31-8-49-39-48C34-167 62-67 57 0H25l-1-190h30c1 10-1 24 2 32 11-22 29-35 61-36" id="af"/><path d="M177-190C167-65 218 103 67 71c-23-6-38-20-44-43l32-5c15 47 100 32 89-28v-30C133-14 115 1 83 1 29 1 15-40 15-95c0-56 16-97 71-98 29-1 48 16 59 35 1-10 0-23 2-32h30zM94-22c36 0 50-32 50-73 0-42-14-75-50-75-39 0-46 34-46 75s6 73 46 73" id="ag"/><g id="i"><use transform="matrix(0.10493827160493824,0,0,0.10493827160493824,0,0)" xlink:href="#V"/><use transform="matrix(0.10493827160493824,0,0,0.10493827160493824,25.185185185185176,0)" xlink:href="#ac"/><use transform="matrix(0.10493827160493824,0,0,0.10493827160493824,46.17283950617282,0)" xlink:href="#ad"/><use transform="matrix(0.10493827160493824,0,0,0.10493827160493824,58.66049382716047,0)" xlink:href="#ae"/><use transform="matrix(0.10493827160493824,0,0,0.10493827160493824,66.95061728395059,0)" xlink:href="#af"/><use transform="matrix(0.10493827160493824,0,0,0.10493827160493824,87.93827160493824,0)" xlink:href="#ag"/></g><path d="M30-248c118-7 216 8 213 122C240-48 200 0 122 0H30v-248zM63-27c89 8 146-16 146-99s-60-101-146-95v194" id="ah"/><path d="M141-36C126-15 110 5 73 4 37 3 15-17 15-53c-1-64 63-63 125-63 3-35-9-54-41-54-24 1-41 7-42 31l-33-3c5-37 33-52 76-52 45 0 72 20 72 64v82c-1 20 7 32 28 27v20c-31 9-61-2-59-35zM48-53c0 20 12 33 32 33 41-3 63-29 60-74-43 2-92-5-92 41" id="ai"/><path d="M59-47c-2 24 18 29 38 22v24C64 9 27 4 27-40v-127H5v-23h24l9-43h21v43h35v23H59v120" id="aj"/><g id="j"><use transform="matrix(0.10493827160493824,0,0,0.10493827160493824,0,0)" xlink:href="#ah"/><use transform="matrix(0.10493827160493824,0,0,0.10493827160493824,27.179012345679002,0)" xlink:href="#ai"/><use transform="matrix(0.10493827160493824,0,0,0.10493827160493824,48.16666666666665,0)" xlink:href="#aj"/><use transform="matrix(0.10493827160493824,0,0,0.10493827160493824,58.66049382716047,0)" xlink:href="#ai"/></g><g id="k"><use transform="matrix(0.10493827160493824,0,0,0.10493827160493824,0,0)" xlink:href="#Q"/><use transform="matrix(0.10493827160493824,0,0,0.10493827160493824,18.888888888888882,0)" xlink:href="#W"/><use transform="matrix(0.10493827160493824,0,0,0.10493827160493824,41.240740740740726,0)" xlink:href="#R"/></g><path fill="#333" d="M84 4C-5 8 30-112 23-190h32v120c0 31 7 50 39 49 72-2 45-101 50-169h31l1 190h-30c-1-10 1-25-2-33-11 22-28 36-60 37" id="ak"/><g id="l"><use transform="matrix(0.1419753086419752,0,0,0.1419753086419752,0,0)" xlink:href="#y"/><use transform="matrix(0.1419753086419752,0,0,0.1419753086419752,29.81481481481479,0)" xlink:href="#y"/><use transform="matrix(0.1419753086419752,0,0,0.1419753086419752,59.62962962962958,0)" xlink:href="#ak"/><use transform="matrix(0.1419753086419752,0,0,0.1419753086419752,88.02469135802461,0)" xlink:href="#A"/><use transform="matrix(0.1419753086419752,0,0,0.1419753086419752,99.24074074074065,0)" xlink:href="#H"/><use transform="matrix(0.1419753086419752,0,0,0.1419753086419752,129.05555555555543,0)" xlink:href="#H"/></g><path fill="#333" d="M232-93c-1 65-40 97-104 97C67 4 28-28 28-90v-158h33c8 89-33 224 67 224 102 0 64-133 71-224h33v155" id="al"/><path fill="#333" d="M33 0v-248h34V0H33" id="am"/><path fill="#333" d="M16-82v-28h88v28H16" id="an"/><path fill="#333" d="M63-220v92h138v28H63V0H30v-248h175v28H63" id="ao"/><path fill="#333" d="M143 0L79-87 56-68V0H24v-261h32v163l83-92h37l-77 82L181 0h-38" id="ap"/><g id="m"><use transform="matrix(0.1419753086419752,0,0,0.1419753086419752,0,0)" xlink:href="#al"/><use transform="matrix(0.1419753086419752,0,0,0.1419753086419752,36.77160493827157,0)" xlink:href="#am"/><use transform="matrix(0.1419753086419752,0,0,0.1419753086419752,50.96913580246909,0)" xlink:href="#an"/><use transform="matrix(0.1419753086419752,0,0,0.1419753086419752,67.86419753086415,0)" xlink:href="#ao"/><use transform="matrix(0.1419753086419752,0,0,0.1419753086419752,98.95679012345671,0)" xlink:href="#A"/><use transform="matrix(0.1419753086419752,0,0,0.1419753086419752,110.17283950617275,0)" xlink:href="#K"/><use transform="matrix(0.1419753086419752,0,0,0.1419753086419752,138.56790123456778,0)" xlink:href="#J"/><use transform="matrix(0.1419753086419752,0,0,0.1419753086419752,166.96296296296282,0)" xlink:href="#K"/><use transform="matrix(0.1419753086419752,0,0,0.1419753086419752,195.35802469135785,0)" xlink:href="#B"/><use transform="matrix(0.1419753086419752,0,0,0.1419753086419752,220.9135802469134,0)" xlink:href="#F"/><use transform="matrix(0.1419753086419752,0,0,0.1419753086419752,249.30864197530843,0)" xlink:href="#I"/><use transform="matrix(0.1419753086419752,0,0,0.1419753086419752,278.5555555555553,0)" xlink:href="#C"/><use transform="matrix(0.1419753086419752,0,0,0.1419753086419752,295.45061728395035,0)" xlink:href="#J"/><use transform="matrix(0.1419753086419752,0,0,0.1419753086419752,323.8456790123454,0)" xlink:href="#B"/><use transform="matrix(0.1419753086419752,0,0,0.1419753086419752,349.40123456790093,0)" xlink:href="#ap"/><use transform="matrix(0.1419753086419752,0,0,0.1419753086419752,374.95679012345647,0)" xlink:href="#F"/><use transform="matrix(0.1419753086419752,0,0,0.1419753086419752,403.3518518518515,0)" xlink:href="#C"/></g><path fill="#333" d="M30-248c87 1 191-15 191 75 0 78-77 80-158 76V0H30v-248zm33 125c57 0 124 11 124-50 0-59-68-47-124-48v98" id="aq"/><path fill="#333" d="M85-194c31 0 48 13 60 33l-1-100h32l1 261h-30c-2-10 0-23-3-31C134-8 116 4 85 4 32 4 16-35 15-94c0-66 23-100 70-100zm9 24c-40 0-46 34-46 75 0 40 6 74 45 74 42 0 51-32 51-76 0-42-9-74-50-73" id="ar"/><g id="n"><use transform="matrix(0.1419753086419752,0,0,0.1419753086419752,0,0)" xlink:href="#aq"/><use transform="matrix(0.1419753086419752,0,0,0.1419753086419752,34.07407407407405,0)" xlink:href="#C"/><use transform="matrix(0.1419753086419752,0,0,0.1419753086419752,50.96913580246909,0)" xlink:href="#D"/><use transform="matrix(0.1419753086419752,0,0,0.1419753086419752,79.36419753086413,0)" xlink:href="#ar"/><use transform="matrix(0.1419753086419752,0,0,0.1419753086419752,107.75925925925917,0)" xlink:href="#ak"/><use transform="matrix(0.1419753086419752,0,0,0.1419753086419752,136.15432098765422,0)" xlink:href="#B"/><use transform="matrix(0.1419753086419752,0,0,0.1419753086419752,161.70987654320976,0)" xlink:href="#L"/></g><path fill="#333" d="M185-189c-5-48-123-54-124 2 14 75 158 14 163 119 3 78-121 87-175 55-17-10-28-26-33-46l33-7c5 56 141 63 141-1 0-78-155-14-162-118-5-82 145-84 179-34 5 7 8 16 11 25" id="as"/><path fill="#333" d="M177-190C167-65 218 103 67 71c-23-6-38-20-44-43l32-5c15 47 100 32 89-28v-30C133-14 115 1 83 1 29 1 15-40 15-95c0-56 16-97 71-98 29-1 48 16 59 35 1-10 0-23 2-32h30zM94-22c36 0 50-32 50-73 0-42-14-75-50-75-39 0-46 34-46 75s6 73 46 73" id="at"/><path fill="#333" d="M143 4C61 4 22-44 18-125c-5-107 100-154 193-111 17 8 29 25 37 43l-32 9c-13-25-37-40-76-40-61 0-88 39-88 99 0 61 29 100 91 101 35 0 62-11 79-27v-45h-74v-28h105v86C228-13 192 4 143 4" id="au"/><g id="o"><use transform="matrix(0.1419753086419752,0,0,0.1419753086419752,0,0)" xlink:href="#as"/><use transform="matrix(0.1419753086419752,0,0,0.1419753086419752,34.07407407407405,0)" xlink:href="#J"/><use transform="matrix(0.1419753086419752,0,0,0.1419753086419752,62.46913580246908,0)" xlink:href="#G"/><use transform="matrix(0.1419753086419752,0,0,0.1419753086419752,88.02469135802464,0)" xlink:href="#A"/><use transform="matrix(0.1419753086419752,0,0,0.1419753086419752,99.24074074074066,0)" xlink:href="#K"/><use transform="matrix(0.1419753086419752,0,0,0.1419753086419752,127.6358024691357,0)" xlink:href="#at"/><use transform="matrix(0.1419753086419752,0,0,0.1419753086419752,156.03086419753075,0)" xlink:href="#E"/><use transform="matrix(0.1419753086419752,0,0,0.1419753086419752,181.5864197530863,0)" xlink:href="#au"/><use transform="matrix(0.1419753086419752,0,0,0.1419753086419752,221.33950617283935,0)" xlink:href="#D"/><use transform="matrix(0.1419753086419752,0,0,0.1419753086419752,249.73456790123439,0)" xlink:href="#J"/><use transform="matrix(0.1419753086419752,0,0,0.1419753086419752,278.12962962962945,0)" xlink:href="#Z"/></g><path fill="#333" d="M194 0L95-120 63-95V0H30v-248h33v124l119-124h40L117-140 236 0h-42" id="av"/><path fill="#333" d="M141-36C126-15 110 5 73 4 37 3 15-17 15-53c-1-64 63-63 125-63 3-35-9-54-41-54-24 1-41 7-42 31l-33-3c5-37 33-52 76-52 45 0 72 20 72 64v82c-1 20 7 32 28 27v20c-31 9-61-2-59-35zM48-53c0 20 12 33 32 33 41-3 63-29 60-74-43 2-92-5-92 41zm70-161v-33h29v33h-29zm-69 0v-33h29v33H49" id="aw"/><g id="p"><use transform="matrix(0.1419753086419752,0,0,0.1419753086419752,0,0)" xlink:href="#M"/><use transform="matrix(0.1419753086419752,0,0,0.1419753086419752,14.19753086419752,0)" xlink:href="#av"/><use transform="matrix(0.1419753086419752,0,0,0.1419753086419752,48.271604938271565,0)" xlink:href="#aw"/><use transform="matrix(0.1419753086419752,0,0,0.1419753086419752,76.6666666666666,0)" xlink:href="#E"/><use transform="matrix(0.1419753086419752,0,0,0.1419753086419752,102.22222222222214,0)" xlink:href="#E"/><use transform="matrix(0.1419753086419752,0,0,0.1419753086419752,127.77777777777769,0)" xlink:href="#z"/><use transform="matrix(0.1419753086419752,0,0,0.1419753086419752,170.22839506172826,0)" xlink:href="#J"/><use transform="matrix(0.1419753086419752,0,0,0.1419753086419752,198.6234567901233,0)" xlink:href="#K"/><use transform="matrix(0.1419753086419752,0,0,0.1419753086419752,227.01851851851833,0)" xlink:href="#K"/><use transform="matrix(0.1419753086419752,0,0,0.1419753086419752,255.41358024691337,0)" xlink:href="#P"/></g><path d="M194 0L95-120 63-95V0H30v-248h33v124l119-124h40L117-140 236 0h-42" id="ax"/><path d="M101-234c-31-9-42 10-38 44h38v23H63V0H32v-167H5v-23h27c-7-52 17-82 69-68v24" id="ay"/><path d="M143 0L79-87 56-68V0H24v-261h32v163l83-92h37l-77 82L181 0h-38" id="az"/><g id="q"><use transform="matrix(0.10493827160493824,0,0,0.10493827160493824,0,0)" xlink:href="#ax"/><use transform="matrix(0.10493827160493824,0,0,0.10493827160493824,25.185185185185176,0)" xlink:href="#ai"/><use transform="matrix(0.10493827160493824,0,0,0.10493827160493824,46.17283950617282,0)" xlink:href="#ay"/><use transform="matrix(0.10493827160493824,0,0,0.10493827160493824,56.66666666666665,0)" xlink:href="#az"/><use transform="matrix(0.10493827160493824,0,0,0.10493827160493824,75.55555555555553,0)" xlink:href="#ai"/></g><path d="M212-179c-10-28-35-45-73-45-59 0-87 40-87 99 0 60 29 101 89 101 43 0 62-24 78-52l27 14C228-24 195 4 139 4 59 4 22-46 18-125c-6-104 99-153 187-111 19 9 31 26 39 46" id="aA"/><path d="M100-194c62-1 85 37 85 99 1 63-27 99-86 99S16-35 15-95c0-66 28-99 85-99zM99-20c44 1 53-31 53-75 0-43-8-75-51-75s-53 32-53 75 10 74 51 75" id="aB"/><path d="M135-143c-3-34-86-38-87 0 15 53 115 12 119 90S17 21 10-45l28-5c4 36 97 45 98 0-10-56-113-15-118-90-4-57 82-63 122-42 12 7 21 19 24 35" id="aC"/><path d="M84 4C-5 8 30-112 23-190h32v120c0 31 7 50 39 49 72-2 45-101 50-169h31l1 190h-30c-1-10 1-25-2-33-11 22-28 36-60 37" id="aD"/><path d="M210-169c-67 3-38 105-44 169h-31v-121c0-29-5-50-35-48C34-165 62-65 56 0H25l-1-190h30c1 10-1 24 2 32 10-44 99-50 107 0 11-21 27-35 58-36 85-2 47 119 55 194h-31v-121c0-29-5-49-35-48" id="aE"/><path d="M100-194c63 0 86 42 84 106H49c0 40 14 67 53 68 26 1 43-12 49-29l28 8c-11 28-37 45-77 45C44 4 14-33 15-96c1-61 26-98 85-98zm52 81c6-60-76-77-97-28-3 7-6 17-6 28h103" id="aF"/><g id="r"><use transform="matrix(0.10493827160493824,0,0,0.10493827160493824,0,0)" xlink:href="#aA"/><use transform="matrix(0.10493827160493824,0,0,0.10493827160493824,27.179012345679002,0)" xlink:href="#aB"/><use transform="matrix(0.10493827160493824,0,0,0.10493827160493824,48.16666666666665,0)" xlink:href="#af"/><use transform="matrix(0.10493827160493824,0,0,0.10493827160493824,69.1543209876543,0)" xlink:href="#aC"/><use transform="matrix(0.10493827160493824,0,0,0.10493827160493824,88.04320987654319,0)" xlink:href="#aD"/><use transform="matrix(0.10493827160493824,0,0,0.10493827160493824,109.03086419753083,0)" xlink:href="#aE"/><use transform="matrix(0.10493827160493824,0,0,0.10493827160493824,140.40740740740736,0)" xlink:href="#aF"/><use transform="matrix(0.10493827160493824,0,0,0.10493827160493824,161.395061728395,0)" xlink:href="#ad"/></g><path fill="#333" d="M205 0l-28-72H64L36 0H1l101-248h38L239 0h-34zm-38-99l-47-123c-12 45-31 82-46 123h93" id="aG"/><path fill="#333" d="M179-190L93 31C79 59 56 82 12 73V49c39 6 53-20 64-50L1-190h34L92-34l54-156h33" id="aH"/><g id="s"><use transform="matrix(0.1419753086419752,0,0,0.1419753086419752,0,0)" xlink:href="#aG"/><use transform="matrix(0.1419753086419752,0,0,0.1419753086419752,34.07407407407405,0)" xlink:href="#K"/><use transform="matrix(0.1419753086419752,0,0,0.1419753086419752,62.46913580246908,0)" xlink:href="#J"/><use transform="matrix(0.1419753086419752,0,0,0.1419753086419752,90.86419753086412,0)" xlink:href="#Z"/><use transform="matrix(0.1419753086419752,0,0,0.1419753086419752,102.08024691358015,0)" xlink:href="#aH"/><use transform="matrix(0.1419753086419752,0,0,0.1419753086419752,127.63580246913568,0)" xlink:href="#L"/><use transform="matrix(0.1419753086419752,0,0,0.1419753086419752,141.8333333333332,0)" xlink:href="#A"/><use transform="matrix(0.1419753086419752,0,0,0.1419753086419752,153.04938271604925,0)" xlink:href="#B"/><use transform="matrix(0.1419753086419752,0,0,0.1419753086419752,178.6049382716048,0)" xlink:href="#E"/></g><path fill="#333" d="M160-131c35 5 61 23 61 61C221 17 115-2 30 0v-248c76 3 177-17 177 60 0 33-19 50-47 57zm-97-11c50-1 110 9 110-42 0-47-63-36-110-37v79zm0 115c55-2 124 14 124-45 0-56-70-42-124-44v89" id="aI"/><g id="t"><use transform="matrix(0.1419753086419752,0,0,0.1419753086419752,0,0)" xlink:href="#aI"/><use transform="matrix(0.1419753086419752,0,0,0.1419753086419752,34.07407407407405,0)" xlink:href="#J"/><use transform="matrix(0.1419753086419752,0,0,0.1419753086419752,62.46913580246908,0)" xlink:href="#K"/><use transform="matrix(0.1419753086419752,0,0,0.1419753086419752,90.86419753086412,0)" xlink:href="#ap"/><use transform="matrix(0.1419753086419752,0,0,0.1419753086419752,116.41975308641966,0)" xlink:href="#aG"/><use transform="matrix(0.1419753086419752,0,0,0.1419753086419752,150.4938271604937,0)" xlink:href="#B"/><use transform="matrix(0.1419753086419752,0,0,0.1419753086419752,176.04938271604928,0)" xlink:href="#B"/><use transform="matrix(0.1419753086419752,0,0,0.1419753086419752,201.6049382716048,0)" xlink:href="#D"/><use transform="matrix(0.1419753086419752,0,0,0.1419753086419752,229.99999999999983,0)" xlink:href="#ak"/><use transform="matrix(0.1419753086419752,0,0,0.1419753086419752,258.39506172839486,0)" xlink:href="#K"/><use transform="matrix(0.1419753086419752,0,0,0.1419753086419752,286.7901234567899,0)" xlink:href="#L"/></g><path fill="#333" d="M141 0L90-78 38 0H4l68-98-65-92h35l48 74 47-74h35l-64 92 68 98h-35" id="aJ"/><g id="u"><use transform="matrix(0.1419753086419752,0,0,0.1419753086419752,0,0)" xlink:href="#y"/><use transform="matrix(0.1419753086419752,0,0,0.1419753086419752,29.81481481481479,0)" xlink:href="#y"/><use transform="matrix(0.1419753086419752,0,0,0.1419753086419752,59.62962962962958,0)" xlink:href="#F"/><use transform="matrix(0.1419753086419752,0,0,0.1419753086419752,88.02469135802461,0)" xlink:href="#aJ"/><use transform="matrix(0.1419753086419752,0,0,0.1419753086419752,113.58024691358014,0)" xlink:href="#L"/><use transform="matrix(0.1419753086419752,0,0,0.1419753086419752,127.77777777777766,0)" xlink:href="#F"/><use transform="matrix(0.1419753086419752,0,0,0.1419753086419752,156.17283950617272,0)" xlink:href="#C"/><use transform="matrix(0.1419753086419752,0,0,0.1419753086419752,173.06790123456773,0)" xlink:href="#K"/><use transform="matrix(0.1419753086419752,0,0,0.1419753086419752,201.46296296296276,0)" xlink:href="#J"/><use transform="matrix(0.1419753086419752,0,0,0.1419753086419752,229.8580246913578,0)" xlink:href="#Z"/></g><g id="v"><use transform="matrix(0.1419753086419752,0,0,0.1419753086419752,0,0)" xlink:href="#E"/><use transform="matrix(0.1419753086419752,0,0,0.1419753086419752,25.555555555555536,0)" xlink:href="#aH"/><use transform="matrix(0.1419753086419752,0,0,0.1419753086419752,51.11111111111107,0)" xlink:href="#E"/><use transform="matrix(0.1419753086419752,0,0,0.1419753086419752,76.6666666666666,0)" xlink:href="#L"/><use transform="matrix(0.1419753086419752,0,0,0.1419753086419752,90.86419753086412,0)" xlink:href="#F"/><use transform="matrix(0.1419753086419752,0,0,0.1419753086419752,119.25925925925915,0)" xlink:href="#z"/><use transform="matrix(0.1419753086419752,0,0,0.1419753086419752,161.70987654320973,0)" xlink:href="#H"/><use transform="matrix(0.1419753086419752,0,0,0.1419753086419752,191.5246913580245,0)" xlink:href="#H"/></g><path fill="#333" d="M190 0L58-211 59 0H30v-248h39L202-35l-2-213h31V0h-41" id="aK"/><g id="w"><use transform="matrix(0.1419753086419752,0,0,0.1419753086419752,0,0)" xlink:href="#aK"/><use transform="matrix(0.1419753086419752,0,0,0.1419753086419752,36.77160493827157,0)" xlink:href="#ak"/><use transform="matrix(0.1419753086419752,0,0,0.1419753086419752,65.16666666666661,0)" xlink:href="#L"/><use transform="matrix(0.1419753086419752,0,0,0.1419753086419752,79.36419753086413,0)" xlink:href="#C"/><use transform="matrix(0.1419753086419752,0,0,0.1419753086419752,96.25925925925918,0)" xlink:href="#A"/><use transform="matrix(0.1419753086419752,0,0,0.1419753086419752,107.47530864197522,0)" xlink:href="#L"/><use transform="matrix(0.1419753086419752,0,0,0.1419753086419752,121.67283950617274,0)" xlink:href="#A"/><use transform="matrix(0.1419753086419752,0,0,0.1419753086419752,132.88888888888877,0)" xlink:href="#D"/><use transform="matrix(0.1419753086419752,0,0,0.1419753086419752,161.2839506172838,0)" xlink:href="#K"/><use transform="matrix(0.1419753086419752,0,0,0.1419753086419752,189.67901234567884,0)" xlink:href="#aq"/><use transform="matrix(0.1419753086419752,0,0,0.1419753086419752,223.7530864197529,0)" xlink:href="#C"/><use transform="matrix(0.1419753086419752,0,0,0.1419753086419752,240.64814814814792,0)" xlink:href="#D"/><use transform="matrix(0.1419753086419752,0,0,0.1419753086419752,269.04320987654296,0)" xlink:href="#G"/><use transform="matrix(0.1419753086419752,0,0,0.1419753086419752,294.5987654320985,0)" xlink:href="#A"/><use transform="matrix(0.1419753086419752,0,0,0.1419753086419752,305.81481481481455,0)" xlink:href="#ar"/><use transform="matrix(0.1419753086419752,0,0,0.1419753086419752,334.2098765432096,0)" xlink:href="#F"/><use transform="matrix(0.1419753086419752,0,0,0.1419753086419752,362.6049382716046,0)" xlink:href="#C"/></g></defs></g></svg>